<?xml version="1.0" encoding="UTF-8" standalone="no"?>
<!DOCTYPE svg PUBLIC "-//W3C//DTD SVG 20010904//EN"
              "http://www.w3.org/TR/2001/REC-SVG-20010904/DTD/svg10.dtd">

<svg xmlns="http://www.w3.org/2000/svg"
     width="28.9861in" height="15.9028in"
     viewBox="0 0 2087 1145">
  <path id="Selection"
        fill="#191919" stroke="none" stroke-width="0"
        d="M 1141.14,900.36
           C 1141.14,900.36 1158.00,909.53 1158.00,909.53
             1158.00,909.53 1169.00,911.63 1169.00,911.63
             1169.00,911.63 1176.00,914.55 1176.00,914.55
             1176.00,914.55 1202.00,925.69 1202.00,925.69
             1209.82,929.29 1221.83,935.01 1227.79,941.18
             1234.47,948.11 1238.63,964.80 1231.35,972.57
             1228.16,975.99 1217.63,977.94 1213.00,978.00
             1209.46,978.04 1196.71,977.17 1199.17,984.02
             1199.95,986.21 1210.32,997.03 1212.66,1000.00
             1217.54,1006.18 1220.92,1022.61 1217.64,1029.98
             1213.52,1039.23 1205.26,1036.06 1199.00,1037.39
             1199.00,1037.39 1185.00,1041.67 1185.00,1041.67
             1176.40,1042.98 1168.64,1038.61 1161.00,1035.71
             1161.00,1035.71 1142.04,1029.28 1142.04,1029.28
             1142.04,1029.28 1132.00,1019.81 1132.00,1019.81
             1132.00,1019.81 1096.00,993.87 1096.00,993.87
             1096.00,993.87 1071.00,980.69 1071.00,980.69
             1071.00,980.69 1059.00,973.76 1059.00,973.76
             1059.00,973.76 1045.00,970.06 1045.00,970.06
             1037.57,967.42 1026.94,962.75 1019.00,962.17
             1019.00,962.17 1012.00,962.17 1012.00,962.17
             1012.00,962.17 993.00,957.33 993.00,957.33
             993.00,957.33 962.00,956.09 962.00,956.09
             962.00,956.09 953.00,957.78 953.00,957.78
             953.00,957.78 943.00,957.19 943.00,957.19
             943.00,957.19 934.00,958.54 934.00,958.54
             934.00,958.54 924.00,957.38 924.00,957.38
             924.00,957.38 891.00,961.37 891.00,961.37
             891.00,961.37 884.00,963.23 884.00,963.23
             884.00,963.23 875.00,963.23 875.00,963.23
             875.00,963.23 863.00,967.48 863.00,967.48
             863.00,967.48 849.00,968.76 849.00,968.76
             849.00,968.76 832.00,974.98 832.00,974.98
             832.00,974.98 825.00,974.98 825.00,974.98
             825.00,974.98 806.00,978.30 806.00,978.30
             806.00,978.30 795.00,982.61 795.00,982.61
             795.00,982.61 783.00,983.29 783.00,983.29
             783.00,983.29 770.04,986.16 770.04,986.16
             770.04,986.16 750.00,989.31 750.00,989.31
             750.00,989.31 738.00,992.54 738.00,992.54
             738.00,992.54 724.00,994.30 724.00,994.30
             724.00,994.30 704.00,998.00 704.00,998.00
             697.17,999.46 686.57,1003.28 680.00,1002.82
             676.51,1002.57 674.98,1001.86 671.00,1002.09
             660.17,1002.71 659.85,1005.98 647.00,1006.00
             647.00,1006.00 630.00,1007.00 630.00,1007.00
             630.00,1007.00 612.00,1006.00 612.00,1006.00
             612.00,1006.00 601.00,1006.00 601.00,1006.00
             601.00,1006.00 567.00,1002.54 567.00,1002.54
             567.00,1002.54 558.00,1000.32 558.00,1000.32
             552.69,999.45 550.33,1000.77 544.00,998.96
             544.00,998.96 524.00,991.74 524.00,991.74
             522.03,991.11 517.73,989.65 515.77,990.19
             510.62,991.61 511.01,998.84 511.00,1003.00
             510.98,1017.83 509.31,1019.26 507.42,1033.00
             507.42,1033.00 506.49,1042.00 506.49,1042.00
             504.75,1050.46 501.77,1057.05 502.02,1066.00
             502.28,1075.76 510.49,1087.78 509.81,1096.00
             509.36,1101.43 507.30,1107.51 501.00,1107.85
             495.68,1108.14 492.73,1105.15 489.00,1102.02
             487.30,1100.59 484.84,1098.09 482.67,1099.74
             479.49,1101.83 481.37,1106.63 482.67,1109.00
             485.68,1113.39 490.25,1116.31 491.83,1119.17
             492.80,1120.94 493.01,1123.01 492.80,1125.00
             492.08,1131.58 487.66,1132.25 482.00,1131.96
             475.29,1131.61 473.90,1128.61 469.00,1127.88
             464.21,1127.16 455.42,1131.44 450.51,1126.49
             445.12,1121.06 452.53,1114.23 448.60,1105.00
             437.28,1078.40 430.95,1060.45 431.00,1031.00
             431.00,1031.00 432.05,1019.00 432.05,1019.00
             432.05,1019.00 432.05,1010.00 432.05,1010.00
             432.69,1005.95 434.46,1002.88 435.51,999.00
             435.51,999.00 441.14,977.00 441.14,977.00
             441.14,977.00 447.92,958.00 447.92,958.00
             447.92,958.00 451.80,943.00 451.80,943.00
             451.80,943.00 454.39,934.00 454.39,934.00
             454.52,931.03 452.61,928.55 451.37,926.00
             449.54,922.24 446.36,914.12 443.37,911.37
             439.89,908.17 437.41,912.20 433.00,913.49
             429.10,914.63 422.99,913.48 419.00,912.74
             419.00,912.74 411.00,911.17 411.00,911.17
             411.00,911.17 403.00,910.56 403.00,910.56
             403.00,910.56 388.00,907.32 388.00,907.32
             388.00,907.32 375.00,905.49 375.00,905.49
             375.00,905.49 365.00,901.62 365.00,901.62
             357.17,899.21 352.79,899.10 345.00,894.66
             335.04,888.99 323.20,871.33 321.30,860.00
             321.30,860.00 319.17,846.00 319.17,846.00
             318.40,838.33 320.17,833.66 311.96,828.27
             309.17,826.44 306.01,825.29 303.00,823.89
             286.11,816.03 282.72,816.58 266.00,812.33
             266.00,812.33 254.00,808.43 254.00,808.43
             241.62,805.55 232.95,804.28 221.00,798.51
             212.18,794.25 212.29,789.73 206.82,784.17
             203.32,780.62 194.45,774.58 190.00,771.35
             181.06,764.84 179.38,768.99 171.17,762.96
             171.17,762.96 133.32,730.71 133.32,730.71
             133.32,730.71 122.63,716.00 122.63,716.00
             122.63,716.00 106.21,697.00 106.21,697.00
             106.21,697.00 101.37,690.00 101.37,690.00
             101.37,690.00 93.49,680.00 93.49,680.00
             93.49,680.00 82.63,667.28 82.63,667.28
             82.63,667.28 62.30,645.91 62.30,645.91
             60.57,643.45 58.95,639.82 57.82,637.00
             51.71,621.73 51.97,608.87 48.08,595.00
             48.08,595.00 40.77,576.00 40.77,576.00
             38.06,567.18 39.68,563.33 38.62,558.00
             38.62,558.00 34.67,544.00 34.67,544.00
             34.67,544.00 33.09,517.00 33.09,517.00
             33.90,505.26 37.89,502.76 39.53,494.00
             40.92,486.60 38.91,480.37 42.61,471.00
             42.61,471.00 51.43,453.00 51.43,453.00
             51.43,453.00 57.21,425.00 57.21,425.00
             57.21,425.00 60.31,415.00 60.31,415.00
             60.31,415.00 62.48,405.00 62.48,405.00
             62.48,405.00 67.86,388.00 67.86,388.00
             67.86,388.00 88.26,341.00 88.26,341.00
             88.26,341.00 101.63,317.00 101.63,317.00
             101.63,317.00 114.37,291.00 114.37,291.00
             114.37,291.00 117.89,283.00 117.89,283.00
             117.89,283.00 134.54,256.00 134.54,256.00
             134.54,256.00 143.23,240.00 143.23,240.00
             143.23,240.00 150.96,230.00 150.96,230.00
             164.65,210.90 178.69,191.84 195.17,175.00
             207.49,162.41 222.70,152.12 237.00,141.96
             237.00,141.96 252.00,130.55 252.00,130.55
             252.00,130.55 261.00,125.31 261.00,125.31
             261.00,125.31 282.00,109.13 282.00,109.13
             282.00,109.13 305.00,97.74 305.00,97.74
             305.00,97.74 318.00,90.77 318.00,90.77
             318.00,90.77 327.00,85.41 327.00,85.41
             327.00,85.41 337.00,82.46 337.00,82.46
             337.00,82.46 355.00,75.54 355.00,75.54
             355.00,75.54 368.00,69.60 368.00,69.60
             368.00,69.60 378.00,67.38 378.00,67.38
             378.00,67.38 385.00,64.77 385.00,64.77
             385.00,64.77 413.00,56.49 413.00,56.49
             413.00,56.49 444.00,49.50 444.00,49.50
             444.00,49.50 460.00,44.20 460.00,44.20
             460.00,44.20 477.00,40.42 477.00,40.42
             477.00,40.42 506.00,35.98 506.00,35.98
             506.00,35.98 514.00,35.98 514.00,35.98
             519.16,34.98 521.00,32.08 526.00,30.72
             526.00,30.72 536.00,29.37 536.00,29.37
             536.00,29.37 549.00,25.45 549.00,25.45
             549.00,25.45 558.00,21.93 558.00,21.93
             558.00,21.93 573.00,19.00 573.00,19.00
             573.00,19.00 582.00,19.00 582.00,19.00
             582.00,19.00 592.00,18.00 592.00,18.00
             592.00,18.00 613.00,19.00 613.00,19.00
             624.71,19.13 619.32,19.33 629.00,21.63
             632.14,22.37 633.65,22.08 637.00,23.53
             641.79,25.60 644.11,28.74 651.00,31.55
             651.00,31.55 676.00,39.51 676.00,39.51
             676.00,39.51 685.00,41.49 685.00,41.49
             685.00,41.49 703.00,47.53 703.00,47.53
             703.00,47.53 723.00,51.66 723.00,51.66
             723.00,51.66 732.00,54.51 732.00,54.51
             732.00,54.51 773.00,64.92 773.00,64.92
             773.00,64.92 781.00,67.49 781.00,67.49
             781.00,67.49 790.00,69.44 790.00,69.44
             790.00,69.44 809.00,74.54 809.00,74.54
             809.00,74.54 848.00,80.30 848.00,80.30
             848.00,80.30 861.00,82.94 861.00,82.94
             861.00,82.94 871.00,82.94 871.00,82.94
             871.00,82.94 893.00,86.62 893.00,86.62
             893.00,86.62 905.00,89.55 905.00,89.55
             905.00,89.55 934.00,94.66 934.00,94.66
             934.00,94.66 960.00,100.56 960.00,100.56
             960.00,100.56 982.00,102.09 982.00,102.09
             982.00,102.09 993.00,103.92 993.00,103.92
             993.00,103.92 1009.00,103.92 1009.00,103.92
             1009.00,103.92 1025.00,105.96 1025.00,105.96
             1025.00,105.96 1033.00,105.96 1033.00,105.96
             1033.00,105.96 1055.00,108.17 1055.00,108.17
             1055.00,108.17 1086.00,112.72 1086.00,112.72
             1086.00,112.72 1110.00,115.15 1110.00,115.15
             1110.00,115.15 1128.00,117.96 1128.00,117.96
             1128.00,117.96 1138.00,117.96 1138.00,117.96
             1138.00,117.96 1167.00,120.09 1167.00,120.09
             1167.00,120.09 1182.00,121.95 1182.00,121.95
             1182.00,121.95 1205.00,121.95 1205.00,121.95
             1205.00,121.95 1215.00,121.04 1215.00,121.04
             1215.00,121.04 1225.00,121.04 1225.00,121.04
             1225.00,121.04 1240.00,120.01 1240.00,120.01
             1240.00,120.01 1251.00,120.82 1251.00,120.82
             1251.00,120.82 1263.00,120.00 1263.00,120.00
             1263.00,120.00 1280.00,120.96 1280.00,120.96
             1280.00,120.96 1297.00,118.96 1297.00,118.96
             1297.00,118.96 1306.00,118.96 1306.00,118.96
             1306.00,118.96 1317.00,117.77 1317.00,117.77
             1317.00,117.77 1329.00,117.77 1329.00,117.77
             1329.00,117.77 1344.00,117.00 1344.00,117.00
             1354.26,116.88 1356.48,114.31 1362.00,113.33
             1372.37,111.48 1391.79,109.14 1401.00,105.54
             1401.00,105.54 1414.00,99.45 1414.00,99.45
             1414.00,99.45 1439.00,91.56 1439.00,91.56
             1451.51,87.84 1458.47,84.85 1472.00,85.00
             1472.00,85.00 1483.00,85.66 1483.00,85.66
             1487.01,85.26 1492.95,82.87 1497.00,81.74
             1497.00,81.74 1525.00,74.74 1525.00,74.74
             1525.00,74.74 1539.00,72.11 1539.00,72.11
             1539.00,72.11 1554.00,68.28 1554.00,68.28
             1554.00,68.28 1568.00,66.54 1568.00,66.54
             1581.08,64.22 1603.27,59.15 1616.00,59.00
             1616.00,59.00 1631.00,59.00 1631.00,59.00
             1631.00,59.00 1644.00,58.09 1644.00,58.09
             1644.00,58.09 1652.00,58.98 1652.00,58.98
             1652.00,58.98 1672.00,58.98 1672.00,58.98
             1672.00,58.98 1684.00,58.18 1684.00,58.18
             1684.00,58.18 1691.00,58.96 1691.00,58.96
             1691.00,58.96 1706.00,58.96 1706.00,58.96
             1718.26,59.02 1719.26,60.35 1730.00,64.54
             1733.08,65.74 1737.31,66.50 1739.96,68.09
             1742.78,69.78 1744.64,72.48 1747.08,74.63
             1754.84,81.44 1762.16,88.81 1768.50,97.00
             1768.50,97.00 1780.75,115.00 1780.75,115.00
             1780.75,115.00 1793.53,133.00 1793.53,133.00
             1801.25,145.53 1810.24,166.06 1815.53,180.00
             1815.53,180.00 1826.01,217.00 1826.01,217.00
             1826.01,217.00 1830.22,230.00 1830.22,230.00
             1830.22,230.00 1832.23,242.00 1832.23,242.00
             1833.77,248.68 1837.15,264.64 1836.68,271.00
             1835.38,288.40 1838.46,286.33 1840.70,302.00
             1841.23,305.67 1840.26,310.86 1844.15,312.94
             1847.10,314.52 1851.15,312.49 1854.00,311.42
             1854.00,311.42 1875.00,304.58 1875.00,304.58
             1875.00,304.58 1897.00,297.81 1897.00,297.81
             1909.00,295.35 1908.84,296.75 1918.00,295.83
             1918.00,295.83 1934.00,293.83 1934.00,293.83
             1934.00,293.83 1956.00,291.00 1956.00,291.00
             1956.00,291.00 1972.00,291.00 1972.00,291.00
             1972.00,291.00 1987.00,292.00 1987.00,292.00
             1987.00,292.00 1991.00,292.00 1991.00,292.00
             2001.20,292.12 2016.92,295.73 2026.00,300.27
             2026.00,300.27 2037.00,306.72 2037.00,306.72
             2042.28,309.76 2050.47,314.50 2055.00,318.32
             2057.48,320.41 2060.14,323.16 2061.72,326.00
             2063.90,329.91 2066.96,341.91 2064.82,345.96
             2061.70,351.88 2055.16,351.18 2050.00,352.79
             2046.15,353.99 2036.16,359.72 2033.00,362.33
             2033.00,362.33 2018.00,376.56 2018.00,376.56
             2018.00,376.56 1993.00,394.40 1993.00,394.40
             1993.00,394.40 1971.00,406.31 1971.00,406.31
             1971.00,406.31 1959.00,413.69 1959.00,413.69
             1959.00,413.69 1939.00,423.26 1939.00,423.26
             1939.00,423.26 1923.00,432.68 1923.00,432.68
             1923.00,432.68 1901.00,443.69 1901.00,443.69
             1894.88,447.00 1882.52,453.03 1876.00,454.57
             1870.90,455.78 1859.61,457.83 1856.69,462.13
             1853.68,466.34 1857.50,473.89 1856.69,479.00
             1856.21,482.87 1852.94,487.12 1851.35,491.00
             1851.35,491.00 1847.78,505.00 1847.78,505.00
             1847.78,505.00 1837.96,537.00 1837.96,537.00
             1837.96,537.00 1834.68,545.00 1834.68,545.00
             1834.68,545.00 1832.15,558.00 1832.15,558.00
             1832.15,558.00 1824.46,575.00 1824.46,575.00
             1824.46,575.00 1817.57,597.00 1817.57,597.00
             1817.57,597.00 1810.95,610.00 1810.95,610.00
             1810.95,610.00 1806.81,625.00 1806.81,625.00
             1806.81,625.00 1799.98,636.00 1799.98,636.00
             1799.98,636.00 1791.94,652.91 1791.94,652.91
             1791.94,652.91 1784.60,662.00 1784.60,662.00
             1784.60,662.00 1780.38,669.00 1780.38,669.00
             1780.38,669.00 1774.21,677.00 1774.21,677.00
             1774.21,677.00 1765.26,691.00 1765.26,691.00
             1765.26,691.00 1756.06,705.00 1756.06,705.00
             1756.06,705.00 1752.19,712.00 1752.19,712.00
             1750.50,714.60 1746.51,718.28 1745.96,721.00
             1745.32,724.24 1748.07,726.80 1750.00,729.00
             1753.08,732.50 1756.22,736.15 1756.75,741.00
             1757.15,744.63 1755.22,753.16 1754.45,757.00
             1754.45,757.00 1751.53,775.00 1751.53,775.00
             1751.53,775.00 1744.93,789.00 1744.93,789.00
             1744.93,789.00 1740.17,804.00 1740.17,804.00
             1737.96,808.32 1735.85,809.70 1733.84,813.00
             1733.84,813.00 1728.39,825.00 1728.39,825.00
             1728.39,825.00 1719.10,837.00 1719.10,837.00
             1719.10,837.00 1712.51,848.79 1712.51,848.79
             1710.08,851.66 1707.42,852.20 1703.48,857.02
             1703.48,857.02 1696.79,866.83 1696.79,866.83
             1690.71,873.61 1683.81,880.24 1676.83,886.10
             1676.83,886.10 1670.09,891.32 1670.09,891.32
             1666.52,894.54 1665.25,897.54 1661.83,900.04
             1661.83,900.04 1650.00,906.31 1650.00,906.31
             1650.00,906.31 1637.00,914.10 1637.00,914.10
             1637.00,914.10 1627.00,917.82 1627.00,917.82
             1627.00,917.82 1608.00,927.90 1608.00,927.90
             1608.00,927.90 1594.00,931.10 1594.00,931.10
             1586.42,933.68 1583.33,938.10 1575.00,940.24
             1567.14,942.26 1565.19,938.99 1558.00,940.76
             1558.00,940.76 1535.00,947.24 1535.00,947.24
             1535.00,947.24 1527.00,948.63 1527.00,948.63
             1527.00,948.63 1518.00,952.22 1518.00,952.22
             1518.00,952.22 1502.00,956.43 1502.00,956.43
             1502.00,956.43 1481.00,963.25 1481.00,963.25
             1481.00,963.25 1466.00,965.83 1466.00,965.83
             1460.54,966.41 1458.35,965.47 1452.00,967.04
             1452.00,967.04 1438.00,971.79 1438.00,971.79
             1438.00,971.79 1402.00,979.18 1402.00,979.18
             1402.00,979.18 1390.00,981.04 1390.00,981.04
             1390.00,981.04 1376.00,985.57 1376.00,985.57
             1376.00,985.57 1364.00,988.67 1364.00,988.67
             1364.00,988.67 1353.00,992.91 1353.00,992.91
             1353.00,992.91 1340.00,996.23 1340.00,996.23
             1325.69,999.66 1328.70,1000.18 1313.00,1000.00
             1304.65,999.90 1292.11,996.79 1284.00,994.42
             1271.67,990.82 1263.35,989.30 1254.21,978.96
             1250.27,974.51 1243.72,956.18 1243.17,950.00
             1242.85,946.37 1244.74,928.46 1245.96,925.00
             1247.48,920.69 1251.70,915.65 1248.40,911.15
             1246.00,907.87 1241.64,907.91 1238.00,907.42
             1221.20,905.18 1218.95,908.28 1207.00,907.99
             1198.44,907.78 1194.59,904.34 1187.00,902.29
             1176.80,899.54 1165.46,899.09 1155.00,897.71
             1147.41,896.71 1146.17,894.72 1138.00,896.00
             1139.04,898.09 1139.22,898.78 1141.14,900.36 Z
           M 561.00,53.08
           C 561.00,53.08 549.00,55.68 549.00,55.68
             543.39,57.62 544.36,58.87 536.00,60.38
             528.64,61.72 525.59,60.77 519.00,61.04
             519.00,61.04 500.00,63.47 500.00,63.47
             500.00,63.47 490.00,66.18 490.00,66.18
             490.00,66.18 481.00,67.46 481.00,67.46
             481.00,67.46 465.00,71.63 465.00,71.63
             465.00,71.63 456.00,75.29 456.00,75.29
             456.00,75.29 445.00,76.63 445.00,76.63
             445.00,76.63 438.00,79.07 438.00,79.07
             438.00,79.07 430.00,80.78 430.00,80.78
             430.00,80.78 422.00,83.78 422.00,83.78
             422.00,83.78 402.00,89.75 402.00,89.75
             402.00,89.75 393.00,93.40 393.00,93.40
             393.00,93.40 365.00,101.69 365.00,101.69
             355.41,105.11 343.96,109.56 335.00,114.26
             335.00,114.26 326.00,119.60 326.00,119.60
             326.00,119.60 312.00,126.68 312.00,126.68
             312.00,126.68 304.00,130.36 304.00,130.36
             299.75,132.83 297.77,135.58 294.00,138.39
             294.00,138.39 281.00,146.90 281.00,146.90
             281.00,146.90 273.00,153.20 273.00,153.20
             273.00,153.20 257.00,162.10 257.00,162.10
             257.00,162.10 245.00,171.49 245.00,171.49
             245.00,171.49 235.00,178.47 235.00,178.47
             235.00,178.47 220.00,191.83 220.00,191.83
             215.79,195.57 212.11,197.64 208.18,202.01
             208.18,202.01 196.54,218.00 196.54,218.00
             196.54,218.00 188.30,227.00 188.30,227.00
             183.65,232.42 174.37,244.98 170.56,251.00
             170.56,251.00 166.80,258.00 166.80,258.00
             166.80,258.00 157.87,272.00 157.87,272.00
             157.87,272.00 147.34,292.00 147.34,292.00
             147.34,292.00 135.26,313.00 135.26,313.00
             135.26,313.00 126.74,331.00 126.74,331.00
             126.74,331.00 119.63,343.00 119.63,343.00
             119.63,343.00 114.74,354.00 114.74,354.00
             114.74,354.00 95.54,395.00 95.54,395.00
             95.54,395.00 88.75,417.00 88.75,417.00
             88.75,417.00 87.45,425.00 87.45,425.00
             87.45,425.00 85.09,432.00 85.09,432.00
             85.09,432.00 79.32,458.00 79.32,458.00
             79.32,458.00 78.72,465.00 78.72,465.00
             78.72,465.00 76.96,477.00 76.96,477.00
             76.96,477.00 76.96,487.00 76.96,487.00
             76.96,487.00 73.00,513.00 73.00,513.00
             73.00,513.00 72.34,528.00 72.34,528.00
             72.34,528.00 73.92,540.00 73.92,540.00
             73.92,540.00 77.76,571.00 77.76,571.00
             79.31,577.16 85.14,593.45 87.82,599.00
             87.82,599.00 95.02,612.00 95.02,612.00
             95.02,612.00 102.41,631.00 102.41,631.00
             102.41,631.00 117.10,652.00 117.10,652.00
             117.10,652.00 123.30,663.00 123.30,663.00
             134.43,678.76 151.66,695.20 166.00,708.17
             166.00,708.17 182.01,724.00 182.01,724.00
             182.01,724.00 192.00,732.28 192.00,732.28
             192.00,732.28 212.99,748.51 212.99,748.51
             212.99,748.51 220.17,754.65 220.17,754.65
             220.17,754.65 244.00,767.53 244.00,767.53
             244.00,767.53 253.00,773.59 253.00,773.59
             262.96,779.00 283.74,785.83 295.00,787.92
             295.00,787.92 302.00,787.92 302.00,787.92
             311.20,789.17 315.14,793.22 321.00,794.63
             321.00,794.63 334.00,796.66 334.00,796.66
             334.00,796.66 348.00,800.00 348.00,800.00
             348.00,800.00 359.00,801.92 359.00,801.92
             359.00,801.92 367.00,804.49 367.00,804.49
             367.00,804.49 383.00,808.38 383.00,808.38
             385.12,808.72 387.70,809.12 389.57,807.40
             391.39,805.35 390.28,802.39 389.57,800.00
             388.23,793.29 389.24,793.54 386.39,786.00
             386.39,786.00 378.71,757.00 378.71,757.00
             378.71,757.00 369.32,730.00 369.32,730.00
             369.32,730.00 364.71,711.00 364.71,711.00
             364.71,711.00 354.81,675.00 354.81,675.00
             354.81,675.00 351.92,660.00 351.92,660.00
             351.92,660.00 351.92,649.00 351.92,649.00
             351.92,649.00 349.44,639.00 349.44,639.00
             349.44,639.00 346.76,622.00 346.76,622.00
             346.76,622.00 341.37,601.00 341.37,601.00
             341.37,601.00 340.70,591.00 340.70,591.00
             340.70,591.00 337.28,571.00 337.28,571.00
             337.28,571.00 336.68,561.00 336.68,561.00
             336.68,561.00 335.18,554.00 335.18,554.00
             335.18,554.00 334.00,528.00 334.00,528.00
             334.00,528.00 333.34,517.00 333.34,517.00
             333.34,517.00 334.46,504.00 334.46,504.00
             334.52,501.90 334.00,500.23 334.46,498.00
             334.87,492.53 341.37,485.36 344.70,481.00
             347.64,477.16 349.45,472.50 353.09,469.22
             356.12,466.50 367.88,462.52 372.00,462.38
             372.00,462.38 382.00,464.08 382.00,464.08
             386.73,464.88 392.08,465.21 395.89,468.42
             403.42,474.74 404.26,488.06 405.17,497.00
             405.17,497.00 406.71,506.00 406.71,506.00
             406.71,506.00 409.00,533.00 409.00,533.00
             409.13,544.05 412.86,557.13 414.56,568.00
             414.56,568.00 416.32,587.00 416.32,587.00
             416.32,587.00 418.99,597.00 418.99,597.00
             418.99,597.00 426.77,632.00 426.77,632.00
             426.77,632.00 431.66,666.00 431.66,666.00
             431.66,666.00 438.48,696.00 438.48,696.00
             438.48,696.00 439.53,703.00 439.53,703.00
             439.53,703.00 444.49,722.00 444.49,722.00
             444.49,722.00 445.37,729.00 445.37,729.00
             445.37,729.00 447.70,738.00 447.70,738.00
             447.70,738.00 448.51,745.00 448.51,745.00
             448.51,745.00 451.49,756.00 451.49,756.00
             451.49,756.00 452.17,765.00 452.17,765.00
             452.17,765.00 454.43,776.00 454.43,776.00
             455.25,779.52 457.62,785.00 457.63,788.00
             457.63,788.00 456.13,797.00 456.13,797.00
             455.95,802.04 457.96,808.99 458.70,814.00
             459.59,820.04 461.00,834.64 463.70,839.91
             466.43,844.97 471.12,840.71 474.58,839.91
             476.89,839.62 479.78,840.37 482.00,841.04
             495.00,844.95 511.81,854.32 517.84,867.00
             519.55,870.59 518.73,874.19 519.18,878.00
             519.67,882.11 521.27,885.16 521.27,890.00
             521.28,894.40 516.72,913.43 515.05,918.00
             513.70,921.68 513.06,923.45 511.22,927.00
             507.56,934.04 503.74,937.42 509.56,944.96
             511.59,947.60 514.54,949.80 517.00,952.09
             519.68,954.58 521.87,957.02 525.00,959.03
             531.82,963.42 549.54,966.07 558.00,967.44
             558.00,967.44 569.00,969.93 569.00,969.93
             569.00,969.93 577.00,969.93 577.00,969.93
             577.00,969.93 600.00,972.00 600.00,972.00
             600.00,972.00 617.00,973.08 617.00,973.08
             617.00,973.08 628.00,973.08 628.00,973.08
             628.00,973.08 643.00,974.74 643.00,974.74
             643.00,974.74 652.00,973.17 652.00,973.17
             652.00,973.17 678.00,970.00 678.00,970.00
             678.00,970.00 688.00,970.00 688.00,970.00
             688.00,970.00 746.00,960.63 746.00,960.63
             746.00,960.63 756.00,957.81 756.00,957.81
             756.00,957.81 776.00,954.50 776.00,954.50
             776.00,954.50 796.00,948.12 796.00,948.12
             796.00,948.12 828.00,943.98 828.00,943.98
             828.00,943.98 842.00,939.67 842.00,939.67
             842.00,939.67 863.00,936.08 863.00,936.08
             863.00,936.08 879.00,930.43 879.00,930.43
             881.66,929.97 885.91,930.92 889.00,930.98
             889.00,930.98 904.00,929.91 904.00,929.91
             904.00,929.91 928.00,927.00 928.00,927.00
             928.00,927.00 944.00,927.00 944.00,927.00
             944.00,927.00 960.00,926.00 960.00,926.00
             960.00,926.00 983.00,926.00 983.00,926.00
             992.05,926.01 1021.14,930.11 1030.00,932.38
             1030.00,932.38 1040.00,935.51 1040.00,935.51
             1040.00,935.51 1057.00,938.96 1057.00,938.96
             1057.00,938.96 1065.00,942.69 1065.00,942.69
             1065.00,942.69 1076.00,947.31 1076.00,947.31
             1076.00,947.31 1091.00,954.18 1091.00,954.18
             1097.39,956.49 1109.26,963.63 1115.00,967.59
             1117.61,969.38 1122.53,973.33 1125.85,972.30
             1129.14,971.28 1128.69,967.61 1129.50,965.00
             1131.00,960.25 1139.05,952.71 1134.40,947.70
             1134.40,947.70 1121.00,940.32 1121.00,940.32
             1121.00,940.32 1095.00,925.40 1095.00,925.40
             1095.00,925.40 1085.00,921.99 1085.00,921.99
             1085.00,921.99 1075.00,917.81 1075.00,917.81
             1075.00,917.81 1062.00,912.06 1062.00,912.06
             1062.00,912.06 1052.00,908.66 1052.00,908.66
             1040.33,903.67 1029.26,898.25 1017.00,894.62
             1017.00,894.62 1006.00,892.55 1006.00,892.55
             1006.00,892.55 982.00,887.08 982.00,887.08
             982.00,887.08 972.00,883.90 972.00,883.90
             972.00,883.90 957.00,880.71 957.00,880.71
             957.00,880.71 947.00,877.48 947.00,877.48
             936.93,874.89 924.41,874.12 914.00,874.00
             914.00,874.00 898.00,873.00 898.00,873.00
             898.00,873.00 887.00,873.70 887.00,873.70
             883.47,873.46 882.43,872.05 878.00,872.33
             871.76,872.72 857.28,875.85 852.10,872.84
             843.46,867.81 848.12,852.67 854.11,847.53
             859.48,842.90 863.40,843.03 870.00,843.00
             870.00,843.00 894.00,841.00 894.00,841.00
             894.00,841.00 903.00,842.00 903.00,842.00
             903.00,842.00 913.00,842.00 913.00,842.00
             913.00,842.00 933.00,845.56 933.00,845.56
             933.00,845.56 943.00,846.32 943.00,846.32
             943.00,846.32 965.00,851.78 965.00,851.78
             978.47,855.60 1004.85,863.98 1018.00,863.91
             1018.00,863.91 1043.00,863.91 1043.00,863.91
             1043.00,863.91 1055.00,861.19 1055.00,861.19
             1055.00,861.19 1066.00,862.87 1066.00,862.87
             1066.00,862.87 1074.00,862.87 1074.00,862.87
             1074.00,862.87 1087.00,862.87 1087.00,862.87
             1087.00,862.87 1094.00,864.04 1094.00,864.04
             1094.00,864.04 1104.00,864.04 1104.00,864.04
             1104.00,864.04 1118.00,866.00 1118.00,866.00
             1118.00,866.00 1128.00,866.00 1128.00,866.00
             1128.00,866.00 1155.00,868.33 1155.00,868.33
             1155.00,868.33 1162.00,870.39 1162.00,870.39
             1162.00,870.39 1169.00,871.43 1169.00,871.43
             1171.60,871.78 1181.39,873.82 1182.83,871.43
             1184.24,869.13 1177.36,862.24 1175.90,860.00
             1169.97,850.92 1167.88,839.65 1168.00,829.00
             1168.12,819.41 1174.40,807.54 1173.80,801.00
             1173.42,796.84 1169.55,786.51 1168.21,782.00
             1165.02,771.33 1163.33,763.13 1164.72,752.00
             1165.00,749.76 1164.98,747.10 1165.85,745.04
             1168.19,739.55 1187.79,724.13 1190.15,720.91
             1190.15,720.91 1194.64,713.28 1194.64,713.28
             1194.64,713.28 1211.30,695.00 1211.30,695.00
             1214.62,690.03 1212.99,687.71 1221.30,678.00
             1221.30,678.00 1233.09,665.17 1233.09,665.17
             1233.09,665.17 1239.83,658.96 1239.83,658.96
             1239.83,658.96 1259.61,637.00 1259.61,637.00
             1259.61,637.00 1265.53,628.00 1265.53,628.00
             1265.53,628.00 1271.61,621.00 1271.61,621.00
             1271.61,621.00 1275.46,615.04 1275.46,615.04
             1275.46,615.04 1284.99,604.00 1284.99,604.00
             1289.22,598.61 1291.21,594.63 1294.66,589.00
             1296.26,586.38 1298.99,582.97 1299.54,580.00
             1300.59,574.40 1294.71,570.90 1291.46,567.00
             1287.92,562.74 1285.38,558.42 1280.00,556.09
             1280.00,556.09 1268.00,553.66 1268.00,553.66
             1262.81,551.89 1256.43,545.06 1254.38,540.00
             1249.89,528.93 1264.41,527.89 1267.66,520.00
             1267.66,520.00 1269.21,504.00 1269.21,504.00
             1269.71,500.53 1271.35,497.56 1271.41,494.00
             1271.49,489.29 1269.66,488.13 1270.90,482.00
             1272.78,472.73 1278.97,463.48 1284.56,456.00
             1284.56,456.00 1290.41,447.09 1290.41,447.09
             1290.41,447.09 1295.83,441.83 1295.83,441.83
             1295.83,441.83 1306.00,431.09 1306.00,431.09
             1306.00,431.09 1314.83,423.70 1314.83,423.70
             1319.18,419.58 1322.82,414.68 1326.51,410.00
             1328.97,406.88 1332.75,402.34 1336.04,400.21
             1339.48,397.98 1345.69,396.15 1345.72,391.09
             1345.75,387.16 1339.97,385.24 1337.00,383.75
             1325.11,377.80 1321.55,372.78 1311.00,364.87
             1311.00,364.87 1280.00,341.17 1280.00,341.17
             1276.49,338.31 1272.46,336.11 1269.30,332.83
             1261.87,325.11 1256.61,315.79 1250.64,307.00
             1250.64,307.00 1241.91,296.00 1241.91,296.00
             1241.91,296.00 1231.61,278.00 1231.61,278.00
             1223.81,264.44 1225.83,263.80 1221.79,252.00
             1220.20,247.38 1218.57,241.55 1222.43,237.53
             1227.41,232.35 1233.39,233.98 1239.00,236.76
             1251.17,242.78 1259.90,250.74 1273.00,255.63
             1273.00,255.63 1295.00,263.98 1295.00,263.98
             1295.00,263.98 1318.00,275.17 1318.00,275.17
             1324.69,277.12 1329.33,274.96 1334.00,275.17
             1334.00,275.17 1355.00,279.43 1355.00,279.43
             1373.36,284.58 1408.67,294.40 1427.00,293.99
             1431.38,293.89 1441.40,293.16 1444.61,290.35
             1448.24,287.17 1448.61,281.54 1455.09,275.42
             1457.20,273.43 1461.67,269.46 1464.00,267.97
             1469.63,264.35 1483.26,259.81 1490.00,259.17
             1498.88,258.32 1504.66,261.99 1513.00,261.99
             1513.00,261.99 1526.00,261.01 1526.00,261.01
             1526.00,261.01 1541.00,262.00 1541.00,262.00
             1541.00,262.00 1556.00,262.00 1556.00,262.00
             1556.00,262.00 1566.00,261.18 1566.00,261.18
             1566.00,261.18 1574.00,261.88 1574.00,261.88
             1574.00,261.88 1582.00,261.88 1582.00,261.88
             1582.00,261.88 1590.00,261.88 1590.00,261.88
             1590.00,261.88 1601.00,261.88 1601.00,261.88
             1601.00,261.88 1620.00,264.06 1620.00,264.06
             1620.00,264.06 1630.00,264.06 1630.00,264.06
             1639.44,265.52 1643.26,269.07 1654.00,267.89
             1659.57,267.28 1662.43,263.80 1666.07,259.96
             1666.07,259.96 1682.26,241.00 1682.26,241.00
             1685.03,237.39 1689.57,230.33 1694.95,233.64
             1700.43,237.02 1699.99,242.65 1698.62,248.00
             1695.89,258.68 1688.72,267.41 1681.00,274.99
             1678.66,277.28 1673.78,281.09 1672.78,284.04
             1671.14,288.86 1678.73,299.45 1681.11,304.00
             1681.11,304.00 1689.05,326.00 1689.05,326.00
             1689.05,326.00 1696.08,341.00 1696.08,341.00
             1698.73,347.46 1699.79,354.71 1707.01,357.91
             1713.59,360.83 1721.34,357.19 1728.00,356.29
             1728.00,356.29 1735.00,355.45 1735.00,355.45
             1735.00,355.45 1761.00,342.86 1761.00,342.86
             1761.00,342.86 1795.00,331.19 1795.00,331.19
             1810.72,325.24 1817.36,327.88 1816.98,314.00
             1816.69,302.90 1809.67,300.21 1810.48,292.00
             1811.50,281.72 1814.48,274.51 1813.96,263.00
             1813.61,255.29 1811.14,247.48 1809.52,240.00
             1809.52,240.00 1807.85,230.00 1807.85,230.00
             1807.85,230.00 1803.92,217.00 1803.92,217.00
             1803.92,217.00 1796.57,191.00 1796.57,191.00
             1796.57,191.00 1794.39,183.00 1794.39,183.00
             1794.39,183.00 1789.93,174.00 1789.93,174.00
             1789.93,174.00 1787.07,165.00 1787.07,165.00
             1787.07,165.00 1777.79,148.00 1777.79,148.00
             1777.79,148.00 1766.37,131.00 1766.37,131.00
             1766.37,131.00 1756.53,119.00 1756.53,119.00
             1754.85,116.77 1750.58,109.57 1747.27,111.17
             1744.78,112.37 1744.34,117.56 1744.00,120.00
             1744.00,120.00 1744.00,145.00 1744.00,145.00
             1743.93,150.25 1743.19,159.63 1736.99,161.29
             1735.34,161.74 1733.74,161.32 1732.43,160.26
             1728.55,157.11 1727.38,143.04 1726.84,138.00
             1726.84,138.00 1724.29,122.00 1724.29,122.00
             1724.29,122.00 1723.70,112.00 1723.70,112.00
             1722.98,106.99 1717.67,93.80 1714.51,90.22
             1710.40,85.59 1698.93,85.01 1693.00,85.00
             1693.00,85.00 1655.00,85.00 1655.00,85.00
             1655.00,85.00 1639.00,86.00 1639.00,86.00
             1639.00,86.00 1609.00,86.00 1609.00,86.00
             1603.45,86.01 1590.37,87.35 1585.00,88.51
             1585.00,88.51 1573.00,91.39 1573.00,91.39
             1573.00,91.39 1554.00,94.09 1554.00,94.09
             1554.00,94.09 1545.00,96.34 1545.00,96.34
             1545.00,96.34 1516.00,102.89 1516.00,102.89
             1516.00,102.89 1488.00,111.10 1488.00,111.10
             1488.00,111.10 1457.00,115.63 1457.00,115.63
             1457.00,115.63 1446.00,120.38 1446.00,120.38
             1440.14,122.19 1433.26,121.84 1422.00,126.11
             1422.00,126.11 1399.00,135.43 1399.00,135.43
             1399.00,135.43 1377.00,139.05 1377.00,139.05
             1371.43,140.53 1370.26,142.84 1366.00,144.73
             1361.78,146.60 1354.63,146.99 1350.00,146.96
             1350.00,146.96 1338.00,146.96 1338.00,146.96
             1334.13,146.65 1332.29,145.85 1328.00,146.09
             1328.00,146.09 1321.00,146.91 1321.00,146.91
             1321.00,146.91 1298.00,148.17 1298.00,148.17
             1282.91,149.63 1288.13,151.23 1268.00,151.00
             1268.00,151.00 1253.00,150.00 1253.00,150.00
             1253.00,150.00 1219.00,151.00 1219.00,151.00
             1219.00,151.00 1206.00,151.68 1206.00,151.68
             1206.00,151.68 1196.00,151.00 1196.00,151.00
             1196.00,151.00 1177.00,151.00 1177.00,151.00
             1177.00,151.00 1151.00,148.28 1151.00,148.28
             1151.00,148.28 1128.00,147.00 1128.00,147.00
             1128.00,147.00 1109.00,145.70 1109.00,145.70
             1109.00,145.70 1099.00,143.46 1099.00,143.46
             1099.00,143.46 1078.00,140.71 1078.00,140.71
             1078.00,140.71 1065.00,138.29 1065.00,138.29
             1065.00,138.29 1057.00,137.71 1057.00,137.71
             1057.00,137.71 1034.00,135.01 1034.00,135.01
             1034.00,135.01 1013.00,136.00 1013.00,136.00
             1006.86,135.92 1005.41,134.99 1000.00,134.29
             1000.00,134.29 991.00,133.72 991.00,133.72
             981.81,132.61 976.65,131.02 967.00,131.00
             954.63,130.98 948.38,127.33 937.00,124.60
             937.00,124.60 929.00,123.54 929.00,123.54
             929.00,123.54 908.00,119.08 908.00,119.08
             908.00,119.08 889.00,116.54 889.00,116.54
             889.00,116.54 873.00,113.26 873.00,113.26
             873.00,113.26 860.00,113.26 860.00,113.26
             860.00,113.26 840.00,109.08 840.00,109.08
             840.00,109.08 811.00,104.72 811.00,104.72
             811.00,104.72 792.00,99.60 792.00,99.60
             792.00,99.60 782.00,97.70 782.00,97.70
             782.00,97.70 764.00,90.43 764.00,90.43
             764.00,90.43 752.00,87.96 752.00,87.96
             752.00,87.96 741.00,84.81 741.00,84.81
             741.00,84.81 730.00,83.10 730.00,83.10
             730.00,83.10 696.00,74.11 696.00,74.11
             696.00,74.11 680.00,68.22 680.00,68.22
             680.00,68.22 670.00,65.96 670.00,65.96
             662.22,63.71 654.37,61.07 647.00,57.69
             647.00,57.69 631.00,49.80 631.00,49.80
             631.00,49.80 613.00,48.22 613.00,48.22
             609.85,48.44 608.57,49.46 605.00,49.07
             595.40,48.04 585.70,47.37 576.00,48.29
             566.69,49.86 567.85,51.15 561.00,53.08 Z
           M 593.00,140.37
           C 593.00,140.37 608.00,141.17 608.00,141.17
             608.00,141.17 626.00,144.49 626.00,144.49
             626.00,144.49 633.00,145.39 633.00,145.39
             633.00,145.39 640.00,147.70 640.00,147.70
             640.00,147.70 649.00,149.77 649.00,149.77
             649.00,149.77 668.00,156.35 668.00,156.35
             668.00,156.35 676.00,160.51 676.00,160.51
             676.00,160.51 688.00,165.44 688.00,165.44
             688.00,165.44 696.00,169.63 696.00,169.63
             696.00,169.63 712.00,177.12 712.00,177.12
             723.27,183.09 733.03,190.52 743.00,198.33
             743.00,198.33 752.00,205.18 752.00,205.18
             761.24,213.31 779.61,232.54 787.66,242.17
             787.66,242.17 795.17,253.00 795.17,253.00
             795.17,253.00 804.68,263.09 804.68,263.09
             804.68,263.09 811.51,272.00 811.51,272.00
             811.51,272.00 818.09,283.00 818.09,283.00
             826.68,296.42 835.12,310.42 841.69,325.00
             841.69,325.00 845.45,335.00 845.45,335.00
             845.45,335.00 848.40,342.00 848.40,342.00
             848.40,342.00 851.87,358.00 851.87,358.00
             851.87,358.00 855.91,374.00 855.91,374.00
             858.49,387.74 860.43,411.91 860.22,426.00
             860.22,426.00 860.22,446.00 860.22,446.00
             859.99,453.89 859.41,452.33 858.32,459.00
             858.32,459.00 857.19,476.00 857.19,476.00
             857.19,476.00 857.19,490.00 857.19,490.00
             855.95,502.66 852.15,509.87 851.41,514.00
             850.39,519.31 852.83,522.50 851.41,528.00
             851.41,528.00 839.26,554.00 839.26,554.00
             839.26,554.00 834.01,568.00 834.01,568.00
             834.01,568.00 821.10,590.00 821.10,590.00
             821.10,590.00 815.79,597.00 815.79,597.00
             811.31,603.53 808.83,611.74 801.79,620.00
             789.99,633.86 790.68,629.69 783.04,636.33
             777.98,640.72 777.26,644.47 773.79,647.37
             773.79,647.37 765.00,652.60 765.00,652.60
             765.00,652.60 747.04,666.15 747.04,666.15
             741.17,670.72 739.89,674.29 735.91,677.61
             735.91,677.61 718.00,689.37 718.00,689.37
             718.00,689.37 702.83,704.34 702.83,704.34
             702.83,704.34 685.00,718.51 685.00,718.51
             685.00,718.51 675.00,727.62 675.00,727.62
             675.00,727.62 666.00,733.76 666.00,733.76
             653.45,743.11 653.44,757.11 639.00,755.89
             634.61,755.52 631.71,753.52 628.00,751.42
             620.11,746.97 614.14,742.79 620.70,733.00
             624.14,727.87 633.08,721.79 638.00,717.68
             638.00,717.68 646.00,710.46 646.00,710.46
             646.00,710.46 657.58,701.12 657.58,701.12
             657.58,701.12 669.00,690.67 669.00,690.67
             669.00,690.67 692.00,672.83 692.00,672.83
             692.00,672.83 708.00,657.61 708.00,657.61
             708.00,657.61 722.00,648.61 722.00,648.61
             722.00,648.61 731.00,640.44 731.00,640.44
             731.00,640.44 741.83,631.71 741.83,631.71
             741.83,631.71 748.04,625.62 748.04,625.62
             755.11,619.63 756.55,621.28 761.91,615.95
             761.91,615.95 787.08,586.00 787.08,586.00
             787.08,586.00 796.35,567.00 796.35,567.00
             796.35,567.00 808.68,547.00 808.68,547.00
             814.63,534.49 815.27,528.41 818.91,516.00
             818.91,516.00 824.25,500.00 824.25,500.00
             824.25,500.00 831.00,447.00 831.00,447.00
             831.00,447.00 831.00,428.00 831.00,428.00
             831.00,428.00 829.82,406.00 829.82,406.00
             830.10,401.82 828.15,388.68 827.42,384.00
             827.42,384.00 823.33,360.00 823.33,360.00
             823.33,360.00 819.63,350.00 819.63,350.00
             819.63,350.00 817.87,342.00 817.87,342.00
             817.87,342.00 814.68,335.00 814.68,335.00
             813.53,331.67 813.86,328.71 811.14,322.00
             809.24,317.32 799.01,298.94 796.21,295.00
             796.21,295.00 783.14,278.00 783.14,278.00
             783.14,278.00 772.99,263.00 772.99,263.00
             772.99,263.00 766.52,255.00 766.52,255.00
             766.52,255.00 761.62,248.17 761.62,248.17
             761.62,248.17 755.04,241.96 755.04,241.96
             746.06,232.97 737.42,222.19 727.00,214.79
             727.00,214.79 715.00,208.30 715.00,208.30
             715.00,208.30 704.00,198.96 704.00,198.96
             704.00,198.96 674.00,183.40 674.00,183.40
             674.00,183.40 663.00,179.66 663.00,179.66
             655.44,176.43 648.04,172.41 640.00,170.35
             640.00,170.35 613.00,166.53 613.00,166.53
             606.10,165.24 607.32,163.76 595.00,162.28
             595.00,162.28 574.00,160.71 574.00,160.71
             567.34,159.80 558.76,155.91 554.23,150.90
             548.80,144.89 550.70,139.90 558.00,137.53
             572.10,135.20 580.21,139.00 593.00,140.37 Z
           M 1705.62,772.04
           C 1705.62,772.04 1696.91,782.83 1696.91,782.83
             1696.91,782.83 1679.10,800.00 1679.10,800.00
             1679.10,800.00 1670.82,810.71 1670.82,810.71
             1670.82,810.71 1657.09,823.00 1657.09,823.00
             1657.09,823.00 1648.37,833.00 1648.37,833.00
             1648.37,833.00 1643.47,839.79 1643.47,839.79
             1643.47,839.79 1637.18,845.21 1637.18,845.21
             1630.73,851.56 1625.06,864.90 1620.90,868.79
             1617.27,872.17 1611.76,874.30 1607.04,871.83
             1600.55,868.43 1595.31,857.03 1598.53,850.09
             1600.33,846.20 1605.58,841.67 1608.49,838.00
             1608.49,838.00 1617.46,826.00 1617.46,826.00
             1617.46,826.00 1634.28,807.04 1634.28,807.04
             1634.28,807.04 1644.72,797.00 1644.72,797.00
             1644.72,797.00 1659.32,779.17 1659.32,779.17
             1659.32,779.17 1667.91,771.00 1667.91,771.00
             1667.91,771.00 1678.17,759.00 1678.17,759.00
             1678.17,759.00 1687.76,749.54 1687.76,749.54
             1687.76,749.54 1697.62,737.00 1697.62,737.00
             1697.62,737.00 1711.83,716.00 1711.83,716.00
             1711.83,716.00 1719.54,702.00 1719.54,702.00
             1719.54,702.00 1731.23,686.00 1731.23,686.00
             1731.23,686.00 1737.49,676.00 1737.49,676.00
             1737.49,676.00 1743.39,668.72 1743.39,668.72
             1743.39,668.72 1746.26,663.00 1746.26,663.00
             1746.26,663.00 1753.81,650.00 1753.81,650.00
             1756.74,645.57 1759.88,644.36 1762.89,639.96
             1765.60,636.01 1765.59,633.53 1767.68,630.00
             1767.68,630.00 1779.02,612.00 1779.02,612.00
             1779.02,612.00 1787.23,591.00 1787.23,591.00
             1787.23,591.00 1794.57,576.00 1794.57,576.00
             1794.57,576.00 1798.95,563.00 1798.95,563.00
             1798.95,563.00 1808.46,540.00 1808.46,540.00
             1808.46,540.00 1817.19,512.00 1817.19,512.00
             1817.19,512.00 1824.75,485.00 1824.75,485.00
             1825.22,482.19 1826.64,476.87 1824.75,474.31
             1821.60,469.14 1811.20,474.22 1807.00,475.77
             1795.41,480.06 1784.82,481.03 1773.00,483.45
             1767.41,484.59 1760.61,487.60 1755.00,486.79
             1747.33,485.67 1738.74,474.80 1741.74,467.02
             1744.15,460.79 1757.09,460.17 1763.00,460.01
             1771.31,459.80 1784.19,457.71 1792.00,454.91
             1792.00,454.91 1802.00,450.89 1802.00,450.89
             1802.00,450.89 1821.00,446.22 1821.00,446.22
             1821.00,446.22 1875.00,427.91 1875.00,427.91
             1875.00,427.91 1884.00,423.32 1884.00,423.32
             1884.00,423.32 1918.00,406.31 1918.00,406.31
             1918.00,406.31 1939.00,395.13 1939.00,395.13
             1939.00,395.13 1961.00,381.46 1961.00,381.46
             1961.00,381.46 1977.00,372.54 1977.00,372.54
             1977.00,372.54 1985.00,366.62 1985.00,366.62
             1985.00,366.62 1995.00,361.02 1995.00,361.02
             1995.00,361.02 2005.91,352.68 2005.91,352.68
             2005.91,352.68 2011.17,347.38 2011.17,347.38
             2011.17,347.38 2020.00,340.91 2020.00,340.91
             2023.08,338.42 2030.05,333.75 2027.92,329.10
             2026.74,326.53 2022.43,324.37 2020.00,323.00
             2012.28,318.64 2001.82,317.01 1993.00,317.00
             1993.00,317.00 1975.00,316.00 1975.00,316.00
             1975.00,316.00 1960.00,316.00 1960.00,316.00
             1953.56,316.01 1946.31,317.14 1940.00,318.51
             1940.00,318.51 1931.00,320.85 1931.00,320.85
             1931.00,320.85 1922.00,320.85 1922.00,320.85
             1904.54,321.21 1903.10,324.12 1888.00,329.11
             1888.00,329.11 1867.00,334.62 1867.00,334.62
             1867.00,334.62 1854.00,340.45 1854.00,340.45
             1854.00,340.45 1839.00,344.08 1839.00,344.08
             1839.00,344.08 1819.00,352.10 1819.00,352.10
             1819.00,352.10 1782.00,361.60 1782.00,361.60
             1782.00,361.60 1754.00,376.69 1754.00,376.69
             1747.89,379.44 1728.76,383.52 1722.00,383.91
             1717.07,384.19 1711.70,382.82 1707.00,381.41
             1702.82,380.16 1695.52,377.03 1692.17,374.37
             1688.07,371.11 1680.85,360.00 1679.11,355.00
             1679.11,355.00 1676.62,344.00 1676.62,344.00
             1673.82,333.05 1671.01,321.76 1665.20,312.00
             1662.32,307.15 1659.89,301.02 1654.98,298.01
             1650.72,295.39 1648.11,296.64 1642.00,294.24
             1642.00,294.24 1634.00,290.61 1634.00,290.61
             1624.00,287.20 1602.71,284.88 1592.00,285.00
             1592.00,285.00 1582.00,285.95 1582.00,285.95
             1582.00,285.95 1570.00,285.95 1570.00,285.95
             1570.00,285.95 1557.00,285.09 1557.00,285.09
             1557.00,285.09 1551.00,285.66 1551.00,285.66
             1551.00,285.66 1534.00,285.00 1534.00,285.00
             1534.00,285.00 1495.00,288.00 1495.00,288.00
             1481.26,288.16 1474.78,286.17 1465.64,299.00
             1461.78,304.41 1458.00,320.77 1451.00,321.54
             1447.32,321.95 1445.43,318.64 1440.00,318.11
             1440.00,318.11 1429.00,318.79 1429.00,318.79
             1429.00,318.79 1395.00,313.44 1395.00,313.44
             1395.00,313.44 1373.00,311.18 1373.00,311.18
             1373.00,311.18 1366.00,311.96 1366.00,311.96
             1354.87,312.39 1334.74,305.94 1324.00,302.05
             1315.58,299.01 1314.76,300.19 1306.00,295.43
             1306.00,295.43 1269.00,279.55 1269.00,279.55
             1266.13,278.40 1259.31,274.61 1256.70,277.61
             1254.42,280.25 1258.34,284.81 1259.80,287.00
             1264.85,294.64 1270.98,301.79 1275.10,310.00
             1280.92,321.58 1292.06,329.49 1302.00,337.45
             1308.13,342.35 1321.37,353.02 1328.00,356.18
             1334.69,359.36 1338.62,356.84 1344.00,359.93
             1352.10,364.60 1350.44,374.03 1361.00,375.78
             1372.42,377.66 1377.22,369.07 1382.58,368.07
             1387.89,367.08 1394.17,372.69 1392.86,378.16
             1391.92,382.06 1387.37,386.82 1384.80,390.00
             1374.51,402.73 1377.66,397.02 1368.01,404.35
             1368.01,404.35 1357.99,413.21 1357.99,413.21
             1353.45,416.40 1350.85,416.12 1346.00,420.21
             1331.20,432.69 1325.66,440.09 1314.11,455.00
             1314.11,455.00 1306.63,464.00 1306.63,464.00
             1306.63,464.00 1294.22,488.00 1294.22,488.00
             1292.14,494.52 1290.92,513.71 1291.00,521.00
             1291.09,528.22 1292.11,535.71 1299.02,539.59
             1304.00,542.38 1313.05,542.64 1315.79,548.10
             1319.61,555.73 1307.21,560.36 1310.89,570.00
             1313.76,577.52 1324.95,578.47 1322.14,588.00
             1320.31,594.19 1309.64,606.88 1305.18,612.00
             1300.35,617.55 1299.99,620.71 1295.96,626.00
             1295.96,626.00 1285.59,637.01 1285.59,637.01
             1285.59,637.01 1276.88,649.00 1276.88,649.00
             1276.88,649.00 1266.32,661.00 1266.32,661.00
             1266.32,661.00 1248.63,683.00 1248.63,683.00
             1248.63,683.00 1239.83,692.91 1239.83,692.91
             1239.83,692.91 1234.49,698.17 1234.49,698.17
             1234.49,698.17 1229.23,707.00 1229.23,707.00
             1229.23,707.00 1216.56,723.00 1216.56,723.00
             1208.73,732.27 1190.40,745.85 1184.85,757.00
             1182.06,762.60 1183.94,770.28 1185.66,776.00
             1185.66,776.00 1190.78,796.00 1190.78,796.00
             1190.78,796.00 1195.61,807.00 1195.61,807.00
             1197.22,814.61 1191.11,830.42 1191.00,840.00
             1190.92,847.30 1191.06,852.90 1198.00,857.26
             1201.86,859.69 1205.74,858.68 1210.00,859.30
             1214.19,859.90 1223.75,863.15 1228.00,864.69
             1228.00,864.69 1253.00,876.99 1253.00,876.99
             1256.97,879.47 1259.59,883.16 1264.00,885.00
             1268.79,886.99 1276.79,887.06 1282.00,887.00
             1294.59,886.85 1301.95,882.44 1312.00,875.49
             1315.08,873.36 1320.75,868.27 1323.72,867.29
             1328.31,865.77 1332.45,869.34 1340.00,868.91
             1343.99,868.68 1361.78,865.39 1365.00,863.81
             1370.47,861.14 1374.44,856.26 1380.00,853.75
             1380.00,853.75 1390.00,850.65 1390.00,850.65
             1390.00,850.65 1404.00,843.32 1404.00,843.32
             1404.00,843.32 1418.00,837.62 1418.00,837.62
             1418.00,837.62 1430.00,829.41 1430.00,829.41
             1430.00,829.41 1441.00,824.63 1441.00,824.63
             1441.00,824.63 1454.00,816.37 1454.00,816.37
             1454.00,816.37 1483.00,803.72 1483.00,803.72
             1483.00,803.72 1501.00,795.33 1501.00,795.33
             1501.00,795.33 1510.00,791.74 1510.00,791.74
             1510.00,791.74 1532.00,780.32 1532.00,780.32
             1532.00,780.32 1546.00,770.90 1546.00,770.90
             1555.36,766.22 1569.81,762.35 1580.00,759.28
             1592.05,755.65 1612.48,742.09 1621.96,733.68
             1626.92,729.27 1630.39,718.58 1638.91,723.31
             1644.35,726.34 1647.28,735.42 1644.55,741.00
             1642.17,745.84 1636.88,750.43 1633.00,754.09
             1626.68,760.04 1624.84,762.86 1617.00,767.55
             1617.00,767.55 1609.00,772.10 1609.00,772.10
             1609.00,772.10 1602.00,776.94 1602.00,776.94
             1602.00,776.94 1594.00,780.84 1594.00,780.84
             1594.00,780.84 1570.00,793.21 1570.00,793.21
             1570.00,793.21 1556.00,799.19 1556.00,799.19
             1556.00,799.19 1544.00,803.81 1544.00,803.81
             1544.00,803.81 1531.00,811.68 1531.00,811.68
             1531.00,811.68 1500.28,825.96 1500.28,825.96
             1495.80,829.63 1498.02,834.54 1493.58,839.90
             1489.71,844.58 1477.42,851.00 1469.92,861.00
             1461.03,872.85 1452.55,883.32 1446.19,897.00
             1446.19,897.00 1440.93,914.00 1440.93,914.00
             1437.87,922.93 1437.14,934.46 1448.00,938.15
             1450.72,939.07 1454.14,939.05 1457.00,938.99
             1480.14,938.46 1488.58,931.22 1510.00,926.42
             1510.00,926.42 1524.00,923.77 1524.00,923.77
             1524.00,923.77 1560.00,914.43 1560.00,914.43
             1560.00,914.43 1570.00,911.91 1570.00,911.91
             1570.00,911.91 1594.00,901.45 1594.00,901.45
             1602.68,897.95 1611.83,895.33 1620.00,890.66
             1620.00,890.66 1640.00,877.47 1640.00,877.47
             1640.00,877.47 1649.00,869.53 1649.00,869.53
             1653.73,865.86 1657.04,864.75 1661.91,859.91
             1661.91,859.91 1683.28,835.00 1683.28,835.00
             1696.22,820.09 1696.95,816.78 1706.81,801.00
             1713.95,789.60 1713.04,795.40 1719.06,780.00
             1722.33,771.63 1726.70,767.52 1724.00,758.00
             1718.72,759.80 1709.33,767.71 1705.62,772.04 Z
           M 1940.93,346.43
           C 1942.23,348.58 1940.98,351.10 1939.57,352.82
             1937.62,355.19 1927.95,361.71 1925.00,363.09
             1925.00,363.09 1913.00,366.75 1913.00,366.75
             1913.00,366.75 1903.00,370.56 1903.00,370.56
             1903.00,370.56 1871.00,379.14 1871.00,379.14
             1862.13,381.64 1853.90,383.41 1846.00,388.62
             1846.00,388.62 1836.00,395.38 1836.00,395.38
             1836.00,395.38 1829.00,401.47 1829.00,401.47
             1829.00,401.47 1822.00,406.38 1822.00,406.38
             1816.06,411.11 1814.52,414.85 1806.00,413.82
             1796.15,412.62 1790.76,402.71 1796.09,394.09
             1797.99,391.02 1802.09,388.56 1805.00,386.35
             1805.00,386.35 1822.00,373.50 1822.00,373.50
             1836.29,362.63 1840.82,362.54 1857.00,358.77
             1857.00,358.77 1879.00,354.00 1879.00,354.00
             1879.00,354.00 1902.00,349.49 1902.00,349.49
             1902.00,349.49 1922.00,344.44 1922.00,344.44
             1925.90,343.94 1938.72,342.75 1940.93,346.43 Z
           M 429.92,788.00
           C 429.92,788.00 428.29,779.00 428.29,779.00
             428.29,779.00 427.54,771.00 427.54,771.00
             427.54,771.00 425.46,762.00 425.46,762.00
             425.46,762.00 424.49,753.00 424.49,753.00
             424.49,753.00 420.35,740.00 420.35,740.00
             420.35,740.00 410.89,699.00 410.89,699.00
             410.89,699.00 405.39,664.00 405.39,664.00
             405.39,664.00 403.22,653.00 403.22,653.00
             403.22,653.00 400.33,644.00 400.33,644.00
             400.33,644.00 399.54,633.00 399.54,633.00
             399.54,633.00 394.75,614.00 394.75,614.00
             394.75,614.00 392.12,601.00 392.12,601.00
             392.12,601.00 389.52,592.00 389.52,592.00
             389.52,592.00 388.57,583.00 388.57,583.00
             388.57,583.00 385.43,565.00 385.43,565.00
             385.43,565.00 384.70,555.00 384.70,555.00
             383.14,544.07 381.02,533.10 381.00,522.00
             380.99,513.89 381.27,513.23 379.92,505.00
             379.16,500.38 378.73,486.35 371.03,488.66
             368.17,489.51 365.38,493.50 363.96,496.00
             361.18,500.93 358.81,517.16 359.04,523.00
             359.04,523.00 361.30,550.00 361.30,550.00
             361.30,550.00 362.70,557.00 362.70,557.00
             362.70,557.00 363.43,570.00 363.43,570.00
             363.43,570.00 368.54,594.00 368.54,594.00
             368.54,594.00 369.32,603.00 369.32,603.00
             369.32,603.00 373.35,620.00 373.35,620.00
             373.35,620.00 376.45,637.00 376.45,637.00
             376.45,637.00 378.72,646.00 378.72,646.00
             378.72,646.00 384.34,680.00 384.34,680.00
             384.34,680.00 387.49,690.00 387.49,690.00
             387.49,690.00 390.03,702.00 390.03,702.00
             390.03,702.00 393.96,713.00 393.96,713.00
             393.96,713.00 397.15,727.00 397.15,727.00
             397.15,727.00 400.40,737.00 400.40,737.00
             400.40,737.00 402.56,747.00 402.56,747.00
             404.06,750.97 406.00,752.75 407.57,756.00
             409.96,760.96 409.46,765.12 410.52,770.00
             411.62,775.08 418.65,797.91 420.86,802.00
             423.33,806.55 424.89,812.31 429.92,814.00
             429.92,814.00 429.92,788.00 429.92,788.00 Z
           M 1740.00,496.82
           C 1758.34,505.55 1749.18,520.00 1749.00,535.00
             1748.78,553.77 1748.06,572.59 1743.99,591.00
             1743.99,591.00 1741.50,600.00 1741.50,600.00
             1741.50,600.00 1738.85,612.00 1738.85,612.00
             1738.85,612.00 1732.72,627.00 1732.72,627.00
             1732.72,627.00 1726.24,646.00 1726.24,646.00
             1726.24,646.00 1721.33,654.00 1721.33,654.00
             1711.68,670.64 1700.26,685.79 1682.00,693.64
             1675.33,696.51 1663.36,698.36 1665.34,687.00
             1667.17,676.52 1684.00,664.45 1689.65,655.00
             1689.65,655.00 1697.25,640.00 1697.25,640.00
             1697.25,640.00 1707.05,621.00 1707.05,621.00
             1707.05,621.00 1709.75,612.00 1709.75,612.00
             1709.75,612.00 1712.80,604.00 1712.80,604.00
             1717.18,590.81 1720.45,576.83 1721.83,563.00
             1721.83,563.00 1723.09,545.00 1723.09,545.00
             1723.09,545.00 1724.00,534.00 1724.00,534.00
             1724.00,534.00 1725.00,512.00 1725.00,512.00
             1725.08,506.45 1726.22,498.96 1731.13,495.74
             1734.95,494.87 1736.40,495.11 1740.00,496.82 Z
           M 1569.76,581.00
           C 1569.00,586.01 1564.94,588.85 1561.00,591.41
             1554.80,595.44 1544.96,600.96 1538.00,603.25
             1530.34,605.77 1514.71,609.90 1507.00,607.54
             1504.04,606.64 1500.53,604.35 1498.00,602.56
             1496.20,601.29 1493.82,599.52 1492.43,597.83
             1489.97,594.86 1487.41,586.77 1490.60,583.60
             1493.61,580.60 1498.69,583.32 1502.00,584.22
             1505.35,585.13 1510.51,585.17 1514.00,584.91
             1523.69,584.20 1546.69,573.26 1557.00,569.63
             1564.75,568.17 1571.01,572.71 1569.76,581.00 Z
           M 1337.40,805.96
           C 1334.31,810.55 1330.45,810.54 1326.00,812.53
             1321.20,814.67 1318.79,817.66 1315.00,819.55
             1311.09,821.51 1306.92,821.30 1304.10,822.98
             1300.39,825.20 1299.62,829.51 1294.98,830.53
             1285.66,832.57 1271.39,815.78 1278.74,805.17
             1281.09,801.77 1286.35,798.93 1290.00,797.09
             1297.28,793.41 1309.03,789.18 1317.00,787.46
             1331.51,785.51 1343.16,797.40 1337.40,805.96 Z
           M 431.00,822.00
           C 431.00,822.00 432.00,823.00 432.00,823.00
             432.00,823.00 432.00,822.00 432.00,822.00
             432.00,822.00 431.00,822.00 431.00,822.00 Z
           M 344.10,839.00
           C 342.28,848.40 349.04,857.50 355.43,863.79
             359.34,867.64 364.89,868.75 370.00,870.28
             377.24,872.45 384.49,874.70 392.00,875.71
             392.00,875.71 406.00,877.46 406.00,877.46
             409.48,878.11 419.95,881.55 422.69,880.36
             425.76,879.03 424.53,875.27 423.47,873.00
             421.76,869.34 413.47,855.74 410.82,853.22
             404.64,847.35 395.71,846.60 388.00,844.23
             388.00,844.23 378.00,839.87 378.00,839.87
             371.84,837.28 354.31,831.50 348.13,832.61
             345.10,834.59 344.81,835.37 344.10,839.00 Z
           M 1401.00,896.44
           C 1403.84,898.30 1407.52,902.44 1411.02,901.35
             1415.75,899.89 1417.71,894.05 1419.46,890.00
             1419.46,890.00 1428.86,873.00 1428.86,873.00
             1430.06,870.78 1433.50,865.34 1430.42,863.27
             1427.32,861.17 1419.69,865.99 1417.00,867.69
             1409.47,872.47 1386.62,885.32 1382.00,890.00
             1392.11,890.01 1392.50,890.88 1401.00,896.44 Z
           M 476.84,877.23
           C 475.51,881.18 483.13,891.97 485.76,894.96
             487.32,896.73 489.38,899.14 491.96,899.14
             497.15,899.14 495.86,892.08 494.96,889.00
             492.67,881.22 488.99,874.89 480.11,874.61
             478.52,875.25 477.51,875.26 476.84,877.23 Z
           M 1398.00,916.46
           C 1398.00,916.46 1388.00,918.60 1388.00,918.60
             1383.23,920.16 1377.52,923.84 1373.00,926.22
             1363.04,931.46 1362.42,929.80 1353.00,938.17
             1353.00,938.17 1337.00,951.15 1337.00,951.15
             1334.75,952.80 1331.75,955.50 1329.00,955.95
             1326.55,956.36 1321.20,954.73 1319.00,953.56
             1305.61,946.44 1316.58,935.79 1323.44,928.72
             1335.46,916.32 1343.07,911.88 1358.00,904.12
             1360.31,902.92 1369.88,899.15 1367.83,895.58
             1366.67,893.55 1361.92,894.00 1360.00,894.38
             1360.00,894.38 1353.00,896.47 1353.00,896.47
             1353.00,896.47 1339.00,898.54 1339.00,898.54
             1334.95,898.96 1331.55,897.50 1326.00,898.54
             1326.00,898.54 1300.00,907.91 1300.00,907.91
             1293.46,910.03 1290.15,908.33 1286.32,911.51
             1284.44,913.08 1282.08,916.87 1280.67,919.00
             1273.37,929.99 1273.04,930.39 1271.83,943.00
             1271.83,943.00 1271.00,952.00 1271.00,952.00
             1270.93,958.88 1270.92,963.82 1277.04,968.35
             1286.91,975.67 1308.05,975.14 1320.00,975.00
             1328.70,974.89 1333.91,972.92 1342.00,970.89
             1342.00,970.89 1394.00,957.08 1394.00,957.08
             1404.29,955.28 1402.21,956.21 1412.00,951.86
             1414.62,950.70 1418.20,949.65 1419.40,946.79
             1421.76,941.17 1415.78,935.68 1413.85,931.00
             1412.17,926.92 1411.40,915.90 1411.00,911.00
             1402.07,912.44 1403.86,914.44 1398.00,916.46 Z" />
</svg>
