<?xml version="1.0" encoding="UTF-8" standalone="no"?>
<!DOCTYPE svg PUBLIC "-//W3C//DTD SVG 20010904//EN"
              "http://www.w3.org/TR/2001/REC-SVG-20010904/DTD/svg10.dtd">

<svg xmlns="http://www.w3.org/2000/svg"
     width="13.9444in" height="17.3in"
     viewBox="0 0 1255 1557">
  <path id="Selection"
        fill="black" stroke="none" stroke-width="0"
        d="M 642.00,27.76
           C 648.58,28.25 656.00,27.96 659.35,35.04
             661.26,39.07 660.68,42.89 661.18,47.00
             661.18,47.00 663.33,56.00 663.33,56.00
             664.84,63.06 663.91,66.44 667.31,74.00
             675.01,91.11 686.37,106.31 696.45,122.00
             696.45,122.00 702.37,134.00 702.37,134.00
             702.37,134.00 708.95,145.00 708.95,145.00
             708.95,145.00 720.51,160.83 720.51,160.83
             720.51,160.83 725.91,167.04 725.91,167.04
             725.91,167.04 732.73,177.00 732.73,177.00
             732.73,177.00 736.68,184.00 736.68,184.00
             736.68,184.00 742.37,191.00 742.37,191.00
             742.37,191.00 747.44,199.00 747.44,199.00
             747.44,199.00 755.40,209.00 755.40,209.00
             755.40,209.00 762.46,219.00 762.46,219.00
             762.46,219.00 770.37,228.00 770.37,228.00
             770.37,228.00 785.35,254.96 785.35,254.96
             787.75,258.81 789.83,259.68 792.37,263.04
             792.37,263.04 796.38,269.00 796.38,269.00
             796.38,269.00 801.20,275.00 801.20,275.00
             801.20,275.00 804.80,280.91 804.80,280.91
             804.80,280.91 811.44,288.04 811.44,288.04
             813.78,291.34 813.22,293.63 816.40,298.00
             816.40,298.00 834.47,320.00 834.47,320.00
             834.47,320.00 839.63,328.00 839.63,328.00
             839.63,328.00 846.19,336.00 846.19,336.00
             847.81,338.47 848.31,340.41 850.39,342.91
             850.39,342.91 855.70,348.17 855.70,348.17
             855.70,348.17 864.60,359.00 864.60,359.00
             864.60,359.00 872.04,370.96 872.04,370.96
             872.04,370.96 878.37,378.09 878.37,378.09
             878.37,378.09 883.39,386.00 883.39,386.00
             883.39,386.00 890.36,394.00 890.36,394.00
             890.36,394.00 894.76,402.00 894.76,402.00
             894.76,402.00 905.52,417.00 905.52,417.00
             905.52,417.00 913.79,426.00 913.79,426.00
             913.79,426.00 923.68,438.00 923.68,438.00
             923.68,438.00 958.09,479.00 958.09,479.00
             958.09,479.00 978.00,498.96 978.00,498.96
             978.00,498.96 986.82,507.04 986.82,507.04
             986.82,507.04 993.14,515.00 993.14,515.00
             993.14,515.00 1008.22,532.28 1008.22,532.28
             1008.22,532.28 1013.21,538.91 1013.21,538.91
             1013.21,538.91 1020.00,545.09 1020.00,545.09
             1020.00,545.09 1031.99,557.00 1031.99,557.00
             1031.99,557.00 1046.79,573.00 1046.79,573.00
             1051.84,578.86 1053.74,582.22 1060.00,587.90
             1060.00,587.90 1074.96,599.44 1074.96,599.44
             1079.93,603.82 1080.21,605.83 1087.00,610.70
             1087.00,610.70 1099.00,617.54 1099.00,617.54
             1099.00,617.54 1123.00,633.54 1123.00,633.54
             1123.00,633.54 1133.00,640.13 1133.00,640.13
             1133.00,640.13 1143.00,645.17 1143.00,645.17
             1153.93,651.23 1166.03,658.84 1179.00,659.00
             1179.00,659.00 1192.00,659.00 1192.00,659.00
             1204.42,658.83 1207.39,649.20 1215.99,652.43
             1218.36,653.32 1220.31,655.12 1222.28,656.66
             1224.26,658.20 1227.00,660.04 1228.40,662.09
             1234.24,670.63 1220.30,680.72 1215.10,686.09
             1208.22,693.19 1207.24,699.19 1193.00,703.21
             1191.04,703.77 1175.79,704.93 1174.00,704.60
             1170.99,704.04 1169.05,702.41 1163.00,701.44
             1163.00,701.44 1148.00,699.88 1148.00,699.88
             1148.00,699.88 1125.00,692.22 1125.00,692.22
             1112.17,688.17 1116.10,692.32 1103.00,683.60
             1103.00,683.60 1073.00,667.37 1073.00,667.37
             1069.82,665.70 1064.98,661.63 1061.51,664.61
             1059.29,666.52 1058.88,671.22 1058.41,674.00
             1057.36,680.26 1054.82,695.31 1055.04,701.00
             1055.04,701.00 1055.96,713.00 1055.96,713.00
             1055.96,713.00 1052.00,740.00 1052.00,740.00
             1052.00,740.00 1052.00,761.00 1052.00,761.00
             1052.00,761.00 1051.00,782.00 1051.00,782.00
             1051.00,782.00 1050.14,797.00 1050.14,797.00
             1050.14,797.00 1050.14,830.00 1050.14,830.00
             1050.14,830.00 1050.14,874.00 1050.14,874.00
             1050.14,874.00 1051.00,889.00 1051.00,889.00
             1051.00,889.00 1050.00,902.00 1050.00,902.00
             1050.00,902.00 1050.00,921.00 1050.00,921.00
             1050.00,921.00 1050.91,934.00 1050.91,934.00
             1050.91,934.00 1050.00,946.00 1050.00,946.00
             1050.00,946.00 1050.00,968.00 1050.00,968.00
             1050.00,968.00 1049.00,984.00 1049.00,984.00
             1049.00,984.00 1049.00,1008.00 1049.00,1008.00
             1049.00,1008.00 1049.96,1018.00 1049.96,1018.00
             1049.96,1018.00 1049.96,1034.00 1049.96,1034.00
             1049.96,1034.00 1049.00,1049.00 1049.00,1049.00
             1049.00,1049.00 1050.00,1074.00 1050.00,1074.00
             1050.00,1074.00 1047.72,1103.00 1047.72,1103.00
             1047.72,1103.00 1046.01,1117.00 1046.01,1117.00
             1046.01,1117.00 1047.00,1134.00 1047.00,1134.00
             1047.00,1134.00 1047.00,1158.00 1047.00,1158.00
             1047.00,1158.00 1046.04,1175.00 1046.04,1175.00
             1046.04,1175.00 1046.96,1183.00 1046.96,1183.00
             1046.96,1183.00 1046.96,1196.00 1046.96,1196.00
             1046.96,1196.00 1047.96,1210.00 1047.96,1210.00
             1047.96,1210.00 1047.00,1223.00 1047.00,1223.00
             1047.00,1223.00 1047.92,1234.00 1047.92,1234.00
             1047.92,1234.00 1047.00,1247.00 1047.00,1247.00
             1047.00,1247.00 1047.00,1291.00 1047.00,1291.00
             1047.00,1291.00 1046.00,1307.00 1046.00,1307.00
             1046.00,1307.00 1046.00,1330.00 1046.00,1330.00
             1046.00,1330.00 1045.00,1348.00 1045.00,1348.00
             1045.00,1348.00 1047.00,1374.00 1047.00,1374.00
             1047.00,1374.00 1047.00,1401.00 1047.00,1401.00
             1047.00,1401.00 1046.01,1416.00 1046.01,1416.00
             1046.01,1416.00 1047.11,1427.00 1047.11,1427.00
             1047.11,1427.00 1047.11,1436.00 1047.11,1436.00
             1047.11,1436.00 1048.04,1456.00 1048.04,1456.00
             1048.04,1456.00 1048.04,1465.00 1048.04,1465.00
             1048.84,1471.24 1049.96,1470.57 1050.00,1479.00
             1050.00,1479.00 1050.00,1490.00 1050.00,1490.00
             1050.02,1502.73 1054.65,1503.17 1053.83,1513.00
             1053.13,1521.38 1053.03,1526.39 1047.13,1532.96
             1045.20,1535.10 1043.69,1536.74 1040.96,1537.85
             1037.85,1539.13 1034.30,1538.99 1031.00,1539.00
             1031.00,1539.00 999.00,1536.00 999.00,1536.00
             999.00,1536.00 983.00,1537.30 983.00,1537.30
             977.49,1538.09 977.77,1538.92 971.00,1539.00
             971.00,1539.00 965.00,1539.00 965.00,1539.00
             965.00,1539.00 950.00,1539.99 950.00,1539.99
             950.00,1539.99 935.00,1539.01 935.00,1539.01
             935.00,1539.01 921.00,1539.99 921.00,1539.99
             921.00,1539.99 898.00,1538.00 898.00,1538.00
             898.00,1538.00 881.00,1539.68 881.00,1539.68
             881.00,1539.68 854.00,1538.00 854.00,1538.00
             854.00,1538.00 838.00,1537.00 838.00,1537.00
             838.00,1537.00 822.00,1535.96 822.00,1535.96
             822.00,1535.96 813.00,1535.96 813.00,1535.96
             806.40,1535.20 802.02,1533.86 795.00,1534.01
             795.00,1534.01 785.00,1534.92 785.00,1534.92
             785.00,1534.92 777.00,1534.05 777.00,1534.05
             777.00,1534.05 766.00,1534.05 766.00,1534.05
             766.00,1534.05 756.00,1534.74 756.00,1534.74
             756.00,1534.74 739.00,1531.17 739.00,1531.17
             739.00,1531.17 719.00,1532.00 719.00,1532.00
             719.00,1532.00 704.00,1532.00 704.00,1532.00
             696.67,1531.96 695.52,1531.09 689.00,1530.29
             689.00,1530.29 670.00,1529.20 670.00,1529.20
             670.00,1529.20 650.00,1529.20 650.00,1529.20
             650.00,1529.20 633.00,1528.02 633.00,1528.02
             633.00,1528.02 616.00,1530.25 616.00,1530.25
             616.00,1530.25 604.00,1530.25 604.00,1530.25
             604.00,1530.25 591.00,1531.00 591.00,1531.00
             591.00,1531.00 565.00,1531.00 565.00,1531.00
             565.00,1531.00 513.00,1526.96 513.00,1526.96
             513.00,1526.96 496.00,1526.96 496.00,1526.96
             496.00,1526.96 485.00,1526.00 485.00,1526.00
             485.00,1526.00 466.00,1527.00 466.00,1527.00
             466.00,1527.00 453.00,1528.00 453.00,1528.00
             453.00,1528.00 429.00,1528.00 429.00,1528.00
             429.00,1528.00 414.00,1528.90 414.00,1528.90
             407.96,1528.49 409.50,1527.02 399.00,1527.01
             399.00,1527.01 375.00,1527.01 375.00,1527.01
             375.00,1527.01 356.00,1528.00 356.00,1528.00
             356.00,1528.00 341.00,1527.00 341.00,1527.00
             341.00,1527.00 319.00,1528.66 319.00,1528.66
             319.00,1528.66 297.00,1525.94 297.00,1525.94
             297.00,1525.94 287.00,1525.94 287.00,1525.94
             287.00,1525.94 276.00,1524.10 276.00,1524.10
             276.00,1524.10 259.00,1526.00 259.00,1526.00
             259.00,1526.00 243.00,1526.00 243.00,1526.00
             233.86,1526.01 224.14,1529.99 215.00,1527.36
             210.10,1525.96 205.78,1522.39 202.00,1519.13
             199.53,1517.00 196.81,1514.96 195.31,1511.99
             193.76,1508.91 193.62,1503.49 192.62,1500.00
             191.56,1496.28 189.83,1494.74 189.22,1491.00
             189.22,1491.00 191.00,1470.00 191.00,1470.00
             191.00,1470.00 191.00,1426.00 191.00,1426.00
             191.00,1426.00 190.04,1412.00 190.04,1412.00
             190.04,1412.00 192.00,1392.00 192.00,1392.00
             192.00,1392.00 192.00,1375.00 192.00,1375.00
             192.00,1375.00 193.96,1347.00 193.96,1347.00
             193.96,1347.00 192.18,1326.00 192.18,1326.00
             192.55,1320.85 193.53,1316.31 192.79,1311.00
             191.71,1303.22 189.79,1301.68 190.01,1292.00
             190.01,1292.00 190.95,1283.00 190.95,1283.00
             190.95,1283.00 190.95,1265.00 190.95,1265.00
             190.95,1265.00 190.18,1253.00 190.18,1253.00
             190.18,1253.00 191.00,1244.00 191.00,1244.00
             191.04,1239.82 190.40,1228.87 189.62,1225.00
             188.07,1217.22 187.02,1220.31 187.00,1210.00
             187.00,1210.00 187.00,1155.00 187.00,1155.00
             187.00,1155.00 186.32,1142.00 186.32,1142.00
             186.32,1142.00 187.00,1112.00 187.00,1112.00
             187.00,1112.00 190.00,1090.00 190.00,1090.00
             190.00,1090.00 190.00,1081.00 190.00,1081.00
             190.00,1081.00 191.96,1056.00 191.96,1056.00
             191.96,1056.00 191.04,1048.00 191.04,1048.00
             191.04,1048.00 191.04,1035.00 191.04,1035.00
             191.04,1035.00 190.00,1020.00 190.00,1020.00
             190.00,1020.00 190.00,1005.00 190.00,1005.00
             190.00,1005.00 189.00,989.00 189.00,989.00
             189.00,989.00 189.00,968.00 189.00,968.00
             189.00,968.00 189.00,947.00 189.00,947.00
             189.00,947.00 189.82,934.00 189.82,934.00
             189.82,934.00 189.82,925.00 189.82,925.00
             189.82,925.00 189.82,918.00 189.82,918.00
             189.51,911.52 187.01,908.35 187.01,900.00
             187.01,900.00 187.83,891.00 187.83,891.00
             187.83,891.00 188.99,867.00 188.99,867.00
             188.99,867.00 187.58,851.00 187.58,851.00
             187.68,847.01 189.21,844.75 188.81,840.00
             188.42,835.22 186.75,833.10 187.09,827.00
             187.39,821.81 188.35,820.38 187.91,814.00
             187.91,814.00 186.00,798.00 186.00,798.00
             186.00,798.00 186.00,786.00 186.00,786.00
             186.00,786.00 185.05,774.00 185.05,774.00
             185.05,774.00 185.05,759.00 185.05,759.00
             185.05,759.00 186.00,746.00 186.00,746.00
             186.16,732.17 184.15,734.83 183.08,725.00
             183.08,725.00 183.08,703.00 183.08,703.00
             183.08,703.00 180.06,679.00 180.06,679.00
             180.06,679.00 175.94,669.00 175.94,669.00
             174.49,663.95 175.73,660.15 172.69,657.60
             165.90,651.89 151.29,665.26 146.00,669.26
             134.65,677.84 130.97,678.48 118.00,683.42
             118.00,683.42 104.00,688.79 104.00,688.79
             93.66,691.89 78.44,693.30 68.00,690.22
             68.00,690.22 59.00,686.34 59.00,686.34
             48.81,681.98 54.55,684.91 45.00,679.04
             38.23,674.88 32.61,671.24 34.94,662.00
             37.52,651.79 43.94,654.70 50.00,653.79
             52.55,653.41 53.69,652.75 56.00,651.91
             56.00,651.91 83.00,646.51 83.00,646.51
             91.15,644.29 110.97,633.98 118.00,628.78
             118.00,628.78 130.00,619.96 130.00,619.96
             130.00,619.96 138.00,615.37 138.00,615.37
             138.00,615.37 151.00,605.43 151.00,605.43
             151.00,605.43 188.00,580.48 188.00,580.48
             188.00,580.48 204.00,569.09 204.00,569.09
             204.00,569.09 221.00,558.30 221.00,558.30
             221.00,558.30 230.00,551.83 230.00,551.83
             235.49,548.27 236.06,549.40 244.00,543.35
             244.00,543.35 265.90,524.83 265.90,524.83
             265.90,524.83 271.37,518.17 271.37,518.17
             271.37,518.17 283.00,507.09 283.00,507.09
             283.00,507.09 293.96,497.96 293.96,497.96
             293.96,497.96 306.17,484.30 306.17,484.30
             306.17,484.30 317.82,474.83 317.82,474.83
             317.82,474.83 332.09,458.00 332.09,458.00
             332.09,458.00 344.00,446.00 344.00,446.00
             344.00,446.00 356.18,431.00 356.18,431.00
             356.18,431.00 379.72,406.00 379.72,406.00
             379.72,406.00 398.17,384.00 398.17,384.00
             398.17,384.00 411.27,370.91 411.27,370.91
             411.27,370.91 421.17,359.00 421.17,359.00
             421.17,359.00 442.82,336.00 442.82,336.00
             442.82,336.00 449.52,327.17 449.52,327.17
             449.52,327.17 459.19,317.91 459.19,317.91
             459.19,317.91 484.91,284.00 484.91,284.00
             484.91,284.00 491.63,273.00 491.63,273.00
             491.63,273.00 509.67,253.00 509.67,253.00
             509.67,253.00 516.49,243.00 516.49,243.00
             516.49,243.00 534.16,219.00 534.16,219.00
             534.16,219.00 557.68,191.00 557.68,191.00
             557.68,191.00 563.36,183.00 563.36,183.00
             563.36,183.00 572.23,172.00 572.23,172.00
             572.23,172.00 576.96,164.09 576.96,164.09
             579.33,160.65 580.65,160.47 583.20,155.99
             590.55,143.08 590.57,135.26 594.31,127.00
             597.91,119.04 600.43,118.48 603.09,113.00
             607.71,103.46 611.59,93.22 614.41,83.00
             614.41,83.00 616.60,73.00 616.60,73.00
             616.60,73.00 621.56,61.00 621.56,61.00
             623.49,54.51 622.55,53.57 623.29,48.00
             623.29,48.00 625.72,38.00 625.72,38.00
             626.38,35.48 626.85,31.60 628.72,29.72
             630.24,28.21 632.04,27.98 634.00,27.76
             634.00,27.76 642.00,27.76 642.00,27.76 Z
           M 635.56,116.31
           C 635.56,116.31 625.49,135.00 625.49,135.00
             625.49,135.00 619.05,145.00 619.05,145.00
             619.05,145.00 608.92,162.00 608.92,162.00
             608.92,162.00 604.60,171.00 604.60,171.00
             604.60,171.00 599.36,179.00 599.36,179.00
             596.19,183.78 587.99,195.58 589.43,200.98
             591.19,207.55 602.48,206.99 608.00,207.09
             608.00,207.09 618.00,207.09 618.00,207.09
             622.90,207.77 623.74,209.24 631.00,208.96
             631.00,208.96 642.00,208.09 642.00,208.09
             642.00,208.09 652.00,209.00 652.00,209.00
             652.00,209.00 680.00,209.00 680.00,209.00
             680.00,209.00 694.00,209.99 694.00,209.99
             695.79,210.03 699.26,210.10 700.85,209.40
             708.27,206.17 701.27,195.05 698.69,191.00
             698.69,191.00 679.76,165.00 679.76,165.00
             679.76,165.00 669.22,149.01 669.22,149.01
             669.22,149.01 662.21,140.91 662.21,140.91
             662.21,140.91 656.66,130.00 656.66,130.00
             653.18,123.92 645.78,113.54 638.06,114.62
             637.06,115.21 636.90,114.84 635.56,116.31 Z
           M 562.54,235.99
           C 557.80,241.61 555.46,241.43 551.16,247.04
             551.16,247.04 541.79,262.00 541.79,262.00
             541.79,262.00 533.30,271.00 533.30,271.00
             533.30,271.00 516.70,291.00 516.70,291.00
             512.85,295.52 506.84,301.87 503.90,307.00
             499.85,314.07 493.83,326.75 507.00,327.00
             507.00,327.00 524.00,327.00 524.00,327.00
             524.00,327.00 547.00,325.00 547.00,325.00
             547.00,325.00 569.00,326.00 569.00,326.00
             569.00,326.00 603.00,326.00 603.00,326.00
             603.00,326.00 632.00,324.32 632.00,324.32
             632.00,324.32 640.00,325.00 640.00,325.00
             640.00,325.00 665.00,323.91 665.00,323.91
             665.00,323.91 676.00,323.04 676.00,323.04
             676.00,323.04 691.00,323.96 691.00,323.96
             691.00,323.96 707.00,323.00 707.00,323.00
             707.00,323.00 720.00,321.93 720.00,321.93
             720.00,321.93 754.00,321.93 754.00,321.93
             754.00,321.93 763.00,321.93 763.00,321.93
             763.00,321.93 770.00,321.93 770.00,321.93
             773.67,321.81 782.51,320.96 783.69,316.86
             785.38,310.94 779.59,303.49 776.24,299.00
             776.24,299.00 764.76,286.00 764.76,286.00
             764.76,286.00 745.37,257.00 745.37,257.00
             740.67,250.82 736.80,241.55 728.00,241.04
             718.61,240.51 717.91,243.02 705.00,238.78
             698.44,236.62 697.39,233.20 692.00,232.07
             692.00,232.07 683.00,232.07 683.00,232.07
             683.00,232.07 669.00,230.04 669.00,230.04
             669.00,230.04 647.00,231.00 647.00,231.00
             647.00,231.00 617.00,229.00 617.00,229.00
             610.49,228.93 600.21,228.49 594.00,226.96
             585.72,224.91 584.49,221.36 574.00,223.60
             568.08,226.77 566.66,231.09 562.54,235.99 Z
           M 469.00,354.00
           C 460.03,363.13 463.28,361.17 457.67,368.00
             457.67,368.00 451.63,375.00 451.63,375.00
             451.63,375.00 447.37,382.00 447.37,382.00
             447.37,382.00 439.95,391.00 439.95,391.00
             439.95,391.00 432.37,403.00 432.37,403.00
             432.37,403.00 426.53,410.00 426.53,410.00
             426.53,410.00 421.62,416.96 421.62,416.96
             421.62,416.96 410.72,427.66 410.72,427.66
             410.72,427.66 403.17,433.26 403.17,433.26
             403.17,433.26 385.76,451.72 385.76,451.72
             385.76,451.72 378.68,460.67 378.68,460.67
             375.38,463.94 372.77,464.04 364.01,473.00
             364.01,473.00 347.96,489.96 347.96,489.96
             345.36,492.57 341.12,495.32 340.33,499.01
             338.83,506.04 345.19,505.99 350.00,506.00
             350.00,506.00 355.00,506.00 355.00,506.00
             355.00,506.00 365.00,504.96 365.00,504.96
             365.00,504.96 374.00,504.96 374.00,504.96
             374.00,504.96 382.00,503.80 382.00,503.80
             382.00,503.80 394.00,503.80 394.00,503.80
             394.00,503.80 404.00,503.08 404.00,503.08
             409.74,503.08 415.37,504.90 421.00,505.70
             421.00,505.70 446.00,507.00 446.00,507.00
             446.00,507.00 456.00,507.00 456.00,507.00
             456.00,507.00 490.00,504.00 490.00,504.00
             490.00,504.00 501.00,504.96 501.00,504.96
             501.00,504.96 521.00,503.83 521.00,503.83
             521.00,503.83 552.00,500.00 552.00,500.00
             552.00,500.00 578.00,500.00 578.00,500.00
             578.00,500.00 592.00,499.03 592.00,499.03
             592.00,499.03 604.00,500.00 604.00,500.00
             604.00,500.00 621.00,499.00 621.00,499.00
             621.00,499.00 657.00,497.00 657.00,497.00
             657.00,497.00 674.00,497.00 674.00,497.00
             674.00,497.00 703.00,499.00 703.00,499.00
             707.79,499.05 714.42,499.24 719.00,498.38
             723.48,497.54 727.42,495.28 732.00,495.04
             732.00,495.04 750.00,496.00 750.00,496.00
             756.48,496.08 760.05,497.53 767.00,496.83
             767.00,496.83 799.00,492.00 799.00,492.00
             799.00,492.00 815.00,492.00 815.00,492.00
             815.00,492.00 832.00,493.00 832.00,493.00
             832.00,493.00 847.00,492.00 847.00,492.00
             847.00,492.00 871.00,492.00 871.00,492.00
             877.14,491.92 878.60,490.99 884.00,490.29
             884.00,490.29 903.00,489.00 903.00,489.00
             905.73,488.97 909.25,489.28 910.98,486.69
             913.80,482.45 910.60,475.74 908.40,472.00
             908.40,472.00 898.24,456.00 898.24,456.00
             898.24,456.00 888.84,444.00 888.84,444.00
             888.84,444.00 882.61,434.01 882.61,434.01
             882.61,434.01 874.68,425.91 874.68,425.91
             874.68,425.91 867.30,413.04 867.30,413.04
             867.30,413.04 856.92,401.00 856.92,401.00
             856.92,401.00 847.47,386.00 847.47,386.00
             847.47,386.00 833.84,370.00 833.84,370.00
             829.79,364.12 819.42,347.26 813.83,344.17
             812.24,343.29 810.77,343.15 809.00,343.04
             809.00,343.04 790.00,344.00 790.00,344.00
             790.00,344.00 764.00,346.14 764.00,346.14
             764.00,346.14 750.00,345.00 750.00,345.00
             750.00,345.00 725.00,345.00 725.00,345.00
             714.89,345.05 715.53,347.65 710.00,347.81
             710.00,347.81 690.00,346.04 690.00,346.04
             683.50,345.76 681.71,346.52 676.00,346.96
             676.00,346.96 663.00,346.96 663.00,346.96
             663.00,346.96 654.00,347.79 654.00,347.79
             654.00,347.79 639.00,347.04 639.00,347.04
             639.00,347.04 617.00,350.00 617.00,350.00
             605.12,350.13 606.10,348.20 598.00,348.01
             598.00,348.01 580.00,349.14 580.00,349.14
             576.32,349.09 568.30,347.89 566.02,351.31
             565.17,352.60 565.04,354.50 565.06,356.00
             565.20,365.47 572.95,368.05 577.04,374.04
             577.04,374.04 581.78,383.00 581.78,383.00
             581.78,383.00 587.32,393.00 587.32,393.00
             591.73,403.02 594.87,419.04 595.00,430.00
             595.15,442.96 592.35,460.22 580.91,468.24
             577.75,470.45 565.37,474.41 561.00,476.12
             558.44,477.11 555.46,479.06 553.00,479.36
             550.58,480.03 548.39,479.39 546.00,479.36
             539.94,478.60 535.04,480.08 530.39,474.87
             525.21,469.05 526.43,463.92 527.07,457.00
             528.78,438.57 530.29,442.91 530.00,421.00
             529.90,413.45 528.29,413.55 528.05,408.00
             528.05,408.00 531.41,371.00 531.41,371.00
             532.17,366.48 535.70,356.18 532.26,352.74
             530.17,350.64 525.83,351.11 523.00,350.70
             523.00,350.70 515.00,349.16 515.00,349.16
             515.00,349.16 500.00,347.18 500.00,347.18
             491.16,345.19 491.24,339.87 481.09,341.43
             476.77,343.38 472.93,350.00 469.00,354.00 Z
           M 756.34,372.00
           C 754.82,377.37 742.49,385.68 738.63,391.00
             730.65,402.02 725.16,424.40 725.00,438.00
             724.94,443.68 723.96,452.39 728.39,456.57
             734.90,462.71 752.46,457.85 753.74,446.00
             754.83,435.80 741.50,435.06 739.66,428.96
             738.43,424.90 743.29,418.17 753.00,423.44
             755.70,424.91 759.40,427.15 761.53,429.33
             767.37,435.29 773.47,449.79 769.56,458.00
             765.53,466.46 756.22,472.05 748.00,475.83
             744.57,477.40 742.63,477.65 739.00,478.25
             715.22,482.14 706.03,457.59 706.00,438.00
             706.00,438.00 706.00,427.00 706.00,427.00
             706.07,413.24 715.45,389.99 723.63,379.01
             725.82,376.08 727.40,375.09 729.91,372.72
             735.05,367.86 734.86,366.32 742.00,363.64
             746.91,362.76 758.45,364.56 756.34,372.00 Z
           M 674.82,376.18
           C 677.65,379.01 682.03,386.23 683.52,390.00
             685.98,396.22 684.36,399.68 685.37,405.00
             685.37,405.00 687.25,413.00 687.25,413.00
             687.25,413.00 687.25,426.00 687.25,426.00
             686.98,439.96 686.94,450.00 677.91,461.83
             675.18,465.40 671.44,467.65 668.00,470.46
             661.00,476.19 653.93,482.54 644.00,481.67
             639.62,481.29 636.48,479.97 633.00,477.32
             622.96,469.68 622.74,463.01 619.34,452.00
             617.37,445.61 613.77,425.22 614.48,419.00
             615.00,414.45 620.70,398.02 622.58,393.00
             627.65,379.43 631.63,369.66 647.00,365.52
             655.89,364.14 668.54,369.91 674.82,376.18 Z
           M 545.17,378.34
           C 543.22,381.46 544.00,396.53 544.00,401.00
             544.00,401.00 544.00,425.00 544.00,425.00
             544.00,425.00 545.00,442.00 545.00,442.00
             545.01,446.03 544.31,453.52 547.51,456.40
             550.90,459.46 561.01,457.09 565.00,455.78
             575.47,452.33 576.09,444.33 577.59,435.00
             580.33,417.96 578.10,403.04 569.42,388.00
             564.16,378.89 560.28,373.47 549.04,375.51
             547.25,376.35 546.34,376.49 545.17,378.34 Z
           M 642.23,400.00
           C 642.23,400.00 637.53,412.00 637.53,412.00
             637.53,412.00 636.00,435.00 636.00,435.00
             635.90,444.12 635.22,463.57 650.00,459.57
             653.63,458.59 656.41,455.58 659.00,453.00
             665.22,446.77 669.74,439.03 669.98,430.00
             669.98,430.00 669.17,411.00 669.17,411.00
             670.08,401.38 671.73,385.45 658.00,384.25
             656.19,383.93 654.77,384.16 653.00,384.25
             643.43,387.49 644.69,392.01 642.23,400.00 Z
           M 916.99,513.06
           C 907.90,515.90 904.28,513.69 896.00,514.04
             896.00,514.04 874.00,515.91 874.00,515.91
             874.00,515.91 867.00,515.04 867.00,515.04
             867.00,515.04 850.00,515.04 850.00,515.04
             850.00,515.04 830.00,516.21 830.00,516.21
             824.04,517.03 825.75,518.18 817.00,517.99
             810.64,517.84 807.81,516.52 800.00,517.09
             794.31,517.51 793.61,518.91 786.00,519.00
             786.00,519.00 764.00,519.00 764.00,519.00
             760.59,519.01 755.49,518.29 755.25,523.04
             755.18,524.60 755.68,526.15 756.74,527.30
             756.74,527.30 781.91,542.33 781.91,542.33
             781.91,542.33 799.25,561.17 799.25,561.17
             799.25,561.17 806.29,569.79 806.29,569.79
             806.29,569.79 813.63,576.10 813.63,576.10
             813.63,576.10 826.04,591.00 826.04,591.00
             826.04,591.00 842.30,609.00 842.30,609.00
             844.72,612.65 844.87,617.06 846.67,621.00
             846.67,621.00 850.65,629.00 850.65,629.00
             850.65,629.00 854.44,635.00 854.44,635.00
             854.44,635.00 857.34,644.00 857.34,644.00
             857.34,644.00 863.49,656.00 863.49,656.00
             866.98,662.59 866.19,668.53 870.22,670.98
             872.08,672.10 887.02,673.00 890.00,673.00
             890.00,673.00 939.00,669.91 939.00,669.91
             944.42,669.51 946.93,667.75 953.00,668.09
             953.00,668.09 963.00,669.00 963.00,669.00
             963.00,669.00 979.00,669.00 979.00,669.00
             979.00,669.00 994.00,668.00 994.00,668.00
             994.00,668.00 1020.00,668.00 1020.00,668.00
             1022.54,667.99 1026.48,668.32 1028.40,666.40
             1030.48,664.33 1029.94,659.76 1030.01,657.00
             1030.22,649.25 1034.51,644.11 1032.57,637.00
             1030.98,631.16 1023.71,626.86 1020.09,621.91
             1020.09,621.91 1013.37,611.00 1013.37,611.00
             1013.37,611.00 1005.92,602.00 1005.92,602.00
             1005.92,602.00 996.25,588.00 996.25,588.00
             996.25,588.00 985.96,576.00 985.96,576.00
             982.78,571.11 981.76,567.47 977.48,562.00
             977.48,562.00 946.99,525.00 946.99,525.00
             946.99,525.00 943.59,518.00 943.59,518.00
             940.28,512.07 934.30,505.72 927.09,506.45
             921.83,508.75 922.54,511.33 916.99,513.06 Z
           M 281.00,549.92
           C 281.00,549.92 248.04,578.04 248.04,578.04
             241.57,584.60 242.80,587.25 239.35,591.96
             239.35,591.96 227.00,603.99 227.00,603.99
             218.87,611.89 205.27,619.28 201.65,631.00
             200.87,633.53 200.97,637.31 201.00,640.00
             201.04,643.36 201.30,649.06 203.58,651.69
             207.35,656.01 222.34,654.99 228.00,655.00
             228.00,655.00 246.00,656.00 246.00,656.00
             246.00,656.00 271.00,654.18 271.00,654.18
             271.00,654.18 287.00,656.00 287.00,656.00
             287.00,656.00 321.00,656.00 321.00,656.00
             321.00,656.00 333.57,654.88 333.57,654.88
             335.63,654.79 348.01,656.97 350.00,657.68
             356.91,660.15 364.99,667.97 373.00,663.98
             381.25,659.87 387.98,646.36 393.28,639.00
             401.84,627.12 406.00,623.18 415.49,612.72
             415.49,612.72 420.18,607.17 420.18,607.17
             420.18,607.17 426.48,601.54 426.48,601.54
             426.48,601.54 432.32,594.37 432.32,594.37
             440.65,586.26 451.40,581.02 461.00,574.64
             461.00,574.64 475.00,563.93 475.00,563.93
             475.00,563.93 491.00,553.95 491.00,553.95
             491.00,553.95 499.00,549.87 499.00,549.87
             502.36,547.78 504.16,545.76 508.00,543.91
             511.76,542.10 516.59,541.23 519.26,537.67
             520.45,536.09 521.03,533.99 520.64,532.02
             519.53,526.35 513.41,526.95 509.00,527.00
             509.00,527.00 487.00,529.00 487.00,529.00
             487.00,529.00 469.00,529.00 469.00,529.00
             469.00,529.00 456.00,529.99 456.00,529.99
             456.00,529.99 436.00,529.00 436.00,529.00
             436.00,529.00 417.00,527.00 417.00,527.00
             417.00,527.00 386.00,527.00 386.00,527.00
             386.00,527.00 331.00,531.00 331.00,531.00
             318.85,530.83 322.36,524.65 310.00,526.42
             300.13,529.85 288.93,542.62 281.00,549.92 Z
           M 208.02,681.23
           C 205.89,684.73 208.64,695.61 209.27,700.00
             209.27,700.00 210.17,714.00 210.17,714.00
             210.17,714.00 213.00,736.00 213.00,736.00
             213.00,736.00 213.00,762.00 213.00,762.00
             212.98,775.37 212.83,788.73 214.58,802.00
             215.02,805.37 214.47,812.17 216.60,814.44
             219.10,817.12 233.00,817.95 237.00,818.00
             237.00,818.00 260.00,818.00 260.00,818.00
             260.00,818.00 287.00,820.91 287.00,820.91
             287.00,820.91 297.00,820.00 297.00,820.00
             305.02,819.91 307.28,819.62 315.00,822.53
             320.08,824.45 325.21,828.18 330.96,826.69
             337.12,825.09 336.99,818.06 336.92,813.00
             336.92,813.00 336.92,789.58 336.92,789.58
             336.92,789.58 338.00,776.00 338.00,776.00
             338.00,776.00 338.00,769.00 338.00,769.00
             338.09,761.69 339.49,759.70 340.74,753.00
             340.74,753.00 344.81,733.00 344.81,733.00
             344.81,733.00 350.02,723.00 350.02,723.00
             353.12,716.64 355.31,709.81 357.05,703.00
             358.72,697.20 364.87,682.79 357.05,679.60
             355.33,678.95 352.75,679.01 351.00,679.00
             351.00,679.00 343.00,679.00 343.00,679.00
             343.00,679.00 322.00,678.00 322.00,678.00
             322.00,678.00 303.00,679.00 303.00,679.00
             303.00,679.00 281.00,678.00 281.00,678.00
             281.00,678.00 267.00,679.00 267.00,679.00
             267.00,679.00 242.00,679.00 242.00,679.00
             232.03,678.95 222.04,676.89 212.02,678.43
             210.18,679.21 209.18,679.32 208.02,681.23 Z
           M 920.00,693.20
           C 920.00,693.20 903.00,696.52 903.00,696.52
             898.89,696.61 896.21,694.45 891.00,694.10
             882.59,693.52 880.01,695.85 880.00,704.00
             880.00,706.41 879.97,708.66 880.63,711.00
             880.63,711.00 883.40,718.00 883.40,718.00
             883.40,718.00 885.22,725.00 885.22,725.00
             885.22,725.00 889.64,736.00 889.64,736.00
             889.64,736.00 892.75,749.00 892.75,749.00
             892.75,749.00 896.84,762.00 896.84,762.00
             896.84,762.00 899.48,777.00 899.48,777.00
             899.48,777.00 904.50,792.00 904.50,792.00
             906.59,800.78 905.48,804.05 906.58,812.00
             906.89,814.24 906.95,817.76 908.60,819.40
             911.67,822.47 925.23,820.01 930.00,820.00
             930.00,820.00 956.00,820.00 956.00,820.00
             956.00,820.00 973.00,819.00 973.00,819.00
             973.00,819.00 1011.00,822.00 1011.00,822.00
             1013.77,821.99 1017.44,822.29 1019.69,820.40
             1022.28,818.22 1021.86,815.01 1022.09,812.00
             1022.09,812.00 1023.00,794.00 1023.00,794.00
             1023.00,794.00 1023.96,783.00 1023.96,783.00
             1023.96,783.00 1023.18,771.00 1023.18,771.00
             1023.18,771.00 1023.96,764.00 1023.96,764.00
             1023.96,764.00 1023.96,753.00 1023.96,753.00
             1024.01,746.91 1024.97,739.01 1026.09,733.00
             1026.09,733.00 1027.91,725.00 1027.91,725.00
             1027.91,725.00 1027.91,709.00 1027.91,709.00
             1027.99,704.48 1028.42,697.90 1023.86,695.31
             1021.63,694.05 1018.50,694.09 1016.00,693.71
             1016.00,693.71 1008.00,692.17 1008.00,692.17
             999.38,691.25 996.06,693.29 989.83,693.13
             989.83,693.13 961.00,692.00 961.00,692.00
             961.00,692.00 936.00,691.28 936.00,691.28
             936.00,691.28 920.00,693.20 920.00,693.20 Z
           M 216.60,844.15
           C 216.60,844.15 215.00,861.00 215.00,861.00
             215.00,861.00 216.26,877.00 216.26,877.00
             216.18,882.36 214.00,883.93 214.00,893.00
             214.00,893.00 217.00,920.00 217.00,920.00
             217.00,920.00 217.00,939.00 217.00,939.00
             217.00,939.00 217.82,950.00 217.82,950.00
             217.82,950.00 217.00,963.00 217.00,963.00
             217.05,966.73 217.46,972.74 219.73,975.79
             224.29,981.88 237.13,981.03 244.00,981.00
             244.00,981.00 271.00,979.87 271.00,979.87
             271.00,979.87 310.00,979.87 310.00,979.87
             323.31,980.02 334.75,985.59 335.00,972.00
             335.00,972.00 335.00,966.00 335.00,966.00
             335.00,966.00 336.96,949.00 336.96,949.00
             336.96,949.00 336.10,933.00 336.10,933.00
             336.10,933.00 337.92,915.00 337.92,915.00
             337.92,915.00 337.92,903.00 337.92,903.00
             337.92,903.00 339.00,885.00 339.00,885.00
             339.00,885.00 338.00,871.00 338.00,871.00
             337.96,867.06 337.93,853.13 335.40,850.60
             333.44,848.63 329.58,849.05 327.00,848.99
             322.61,848.87 320.07,848.35 316.00,846.67
             308.38,843.52 309.16,844.01 301.00,844.00
             301.00,844.00 275.00,841.29 275.00,841.29
             275.00,841.29 262.00,841.29 262.00,841.29
             262.00,841.29 241.00,841.29 241.00,841.29
             235.27,841.00 224.22,840.45 219.15,841.29
             217.77,842.56 217.41,842.29 216.60,844.15 Z
           M 919.00,846.71
           C 916.42,847.28 912.75,847.40 910.93,849.56
             908.82,852.07 909.00,857.84 908.91,861.00
             908.91,861.00 908.91,870.00 908.91,870.00
             908.03,876.56 907.02,873.60 907.00,884.00
             907.00,884.00 907.00,903.00 907.00,903.00
             907.00,903.00 907.79,915.00 907.79,915.00
             907.43,920.67 905.10,922.66 905.00,931.00
             905.00,931.00 905.00,944.00 905.00,944.00
             905.00,944.00 903.00,967.00 903.00,967.00
             902.97,970.05 903.34,981.30 905.02,983.40
             906.63,985.42 910.64,984.92 913.00,985.09
             913.00,985.09 921.00,985.91 921.00,985.91
             921.00,985.91 934.28,985.91 934.28,985.91
             934.28,985.91 952.00,987.00 952.00,987.00
             961.92,986.98 963.04,985.37 969.00,985.10
             969.00,985.10 985.00,986.09 985.00,986.09
             985.00,986.09 992.00,987.11 992.00,987.11
             992.00,987.11 1002.00,987.11 1002.00,987.11
             1006.62,987.96 1012.22,989.93 1016.98,988.69
             1022.45,987.26 1021.99,982.54 1022.04,978.00
             1022.04,978.00 1022.04,965.00 1022.04,965.00
             1022.04,965.00 1023.00,953.00 1023.00,953.00
             1023.00,953.00 1023.00,927.00 1023.00,927.00
             1023.00,927.00 1022.08,915.00 1022.08,915.00
             1022.08,915.00 1023.00,904.00 1023.00,904.00
             1023.00,904.00 1023.00,881.00 1023.00,881.00
             1023.00,881.00 1022.04,867.00 1022.04,867.00
             1022.29,860.63 1025.00,854.53 1019.77,849.22
             1014.71,844.08 1005.83,845.08 999.00,844.13
             989.05,842.75 983.85,842.98 974.00,843.00
             974.00,843.00 955.00,844.00 955.00,844.00
             946.10,843.96 944.59,842.30 934.00,843.28
             934.00,843.28 919.00,846.71 919.00,846.71 Z
           M 218.60,1004.31
           C 217.60,1006.35 218.00,1019.81 218.00,1023.00
             218.00,1023.00 218.00,1046.00 218.00,1046.00
             218.00,1046.00 218.66,1057.00 218.66,1057.00
             218.66,1057.00 217.08,1071.00 217.08,1071.00
             217.08,1071.00 217.08,1083.00 217.08,1083.00
             217.08,1083.00 215.08,1099.00 215.08,1099.00
             215.08,1099.00 215.08,1109.00 215.08,1109.00
             215.08,1109.00 214.09,1119.00 214.09,1119.00
             213.88,1122.66 214.55,1129.87 217.43,1132.41
             220.54,1135.14 229.90,1135.04 234.00,1135.00
             234.00,1135.00 244.00,1134.04 244.00,1134.04
             244.00,1134.04 254.00,1134.04 254.00,1134.04
             254.00,1134.04 268.00,1133.04 268.00,1133.04
             268.00,1133.04 306.00,1137.00 306.00,1137.00
             310.69,1137.06 322.06,1139.57 325.44,1136.40
             327.93,1134.07 327.83,1129.15 328.16,1126.00
             328.16,1126.00 329.00,1101.00 329.00,1101.00
             329.00,1101.00 331.08,1078.00 331.08,1078.00
             331.08,1078.00 331.08,1058.00 331.08,1058.00
             331.88,1050.69 332.99,1049.76 333.00,1041.00
             333.00,1041.00 333.00,1014.00 333.00,1014.00
             333.00,1011.73 333.21,1008.23 331.98,1006.28
             327.89,999.78 311.40,1004.83 305.00,1004.99
             305.00,1004.99 283.00,1003.00 283.00,1003.00
             283.00,1003.00 263.00,1003.00 263.00,1003.00
             263.00,1003.00 251.00,1002.09 251.00,1002.09
             244.86,1001.67 239.07,1002.32 233.00,1002.71
             228.14,1003.23 225.08,1001.56 220.31,1002.71
             219.93,1002.93 219.31,1002.87 218.60,1004.31 Z
           M 949.00,1009.14
           C 949.00,1009.14 928.00,1009.14 928.00,1009.14
             928.00,1009.14 917.00,1009.14 917.00,1009.14
             913.06,1009.26 906.56,1007.99 903.28,1010.60
             899.23,1013.81 899.01,1023.19 899.00,1028.00
             899.00,1028.00 899.00,1054.00 899.00,1054.00
             899.00,1054.00 900.37,1077.00 900.37,1077.00
             900.37,1077.00 900.37,1099.00 900.37,1099.00
             900.37,1099.00 900.37,1108.00 900.37,1108.00
             901.19,1114.89 897.19,1121.77 897.02,1131.00
             896.96,1133.74 896.87,1137.37 898.74,1139.57
             901.16,1142.42 905.62,1141.98 909.00,1142.00
             918.73,1142.06 919.62,1143.96 928.00,1144.95
             928.00,1144.95 952.00,1148.94 952.00,1148.94
             952.00,1148.94 962.00,1148.94 962.00,1148.94
             969.02,1149.92 967.05,1150.98 977.00,1151.00
             977.00,1151.00 1001.00,1153.53 1001.00,1153.53
             1004.96,1154.47 1007.57,1156.68 1011.00,1156.81
             1018.04,1157.08 1017.99,1151.16 1018.00,1146.00
             1018.00,1146.00 1018.00,1141.00 1018.00,1141.00
             1018.00,1141.00 1020.00,1109.00 1020.00,1109.00
             1020.00,1109.00 1022.00,1084.00 1022.00,1084.00
             1022.00,1084.00 1022.00,1023.00 1022.00,1023.00
             1021.99,1020.46 1022.32,1016.52 1020.40,1014.60
             1018.30,1012.50 1012.14,1013.05 1009.00,1012.56
             994.24,1010.26 993.52,1006.75 977.00,1008.28
             960.68,1010.63 962.60,1009.02 949.00,1009.14 Z
           M 214.00,1164.00
           C 214.00,1164.00 214.00,1184.00 214.00,1184.00
             214.04,1192.43 215.16,1191.76 215.92,1198.00
             215.92,1198.00 215.92,1207.00 215.92,1207.00
             215.92,1207.00 218.00,1229.00 218.00,1229.00
             218.00,1229.00 218.00,1286.00 218.00,1286.00
             218.02,1297.11 218.67,1299.12 230.00,1299.00
             230.00,1299.00 245.00,1298.04 245.00,1298.04
             245.00,1298.04 256.00,1298.04 256.00,1298.04
             256.00,1298.04 266.00,1299.00 266.00,1299.00
             266.00,1299.00 286.00,1297.83 286.00,1297.83
             286.00,1297.83 295.00,1296.69 295.00,1296.69
             295.00,1296.69 304.00,1296.69 304.00,1296.69
             304.00,1296.69 318.00,1296.69 318.00,1296.69
             323.44,1297.07 330.89,1301.02 331.92,1292.00
             331.92,1292.00 331.92,1288.00 331.92,1288.00
             331.73,1283.57 330.70,1282.58 330.02,1279.00
             330.02,1279.00 330.02,1269.00 330.02,1269.00
             330.02,1269.00 327.00,1242.00 327.00,1242.00
             327.00,1242.00 326.00,1228.00 326.00,1228.00
             326.00,1228.00 326.00,1195.00 326.00,1195.00
             326.00,1195.00 324.00,1172.00 324.00,1172.00
             323.97,1169.18 324.40,1163.71 322.83,1161.43
             322.05,1160.30 321.17,1159.82 319.89,1159.43
             319.89,1159.43 301.00,1157.92 301.00,1157.92
             301.00,1157.92 291.00,1157.92 291.00,1157.92
             282.09,1156.98 281.31,1155.93 271.00,1156.00
             271.00,1156.00 250.00,1156.00 250.00,1156.00
             250.00,1156.00 237.00,1156.97 237.00,1156.97
             229.85,1156.97 224.57,1153.57 218.11,1154.43
             213.45,1156.65 214.02,1159.30 214.00,1164.00 Z
           M 897.74,1170.23
           C 896.52,1172.83 896.97,1188.14 896.96,1192.00
             896.96,1192.00 896.96,1210.00 896.96,1210.00
             896.01,1223.16 894.60,1226.88 895.49,1241.00
             895.79,1245.78 893.91,1252.96 893.29,1258.00
             893.29,1258.00 892.01,1280.00 892.01,1280.00
             891.94,1283.44 891.75,1288.91 894.51,1291.40
             896.32,1293.03 904.93,1293.62 908.00,1294.20
             913.93,1295.30 916.20,1294.94 922.00,1295.00
             922.00,1295.00 953.00,1297.81 953.00,1297.81
             953.00,1297.81 979.00,1297.81 979.00,1297.81
             983.28,1298.29 988.39,1301.80 999.00,1303.49
             1003.06,1304.27 1012.21,1306.42 1015.44,1303.49
             1017.84,1301.16 1017.88,1296.10 1018.28,1293.00
             1018.28,1293.00 1019.00,1266.00 1019.00,1266.00
             1019.00,1266.00 1020.00,1249.00 1020.00,1249.00
             1020.00,1249.00 1019.00,1234.00 1019.00,1234.00
             1019.00,1234.00 1019.00,1199.00 1019.00,1199.00
             1019.00,1186.49 1021.86,1178.09 1009.00,1178.00
             1009.00,1178.00 1003.00,1178.00 1003.00,1178.00
             991.08,1177.86 985.27,1173.02 974.00,1173.00
             974.00,1173.00 968.00,1173.00 968.00,1173.00
             958.64,1172.99 958.06,1171.67 950.00,1170.32
             937.77,1168.28 912.97,1165.54 901.11,1167.43
             899.37,1168.26 898.66,1168.24 897.74,1170.23 Z
           M 891.72,1318.72
           C 887.24,1323.21 888.07,1340.66 888.00,1347.00
             888.00,1347.00 883.01,1388.00 883.01,1388.00
             883.17,1394.78 884.65,1399.29 883.83,1407.00
             883.83,1407.00 881.01,1424.00 881.01,1424.00
             880.94,1427.33 880.68,1432.02 883.43,1434.40
             885.68,1436.36 896.62,1436.85 900.00,1437.03
             900.00,1437.03 920.00,1440.39 920.00,1440.39
             920.00,1440.39 934.00,1441.95 934.00,1441.95
             939.74,1442.59 944.07,1443.38 950.00,1442.91
             950.00,1442.91 961.00,1441.13 961.00,1441.13
             961.00,1441.13 986.00,1443.00 986.00,1443.00
             986.00,1443.00 1006.00,1443.00 1006.00,1443.00
             1009.32,1442.98 1014.97,1443.04 1017.40,1440.44
             1019.60,1438.09 1018.88,1433.09 1019.09,1430.00
             1019.09,1430.00 1019.94,1420.00 1019.94,1420.00
             1019.94,1420.00 1019.94,1401.00 1019.94,1401.00
             1019.94,1401.00 1019.94,1386.00 1019.94,1386.00
             1019.16,1379.75 1018.04,1380.47 1018.00,1372.00
             1018.00,1372.00 1017.00,1356.00 1017.00,1356.00
             1017.00,1356.00 1017.00,1340.00 1017.00,1340.00
             1016.99,1336.47 1017.20,1330.18 1014.44,1327.60
             1011.88,1325.21 1005.48,1326.24 1002.00,1325.82
             992.78,1324.70 993.41,1321.02 980.00,1321.00
             980.00,1321.00 945.00,1319.00 945.00,1319.00
             945.00,1319.00 898.00,1316.30 898.00,1316.30
             895.82,1316.74 893.37,1317.07 891.72,1318.72 Z
           M 290.00,1320.00
           C 290.00,1320.00 275.00,1319.00 275.00,1319.00
             265.07,1318.89 266.70,1319.46 258.00,1320.70
             258.00,1320.70 247.00,1321.72 247.00,1321.72
             241.68,1322.34 227.41,1321.57 223.53,1324.74
             216.95,1330.12 221.32,1341.89 220.82,1349.00
             220.82,1349.00 220.00,1390.00 220.00,1390.00
             220.00,1390.00 218.00,1421.00 218.00,1421.00
             218.00,1421.00 218.00,1434.00 218.00,1434.00
             218.00,1436.27 217.79,1439.77 219.02,1441.72
             220.51,1444.09 223.46,1444.67 226.00,1445.19
             226.00,1445.19 246.00,1446.83 246.00,1446.83
             246.00,1446.83 280.00,1445.04 280.00,1445.04
             280.00,1445.04 293.00,1445.04 293.00,1445.04
             293.00,1445.04 305.00,1446.00 305.00,1446.00
             305.00,1446.00 339.00,1446.00 339.00,1446.00
             341.37,1446.00 344.80,1446.13 346.98,1445.26
             354.96,1442.08 351.17,1433.08 350.15,1427.00
             350.15,1427.00 350.15,1418.00 350.15,1418.00
             350.15,1418.00 346.81,1396.00 346.81,1396.00
             346.81,1396.00 346.81,1378.00 346.81,1378.00
             346.81,1378.00 344.47,1370.00 344.47,1370.00
             344.47,1370.00 343.62,1363.00 343.62,1363.00
             343.62,1363.00 338.46,1346.00 338.46,1346.00
             337.46,1340.47 337.08,1323.01 334.15,1319.31
             331.49,1315.97 323.85,1316.92 320.00,1317.29
             304.08,1319.92 306.47,1320.03 290.00,1320.00 Z
           M 353.00,1463.39
           C 334.27,1466.85 314.96,1465.97 296.00,1466.00
             296.00,1466.00 281.00,1467.00 281.00,1467.00
             281.00,1467.00 264.00,1467.00 264.00,1467.00
             264.00,1467.00 242.00,1470.00 242.00,1470.00
             236.49,1470.06 225.20,1468.56 221.60,1473.23
             217.62,1478.38 221.95,1496.43 225.43,1499.40
             227.66,1501.31 231.23,1500.99 234.00,1501.00
             234.00,1501.00 246.00,1501.00 246.00,1501.00
             246.00,1501.00 274.00,1499.00 274.00,1499.00
             274.00,1499.00 310.00,1504.00 310.00,1504.00
             310.00,1504.00 368.00,1504.00 368.00,1504.00
             368.00,1504.00 381.00,1504.99 381.00,1504.99
             381.00,1504.99 391.00,1504.09 391.00,1504.09
             391.00,1504.09 417.00,1503.32 417.00,1503.32
             417.00,1503.32 433.00,1504.00 433.00,1504.00
             433.00,1504.00 449.00,1503.00 449.00,1503.00
             449.00,1503.00 481.00,1503.00 481.00,1503.00
             481.00,1503.00 501.00,1502.09 501.00,1502.09
             501.00,1502.09 516.00,1503.29 516.00,1503.29
             522.70,1504.16 523.21,1505.16 531.00,1504.99
             531.00,1504.99 540.00,1504.18 540.00,1504.18
             540.00,1504.18 550.00,1505.00 550.00,1505.00
             550.00,1505.00 576.00,1505.00 576.00,1505.00
             576.00,1505.00 593.00,1506.00 593.00,1506.00
             593.00,1506.00 624.00,1506.00 624.00,1506.00
             624.00,1506.00 639.00,1505.00 639.00,1505.00
             639.00,1505.00 664.00,1507.00 664.00,1507.00
             664.00,1507.00 678.00,1506.32 678.00,1506.32
             678.00,1506.32 705.00,1509.00 705.00,1509.00
             705.00,1509.00 726.00,1508.01 726.00,1508.01
             726.00,1508.01 735.00,1508.96 735.00,1508.96
             735.00,1508.96 745.00,1508.96 745.00,1508.96
             745.00,1508.96 771.00,1511.00 771.00,1511.00
             771.00,1511.00 784.00,1510.04 784.00,1510.04
             784.00,1510.04 793.00,1511.07 793.00,1511.07
             793.00,1511.07 807.00,1511.07 807.00,1511.07
             814.01,1511.92 812.07,1512.98 822.00,1512.93
             822.00,1512.93 840.28,1512.93 840.28,1512.93
             840.28,1512.93 862.00,1514.93 862.00,1514.93
             862.00,1514.93 877.00,1514.93 877.00,1514.93
             877.00,1514.93 887.00,1514.93 887.00,1514.93
             887.00,1514.93 904.00,1516.00 904.00,1516.00
             904.00,1516.00 920.00,1515.00 920.00,1515.00
             920.00,1515.00 959.00,1515.00 959.00,1515.00
             959.00,1515.00 971.00,1514.04 971.00,1514.04
             971.00,1514.04 984.00,1514.04 984.00,1514.04
             984.00,1514.04 1000.00,1512.08 1000.00,1512.08
             1000.00,1512.08 1009.00,1512.08 1009.00,1512.08
             1011.41,1512.00 1014.75,1512.20 1016.87,1510.98
             1019.68,1509.36 1020.74,1505.91 1021.65,1503.00
             1024.05,1495.37 1022.89,1484.47 1020.31,1477.00
             1019.50,1474.66 1018.95,1469.24 1017.40,1468.02
             1015.81,1466.77 1011.99,1467.00 1010.00,1467.00
             1010.00,1467.00 1006.00,1467.00 1006.00,1467.00
             1006.00,1467.00 991.00,1466.00 991.00,1466.00
             991.00,1466.00 985.00,1466.00 985.00,1466.00
             985.00,1466.00 967.00,1466.91 967.00,1466.91
             967.00,1466.91 957.00,1465.00 957.00,1465.00
             957.00,1465.00 947.00,1465.00 947.00,1465.00
             947.00,1465.00 919.00,1462.00 919.00,1462.00
             919.00,1462.00 891.00,1460.00 891.00,1460.00
             891.00,1460.00 870.00,1457.04 870.00,1457.04
             858.34,1456.53 861.29,1460.13 848.00,1460.00
             848.00,1460.00 830.00,1458.09 830.00,1458.09
             830.00,1458.09 812.00,1458.09 812.00,1458.09
             812.00,1458.09 804.00,1458.09 804.00,1458.09
             796.84,1457.83 799.16,1455.92 783.00,1456.00
             783.00,1456.00 759.00,1458.00 759.00,1458.00
             759.00,1458.00 740.00,1458.00 740.00,1458.00
             740.00,1458.00 726.00,1457.00 726.00,1457.00
             726.00,1457.00 710.00,1458.06 710.00,1458.06
             710.00,1458.06 699.00,1458.06 699.00,1458.06
             699.00,1458.06 684.00,1459.00 684.00,1459.00
             684.00,1459.00 665.00,1460.66 665.00,1460.66
             665.00,1460.66 655.00,1460.00 655.00,1460.00
             655.00,1460.00 614.00,1462.20 614.00,1462.20
             614.00,1462.20 603.00,1462.20 603.00,1462.20
             603.00,1462.20 582.00,1461.04 582.00,1461.04
             582.00,1461.04 557.00,1463.04 557.00,1463.04
             557.00,1463.04 545.00,1463.04 545.00,1463.04
             545.00,1463.04 537.00,1463.92 537.00,1463.92
             537.00,1463.92 530.00,1463.04 530.00,1463.04
             530.00,1463.04 520.00,1463.04 520.00,1463.04
             520.00,1463.04 510.00,1462.00 510.00,1462.00
             510.00,1462.00 489.00,1462.00 489.00,1462.00
             489.00,1462.00 479.00,1462.95 479.00,1462.95
             479.00,1462.95 464.00,1462.95 464.00,1462.95
             464.00,1462.95 449.00,1462.00 449.00,1462.00
             436.72,1461.98 425.11,1459.03 413.00,1457.30
             413.00,1457.30 401.00,1456.67 401.00,1456.67
             393.41,1455.34 394.05,1451.90 381.00,1453.32
             362.90,1457.26 365.35,1461.10 353.00,1463.39 Z" />
</svg>
