<?xml version="1.0" encoding="UTF-8" standalone="no"?>
<!DOCTYPE svg PUBLIC "-//W3C//DTD SVG 20010904//EN"
              "http://www.w3.org/TR/2001/REC-SVG-20010904/DTD/svg10.dtd">

<svg xmlns="http://www.w3.org/2000/svg"
     width="23.6667in" height="10.7in"
     viewBox="0 0 2130 963">
  <path id="Selection"
        fill="rgba(178,27,36,1)" stroke="black" stroke-width="0"
        d="M 1790.43,129.00
           C 1790.09,134.11 1795.67,140.24 1801.00,138.51
             1803.39,137.74 1806.71,134.72 1809.00,133.26
             1813.64,130.30 1815.95,130.95 1820.00,128.30
             1825.68,124.60 1826.66,121.44 1834.00,119.00
             1836.60,128.25 1829.14,141.70 1826.42,151.00
             1823.96,159.43 1821.41,168.12 1821.74,177.00
             1821.74,177.00 1823.00,192.00 1823.00,192.00
             1823.08,199.12 1823.44,205.66 1814.00,204.82
             1803.29,203.87 1793.91,199.68 1782.00,200.02
             1774.36,200.23 1773.33,203.16 1767.00,206.00
             1760.96,195.34 1755.59,176.28 1755.03,164.00
             1754.78,159.42 1753.74,155.60 1755.03,151.04
             1756.76,145.13 1760.27,146.52 1767.39,138.00
             1780.92,121.78 1782.47,113.36 1801.00,101.00
             1804.71,110.69 1791.06,119.76 1790.43,129.00 Z
           M 1626.22,265.04
           C 1627.54,268.24 1626.48,271.74 1626.22,275.00
             1626.22,275.00 1625.02,291.00 1625.02,291.00
             1624.95,294.39 1625.11,301.52 1630.03,301.52
             1632.90,301.52 1634.98,298.29 1636.03,296.00
             1636.03,296.00 1641.63,274.00 1641.63,274.00
             1641.63,274.00 1648.33,248.00 1648.33,248.00
             1648.33,248.00 1650.46,231.00 1650.46,231.00
             1650.46,231.00 1655.63,211.00 1655.63,211.00
             1657.16,205.12 1662.88,187.27 1666.79,183.45
             1671.91,178.43 1676.57,186.56 1677.43,191.00
             1678.53,196.66 1672.32,214.40 1670.63,221.00
             1668.64,228.78 1665.09,246.33 1665.05,254.00
             1665.05,254.00 1665.05,264.00 1665.05,264.00
             1665.35,267.87 1666.15,269.72 1665.91,274.00
             1665.67,278.24 1663.27,286.40 1664.60,289.98
             1668.78,301.19 1683.99,290.21 1686.43,282.00
             1686.43,282.00 1689.89,260.00 1689.89,260.00
             1689.89,260.00 1700.73,214.00 1700.73,214.00
             1702.38,202.82 1704.72,180.58 1708.46,171.00
             1711.67,162.79 1721.85,146.67 1727.00,139.00
             1728.53,136.72 1732.94,129.32 1736.42,131.17
             1738.14,132.08 1738.65,136.24 1738.92,138.00
             1738.92,138.00 1738.92,157.00 1738.92,157.00
             1739.18,171.95 1747.94,191.44 1752.28,206.00
             1753.99,211.74 1756.01,223.53 1759.13,227.89
             1762.28,232.31 1766.92,232.75 1768.57,226.98
             1769.86,222.46 1768.11,214.05 1768.00,209.00
             1768.00,209.00 1781.00,213.47 1781.00,213.47
             1781.00,213.47 1793.00,215.24 1793.00,215.24
             1793.00,215.24 1813.00,222.00 1813.00,222.00
             1813.00,222.00 1837.00,230.90 1837.00,230.90
             1843.10,234.24 1851.48,241.91 1857.00,246.58
             1857.00,246.58 1889.00,273.20 1889.00,273.20
             1889.00,273.20 1914.00,292.37 1914.00,292.37
             1917.94,295.33 1924.74,299.97 1927.15,304.00
             1931.30,310.46 1926.58,317.07 1927.15,328.00
             1927.34,335.02 1932.05,353.89 1935.41,360.00
             1937.17,363.20 1941.53,368.26 1944.09,371.00
             1944.09,371.00 1962.00,388.47 1962.00,388.47
             1969.45,394.24 1975.45,395.66 1983.00,399.86
             1983.00,399.86 2003.00,412.10 2003.00,412.10
             2003.00,412.10 2021.00,420.75 2021.00,420.75
             2021.00,420.75 2047.00,433.25 2047.00,433.25
             2050.40,434.96 2056.18,437.64 2057.77,441.09
             2059.42,443.90 2058.13,448.93 2057.77,452.00
             2055.09,465.78 2055.55,469.32 2040.00,470.83
             2040.00,470.83 2024.00,472.16 2024.00,472.16
             2024.00,472.16 1986.00,476.00 1986.00,476.00
             1986.00,476.00 1955.00,476.00 1955.00,476.00
             1955.00,476.00 1933.00,475.00 1933.00,475.00
             1922.42,474.87 1903.85,471.38 1893.00,469.42
             1893.00,469.42 1875.00,466.34 1875.00,466.34
             1875.00,466.34 1822.00,450.55 1822.00,450.55
             1822.00,450.55 1799.00,439.75 1799.00,439.75
             1787.74,434.12 1770.99,427.16 1762.00,419.00
             1758.49,415.81 1751.15,408.37 1746.00,409.84
             1741.20,411.21 1737.90,417.90 1735.75,422.00
             1732.24,428.67 1726.33,437.18 1721.54,443.00
             1714.25,451.86 1705.08,458.93 1697.00,467.00
             1697.00,467.00 1686.28,478.00 1686.28,478.00
             1686.28,478.00 1673.57,492.72 1673.57,492.72
             1673.57,492.72 1649.91,516.00 1649.91,516.00
             1649.91,516.00 1624.00,541.96 1624.00,541.96
             1624.00,541.96 1614.29,551.01 1614.29,551.01
             1614.29,551.01 1564.63,616.00 1564.63,616.00
             1564.63,616.00 1539.16,649.00 1539.16,649.00
             1539.16,649.00 1507.45,697.00 1507.45,697.00
             1507.45,697.00 1498.69,714.00 1498.69,714.00
             1498.69,714.00 1464.69,782.00 1464.69,782.00
             1464.69,782.00 1450.45,810.00 1450.45,810.00
             1450.45,810.00 1437.81,850.00 1437.81,850.00
             1437.81,850.00 1414.37,927.00 1414.37,927.00
             1414.37,927.00 1406.62,954.00 1406.62,954.00
             1406.52,956.76 1407.56,960.14 1408.00,963.00
             1408.00,963.00 1324.00,963.00 1324.00,963.00
             1322.06,963.00 1318.28,963.25 1316.74,962.01
             1314.77,960.42 1314.92,956.27 1315.18,954.00
             1315.18,954.00 1320.00,933.00 1320.00,933.00
             1321.90,923.50 1323.25,914.67 1324.04,905.00
             1324.04,905.00 1324.04,895.00 1324.04,895.00
             1324.04,895.00 1325.66,879.00 1325.66,879.00
             1325.66,879.00 1325.00,869.00 1325.00,869.00
             1325.00,869.00 1322.91,830.00 1322.91,830.00
             1322.91,830.00 1322.04,822.00 1322.04,822.00
             1322.04,822.00 1326.00,774.00 1326.00,774.00
             1326.00,770.25 1325.28,758.77 1319.03,760.49
             1314.41,761.76 1312.40,769.96 1311.37,774.00
             1311.37,774.00 1306.87,798.00 1306.87,798.00
             1305.91,804.89 1306.19,810.17 1298.98,813.47
             1292.57,816.42 1271.24,819.38 1263.00,821.00
             1263.00,821.00 1238.00,825.66 1238.00,825.66
             1227.60,827.91 1225.51,829.98 1214.00,830.00
             1214.00,830.00 1166.00,831.00 1166.00,831.00
             1166.00,831.00 1138.00,833.00 1138.00,833.00
             1138.00,833.00 1118.00,833.00 1118.00,833.00
             1118.00,833.00 1106.00,832.09 1106.00,832.09
             1106.00,832.09 1084.00,830.71 1084.00,830.71
             1084.00,830.71 1027.00,821.28 1027.00,821.28
             1004.28,818.22 981.11,817.18 959.00,810.56
             948.97,807.56 920.46,796.05 911.00,791.24
             905.50,788.45 895.50,783.00 892.27,777.83
             892.27,777.83 884.28,752.00 884.28,752.00
             884.28,752.00 866.92,698.00 866.92,698.00
             864.40,690.67 857.68,673.86 848.00,674.76
             843.39,675.19 840.52,679.59 841.47,684.00
             841.47,684.00 845.66,695.00 845.66,695.00
             845.66,695.00 855.67,724.00 855.67,724.00
             855.67,724.00 868.58,766.00 868.58,766.00
             868.58,766.00 871.46,791.00 871.46,791.00
             871.46,791.00 885.34,839.00 885.34,839.00
             885.34,839.00 898.31,872.00 898.31,872.00
             900.43,876.59 904.62,881.85 903.71,887.00
             902.72,892.62 896.07,897.70 892.00,901.28
             885.20,907.28 879.22,914.26 873.17,921.00
             865.60,929.42 858.61,938.58 852.33,948.00
             843.06,961.91 845.73,962.98 835.00,963.00
             835.00,963.00 700.00,963.00 700.00,963.00
             700.01,951.03 702.77,949.92 703.83,939.00
             704.42,932.95 704.64,920.22 706.48,915.00
             709.59,906.20 714.89,907.92 716.38,893.00
             716.99,886.89 714.73,880.90 713.42,875.00
             711.23,865.14 709.34,854.35 705.55,845.00
             699.77,830.75 688.87,808.91 679.48,797.00
             679.48,797.00 656.32,773.00 656.32,773.00
             656.32,773.00 635.68,745.00 635.68,745.00
             635.68,745.00 619.79,729.00 619.79,729.00
             619.79,729.00 604.58,698.00 604.58,698.00
             590.62,665.99 585.95,651.27 586.00,616.00
             586.00,616.00 589.00,579.00 589.00,579.00
             589.00,579.00 589.00,568.00 589.00,568.00
             589.05,558.39 591.10,548.48 592.58,539.00
             592.58,539.00 596.35,518.00 596.35,518.00
             599.46,507.97 604.40,498.56 608.70,489.00
             608.70,489.00 618.12,467.00 618.12,467.00
             622.04,460.61 633.88,446.95 640.00,442.96
             640.00,442.96 668.00,429.54 668.00,429.54
             668.00,429.54 693.00,414.01 693.00,414.01
             693.00,414.01 736.00,391.69 736.00,391.69
             744.59,387.75 748.36,384.90 758.00,382.04
             764.85,380.00 785.82,377.09 793.00,377.00
             793.00,377.00 825.00,379.00 825.00,379.00
             825.00,379.00 837.00,379.00 837.00,379.00
             853.71,379.20 869.67,383.63 886.00,386.58
             886.00,386.58 945.00,396.45 945.00,396.45
             945.00,396.45 992.00,407.55 992.00,407.55
             992.00,407.55 1029.00,413.27 1029.00,413.27
             1029.00,413.27 1074.00,420.27 1074.00,420.27
             1092.80,423.04 1111.94,427.22 1131.00,427.00
             1131.00,427.00 1150.00,426.00 1150.00,426.00
             1150.00,426.00 1178.00,428.00 1178.00,428.00
             1178.00,428.00 1207.00,431.00 1207.00,431.00
             1207.00,431.00 1226.00,431.00 1226.00,431.00
             1226.00,431.00 1238.00,431.82 1238.00,431.82
             1238.00,431.82 1263.00,430.00 1263.00,430.00
             1263.00,430.00 1313.00,425.15 1313.00,425.15
             1313.00,425.15 1365.00,418.57 1365.00,418.57
             1365.00,418.57 1390.00,412.21 1390.00,412.21
             1390.00,412.21 1446.00,403.10 1446.00,403.10
             1456.33,399.81 1478.25,385.96 1489.00,380.32
             1497.98,375.61 1501.83,375.43 1512.00,368.95
             1512.00,368.95 1560.00,331.40 1560.00,331.40
             1577.84,317.13 1605.80,291.28 1617.54,272.00
             1617.54,272.00 1623.00,261.00 1623.00,261.00
             1624.56,262.41 1625.43,262.95 1626.22,265.04 Z
           M 1832.00,335.62
           C 1819.93,333.44 1797.43,337.19 1794.00,351.00
             1794.00,351.00 1813.00,350.00 1813.00,350.00
             1809.45,357.10 1803.89,356.48 1803.54,361.08
             1803.24,364.95 1807.94,367.53 1811.00,368.49
             1816.32,370.65 1825.80,370.60 1831.00,368.49
             1841.12,363.87 1838.26,358.09 1830.00,354.00
             1836.70,348.24 1838.64,349.00 1847.00,349.00
             1846.43,338.82 1841.12,337.26 1832.00,335.62 Z
           M 142.00,838.21
           C 149.79,843.82 162.46,846.88 172.00,847.00
             199.47,847.32 197.29,845.80 223.00,839.37
             232.19,837.08 243.43,834.55 252.00,830.69
             268.08,823.44 275.33,815.97 289.00,805.88
             289.00,805.88 315.00,786.83 315.00,786.83
             315.00,786.83 333.83,769.00 333.83,769.00
             333.83,769.00 350.00,750.00 350.00,750.00
             350.00,750.00 371.00,730.83 371.00,730.83
             371.00,730.83 388.00,715.44 388.00,715.44
             394.56,709.91 402.03,705.37 407.83,699.00
             407.83,699.00 441.65,656.00 441.65,656.00
             441.65,656.00 470.88,610.00 470.88,610.00
             476.56,601.81 480.45,597.39 484.69,588.00
             487.34,582.12 490.27,571.93 493.80,567.01
             493.80,567.01 510.56,550.00 510.56,550.00
             510.56,550.00 558.61,491.00 558.61,491.00
             565.17,483.05 578.51,471.51 587.00,465.43
             589.65,463.53 595.26,459.23 598.69,460.64
             602.84,462.36 599.38,468.56 597.98,471.00
             594.92,476.36 591.23,481.21 588.92,487.00
             586.57,492.93 585.79,499.85 581.47,504.82
             577.67,509.19 573.98,509.15 568.52,516.00
             558.65,528.36 544.33,555.30 536.74,570.00
             536.74,570.00 503.26,636.00 503.26,636.00
             503.26,636.00 489.75,666.00 489.75,666.00
             489.75,666.00 475.69,697.00 475.69,697.00
             475.69,697.00 467.31,714.00 467.31,714.00
             467.31,714.00 454.23,747.00 454.23,747.00
             454.23,747.00 445.54,777.00 445.54,777.00
             445.54,777.00 441.31,786.00 441.31,786.00
             441.31,786.00 425.42,821.00 425.42,821.00
             425.42,821.00 414.05,849.00 414.05,849.00
             414.05,849.00 404.87,873.00 404.87,873.00
             404.87,873.00 387.33,901.00 387.33,901.00
             387.33,901.00 357.34,947.00 357.34,947.00
             354.89,950.56 348.41,960.93 344.83,962.40
             343.08,963.12 339.93,963.00 338.00,963.00
             338.00,963.00 204.00,963.00 204.00,963.00
             204.00,963.00 140.00,963.00 140.00,963.00
             133.74,963.00 115.83,963.91 111.00,962.00
             114.26,959.39 116.18,957.11 117.36,953.00
             118.41,949.38 118.05,931.89 118.00,927.00
             118.00,927.00 117.00,913.00 117.00,913.00
             117.00,913.00 117.00,886.00 117.00,886.00
             117.00,886.00 125.00,826.00 125.00,826.00
             134.97,826.72 133.19,831.88 142.00,838.21 Z
           M 1503.00,830.00
           C 1502.83,843.95 1499.38,857.53 1496.23,871.00
             1493.70,881.85 1493.67,892.94 1492.91,904.00
             1492.91,904.00 1492.00,914.00 1492.00,914.00
             1491.82,929.54 1489.13,926.37 1489.00,936.00
             1488.91,943.29 1488.39,956.37 1490.00,963.00
             1490.00,963.00 1432.00,963.00 1432.00,963.00
             1423.90,962.95 1423.86,962.28 1424.00,950.00
             1424.18,934.73 1429.24,928.79 1435.63,916.00
             1435.63,916.00 1442.51,901.00 1442.51,901.00
             1442.51,901.00 1453.95,883.00 1453.95,883.00
             1453.95,883.00 1476.31,848.00 1476.31,848.00
             1484.60,835.11 1490.50,822.46 1503.00,813.00
             1503.00,813.00 1503.00,830.00 1503.00,830.00 Z
           M 60.00,963.00
           C 57.92,963.00 54.26,963.23 52.56,961.98
             49.86,959.98 48.23,948.52 47.73,945.00
             45.44,928.99 42.79,904.91 43.00,889.00
             43.07,884.28 44.25,876.41 51.00,878.08
             56.59,879.46 65.22,892.23 69.00,897.00
             74.62,904.08 91.73,923.76 94.67,930.00
             100.35,942.03 96.44,951.13 106.00,963.00
             106.00,963.00 60.00,963.00 60.00,963.00 Z" />
             <path id="Selection"
                   fill="rgba(242,242,242, .8)" stroke="black" stroke-width="0"
                   d="M 1462.35,813.00
                      C 1462.35,813.00 1472.75,794.00 1472.75,794.00
                        1472.75,794.00 1490.75,755.00 1490.75,755.00
                        1490.75,755.00 1516.96,703.00 1516.96,703.00
                        1521.58,695.93 1527.79,693.13 1533.08,686.00
                        1533.08,686.00 1553.09,654.00 1553.09,654.00
                        1553.09,654.00 1578.13,621.00 1578.13,621.00
                        1578.13,621.00 1640.17,541.00 1640.17,541.00
                        1640.17,541.00 1670.00,511.96 1670.00,511.96
                        1676.11,506.11 1683.71,498.68 1688.76,492.00
                        1693.17,486.17 1694.48,481.46 1700.04,476.09
                        1708.13,468.28 1715.12,468.72 1728.00,456.00
                        1728.00,456.00 1743.83,440.00 1743.83,440.00
                        1746.33,437.25 1749.07,433.20 1753.00,432.61
                        1757.33,431.97 1769.14,439.46 1774.00,441.58
                        1792.27,449.55 1811.95,462.31 1831.00,466.58
                        1831.00,466.58 1847.00,469.89 1847.00,469.89
                        1847.00,469.89 1864.00,474.77 1864.00,474.77
                        1864.00,474.77 1888.00,479.42 1888.00,479.42
                        1888.00,479.42 1901.00,482.54 1901.00,482.54
                        1901.00,482.54 1939.00,487.16 1939.00,487.16
                        1950.22,488.37 1958.40,490.13 1970.00,490.00
                        1970.00,490.00 1983.00,489.00 1983.00,489.00
                        1983.00,489.00 2004.00,489.00 2004.00,489.00
                        2012.01,488.90 2014.64,487.07 2022.00,485.42
                        2022.00,485.42 2048.00,480.92 2048.00,480.92
                        2053.96,479.94 2062.05,478.49 2066.77,483.23
                        2074.20,490.67 2065.87,496.32 2059.00,498.64
                        2050.37,501.56 2041.08,502.95 2032.00,503.00
                        2032.00,503.00 2013.00,504.00 2013.00,504.00
                        2013.00,504.00 1998.00,505.00 1998.00,505.00
                        1998.00,505.00 1977.00,505.00 1977.00,505.00
                        1977.00,505.00 1907.00,497.85 1907.00,497.85
                        1898.84,496.83 1889.20,493.68 1881.00,494.04
                        1877.14,494.21 1872.14,495.44 1869.43,498.39
                        1867.24,500.79 1866.91,504.23 1870.15,505.89
                        1870.15,505.89 1887.00,505.00 1887.00,505.00
                        1894.97,505.09 1913.41,509.22 1922.00,511.00
                        1922.00,511.00 1950.00,514.28 1950.00,514.28
                        1950.00,514.28 1973.00,517.00 1973.00,517.00
                        1973.00,517.00 1997.00,518.00 1997.00,518.00
                        1995.57,519.58 1995.08,520.41 1992.96,521.26
                        1992.96,521.26 1975.00,523.03 1975.00,523.03
                        1975.00,523.03 1963.00,524.04 1963.00,524.04
                        1963.00,524.04 1950.00,524.04 1950.00,524.04
                        1950.00,524.04 1939.00,525.00 1939.00,525.00
                        1939.00,525.00 1918.00,525.00 1918.00,525.00
                        1918.00,525.00 1890.00,523.00 1890.00,523.00
                        1890.00,523.00 1876.00,523.90 1876.00,523.90
                        1876.00,523.90 1832.00,519.17 1832.00,519.17
                        1832.00,519.17 1785.00,515.17 1785.00,515.17
                        1785.00,515.17 1765.00,513.71 1765.00,513.71
                        1765.00,513.71 1722.00,504.99 1722.00,504.99
                        1717.45,503.75 1707.34,500.23 1703.15,502.49
                        1696.86,505.88 1703.27,511.82 1698.72,520.00
                        1696.32,524.32 1680.41,539.84 1676.00,543.83
                        1676.00,543.83 1650.30,568.00 1650.30,568.00
                        1650.30,568.00 1637.12,586.00 1637.12,586.00
                        1637.12,586.00 1601.53,635.00 1601.53,635.00
                        1601.53,635.00 1573.37,671.00 1573.37,671.00
                        1555.99,694.18 1534.60,725.88 1520.28,751.00
                        1520.28,751.00 1500.55,787.00 1500.55,787.00
                        1500.55,787.00 1473.42,827.00 1473.42,827.00
                        1473.42,827.00 1457.48,849.40 1457.48,849.40
                        1455.82,850.74 1454.94,850.67 1453.00,851.00
                        1453.07,843.26 1459.14,820.23 1462.35,813.00 Z
                      M 95.00,731.00
                      C 95.00,731.00 102.65,752.00 102.65,752.00
                        102.65,752.00 107.06,768.00 107.06,768.00
                        111.01,778.39 115.86,781.92 116.00,794.00
                        116.14,806.36 114.40,803.63 110.70,814.00
                        110.70,814.00 103.16,839.00 103.16,839.00
                        103.16,839.00 96.20,878.00 96.20,878.00
                        95.48,881.65 94.39,889.39 88.99,888.12
                        86.17,887.45 83.40,884.13 81.61,882.00
                        81.61,882.00 68.56,866.00 68.56,866.00
                        58.89,854.47 58.28,855.32 52.60,841.00
                        51.46,838.13 49.79,834.00 49.33,831.00
                        48.33,824.61 53.77,806.47 55.20,799.00
                        55.20,799.00 56.29,789.00 56.29,789.00
                        56.29,789.00 58.61,776.00 58.61,776.00
                        58.61,776.00 61.52,764.00 61.52,764.00
                        61.52,764.00 64.64,755.00 64.64,755.00
                        64.64,755.00 66.29,743.00 66.29,743.00
                        66.29,743.00 68.87,732.00 68.87,732.00
                        68.87,732.00 77.12,696.00 77.12,696.00
                        78.65,689.36 78.26,684.38 85.00,681.00
                        85.00,681.00 95.00,731.00 95.00,731.00 Z" />
                        <path id="Selection"
                              fill="rgba(0,0,0,1)" stroke="none" stroke-width="0"
                              d="M 1788.00,94.00
                                 C 1788.00,94.00 1817.00,65.17 1817.00,65.17
                                   1830.15,53.29 1858.99,34.25 1875.00,26.25
                                   1883.07,22.21 1898.46,15.80 1907.00,13.09
                                   1910.67,11.93 1917.54,11.10 1920.77,13.60
                                   1925.55,17.28 1923.89,23.43 1921.74,28.00
                                   1921.74,28.00 1903.42,63.00 1903.42,63.00
                                   1894.97,77.99 1889.68,94.17 1883.14,110.00
                                   1883.14,110.00 1870.86,137.00 1870.86,137.00
                                   1870.86,137.00 1856.31,174.00 1856.31,174.00
                                   1856.31,174.00 1846.66,201.00 1846.66,201.00
                                   1845.34,204.79 1843.23,208.96 1844.74,213.00
                                   1847.19,219.58 1856.20,221.84 1864.00,229.09
                                   1864.00,229.09 1878.00,244.91 1878.00,244.91
                                   1878.00,244.91 1922.00,280.42 1922.00,280.42
                                   1927.13,284.43 1941.18,294.55 1943.26,300.00
                                   1944.24,302.55 1944.03,308.11 1944.00,311.00
                                   1944.00,311.00 1943.09,324.00 1943.09,324.00
                                   1943.39,329.33 1944.85,342.25 1946.55,347.00
                                   1949.91,356.41 1966.54,371.98 1975.00,376.93
                                   1975.00,376.93 1986.00,382.31 1986.00,382.31
                                   1986.00,382.31 2012.00,397.69 2012.00,397.69
                                   2012.00,397.69 2049.00,415.27 2049.00,415.27
                                   2049.00,415.27 2071.00,427.52 2071.00,427.52
                                   2071.00,427.52 2094.00,437.31 2094.00,437.31
                                   2099.91,439.42 2106.64,441.30 2110.15,447.02
                                   2112.17,450.32 2112.03,454.26 2112.00,458.00
                                   2111.85,472.71 2101.07,484.33 2091.00,493.96
                                   2082.39,502.19 2076.83,504.64 2068.00,511.16
                                   2062.58,515.16 2060.04,518.57 2054.00,521.74
                                   2046.81,525.51 2042.93,525.65 2036.00,528.45
                                   2027.52,531.89 2024.95,534.17 2015.00,535.85
                                   2000.02,538.02 1987.85,535.83 1973.00,535.85
                                   1973.00,535.85 1963.00,537.04 1963.00,537.04
                                   1963.00,537.04 1953.00,537.04 1953.00,537.04
                                   1953.00,537.04 1930.00,539.00 1930.00,539.00
                                   1930.00,539.00 1905.00,539.00 1905.00,539.00
                                   1905.00,539.00 1860.00,536.17 1860.00,536.17
                                   1860.00,536.17 1792.00,529.83 1792.00,529.83
                                   1792.00,529.83 1740.00,522.57 1740.00,522.57
                                   1735.36,521.79 1722.53,517.93 1719.00,519.34
                                   1715.56,520.73 1712.32,525.25 1709.83,528.00
                                   1709.83,528.00 1696.00,541.91 1696.00,541.91
                                   1696.00,541.91 1677.09,559.00 1677.09,559.00
                                   1677.09,559.00 1633.40,613.00 1633.40,613.00
                                   1633.40,613.00 1575.58,690.00 1575.58,690.00
                                   1561.70,709.22 1546.03,729.29 1536.31,751.00
                                   1532.31,759.93 1533.70,763.49 1531.52,772.00
                                   1531.52,772.00 1526.21,788.00 1526.21,788.00
                                   1526.21,788.00 1522.63,804.00 1522.63,804.00
                                   1522.63,804.00 1517.45,825.00 1517.45,825.00
                                   1517.45,825.00 1512.79,853.00 1512.79,853.00
                                   1508.25,874.45 1503.26,895.99 1503.00,918.00
                                   1503.00,918.00 1502.00,933.00 1502.00,933.00
                                   1502.00,933.00 1502.00,949.00 1502.00,949.00
                                   1502.00,949.00 1503.00,963.00 1503.00,963.00
                                   1503.00,963.00 1496.00,963.00 1496.00,963.00
                                   1489.16,962.87 1489.04,961.43 1489.00,955.00
                                   1489.00,955.00 1489.00,935.00 1489.00,935.00
                                   1489.13,925.12 1491.94,927.60 1492.00,916.00
                                   1492.00,916.00 1494.44,879.00 1494.44,879.00
                                   1494.44,879.00 1501.57,845.00 1501.57,845.00
                                   1501.57,845.00 1504.00,813.00 1504.00,813.00
                                   1490.25,823.41 1485.28,835.07 1476.31,849.00
                                   1476.31,849.00 1453.95,884.00 1453.95,884.00
                                   1453.95,884.00 1442.51,902.00 1442.51,902.00
                                   1442.51,902.00 1435.63,917.00 1435.63,917.00
                                   1427.80,932.66 1420.49,944.44 1425.00,963.00
                                   1425.00,963.00 1408.00,963.00 1408.00,963.00
                                   1407.47,960.63 1406.40,957.27 1406.35,955.00
                                   1406.23,949.07 1412.28,933.91 1414.12,927.00
                                   1414.12,927.00 1425.28,889.00 1425.28,889.00
                                   1425.28,889.00 1431.34,868.00 1431.34,868.00
                                   1431.34,868.00 1438.26,848.00 1438.26,848.00
                                   1438.26,848.00 1450.45,809.00 1450.45,809.00
                                   1450.45,809.00 1456.69,797.00 1456.69,797.00
                                   1456.69,797.00 1466.69,777.00 1466.69,777.00
                                   1466.69,777.00 1478.11,752.00 1478.11,752.00
                                   1478.11,752.00 1498.69,713.00 1498.69,713.00
                                   1498.69,713.00 1507.45,696.00 1507.45,696.00
                                   1507.45,696.00 1539.90,647.00 1539.90,647.00
                                   1539.90,647.00 1565.63,614.00 1565.63,614.00
                                   1565.63,614.00 1614.29,550.04 1614.29,550.04
                                   1614.29,550.04 1633.91,531.72 1633.91,531.72
                                   1633.91,531.72 1650.91,514.01 1650.91,514.01
                                   1650.91,514.01 1673.57,491.83 1673.57,491.83
                                   1673.57,491.83 1695.00,468.00 1695.00,468.00
                                   1695.00,468.00 1720.70,443.00 1720.70,443.00
                                   1724.72,438.31 1731.71,428.42 1734.69,423.00
                                   1737.15,418.54 1739.87,411.61 1745.01,409.75
                                   1750.71,407.69 1757.09,413.69 1761.00,417.17
                                   1761.00,417.17 1768.00,423.21 1768.00,423.21
                                   1768.00,423.21 1798.00,438.75 1798.00,438.75
                                   1798.00,438.75 1823.00,450.55 1823.00,450.55
                                   1823.00,450.55 1876.00,466.34 1876.00,466.34
                                   1876.00,466.34 1894.00,469.42 1894.00,469.42
                                   1904.85,471.38 1923.42,474.87 1934.00,475.00
                                   1934.00,475.00 1956.00,476.00 1956.00,476.00
                                   1956.00,476.00 1987.00,476.00 1987.00,476.00
                                   1987.00,476.00 2031.00,471.28 2031.00,471.28
                                   2036.84,470.59 2044.62,471.15 2049.96,468.31
                                   2056.39,464.89 2056.64,456.49 2057.56,450.00
                                   2058.27,446.99 2059.13,443.85 2057.56,441.09
                                   2055.13,437.60 2048.71,434.61 2045.00,432.75
                                   2045.00,432.75 2018.00,419.75 2018.00,419.75
                                   2018.00,419.75 2001.00,411.49 2001.00,411.49
                                   2001.00,411.49 1982.00,399.86 1982.00,399.86
                                   1982.00,399.86 1963.00,389.90 1963.00,389.90
                                   1957.08,385.94 1939.75,368.14 1935.99,362.00
                                   1931.91,355.34 1927.20,334.98 1927.01,327.00
                                   1926.88,321.00 1929.59,310.61 1928.26,307.00
                                   1926.42,302.02 1919.21,297.03 1915.00,293.87
                                   1915.00,293.87 1887.00,272.39 1887.00,272.39
                                   1887.00,272.39 1855.00,245.59 1855.00,245.59
                                   1849.83,241.29 1841.60,233.97 1836.00,230.90
                                   1836.00,230.90 1812.00,222.00 1812.00,222.00
                                   1812.00,222.00 1792.00,215.24 1792.00,215.24
                                   1792.00,215.24 1779.00,213.21 1779.00,213.21
                                   1779.00,213.21 1768.00,209.00 1768.00,209.00
                                   1768.00,209.00 1768.99,221.00 1768.99,221.00
                                   1769.07,224.73 1769.50,231.80 1764.00,231.63
                                   1762.32,231.58 1760.94,230.75 1759.80,229.57
                                   1756.86,226.52 1755.65,220.08 1754.63,216.00
                                   1750.43,199.24 1739.19,173.78 1738.96,158.00
                                   1738.96,158.00 1738.96,139.00 1738.96,139.00
                                   1738.77,137.11 1738.26,132.95 1736.44,131.91
                                   1732.98,129.95 1728.43,137.71 1726.95,140.00
                                   1721.66,148.19 1711.85,163.33 1708.46,172.00
                                   1704.72,181.58 1702.38,203.82 1700.73,215.00
                                   1700.73,215.00 1689.89,261.00 1689.89,261.00
                                   1689.89,261.00 1686.43,283.00 1686.43,283.00
                                   1683.59,292.52 1668.18,299.86 1664.60,290.94
                                   1662.94,286.80 1665.44,279.44 1665.83,275.00
                                   1665.83,275.00 1665.00,253.00 1665.00,253.00
                                   1665.10,244.78 1668.53,229.40 1670.42,221.00
                                   1671.93,214.34 1678.05,197.41 1677.30,192.00
                                   1676.76,188.09 1672.37,179.64 1667.53,183.54
                                   1663.46,186.81 1658.36,202.55 1656.72,208.00
                                   1656.72,208.00 1650.28,233.00 1650.28,233.00
                                   1650.28,233.00 1648.54,248.00 1648.54,248.00
                                   1648.54,248.00 1641.63,275.00 1641.63,275.00
                                   1641.63,275.00 1636.44,296.00 1636.44,296.00
                                   1635.39,298.69 1633.33,302.14 1630.03,302.14
                                   1624.94,302.14 1625.00,295.51 1625.00,292.00
                                   1625.00,292.00 1626.28,274.00 1626.28,274.00
                                   1626.42,271.38 1627.27,268.58 1626.28,266.00
                                   1625.66,263.88 1624.38,262.65 1623.00,261.00
                                   1618.31,274.45 1612.41,280.50 1603.28,291.00
                                   1589.57,306.77 1579.33,316.74 1563.00,329.80
                                   1563.00,329.80 1514.00,368.30 1514.00,368.30
                                   1514.00,368.30 1483.00,384.28 1483.00,384.28
                                   1474.69,389.00 1455.12,400.51 1447.00,403.10
                                   1447.00,403.10 1395.00,411.42 1395.00,411.42
                                   1395.00,411.42 1366.00,418.57 1366.00,418.57
                                   1366.00,418.57 1313.00,425.28 1313.00,425.28
                                   1313.00,425.28 1272.00,430.00 1272.00,430.00
                                   1272.00,430.00 1263.00,430.00 1263.00,430.00
                                   1263.00,430.00 1235.00,431.91 1235.00,431.91
                                   1235.00,431.91 1223.00,431.00 1223.00,431.00
                                   1223.00,431.00 1207.00,431.00 1207.00,431.00
                                   1207.00,431.00 1182.00,428.28 1182.00,428.28
                                   1182.00,428.28 1149.00,426.00 1149.00,426.00
                                   1149.00,426.00 1132.00,427.00 1132.00,427.00
                                   1112.21,427.23 1079.40,421.45 1059.00,418.08
                                   1059.00,418.08 991.00,407.55 991.00,407.55
                                   991.00,407.55 944.00,396.45 944.00,396.45
                                   944.00,396.45 885.00,386.58 885.00,386.58
                                   868.67,383.63 852.71,379.20 836.00,379.00
                                   836.00,379.00 826.00,379.00 826.00,379.00
                                   826.00,379.00 794.00,377.00 794.00,377.00
                                   782.47,377.14 761.66,380.52 751.00,384.82
                                   751.00,384.82 737.00,391.69 737.00,391.69
                                   737.00,391.69 699.00,411.01 699.00,411.01
                                   699.00,411.01 669.00,429.54 669.00,429.54
                                   669.00,429.54 641.00,442.96 641.00,442.96
                                   634.57,447.16 622.33,461.31 618.09,468.00
                                   614.30,473.98 611.77,483.16 608.70,490.00
                                   604.24,499.91 599.07,509.53 596.04,520.00
                                   594.00,527.03 589.04,561.51 589.00,569.00
                                   589.00,569.00 589.00,578.00 589.00,578.00
                                   589.00,578.00 586.00,617.00 586.00,617.00
                                   586.00,617.00 586.00,628.00 586.00,628.00
                                   586.04,653.95 597.28,683.06 608.75,706.00
                                   608.75,706.00 619.79,728.00 619.79,728.00
                                   619.79,728.00 635.68,744.00 635.68,744.00
                                   635.68,744.00 656.32,772.00 656.32,772.00
                                   656.32,772.00 679.48,796.00 679.48,796.00
                                   689.06,808.15 698.96,828.59 705.13,843.00
                                   709.26,852.64 711.32,864.71 713.65,875.00
                                   714.63,879.33 716.99,887.95 716.68,892.00
                                   716.39,895.71 715.21,901.76 713.44,905.00
                                   711.19,909.14 707.89,911.45 706.34,916.00
                                   704.56,921.26 704.48,934.82 703.71,941.00
                                   702.54,950.52 700.03,953.23 700.00,963.00
                                   700.00,963.00 678.00,963.00 678.00,963.00
                                   678.59,958.55 679.02,951.98 680.36,948.00
                                   680.36,948.00 684.70,938.00 684.70,938.00
                                   684.70,938.00 685.29,929.00 685.29,929.00
                                   685.29,929.00 688.27,910.00 688.27,910.00
                                   689.46,902.33 691.91,894.80 692.00,887.00
                                   692.21,868.88 685.07,858.65 677.25,843.00
                                   677.25,843.00 664.54,818.00 664.54,818.00
                                   664.54,818.00 634.84,775.00 634.84,775.00
                                   634.84,775.00 610.35,744.00 610.35,744.00
                                   610.35,744.00 600.57,725.00 600.57,725.00
                                   581.44,691.56 562.06,657.84 562.00,618.00
                                   562.00,618.00 563.00,592.00 563.00,592.00
                                   563.00,592.00 562.10,580.00 562.10,580.00
                                   562.54,570.13 565.00,568.81 565.00,552.00
                                   565.00,552.00 550.22,579.00 550.22,579.00
                                   550.22,579.00 541.74,597.00 541.74,597.00
                                   541.74,597.00 518.58,646.00 518.58,646.00
                                   518.58,646.00 501.75,681.00 501.75,681.00
                                   501.75,681.00 491.81,702.00 491.81,702.00
                                   491.81,702.00 480.72,732.00 480.72,732.00
                                   480.72,732.00 468.99,770.00 468.99,770.00
                                   468.99,770.00 448.15,819.00 448.15,819.00
                                   448.15,819.00 433.33,856.00 433.33,856.00
                                   433.33,856.00 426.55,876.00 426.55,876.00
                                   426.55,876.00 417.31,896.00 417.31,896.00
                                   417.31,896.00 411.68,909.00 411.68,909.00
                                   411.68,909.00 392.58,938.00 392.58,938.00
                                   392.58,938.00 382.14,954.00 382.14,954.00
                                   382.14,954.00 375.68,961.98 375.68,961.98
                                   375.68,961.98 368.00,963.00 368.00,963.00
                                   368.00,963.00 346.00,963.00 346.00,963.00
                                   346.00,963.00 363.65,937.00 363.65,937.00
                                   363.65,937.00 392.42,892.00 392.42,892.00
                                   392.42,892.00 404.87,872.00 404.87,872.00
                                   404.87,872.00 414.05,848.00 414.05,848.00
                                   414.05,848.00 425.43,820.00 425.43,820.00
                                   425.43,820.00 440.86,786.00 440.86,786.00
                                   440.86,786.00 445.91,775.00 445.91,775.00
                                   445.91,775.00 451.42,755.00 451.42,755.00
                                   451.42,755.00 458.42,735.00 458.42,735.00
                                   458.42,735.00 467.31,713.00 467.31,713.00
                                   467.31,713.00 475.69,696.00 475.69,696.00
                                   475.69,696.00 490.69,663.00 490.69,663.00
                                   490.69,663.00 519.75,602.00 519.75,602.00
                                   519.75,602.00 533.00,576.00 533.00,576.00
                                   533.00,576.00 565.02,520.00 565.02,520.00
                                   575.95,504.18 580.50,510.34 585.65,496.00
                                   592.98,475.59 591.93,482.81 599.09,468.00
                                   600.37,465.35 601.47,460.74 596.94,460.73
                                   593.55,460.72 584.89,467.65 582.00,469.89
                                   567.61,481.02 559.21,491.04 548.00,505.00
                                   548.00,505.00 509.57,552.00 509.57,552.00
                                   509.57,552.00 493.80,568.00 493.80,568.00
                                   493.80,568.00 481.13,596.00 481.13,596.00
                                   481.13,596.00 470.08,612.00 470.08,612.00
                                   470.08,612.00 447.95,647.00 447.95,647.00
                                   438.89,661.28 432.32,668.99 422.00,682.00
                                   422.00,682.00 406.91,700.91 406.91,700.91
                                   406.91,700.91 389.00,715.44 389.00,715.44
                                   389.00,715.44 355.00,746.09 355.00,746.09
                                   344.53,755.84 342.05,761.08 333.83,769.99
                                   333.83,769.99 316.00,786.83 316.00,786.83
                                   316.00,786.83 290.00,805.88 290.00,805.88
                                   276.90,815.54 268.32,823.79 253.00,830.69
                                   244.43,834.55 233.19,837.08 224.00,839.37
                                   224.00,839.37 193.00,846.86 193.00,846.86
                                   193.00,846.86 171.00,846.86 171.00,846.86
                                   161.52,846.89 148.73,843.81 141.00,838.21
                                   133.55,832.81 134.23,827.29 125.00,826.00
                                   125.00,826.00 117.00,886.00 117.00,886.00
                                   117.00,886.00 117.00,912.00 117.00,912.00
                                   117.00,912.00 118.00,927.00 118.00,927.00
                                   118.00,927.00 118.00,948.00 118.00,948.00
                                   117.92,953.93 115.09,964.33 107.04,962.53
                                   99.63,960.87 98.73,945.17 97.34,939.00
                                   94.70,927.30 88.43,921.84 81.08,913.00
                                   81.08,913.00 63.60,891.00 63.60,891.00
                                   60.99,887.74 53.89,878.10 49.59,878.11
                                   41.90,878.14 42.99,892.12 43.00,897.00
                                   43.00,897.00 46.08,930.00 46.08,930.00
                                   46.99,941.26 48.85,952.15 52.00,963.00
                                   52.00,963.00 20.00,963.00 20.00,963.00
                                   20.00,963.00 17.00,947.00 17.00,947.00
                                   17.00,947.00 17.00,937.00 17.00,937.00
                                   17.00,937.00 15.00,917.00 15.00,917.00
                                   15.00,917.00 15.00,900.00 15.00,900.00
                                   15.00,900.00 15.00,892.00 15.00,892.00
                                   15.02,881.71 16.68,881.30 18.55,872.00
                                   18.55,872.00 23.61,843.00 23.61,843.00
                                   24.94,835.94 26.91,830.32 27.00,823.00
                                   27.00,823.00 27.00,818.00 27.00,818.00
                                   27.03,801.30 32.15,788.51 36.98,773.00
                                   36.98,773.00 50.35,725.00 50.35,725.00
                                   50.35,725.00 54.43,707.00 54.43,707.00
                                   54.43,707.00 59.56,692.00 59.56,692.00
                                   59.56,692.00 63.72,676.00 63.72,676.00
                                   63.72,676.00 67.94,665.00 67.94,665.00
                                   70.20,659.04 72.20,648.25 78.04,645.18
                                   83.27,642.43 93.65,646.25 96.59,651.10
                                   98.15,653.70 99.36,658.91 100.34,662.00
                                   104.78,675.87 105.30,679.88 107.75,694.00
                                   107.75,694.00 111.43,713.00 111.43,713.00
                                   111.43,713.00 118.55,731.00 118.55,731.00
                                   118.55,731.00 126.98,756.00 126.98,756.00
                                   133.47,776.98 133.33,789.21 148.73,807.00
                                   151.93,810.69 155.86,814.67 160.00,817.32
                                   163.65,819.65 167.90,820.26 172.00,821.43
                                   185.36,825.23 182.97,824.20 196.00,825.09
                                   196.00,825.09 205.00,825.99 205.00,825.99
                                   226.17,826.47 243.41,815.83 260.00,804.00
                                   260.00,804.00 304.99,769.83 304.99,769.83
                                   304.99,769.83 313.09,761.00 313.09,761.00
                                   313.09,761.00 329.00,745.04 329.00,745.04
                                   329.00,745.04 379.00,699.09 379.00,699.09
                                   379.00,699.09 395.83,683.96 395.83,683.96
                                   405.08,674.17 412.06,662.96 419.72,652.00
                                   419.72,652.00 439.72,623.00 439.72,623.00
                                   439.72,623.00 449.97,609.00 449.97,609.00
                                   449.97,609.00 467.69,577.00 467.69,577.00
                                   467.69,577.00 477.33,563.00 477.33,563.00
                                   477.33,563.00 490.24,544.00 490.24,544.00
                                   490.24,544.00 517.20,511.00 517.20,511.00
                                   534.46,489.61 552.07,467.67 575.00,452.03
                                   582.95,446.61 599.75,438.96 609.00,436.03
                                   618.14,433.13 622.81,433.51 632.00,428.68
                                   632.00,428.68 651.00,417.42 651.00,417.42
                                   651.00,417.42 670.00,406.58 670.00,406.58
                                   670.00,406.58 687.00,395.87 687.00,395.87
                                   700.46,388.18 740.30,371.12 755.00,366.91
                                   770.72,362.41 806.00,360.80 823.00,361.00
                                   823.00,361.00 859.00,366.83 859.00,366.83
                                   859.00,366.83 906.00,371.09 906.00,371.09
                                   906.00,371.09 926.00,376.11 926.00,376.11
                                   926.00,376.11 952.00,380.88 952.00,380.88
                                   952.00,380.88 996.00,392.34 996.00,392.34
                                   996.00,392.34 1035.00,399.42 1035.00,399.42
                                   1035.00,399.42 1063.00,404.71 1063.00,404.71
                                   1063.00,404.71 1100.00,408.17 1100.00,408.17
                                   1100.00,408.17 1138.00,412.00 1138.00,412.00
                                   1138.00,412.00 1161.00,413.00 1161.00,413.00
                                   1161.00,413.00 1178.00,414.00 1178.00,414.00
                                   1178.00,414.00 1194.00,415.00 1194.00,415.00
                                   1194.00,415.00 1209.00,415.00 1209.00,415.00
                                   1209.00,415.00 1225.00,414.00 1225.00,414.00
                                   1225.00,414.00 1277.00,412.91 1277.00,412.91
                                   1277.00,412.91 1284.00,411.96 1284.00,411.96
                                   1284.00,411.96 1294.00,411.96 1294.00,411.96
                                   1294.00,411.96 1308.00,410.00 1308.00,410.00
                                   1328.13,409.77 1353.45,402.86 1373.00,397.42
                                   1373.00,397.42 1431.00,381.39 1431.00,381.39
                                   1431.00,381.39 1495.00,348.31 1495.00,348.31
                                   1495.00,348.31 1527.00,331.54 1527.00,331.54
                                   1539.17,324.13 1573.28,296.33 1582.91,286.00
                                   1589.03,279.43 1596.42,271.28 1601.56,264.00
                                   1601.56,264.00 1615.46,243.04 1615.46,243.04
                                   1621.72,235.77 1629.09,234.84 1632.86,228.00
                                   1634.27,225.45 1636.06,217.27 1636.87,214.00
                                   1636.87,214.00 1645.45,181.00 1645.45,181.00
                                   1654.72,157.56 1670.96,138.05 1684.43,117.00
                                   1693.78,102.40 1708.17,92.12 1721.00,80.85
                                   1721.00,80.85 1749.00,53.09 1749.00,53.09
                                   1752.89,49.52 1765.21,40.71 1769.83,47.43
                                   1771.35,49.64 1771.03,55.26 1771.00,58.00
                                   1770.85,70.96 1762.57,88.34 1758.33,101.00
                                   1754.78,111.63 1751.34,117.38 1759.00,127.00
                                   1762.77,117.38 1780.21,101.79 1788.00,94.00 Z
                                 M 1766.56,138.99
                                 C 1761.46,144.88 1755.48,145.60 1754.69,154.00
                                   1754.09,157.23 1754.69,158.89 1754.69,162.00
                                   1755.77,174.03 1758.11,183.60 1762.00,195.00
                                   1762.00,195.00 1766.00,206.00 1766.00,206.00
                                   1775.32,203.35 1772.29,199.73 1785.00,200.01
                                   1791.42,200.16 1802.53,202.42 1809.00,203.64
                                   1812.43,204.65 1817.60,205.98 1820.57,203.64
                                   1823.49,200.87 1823.04,195.54 1823.00,192.00
                                   1823.00,192.00 1821.84,173.72 1821.84,173.72
                                   1822.05,165.74 1824.21,158.59 1826.42,151.00
                                   1829.14,141.70 1836.60,128.25 1834.00,119.00
                                   1826.01,121.55 1825.91,124.41 1820.00,128.30
                                   1816.05,130.91 1813.44,130.41 1809.00,133.14
                                   1806.61,134.61 1803.33,137.72 1801.00,138.50
                                   1795.69,140.29 1790.09,134.08 1790.43,129.00
                                   1791.00,120.60 1801.66,114.79 1802.00,101.00
                                   1785.75,108.36 1777.84,125.97 1766.56,138.99 Z
                                 M 1857.00,110.00
                                 C 1857.00,110.00 1858.00,111.00 1858.00,111.00
                                   1858.00,111.00 1858.00,110.00 1858.00,110.00
                                   1858.00,110.00 1857.00,110.00 1857.00,110.00 Z
                                 M 1857.00,132.00
                                 C 1857.00,132.00 1858.00,133.00 1858.00,133.00
                                   1858.00,133.00 1858.00,132.00 1858.00,132.00
                                   1858.00,132.00 1857.00,132.00 1857.00,132.00 Z
                                 M 1853.00,143.00
                                 C 1853.00,143.00 1854.00,144.00 1854.00,144.00
                                   1854.00,144.00 1854.00,143.00 1854.00,143.00
                                   1854.00,143.00 1853.00,143.00 1853.00,143.00 Z
                                 M 1837.00,161.00
                                 C 1837.00,161.00 1838.00,162.00 1838.00,162.00
                                   1838.00,162.00 1838.00,161.00 1838.00,161.00
                                   1838.00,161.00 1837.00,161.00 1837.00,161.00 Z
                                 M 1826.00,335.01
                                 C 1836.22,335.25 1846.34,337.14 1847.00,349.00
                                   1838.64,349.00 1836.70,348.24 1830.00,354.00
                                   1838.12,358.02 1841.23,364.02 1831.00,368.38
                                   1825.42,370.53 1816.63,370.71 1811.00,368.38
                                   1807.68,367.25 1802.45,364.62 1803.84,360.18
                                   1805.12,356.11 1809.60,356.79 1813.00,350.00
                                   1813.00,350.00 1794.00,351.00 1794.00,351.00
                                   1797.07,338.71 1814.95,334.76 1826.00,335.01 Z
                                 M 1971.00,517.00
                                 C 1971.00,517.00 1949.00,514.17 1949.00,514.17
                                   1949.00,514.17 1931.00,512.56 1931.00,512.56
                                   1916.40,510.28 1898.29,504.94 1884.00,505.00
                                   1884.00,505.00 1871.06,506.22 1871.06,506.22
                                   1866.43,504.95 1867.20,500.25 1870.23,497.65
                                   1873.85,494.53 1879.41,493.86 1884.00,494.04
                                   1884.00,494.04 1906.00,497.72 1906.00,497.72
                                   1906.00,497.72 1947.00,502.17 1947.00,502.17
                                   1947.00,502.17 1977.00,505.00 1977.00,505.00
                                   1977.00,505.00 1999.00,505.00 1999.00,505.00
                                   1999.00,505.00 2011.00,504.00 2011.00,504.00
                                   2011.00,504.00 2021.00,504.00 2021.00,504.00
                                   2021.00,504.00 2035.00,503.00 2035.00,503.00
                                   2042.47,502.91 2054.06,500.66 2061.00,497.93
                                   2064.63,496.50 2068.72,494.19 2069.51,490.00
                                   2069.86,488.15 2069.42,486.60 2068.40,485.04
                                   2064.69,479.42 2057.95,479.55 2052.00,480.29
                                   2052.00,480.29 2022.00,485.42 2022.00,485.42
                                   2013.02,487.40 2011.67,488.98 2002.00,489.00
                                   2002.00,489.00 1982.00,489.00 1982.00,489.00
                                   1982.00,489.00 1969.00,490.00 1969.00,490.00
                                   1969.00,490.00 1939.00,487.16 1939.00,487.16
                                   1939.00,487.16 1901.00,482.54 1901.00,482.54
                                   1901.00,482.54 1879.00,477.45 1879.00,477.45
                                   1879.00,477.45 1863.00,474.52 1863.00,474.52
                                   1863.00,474.52 1846.00,469.65 1846.00,469.65
                                   1846.00,469.65 1823.00,464.31 1823.00,464.31
                                   1823.00,464.31 1772.00,440.69 1772.00,440.69
                                   1767.49,438.62 1757.27,431.78 1753.00,432.53
                                   1749.09,433.22 1746.34,437.24 1743.83,440.00
                                   1743.83,440.00 1728.00,456.00 1728.00,456.00
                                   1716.09,467.76 1707.66,468.74 1700.04,476.09
                                   1694.29,481.64 1693.75,485.17 1689.51,491.00
                                   1684.77,497.53 1676.95,505.37 1671.00,510.91
                                   1671.00,510.91 1640.17,541.00 1640.17,541.00
                                   1640.17,541.00 1626.00,559.00 1626.00,559.00
                                   1626.00,559.00 1579.63,619.00 1579.63,619.00
                                   1579.63,619.00 1552.36,655.00 1552.36,655.00
                                   1552.36,655.00 1533.08,686.00 1533.08,686.00
                                   1527.84,693.06 1521.21,696.29 1516.25,704.00
                                   1516.25,704.00 1490.75,755.00 1490.75,755.00
                                   1490.75,755.00 1473.75,792.00 1473.75,792.00
                                   1473.75,792.00 1462.35,813.00 1462.35,813.00
                                   1459.16,820.19 1453.07,843.31 1453.00,851.00
                                   1454.95,850.68 1455.95,850.72 1457.62,849.40
                                   1457.62,849.40 1472.86,828.00 1472.86,828.00
                                   1472.86,828.00 1500.55,787.00 1500.55,787.00
                                   1500.55,787.00 1519.72,752.00 1519.72,752.00
                                   1536.21,723.00 1556.45,693.69 1576.47,667.00
                                   1576.47,667.00 1601.53,635.00 1601.53,635.00
                                   1601.53,635.00 1651.18,567.00 1651.18,567.00
                                   1651.18,567.00 1676.00,543.83 1676.00,543.83
                                   1681.51,538.85 1696.32,525.05 1699.31,519.00
                                   1702.92,511.72 1696.99,505.81 1703.15,502.49
                                   1707.34,500.23 1717.45,503.75 1722.00,504.99
                                   1722.00,504.99 1765.00,513.71 1765.00,513.71
                                   1765.00,513.71 1785.00,515.17 1785.00,515.17
                                   1785.00,515.17 1819.00,518.09 1819.00,518.09
                                   1819.00,518.09 1843.00,520.17 1843.00,520.17
                                   1843.00,520.17 1879.00,523.91 1879.00,523.91
                                   1879.00,523.91 1890.00,523.00 1890.00,523.00
                                   1890.00,523.00 1920.00,525.00 1920.00,525.00
                                   1920.00,525.00 1939.00,525.00 1939.00,525.00
                                   1939.00,525.00 1955.00,524.00 1955.00,524.00
                                   1955.00,524.00 1984.00,522.17 1984.00,522.17
                                   1990.26,521.57 1992.28,523.19 1997.00,518.00
                                   1997.00,518.00 1971.00,517.00 1971.00,517.00 Z
                                 M 883.09,909.00
                                 C 888.03,903.71 902.96,892.55 903.62,886.00
                                   903.98,882.38 899.08,874.86 897.43,871.00
                                   897.43,871.00 884.34,837.00 884.34,837.00
                                   884.34,837.00 871.46,792.00 871.46,792.00
                                   871.46,792.00 868.58,767.00 868.58,767.00
                                   868.58,767.00 856.67,728.00 856.67,728.00
                                   856.67,728.00 843.28,690.00 843.28,690.00
                                   841.20,685.03 838.49,679.59 844.11,675.74
                                   846.29,674.25 848.51,674.11 851.00,674.82
                                   859.91,677.33 864.01,689.06 866.67,697.00
                                   866.67,697.00 883.66,749.00 883.66,749.00
                                   885.56,754.97 890.10,773.95 892.88,777.83
                                   895.98,782.17 904.19,787.26 909.00,789.74
                                   925.42,798.24 954.06,809.61 972.00,813.58
                                   972.00,813.58 1028.00,821.28 1028.00,821.28
                                   1028.00,821.28 1085.00,830.71 1085.00,830.71
                                   1085.00,830.71 1107.00,832.09 1107.00,832.09
                                   1107.00,832.09 1119.00,833.00 1119.00,833.00
                                   1119.00,833.00 1137.00,833.00 1137.00,833.00
                                   1137.00,833.00 1167.00,831.00 1167.00,831.00
                                   1167.00,831.00 1182.00,831.00 1182.00,831.00
                                   1182.00,831.00 1197.00,830.00 1197.00,830.00
                                   1197.00,830.00 1215.00,830.00 1215.00,830.00
                                   1223.81,829.89 1228.76,827.45 1237.00,825.66
                                   1237.00,825.66 1272.00,819.25 1272.00,819.25
                                   1278.72,818.12 1295.82,815.50 1300.90,812.01
                                   1306.16,808.39 1306.21,801.75 1307.00,796.00
                                   1307.99,788.75 1311.33,767.24 1315.65,762.23
                                   1322.98,753.70 1325.93,766.66 1326.00,772.00
                                   1326.00,772.00 1326.00,776.00 1326.00,776.00
                                   1326.00,776.00 1322.09,822.00 1322.09,822.00
                                   1322.09,822.00 1325.00,868.00 1325.00,868.00
                                   1325.00,868.00 1325.68,881.00 1325.68,881.00
                                   1325.68,881.00 1322.91,918.00 1322.91,918.00
                                   1322.91,918.00 1317.87,944.00 1317.87,944.00
                                   1316.78,948.47 1314.83,953.45 1315.19,958.00
                                   1315.19,958.00 1316.00,963.00 1316.00,963.00
                                   1316.00,963.00 1307.00,963.00 1307.00,963.00
                                   1301.69,962.99 1298.20,963.65 1298.08,957.00
                                   1298.01,953.06 1300.62,942.35 1301.58,938.00
                                   1303.33,930.03 1304.99,918.10 1304.92,910.00
                                   1304.92,910.00 1304.92,896.00 1304.92,896.00
                                   1304.92,896.00 1303.00,879.00 1303.00,879.00
                                   1303.00,879.00 1305.63,853.00 1305.63,853.00
                                   1305.63,853.00 1305.00,843.00 1305.00,843.00
                                   1304.94,838.13 1305.65,830.73 1299.95,828.61
                                   1296.62,827.38 1287.64,830.17 1284.00,831.15
                                   1284.00,831.15 1247.00,840.60 1247.00,840.60
                                   1238.40,842.32 1229.80,843.99 1221.00,844.00
                                   1221.00,844.00 1191.00,846.00 1191.00,846.00
                                   1191.00,846.00 1178.00,846.00 1178.00,846.00
                                   1166.09,846.02 1167.64,847.90 1160.00,848.91
                                   1160.00,848.91 1131.00,848.91 1131.00,848.91
                                   1131.00,848.91 1102.00,847.00 1102.00,847.00
                                   1102.00,847.00 1069.00,843.28 1069.00,843.28
                                   1069.00,843.28 1040.00,839.54 1040.00,839.54
                                   1040.00,839.54 1020.00,834.28 1020.00,834.28
                                   1020.00,834.28 994.00,830.57 994.00,830.57
                                   994.00,830.57 960.00,823.58 960.00,823.58
                                   942.82,819.80 937.96,817.23 922.00,810.80
                                   918.01,809.19 906.64,803.85 903.00,803.98
                                   895.77,804.25 897.13,812.29 898.24,817.00
                                   898.24,817.00 911.67,859.00 911.67,859.00
                                   913.97,865.92 918.69,878.19 918.96,885.00
                                   919.37,895.07 913.69,902.30 907.87,910.00
                                   907.87,910.00 878.75,946.00 878.75,946.00
                                   867.20,960.19 871.46,962.98 859.00,963.00
                                   859.00,963.00 843.00,963.00 843.00,963.00
                                   852.18,943.92 868.68,924.44 883.09,909.00 Z
                                 M 77.12,696.00
                                 C 77.12,696.00 68.87,732.00 68.87,732.00
                                   68.87,732.00 66.29,743.00 66.29,743.00
                                   66.29,743.00 64.64,755.00 64.64,755.00
                                   64.64,755.00 61.20,765.00 61.20,765.00
                                   61.20,765.00 57.61,781.00 57.61,781.00
                                   57.61,781.00 55.20,799.00 55.20,799.00
                                   53.77,806.47 48.33,824.61 49.33,831.00
                                   49.77,833.85 51.16,837.28 52.19,840.00
                                   57.57,854.14 58.78,854.52 68.41,866.00
                                   68.41,866.00 81.59,882.00 81.59,882.00
                                   83.41,884.12 86.15,887.45 88.99,888.12
                                   94.39,889.39 95.48,881.65 96.20,878.00
                                   96.20,878.00 103.16,839.00 103.16,839.00
                                   103.16,839.00 111.09,813.00 111.09,813.00
                                   114.67,803.06 116.13,806.10 116.00,794.00
                                   115.86,781.92 111.01,778.39 107.06,768.00
                                   107.06,768.00 102.65,752.00 102.65,752.00
                                   102.65,752.00 95.00,731.00 95.00,731.00
                                   95.00,731.00 85.00,681.00 85.00,681.00
                                   78.26,684.38 78.65,689.36 77.12,696.00 Z" />
</svg>
