<?xml version="1.0" encoding="UTF-8" standalone="no"?>
<!DOCTYPE svg PUBLIC "-//W3C//DTD SVG 20010904//EN"
              "http://www.w3.org/TR/2001/REC-SVG-20010904/DTD/svg10.dtd">

<svg xmlns="http://www.w3.org/2000/svg"
     width="26.4167in" height="19.8333in"
     viewBox="0 0 1902 1428">
  <path id="Selection"
        fill="#191919" stroke="none" stroke-width="0"
        d="M 1814.00,96.63
           C 1814.00,96.63 1799.00,102.45 1799.00,102.45
             1799.00,102.45 1783.00,110.26 1783.00,110.26
             1783.00,110.26 1771.00,117.14 1771.00,117.14
             1771.00,117.14 1763.00,121.20 1763.00,121.20
             1763.00,121.20 1754.00,126.74 1754.00,126.74
             1743.18,132.41 1743.89,130.86 1735.00,134.45
             1735.00,134.45 1715.00,143.30 1715.00,143.30
             1715.00,143.30 1687.00,153.55 1687.00,153.55
             1687.00,153.55 1679.00,158.45 1679.00,158.45
             1676.05,159.90 1668.49,161.80 1667.49,165.21
             1666.72,167.83 1669.42,170.31 1671.02,172.00
             1676.48,177.77 1681.24,181.67 1688.00,185.80
             1688.00,185.80 1699.00,192.34 1699.00,192.34
             1699.00,192.34 1707.00,196.09 1707.00,196.09
             1707.00,196.09 1728.00,208.96 1728.00,208.96
             1728.00,208.96 1736.00,212.26 1736.00,212.26
             1736.00,212.26 1751.00,220.25 1751.00,220.25
             1754.96,222.25 1761.93,225.77 1764.69,229.10
             1769.66,235.12 1764.67,242.29 1761.98,248.00
             1757.33,257.89 1762.04,254.34 1752.21,271.00
             1747.62,278.77 1750.06,278.45 1747.59,284.00
             1745.45,288.79 1741.62,293.54 1738.92,298.00
             1738.92,298.00 1732.21,310.00 1732.21,310.00
             1729.08,314.37 1726.77,315.85 1723.04,319.28
             1716.20,325.58 1711.78,331.44 1702.00,334.07
             1696.06,335.67 1685.60,333.16 1679.00,333.01
             1675.78,332.94 1671.07,332.51 1669.61,336.15
             1668.68,338.47 1671.15,348.18 1671.93,351.00
             1671.93,351.00 1675.40,360.00 1675.40,360.00
             1675.40,360.00 1684.71,390.00 1684.71,390.00
             1684.71,390.00 1687.10,399.00 1687.10,399.00
             1687.10,399.00 1690.91,408.00 1690.91,408.00
             1690.91,408.00 1693.46,416.00 1693.46,416.00
             1693.46,416.00 1697.05,424.00 1697.05,424.00
             1697.05,424.00 1699.56,433.00 1699.56,433.00
             1699.56,433.00 1704.35,443.00 1704.35,443.00
             1704.35,443.00 1705.76,453.00 1705.76,453.00
             1705.76,453.00 1711.53,474.00 1711.53,474.00
             1711.53,474.00 1713.92,486.00 1713.92,486.00
             1713.92,486.00 1716.48,494.00 1716.48,494.00
             1716.48,494.00 1717.63,500.00 1717.63,500.00
             1717.63,500.00 1725.14,517.00 1725.14,517.00
             1725.14,517.00 1729.26,528.99 1729.26,528.99
             1731.22,534.02 1734.00,534.25 1736.44,539.01
             1736.44,539.01 1743.90,557.00 1743.90,557.00
             1743.90,557.00 1746.14,565.00 1746.14,565.00
             1748.17,570.20 1752.69,573.48 1751.21,577.91
             1749.72,582.35 1739.24,586.08 1735.00,587.80
             1726.06,591.42 1718.26,597.16 1710.00,602.08
             1710.00,602.08 1699.00,608.06 1699.00,608.06
             1688.30,614.57 1682.71,614.85 1674.00,619.40
             1674.00,619.40 1662.00,626.68 1662.00,626.68
             1662.00,626.68 1646.00,632.09 1646.00,632.09
             1646.00,632.09 1631.00,639.40 1631.00,639.40
             1631.00,639.40 1620.00,643.08 1620.00,643.08
             1620.00,643.08 1604.00,649.39 1604.00,649.39
             1604.00,649.39 1596.00,651.95 1596.00,651.95
             1596.00,651.95 1581.00,659.91 1581.00,659.91
             1581.00,659.91 1569.00,663.13 1569.00,663.13
             1569.00,663.13 1555.00,670.54 1555.00,670.54
             1555.00,670.54 1528.00,679.46 1528.00,679.46
             1522.40,681.60 1512.55,686.32 1507.00,686.82
             1502.74,687.21 1499.90,686.41 1498.57,681.98
             1498.57,681.98 1494.79,662.00 1494.79,662.00
             1494.79,662.00 1482.19,629.00 1482.19,629.00
             1482.19,629.00 1474.60,611.00 1474.60,611.00
             1473.12,606.48 1473.28,602.91 1471.10,598.00
             1471.10,598.00 1467.51,591.00 1467.51,591.00
             1467.51,591.00 1463.68,581.00 1463.68,581.00
             1463.68,581.00 1458.32,571.00 1458.32,571.00
             1458.32,571.00 1452.77,556.00 1452.77,556.00
             1450.40,548.27 1449.85,539.94 1448.70,532.00
             1448.70,532.00 1443.41,501.00 1443.41,501.00
             1440.04,480.88 1436.01,471.71 1426.00,454.00
             1424.36,451.10 1420.63,442.00 1418.73,440.64
             1413.76,437.10 1408.02,445.90 1404.99,449.00
             1404.99,449.00 1377.00,476.91 1377.00,476.91
             1372.90,480.70 1367.56,485.47 1362.22,480.69
             1362.22,480.69 1346.47,456.28 1346.47,456.28
             1346.47,456.28 1341.37,450.96 1341.37,450.96
             1337.61,446.47 1336.68,444.54 1332.00,440.04
             1320.21,428.71 1316.88,429.93 1307.67,414.00
             1302.97,405.87 1303.20,407.56 1301.73,398.00
             1301.29,393.81 1300.58,391.28 1301.73,387.00
             1306.04,368.25 1306.66,371.98 1312.54,357.00
             1312.54,357.00 1318.59,338.00 1318.59,338.00
             1318.59,338.00 1321.56,330.00 1321.56,330.00
             1321.56,330.00 1323.60,322.00 1323.60,322.00
             1323.60,322.00 1329.17,307.00 1329.17,307.00
             1331.09,302.56 1331.87,302.23 1333.36,297.00
             1335.39,289.91 1337.52,284.35 1341.32,278.00
             1342.42,276.15 1344.86,272.74 1343.19,270.61
             1341.82,268.86 1338.87,269.53 1337.00,269.72
             1337.00,269.72 1324.00,271.63 1324.00,271.63
             1316.06,273.07 1314.23,268.74 1309.00,268.85
             1309.00,268.85 1299.00,271.19 1299.00,271.19
             1293.56,272.27 1291.33,271.94 1286.00,272.00
             1286.00,272.00 1259.00,275.00 1259.00,275.00
             1259.00,275.00 1249.00,275.00 1249.00,275.00
             1249.00,275.00 1229.00,276.82 1229.00,276.82
             1229.00,276.82 1222.00,276.21 1222.00,276.21
             1222.00,276.21 1201.00,278.00 1201.00,278.00
             1201.00,278.00 1194.00,278.00 1194.00,278.00
             1194.00,278.00 1175.00,280.72 1175.00,280.72
             1175.00,280.72 1161.00,282.17 1161.00,282.17
             1156.92,282.58 1153.16,283.74 1149.00,283.49
             1138.88,282.86 1142.73,284.05 1136.00,284.44
             1136.00,284.44 1129.00,284.44 1129.00,284.44
             1129.00,284.44 1118.00,286.71 1118.00,286.71
             1118.00,286.71 1105.00,287.47 1105.00,287.47
             1105.00,287.47 1094.00,290.83 1094.00,290.83
             1094.00,290.83 1065.00,292.00 1065.00,292.00
             1065.00,292.00 1046.00,293.94 1046.00,293.94
             1043.31,293.99 1037.39,295.64 1041.49,299.02
             1043.51,300.69 1049.41,301.05 1052.00,301.11
             1056.61,300.65 1068.20,297.49 1071.27,301.11
             1073.68,304.37 1071.78,308.59 1071.27,312.00
             1071.27,312.00 1070.56,322.00 1070.56,322.00
             1070.56,322.00 1066.36,339.00 1066.36,339.00
             1066.36,339.00 1062.72,365.00 1062.72,365.00
             1062.72,365.00 1060.18,378.00 1060.18,378.00
             1060.18,378.00 1059.39,389.00 1059.39,389.00
             1059.39,389.00 1056.25,402.00 1056.25,402.00
             1056.25,402.00 1053.76,409.00 1053.76,409.00
             1053.76,409.00 1050.09,438.00 1050.09,438.00
             1049.48,448.69 1052.45,460.12 1060.10,467.91
             1063.60,471.47 1066.41,472.54 1070.00,475.37
             1070.00,475.37 1084.00,486.14 1084.00,486.14
             1084.00,486.14 1097.00,493.95 1097.00,493.95
             1101.94,497.23 1128.01,518.92 1131.72,523.01
             1135.94,527.69 1143.63,536.70 1146.64,542.00
             1146.64,542.00 1153.25,557.00 1153.25,557.00
             1158.59,567.78 1163.28,577.97 1155.78,589.00
             1153.89,591.78 1146.18,600.44 1143.72,602.78
             1141.60,604.78 1128.71,613.25 1126.00,614.15
             1119.24,616.40 1111.45,614.75 1105.00,612.43
             1105.00,612.43 1096.00,609.43 1096.00,609.43
             1091.60,607.29 1073.89,592.32 1069.00,588.32
             1069.00,588.32 1059.83,581.47 1059.83,581.47
             1059.83,581.47 1050.00,572.76 1050.00,572.76
             1050.00,572.76 1029.00,557.48 1029.00,557.48
             1029.00,557.48 1011.00,542.47 1011.00,542.47
             1011.00,542.47 994.00,530.92 994.00,530.92
             994.00,530.92 981.00,523.39 981.00,523.39
             976.30,519.90 973.63,516.13 969.72,512.10
             966.91,509.22 963.20,507.48 961.30,503.96
             958.66,499.08 956.87,482.82 957.01,477.00
             957.19,469.60 961.27,454.49 963.25,447.00
             965.66,437.84 970.96,409.94 971.00,401.00
             971.07,387.18 972.80,388.31 973.83,378.00
             973.83,378.00 975.17,352.00 975.17,352.00
             975.17,352.00 976.42,344.00 976.42,344.00
             976.42,344.00 976.42,337.00 976.42,337.00
             976.42,337.00 977.92,326.00 977.92,326.00
             977.92,326.00 977.92,314.00 977.92,314.00
             977.92,314.00 977.17,302.00 977.17,302.00
             977.50,299.37 978.60,295.81 977.17,293.43
             975.20,290.82 969.95,290.83 967.00,290.42
             967.00,290.42 937.00,288.00 937.00,288.00
             937.00,288.00 918.00,288.00 918.00,288.00
             903.22,287.98 901.85,284.94 894.00,283.47
             894.00,283.47 883.00,282.72 883.00,282.72
             883.00,282.72 866.00,279.32 866.00,279.32
             866.00,279.32 852.00,278.57 852.00,278.57
             852.00,278.57 826.00,273.32 826.00,273.32
             826.00,273.32 807.00,271.82 807.00,271.82
             807.00,271.82 797.00,269.32 797.00,269.32
             797.00,269.32 791.00,268.68 791.00,268.68
             791.00,268.68 775.00,265.21 775.00,265.21
             775.00,265.21 767.00,264.32 767.00,264.32
             767.00,264.32 759.00,262.31 759.00,262.31
             759.00,262.31 744.00,259.63 744.00,259.63
             744.00,259.63 729.00,255.46 729.00,255.46
             729.00,255.46 715.00,253.54 715.00,253.54
             715.00,253.54 707.00,251.60 707.00,251.60
             699.25,250.64 689.42,257.58 684.58,263.01
             684.58,263.01 666.33,285.00 666.33,285.00
             666.33,285.00 660.41,292.00 660.41,292.00
             660.41,292.00 655.59,300.00 655.59,300.00
             655.59,300.00 649.42,307.00 649.42,307.00
             636.15,322.41 628.98,329.90 613.00,342.69
             613.00,342.69 603.00,349.39 603.00,349.39
             603.00,349.39 590.83,360.78 590.83,360.78
             590.83,360.78 573.00,369.74 573.00,369.74
             573.00,369.74 563.00,373.37 563.00,373.37
             551.34,379.08 545.73,388.83 532.00,389.00
             522.58,389.11 505.61,387.47 497.00,384.02
             497.00,384.02 489.00,379.82 489.00,379.82
             486.77,378.73 484.03,377.89 482.09,376.44
             479.44,374.46 476.46,369.78 473.91,367.00
             473.91,367.00 464.30,357.00 464.30,357.00
             464.30,357.00 450.91,341.01 450.91,341.01
             450.91,341.01 441.18,332.54 441.18,332.54
             441.18,332.54 434.82,325.28 434.82,325.28
             424.75,315.23 419.46,311.40 410.80,299.00
             403.01,287.86 400.19,276.79 396.71,264.00
             394.94,257.47 391.90,250.77 391.00,244.00
             391.00,244.00 391.00,236.00 391.00,236.00
             391.00,236.00 390.00,227.00 390.00,227.00
             389.84,213.41 389.46,207.51 392.68,194.00
             393.97,188.53 397.91,181.67 394.83,176.10
             392.47,171.84 385.46,169.57 381.00,168.37
             371.97,165.95 362.64,163.30 354.00,159.72
             343.95,155.54 340.43,156.57 331.00,154.32
             331.00,154.32 322.00,151.52 322.00,151.52
             322.00,151.52 313.00,149.79 313.00,149.79
             313.00,149.79 298.00,143.77 298.00,143.77
             298.00,143.77 271.00,135.55 271.00,135.55
             271.00,135.55 253.00,126.75 253.00,126.75
             253.00,126.75 223.00,114.69 223.00,114.69
             223.00,114.69 190.00,95.14 190.00,95.14
             190.00,95.14 179.00,87.54 179.00,87.54
             179.00,87.54 167.00,80.80 167.00,80.80
             167.00,80.80 154.00,72.58 154.00,72.58
             152.25,71.59 150.25,70.57 148.32,71.81
             145.23,73.80 146.91,79.81 146.99,83.00
             146.99,83.00 148.29,103.00 148.29,103.00
             148.29,103.00 149.91,114.00 149.91,114.00
             149.91,114.00 150.44,122.00 150.44,122.00
             150.44,122.00 152.16,133.00 152.16,133.00
             152.16,133.00 152.16,141.00 152.16,141.00
             152.16,141.00 153.00,155.00 153.00,155.00
             153.00,155.00 152.00,171.00 152.00,171.00
             152.00,171.00 152.00,206.00 152.00,206.00
             152.00,206.00 153.00,221.00 153.00,221.00
             153.00,221.00 153.00,242.00 153.00,242.00
             153.00,242.00 150.00,280.00 150.00,280.00
             150.00,280.00 148.09,297.00 148.09,297.00
             148.09,297.00 147.00,344.00 147.00,344.00
             147.00,344.00 150.00,376.00 150.00,376.00
             150.00,376.00 150.00,390.00 150.00,390.00
             150.00,390.00 149.00,406.00 149.00,406.00
             149.00,406.00 149.00,441.00 149.00,441.00
             149.00,441.00 147.00,474.00 147.00,474.00
             147.00,474.00 146.00,489.00 146.00,489.00
             146.00,489.00 146.00,505.00 146.00,505.00
             146.00,505.00 145.09,517.00 145.09,517.00
             145.09,517.00 144.00,542.00 144.00,542.00
             144.00,542.00 142.14,569.00 142.14,569.00
             142.14,569.00 144.15,578.00 144.15,578.00
             144.61,581.95 143.15,584.03 143.38,588.00
             143.69,593.54 145.12,593.40 145.00,604.00
             145.00,604.00 144.11,616.00 144.11,616.00
             144.11,616.00 145.99,625.00 145.99,625.00
             145.99,625.00 145.99,636.00 145.99,636.00
             145.99,636.00 148.00,661.00 148.00,661.00
             148.00,661.00 149.04,674.00 149.04,674.00
             149.04,674.00 149.04,688.00 149.04,688.00
             149.04,688.00 150.00,700.00 150.00,700.00
             150.00,700.00 150.00,723.00 150.00,723.00
             150.00,723.00 151.00,738.00 151.00,738.00
             151.00,738.00 151.00,873.00 151.00,873.00
             151.00,873.00 150.09,885.00 150.09,885.00
             150.09,885.00 147.17,916.00 147.17,916.00
             147.17,916.00 145.00,963.00 145.00,963.00
             145.00,963.00 146.84,980.00 146.84,980.00
             145.80,991.71 146.94,990.22 146.84,1000.00
             147.02,1003.79 147.41,1012.73 149.17,1015.90
             150.83,1018.85 156.06,1021.45 159.00,1024.10
             162.87,1027.59 166.18,1032.68 172.00,1031.77
             176.95,1031.00 180.90,1027.53 185.00,1025.99
             188.23,1024.78 191.60,1025.00 195.00,1025.00
             210.38,1025.02 226.86,1028.78 236.37,1042.00
             239.49,1046.35 242.56,1055.67 244.25,1061.00
             246.95,1069.46 245.67,1079.13 239.82,1086.00
             236.67,1089.70 225.81,1100.51 225.95,1105.00
             226.07,1109.01 231.57,1115.15 233.60,1119.00
             233.60,1119.00 237.52,1128.00 237.52,1128.00
             237.52,1128.00 243.12,1138.00 243.12,1138.00
             243.12,1138.00 246.76,1148.00 246.76,1148.00
             249.31,1153.40 253.47,1156.22 251.35,1163.00
             249.54,1168.78 245.27,1170.01 240.00,1171.37
             232.83,1173.22 226.25,1174.60 219.00,1172.43
             219.00,1172.43 212.00,1169.92 212.00,1169.92
             209.99,1169.39 205.14,1169.22 206.91,1172.73
             206.91,1172.73 212.53,1178.18 212.53,1178.18
             212.53,1178.18 220.10,1187.82 220.10,1187.82
             220.10,1187.82 225.83,1192.51 225.83,1192.51
             225.83,1192.51 233.17,1200.58 233.17,1200.58
             233.17,1200.58 256.00,1220.81 256.00,1220.81
             261.17,1224.85 263.31,1223.75 266.91,1226.51
             271.41,1229.97 272.13,1234.60 275.27,1237.61
             275.27,1237.61 291.00,1246.06 291.00,1246.06
             300.01,1251.59 299.72,1254.01 303.09,1255.83
             306.42,1257.62 310.16,1256.57 314.00,1257.39
             314.00,1257.39 333.00,1264.36 333.00,1264.36
             339.12,1267.91 349.09,1277.54 353.91,1283.00
             355.93,1285.29 358.99,1289.94 361.10,1291.40
             366.30,1294.99 377.94,1290.97 381.15,1285.96
             383.35,1282.52 382.36,1279.90 386.14,1276.53
             393.93,1269.60 398.56,1275.58 397.81,1284.00
             397.15,1291.43 387.64,1298.46 381.00,1300.75
             377.95,1301.81 370.31,1301.87 372.17,1307.02
             373.39,1310.42 382.19,1319.05 386.00,1318.88
             389.12,1318.73 395.68,1312.46 402.58,1320.21
             408.84,1327.24 404.62,1339.13 394.00,1337.77
             390.09,1337.27 387.14,1334.89 384.00,1332.72
             375.65,1326.94 374.59,1326.09 368.21,1318.00
             365.71,1314.84 359.79,1306.56 356.91,1304.60
             354.43,1302.92 339.51,1301.84 336.00,1302.04
             324.50,1302.71 329.47,1312.13 328.57,1317.00
             328.01,1320.00 326.03,1322.78 323.90,1324.89
             315.90,1332.80 298.51,1331.88 288.00,1332.00
             288.00,1332.00 278.00,1332.91 278.00,1332.91
             263.01,1334.01 254.31,1335.24 241.00,1343.09
             224.73,1352.69 223.90,1358.12 214.00,1364.14
             214.00,1364.14 185.00,1382.09 185.00,1382.09
             185.00,1382.09 165.00,1395.54 165.00,1395.54
             165.00,1395.54 148.00,1403.67 148.00,1403.67
             148.00,1403.67 138.00,1409.83 138.00,1409.83
             126.00,1416.54 109.82,1421.98 96.00,1422.00
             96.00,1422.00 65.00,1421.00 65.00,1421.00
             51.51,1420.84 38.50,1410.48 29.71,1400.91
             20.61,1391.02 20.92,1388.64 16.14,1377.00
             12.73,1368.69 11.91,1360.75 10.20,1352.00
             9.14,1346.59 7.25,1340.41 7.04,1335.00
             6.72,1326.79 10.16,1313.69 15.55,1307.42
             18.98,1303.45 22.79,1301.02 27.00,1298.10
             38.60,1290.07 35.25,1291.28 49.00,1287.51
             52.28,1286.61 56.85,1284.31 60.00,1284.39
             62.65,1284.46 67.17,1286.66 70.00,1287.58
             77.39,1289.96 87.33,1293.39 92.67,1299.17
             95.55,1302.29 96.18,1304.66 98.20,1308.00
             100.81,1312.29 104.97,1315.89 105.77,1321.00
             107.30,1330.65 101.45,1337.16 95.09,1343.15
             92.81,1345.30 91.10,1347.71 87.96,1348.57
             84.11,1349.62 78.48,1347.88 75.00,1346.18
             72.61,1345.01 69.37,1343.18 68.02,1340.82
             66.60,1338.32 66.54,1332.57 70.15,1331.87
             74.34,1331.06 78.57,1338.45 86.00,1336.68
             91.73,1335.32 95.57,1327.50 94.41,1322.00
             93.45,1317.49 85.95,1307.58 82.56,1304.34
             75.20,1297.29 64.50,1296.89 55.00,1297.00
             43.50,1297.14 28.08,1307.51 21.97,1317.00
             18.99,1321.61 16.79,1329.51 17.18,1335.00
             17.70,1342.28 19.84,1348.95 21.33,1356.00
             21.33,1356.00 22.53,1366.00 22.53,1366.00
             23.30,1369.38 24.86,1371.88 26.08,1375.00
             26.08,1375.00 29.05,1384.00 29.05,1384.00
             32.46,1391.16 43.78,1403.45 51.00,1407.01
             62.78,1412.81 78.19,1412.15 91.00,1412.00
             99.04,1411.90 113.63,1410.08 121.00,1407.07
             121.00,1407.07 131.00,1401.54 131.00,1401.54
             131.00,1401.54 138.00,1398.68 138.00,1398.68
             138.00,1398.68 145.00,1394.74 145.00,1394.74
             145.00,1394.74 170.00,1380.56 170.00,1380.56
             170.00,1380.56 182.00,1372.37 182.00,1372.37
             182.00,1372.37 195.00,1365.21 195.00,1365.21
             195.00,1365.21 212.00,1351.59 212.00,1351.59
             224.09,1342.82 222.05,1341.53 237.00,1333.10
             240.23,1331.28 246.72,1330.04 247.23,1326.91
             247.78,1323.50 241.37,1321.30 239.00,1319.76
             239.00,1319.76 231.00,1314.40 231.00,1314.40
             231.00,1314.40 210.00,1303.98 210.00,1303.98
             203.55,1300.09 204.09,1298.68 198.99,1294.51
             198.99,1294.51 181.39,1279.82 181.39,1279.82
             178.92,1277.05 177.58,1273.20 175.38,1270.00
             173.29,1266.96 171.62,1265.57 169.96,1262.00
             169.96,1262.00 162.62,1245.00 162.62,1245.00
             162.05,1243.23 161.29,1240.20 158.90,1240.20
             156.55,1240.20 154.90,1243.12 154.15,1245.00
             152.47,1249.19 153.05,1257.26 153.00,1262.00
             152.91,1269.27 147.67,1292.07 143.91,1297.89
             140.74,1302.81 132.67,1303.32 128.39,1299.49
             123.31,1294.95 121.17,1283.51 120.08,1277.00
             118.42,1267.04 117.05,1257.12 117.00,1247.00
             117.00,1247.00 115.00,1219.00 115.00,1219.00
             115.00,1219.00 114.00,1199.00 114.00,1199.00
             114.00,1199.00 112.00,1172.00 112.00,1172.00
             112.00,1172.00 112.00,1164.00 112.00,1164.00
             112.00,1164.00 110.00,1140.00 110.00,1140.00
             110.00,1140.00 109.00,1126.00 109.00,1126.00
             109.00,1126.00 109.00,1116.00 109.00,1116.00
             109.00,1116.00 107.61,1095.00 107.61,1095.00
             107.61,1090.63 109.19,1089.66 110.32,1086.00
             111.19,1083.14 111.03,1079.04 111.00,1076.00
             111.00,1076.00 110.09,1066.00 110.09,1066.00
             110.09,1066.00 109.00,1045.00 109.00,1045.00
             109.00,1045.00 108.00,1029.00 108.00,1029.00
             108.00,1029.00 108.99,1016.00 108.99,1016.00
             108.99,1016.00 107.17,995.00 107.17,995.00
             107.17,995.00 106.00,973.00 106.00,973.00
             106.00,973.00 104.18,955.00 104.18,955.00
             104.23,950.58 105.98,949.82 106.00,940.00
             106.00,940.00 105.00,909.00 105.00,909.00
             105.00,909.00 106.00,897.00 106.00,897.00
             106.00,897.00 106.00,888.00 106.00,888.00
             106.00,888.00 106.92,880.00 106.92,880.00
             106.92,880.00 105.00,862.00 105.00,862.00
             105.00,862.00 105.00,781.00 105.00,781.00
             105.00,781.00 107.00,755.00 107.00,755.00
             107.00,755.00 107.00,728.00 107.00,728.00
             106.92,721.80 105.98,719.62 105.10,714.00
             105.10,714.00 105.10,703.00 105.10,703.00
             105.10,703.00 104.04,695.00 104.04,695.00
             104.04,695.00 105.00,677.00 105.00,677.00
             105.00,677.00 104.32,664.00 104.32,664.00
             104.32,664.00 105.00,652.00 105.00,652.00
             105.00,652.00 104.02,634.00 104.02,634.00
             104.21,623.90 106.29,624.95 105.32,612.00
             105.32,612.00 105.90,599.00 105.90,599.00
             105.90,599.00 105.90,562.00 105.90,562.00
             105.90,562.00 105.90,555.00 105.90,555.00
             105.90,555.00 104.00,533.00 104.00,533.00
             104.00,533.00 104.00,524.00 104.00,524.00
             104.00,524.00 103.00,512.00 103.00,512.00
             103.00,512.00 102.00,494.00 102.00,494.00
             102.00,494.00 102.00,449.00 102.00,449.00
             102.00,449.00 102.96,437.00 102.96,437.00
             102.96,437.00 102.96,423.00 102.96,423.00
             102.96,423.00 104.00,408.00 104.00,408.00
             104.00,408.00 104.00,393.00 104.00,393.00
             104.00,393.00 104.96,377.00 104.96,377.00
             104.96,377.00 104.00,364.00 104.00,364.00
             104.00,364.00 104.00,285.00 104.00,285.00
             104.00,285.00 101.00,254.00 101.00,254.00
             101.00,254.00 101.00,244.00 101.00,244.00
             101.00,244.00 99.00,214.00 99.00,214.00
             99.00,214.00 100.00,196.00 100.00,196.00
             100.00,196.00 101.00,173.00 101.00,173.00
             101.00,173.00 102.91,157.00 102.91,157.00
             102.91,157.00 102.91,148.00 102.91,148.00
             102.91,148.00 102.91,125.00 102.91,125.00
             102.91,125.00 102.91,107.00 102.91,107.00
             102.91,107.00 102.91,92.00 102.91,92.00
             102.91,92.00 104.00,80.00 104.00,80.00
             104.00,80.00 104.00,45.00 104.00,45.00
             104.01,40.19 105.71,19.61 107.43,16.02
             109.59,11.49 115.94,7.70 121.00,8.38
             128.64,9.41 138.29,17.72 140.56,25.00
             142.82,32.29 141.11,34.74 143.74,39.00
             147.31,44.78 166.60,59.22 173.00,64.00
             173.00,64.00 193.00,78.59 193.00,78.59
             193.00,78.59 201.00,85.04 201.00,85.04
             201.00,85.04 217.00,94.22 217.00,94.22
             217.00,94.22 226.00,98.07 226.00,98.07
             226.00,98.07 233.00,102.64 233.00,102.64
             233.00,102.64 256.00,113.24 256.00,113.24
             256.00,113.24 268.00,117.09 268.00,117.09
             268.00,117.09 289.00,125.10 289.00,125.10
             289.00,125.10 304.00,127.68 304.00,127.68
             304.00,127.68 314.00,131.23 314.00,131.23
             314.00,131.23 339.00,138.93 339.00,138.93
             339.00,138.93 348.00,143.39 348.00,143.39
             348.00,143.39 357.00,146.23 357.00,146.23
             357.00,146.23 372.00,152.45 372.00,152.45
             372.00,152.45 394.00,158.31 394.00,158.31
             397.45,158.99 406.49,162.80 408.94,162.19
             414.07,160.93 412.78,153.90 413.09,150.00
             413.75,141.88 420.23,128.63 426.02,123.04
             429.31,119.86 434.14,116.34 438.87,119.02
             442.31,120.98 443.61,126.33 443.91,130.00
             444.83,141.53 440.21,147.13 435.58,157.00
             433.39,161.66 431.11,167.45 436.15,171.28
             436.15,171.28 456.00,177.88 456.00,177.88
             456.00,177.88 474.00,182.67 474.00,182.67
             474.00,182.67 484.00,184.51 484.00,184.51
             484.00,184.51 499.00,189.30 499.00,189.30
             499.00,189.30 509.00,193.08 509.00,193.08
             509.00,193.08 529.00,198.49 529.00,198.49
             529.00,198.49 542.00,200.88 542.00,200.88
             542.00,200.88 553.00,204.08 553.00,204.08
             553.00,204.08 581.00,210.89 581.00,210.89
             581.00,210.89 590.00,213.40 590.00,213.40
             590.00,213.40 598.00,216.61 598.00,216.61
             598.00,216.61 607.00,217.61 607.00,217.61
             607.00,217.61 630.00,222.46 630.00,222.46
             630.00,222.46 661.00,229.95 661.00,229.95
             664.36,230.43 666.82,230.24 668.49,226.89
             668.49,226.89 670.63,218.00 670.63,218.00
             670.63,218.00 678.96,201.01 678.96,201.01
             681.63,197.02 686.38,193.74 689.83,190.00
             693.39,186.13 698.71,179.30 704.94,181.61
             710.83,183.80 708.65,191.40 708.05,196.00
             707.04,203.75 705.35,210.47 700.60,217.00
             697.86,220.77 689.68,230.05 690.81,234.96
             691.63,238.53 695.91,239.96 699.00,240.84
             709.54,243.87 713.47,242.88 724.00,243.00
             731.33,243.09 739.92,244.98 747.00,246.92
             747.00,246.92 755.00,249.47 755.00,249.47
             755.00,249.47 768.00,250.21 768.00,250.21
             772.50,250.90 774.30,252.90 778.00,254.19
             778.00,254.19 787.00,255.70 787.00,255.70
             792.35,257.47 793.33,260.05 807.00,262.63
             807.00,262.63 824.00,264.45 824.00,264.45
             835.93,266.85 847.71,270.85 860.00,271.00
             876.24,271.19 875.14,272.93 890.00,274.72
             890.00,274.72 907.00,277.06 907.00,277.06
             907.00,277.06 916.00,277.06 916.00,277.06
             916.00,277.06 933.00,280.00 933.00,280.00
             933.00,280.00 942.00,280.00 942.00,280.00
             942.00,280.00 966.00,281.68 966.00,281.68
             966.00,281.68 973.00,281.68 973.00,281.68
             973.00,281.68 981.00,281.68 981.00,281.68
             981.00,281.68 988.00,281.68 988.00,281.68
             988.00,281.68 1005.00,282.72 1005.00,282.72
             1008.32,283.11 1012.89,283.55 1015.26,280.69
             1016.91,278.69 1017.32,273.73 1018.00,271.00
             1018.00,271.00 1021.22,260.00 1021.22,260.00
             1023.57,251.70 1022.57,249.14 1028.63,241.02
             1031.08,237.73 1036.54,233.29 1040.95,233.76
             1045.83,234.27 1046.24,241.18 1046.71,245.00
             1046.71,245.00 1047.83,262.00 1047.83,262.00
             1047.83,262.00 1045.15,276.00 1045.15,276.00
             1045.17,279.34 1046.53,281.72 1050.02,282.29
             1056.37,283.31 1069.47,279.64 1076.00,278.46
             1076.00,278.46 1089.00,277.83 1089.00,277.83
             1101.11,276.62 1096.87,275.20 1114.00,275.00
             1114.00,275.00 1128.00,273.78 1128.00,273.78
             1128.00,273.78 1143.00,273.78 1143.00,273.78
             1143.00,273.78 1155.00,272.93 1155.00,272.93
             1155.00,272.93 1164.00,272.93 1164.00,272.93
             1172.49,271.80 1179.79,268.68 1189.00,269.04
             1195.87,269.31 1199.06,270.69 1207.00,269.71
             1207.00,269.71 1229.00,266.49 1229.00,266.49
             1229.00,266.49 1248.00,262.11 1248.00,262.11
             1248.00,262.11 1256.00,262.11 1256.00,262.11
             1256.00,262.11 1263.00,261.04 1263.00,261.04
             1263.00,261.04 1279.00,261.04 1279.00,261.04
             1286.27,260.91 1289.52,259.22 1296.00,258.06
             1296.00,258.06 1304.00,258.06 1304.00,258.06
             1304.00,258.06 1319.00,255.48 1319.00,255.48
             1319.00,255.48 1332.00,252.29 1332.00,252.29
             1332.00,252.29 1347.00,251.01 1347.00,251.01
             1349.77,250.95 1354.50,251.37 1356.85,249.98
             1361.03,247.51 1359.81,242.78 1358.65,239.00
             1356.73,232.75 1354.12,221.47 1354.47,215.00
             1354.67,211.28 1356.07,207.32 1360.04,206.56
             1362.01,205.82 1365.08,206.20 1367.00,206.56
             1376.38,209.74 1375.69,217.05 1377.08,225.00
             1377.08,225.00 1378.61,233.00 1378.61,233.00
             1378.88,236.52 1376.30,245.74 1386.00,245.30
             1394.98,244.90 1401.69,241.40 1408.00,240.32
             1427.92,236.91 1448.53,233.80 1468.00,228.09
             1468.00,228.09 1488.00,221.21 1488.00,221.21
             1488.00,221.21 1523.00,212.40 1523.00,212.40
             1523.00,212.40 1570.00,193.21 1570.00,193.21
             1570.00,193.21 1580.00,187.16 1580.00,187.16
             1583.79,185.37 1587.00,186.55 1589.77,184.83
             1593.30,182.64 1592.30,179.31 1591.42,176.00
             1589.13,167.43 1586.82,162.34 1587.02,153.00
             1587.08,149.73 1587.54,144.10 1591.22,142.79
             1594.56,141.61 1597.68,144.79 1600.00,146.73
             1605.16,151.06 1611.56,157.61 1614.01,164.00
             1615.47,167.82 1614.49,172.22 1618.15,173.19
             1622.95,174.47 1630.93,167.27 1635.00,165.29
             1635.00,165.29 1647.00,161.10 1647.00,161.10
             1647.00,161.10 1670.00,148.32 1670.00,148.32
             1670.00,148.32 1685.00,141.26 1685.00,141.26
             1685.00,141.26 1700.00,134.69 1700.00,134.69
             1700.00,134.69 1714.00,127.52 1714.00,127.52
             1714.00,127.52 1743.00,116.53 1743.00,116.53
             1743.00,116.53 1759.00,108.87 1759.00,108.87
             1759.00,108.87 1807.00,90.88 1807.00,90.88
             1807.00,90.88 1821.00,83.31 1821.00,83.31
             1821.00,83.31 1833.00,76.78 1833.00,76.78
             1836.72,74.27 1850.04,64.54 1851.40,60.98
             1853.03,56.73 1851.04,33.69 1863.04,26.53
             1871.16,21.69 1883.00,25.00 1886.52,34.01
             1888.29,38.53 1886.83,41.33 1887.25,45.00
             1887.73,49.21 1890.30,51.85 1890.75,56.00
             1890.75,56.00 1890.00,69.00 1890.00,69.00
             1890.00,69.00 1890.00,95.00 1890.00,95.00
             1890.00,95.00 1891.00,110.00 1891.00,110.00
             1891.00,110.00 1891.00,135.00 1891.00,135.00
             1891.00,135.00 1892.00,150.00 1892.00,150.00
             1892.00,150.00 1892.00,187.00 1892.00,187.00
             1892.00,187.00 1890.00,211.00 1890.00,211.00
             1890.00,211.00 1890.00,230.00 1890.00,230.00
             1890.00,230.00 1888.96,244.00 1888.96,244.00
             1888.96,244.00 1888.96,259.00 1888.96,259.00
             1888.96,259.00 1888.04,270.00 1888.04,270.00
             1888.04,270.00 1889.00,283.00 1889.00,283.00
             1889.00,283.00 1889.00,321.00 1889.00,321.00
             1889.00,321.00 1891.00,344.00 1891.00,344.00
             1891.00,344.00 1891.68,362.00 1891.68,362.00
             1891.68,362.00 1891.00,371.00 1891.00,371.00
             1891.00,371.00 1891.00,392.00 1891.00,392.00
             1891.00,392.00 1891.83,408.00 1891.83,408.00
             1891.83,408.00 1889.20,428.00 1889.20,428.00
             1889.20,428.00 1886.68,439.00 1886.68,439.00
             1886.68,439.00 1887.25,449.00 1887.25,449.00
             1887.25,449.00 1886.09,473.00 1886.09,473.00
             1886.09,473.00 1888.00,491.00 1888.00,491.00
             1888.00,491.00 1889.00,546.00 1889.00,546.00
             1889.00,546.00 1888.02,558.00 1888.02,558.00
             1888.02,558.00 1889.00,578.00 1889.00,578.00
             1889.00,578.00 1888.00,591.00 1888.00,591.00
             1888.00,591.00 1888.00,611.00 1888.00,611.00
             1887.99,620.54 1886.67,620.56 1886.29,627.00
             1886.29,627.00 1886.29,637.00 1886.29,637.00
             1886.29,637.00 1886.29,663.00 1886.29,663.00
             1886.29,663.00 1885.00,685.00 1885.00,685.00
             1885.00,685.00 1883.09,706.00 1883.09,706.00
             1883.09,706.00 1882.04,724.00 1882.04,724.00
             1882.04,724.00 1882.91,735.00 1882.91,735.00
             1882.91,735.00 1880.92,763.00 1880.92,763.00
             1880.92,763.00 1880.92,779.00 1880.92,779.00
             1879.98,787.82 1878.02,790.83 1878.00,801.00
             1878.00,801.00 1878.00,836.00 1878.00,836.00
             1878.00,836.00 1876.04,856.00 1876.04,856.00
             1876.04,856.00 1876.04,866.00 1876.04,866.00
             1876.04,866.00 1875.09,873.00 1875.09,873.00
             1875.09,873.00 1876.00,890.00 1876.00,890.00
             1876.00,890.00 1875.00,908.00 1875.00,908.00
             1875.00,908.00 1875.00,933.00 1875.00,933.00
             1875.00,933.00 1874.00,950.00 1874.00,950.00
             1874.00,950.00 1874.00,965.00 1874.00,965.00
             1874.00,965.00 1873.00,981.00 1873.00,981.00
             1873.00,981.00 1873.00,1005.00 1873.00,1005.00
             1873.00,1005.00 1872.00,1022.00 1872.00,1022.00
             1872.00,1022.00 1872.00,1035.00 1872.00,1035.00
             1872.00,1035.00 1871.00,1052.00 1871.00,1052.00
             1871.00,1052.00 1872.00,1067.00 1872.00,1067.00
             1872.00,1067.00 1872.00,1113.00 1872.00,1113.00
             1872.00,1113.00 1871.00,1130.00 1871.00,1130.00
             1871.00,1130.00 1871.00,1179.00 1871.00,1179.00
             1871.00,1179.00 1868.00,1211.00 1868.00,1211.00
             1868.00,1211.00 1868.00,1220.00 1868.00,1220.00
             1868.00,1220.00 1866.16,1233.00 1866.16,1233.00
             1865.51,1239.10 1862.51,1259.18 1860.35,1264.00
             1857.39,1270.60 1851.18,1276.15 1844.00,1277.23
             1841.16,1277.65 1838.12,1278.01 1836.09,1275.51
             1833.73,1272.62 1833.01,1258.19 1833.00,1254.00
             1833.00,1254.00 1833.00,1243.00 1833.00,1243.00
             1833.00,1243.00 1833.92,1232.00 1833.92,1232.00
             1833.92,1227.74 1832.67,1225.40 1833.04,1217.00
             1833.04,1217.00 1834.00,1204.00 1834.00,1204.00
             1834.00,1204.00 1834.00,1159.00 1834.00,1159.00
             1834.00,1159.00 1834.84,1146.00 1834.84,1146.00
             1834.84,1146.00 1834.84,1136.00 1834.84,1136.00
             1834.84,1136.00 1834.84,1124.00 1834.84,1124.00
             1834.84,1124.00 1834.04,1114.00 1834.04,1114.00
             1834.04,1114.00 1834.04,1100.00 1834.04,1100.00
             1834.04,1100.00 1834.91,1085.00 1834.91,1085.00
             1834.91,1085.00 1834.04,1075.00 1834.04,1075.00
             1834.04,1075.00 1835.96,1062.00 1835.96,1062.00
             1835.96,1062.00 1835.96,1051.00 1835.96,1051.00
             1835.96,1051.00 1837.00,1039.00 1837.00,1039.00
             1837.00,1039.00 1837.00,1024.00 1837.00,1024.00
             1837.00,1024.00 1836.09,1012.00 1836.09,1012.00
             1836.09,1012.00 1835.00,980.00 1835.00,980.00
             1835.00,980.00 1838.00,952.00 1838.00,952.00
             1838.00,952.00 1836.86,935.00 1836.86,935.00
             1836.86,935.00 1836.86,914.00 1836.86,914.00
             1836.86,914.00 1836.86,906.00 1836.86,906.00
             1836.86,906.00 1837.96,888.00 1837.96,888.00
             1837.96,888.00 1837.96,869.00 1837.96,869.00
             1837.96,869.00 1840.74,841.00 1840.74,841.00
             1840.74,841.00 1840.74,835.00 1840.74,835.00
             1840.74,835.00 1840.74,828.00 1840.74,828.00
             1840.74,828.00 1840.74,820.00 1840.74,820.00
             1840.74,820.00 1840.74,797.00 1840.74,797.00
             1840.74,797.00 1840.04,783.00 1840.04,783.00
             1840.04,783.00 1843.00,750.00 1843.00,750.00
             1843.00,750.00 1843.00,739.00 1843.00,739.00
             1843.00,739.00 1842.21,728.00 1842.21,728.00
             1842.55,721.97 1843.94,722.14 1844.00,711.00
             1844.00,711.00 1847.00,687.00 1847.00,687.00
             1847.00,687.00 1847.00,671.00 1847.00,671.00
             1847.00,671.00 1847.82,659.00 1847.82,659.00
             1847.82,659.00 1847.00,634.00 1847.00,634.00
             1847.08,627.20 1847.92,627.51 1848.70,622.00
             1848.70,622.00 1850.00,601.00 1850.00,601.00
             1850.00,601.00 1850.00,577.00 1850.00,577.00
             1850.00,577.00 1850.66,566.00 1850.66,566.00
             1850.66,566.00 1849.09,556.00 1849.09,556.00
             1849.09,556.00 1849.09,544.00 1849.09,544.00
             1849.09,544.00 1849.97,532.00 1849.97,532.00
             1849.97,532.00 1849.00,518.00 1849.00,518.00
             1849.00,518.00 1849.00,488.00 1849.00,488.00
             1849.00,488.00 1848.04,476.00 1848.04,476.00
             1848.04,476.00 1848.04,463.00 1848.04,463.00
             1848.04,463.00 1846.18,447.00 1846.18,447.00
             1846.18,447.00 1847.00,438.00 1847.00,438.00
             1847.00,438.00 1847.00,425.00 1847.00,425.00
             1847.00,425.00 1846.03,413.00 1846.03,413.00
             1846.03,413.00 1847.00,401.00 1847.00,401.00
             1847.00,401.00 1847.00,379.00 1847.00,379.00
             1847.00,379.00 1846.01,364.00 1846.01,364.00
             1846.01,364.00 1847.00,352.00 1847.00,352.00
             1847.00,352.00 1846.00,335.00 1846.00,335.00
             1846.00,335.00 1846.91,321.00 1846.91,321.00
             1846.91,321.00 1848.00,292.00 1848.00,292.00
             1848.00,292.00 1849.17,272.00 1849.17,272.00
             1849.97,264.54 1851.12,266.97 1850.80,256.00
             1850.80,256.00 1850.80,246.00 1850.80,246.00
             1851.34,240.48 1853.27,237.47 1852.91,231.00
             1852.91,231.00 1852.00,214.00 1852.00,214.00
             1852.00,214.00 1853.00,197.00 1853.00,197.00
             1853.00,197.00 1853.00,192.00 1853.00,192.00
             1853.00,192.00 1851.28,177.00 1851.28,177.00
             1851.28,177.00 1850.00,158.00 1850.00,158.00
             1850.00,158.00 1850.00,140.00 1850.00,140.00
             1850.00,140.00 1849.00,125.00 1849.00,125.00
             1849.00,125.00 1849.00,113.00 1849.00,113.00
             1849.00,113.00 1849.92,102.00 1849.92,102.00
             1849.92,102.00 1849.04,90.00 1849.04,90.00
             1849.28,83.56 1850.44,84.66 1848.00,78.00
             1848.00,78.00 1814.00,96.63 1814.00,96.63 Z
           M 1629.00,178.06
           C 1625.78,179.33 1622.37,180.73 1620.85,184.10
             1619.13,187.95 1620.57,199.05 1619.79,204.00
             1619.44,206.22 1618.22,209.92 1615.80,210.66
             1612.08,211.81 1608.93,204.49 1607.25,202.00
             1600.63,192.17 1592.95,187.34 1583.79,198.30
             1577.94,205.29 1578.41,211.93 1576.50,220.00
             1576.50,220.00 1573.24,231.00 1573.24,231.00
             1573.24,231.00 1566.91,256.00 1566.91,256.00
             1565.07,261.00 1562.14,264.67 1559.19,269.00
             1549.39,283.40 1544.47,287.87 1529.00,295.60
             1523.29,298.45 1521.42,299.76 1515.00,301.57
             1508.71,303.35 1501.56,303.24 1495.00,304.05
             1489.55,304.73 1483.48,307.15 1478.00,306.67
             1478.00,306.67 1470.00,305.29 1470.00,305.29
             1464.45,304.57 1460.61,305.73 1455.00,303.60
             1455.00,303.60 1438.00,293.51 1438.00,293.51
             1432.78,290.72 1430.93,291.41 1426.01,286.89
             1417.39,278.97 1416.03,263.49 1404.00,258.89
             1401.48,257.93 1397.71,257.94 1395.00,258.02
             1390.21,258.15 1383.91,259.30 1382.92,265.02
             1382.42,270.71 1387.16,275.09 1382.92,279.76
             1381.73,280.75 1380.42,281.64 1379.00,281.66
             1370.51,281.78 1371.09,262.66 1360.00,266.74
             1354.58,268.74 1349.37,278.08 1346.62,283.00
             1346.62,283.00 1339.63,294.00 1339.63,294.00
             1335.47,303.49 1331.96,318.63 1329.37,329.00
             1329.37,329.00 1324.60,343.00 1324.60,343.00
             1324.60,343.00 1320.19,357.00 1320.19,357.00
             1320.19,357.00 1315.14,367.00 1315.14,367.00
             1313.52,371.19 1310.06,386.62 1310.00,391.00
             1309.81,405.68 1313.09,408.75 1322.30,419.04
             1322.30,419.04 1332.09,429.83 1332.09,429.83
             1332.09,429.83 1339.91,436.44 1339.91,436.44
             1339.91,436.44 1350.00,447.17 1350.00,447.17
             1356.71,453.59 1359.76,463.27 1368.00,468.26
             1373.84,471.79 1378.91,466.85 1383.00,462.96
             1383.00,462.96 1395.82,450.00 1395.82,450.00
             1402.89,441.92 1398.80,444.84 1409.00,434.96
             1412.05,432.00 1417.90,423.11 1422.70,426.64
             1424.89,428.25 1427.17,436.07 1428.43,439.00
             1428.43,439.00 1441.31,466.00 1441.31,466.00
             1443.79,470.87 1446.24,475.73 1447.79,481.00
             1447.79,481.00 1455.57,526.00 1455.57,526.00
             1455.57,526.00 1457.34,541.00 1457.34,541.00
             1457.34,541.00 1459.96,549.00 1459.96,549.00
             1459.96,549.00 1462.67,559.00 1462.67,559.00
             1462.67,559.00 1470.95,579.00 1470.95,579.00
             1470.95,579.00 1477.14,591.00 1477.14,591.00
             1477.14,591.00 1482.69,607.00 1482.69,607.00
             1482.69,607.00 1488.69,621.00 1488.69,621.00
             1488.69,621.00 1492.34,631.00 1492.34,631.00
             1492.34,631.00 1501.66,653.00 1501.66,653.00
             1503.00,657.18 1505.69,668.99 1507.88,671.77
             1510.53,675.15 1515.05,675.35 1519.00,674.79
             1521.83,674.39 1524.31,673.23 1527.00,672.36
             1527.00,672.36 1536.00,669.90 1536.00,669.90
             1536.00,669.90 1549.00,664.03 1549.00,664.03
             1549.00,664.03 1568.00,657.55 1568.00,657.55
             1568.00,657.55 1583.00,649.95 1583.00,649.95
             1583.00,649.95 1596.00,644.77 1596.00,644.77
             1596.00,644.77 1605.00,642.48 1605.00,642.48
             1605.00,642.48 1619.00,636.47 1619.00,636.47
             1619.00,636.47 1627.00,634.03 1627.00,634.03
             1627.00,634.03 1634.00,630.75 1634.00,630.75
             1634.00,630.75 1689.00,604.86 1689.00,604.86
             1689.00,604.86 1698.00,600.24 1698.00,600.24
             1698.00,600.24 1722.00,585.63 1722.00,585.63
             1727.42,582.72 1735.88,578.45 1737.57,572.00
             1738.83,567.18 1735.29,558.53 1733.35,554.00
             1733.35,554.00 1728.64,544.00 1728.64,544.00
             1728.64,544.00 1723.53,536.00 1723.53,536.00
             1723.53,536.00 1713.86,513.00 1713.86,513.00
             1708.16,500.18 1705.25,486.39 1701.23,473.00
             1701.23,473.00 1698.53,465.00 1698.53,465.00
             1697.62,460.98 1698.34,457.20 1696.48,451.00
             1696.48,451.00 1687.54,429.00 1687.54,429.00
             1687.54,429.00 1684.54,418.00 1684.54,418.00
             1684.54,418.00 1674.90,393.00 1674.90,393.00
             1674.90,393.00 1673.48,385.00 1673.48,385.00
             1673.48,385.00 1670.49,375.00 1670.49,375.00
             1670.49,375.00 1664.60,360.00 1664.60,360.00
             1661.02,347.56 1665.39,349.86 1654.90,329.00
             1653.10,325.42 1648.48,316.71 1652.32,313.62
             1657.51,309.44 1660.18,318.16 1663.22,319.98
             1665.37,321.26 1669.23,320.90 1672.00,321.53
             1682.87,323.99 1677.03,325.19 1692.00,325.00
             1716.02,324.68 1729.08,300.35 1739.31,282.00
             1744.71,272.30 1743.35,275.64 1747.87,265.00
             1750.19,259.55 1755.73,246.37 1755.96,241.00
             1756.38,230.96 1752.22,231.16 1745.00,227.05
             1745.00,227.05 1735.00,220.91 1735.00,220.91
             1735.00,220.91 1698.00,200.43 1698.00,200.43
             1693.03,197.73 1689.61,197.37 1685.00,193.87
             1685.00,193.87 1668.00,180.83 1668.00,180.83
             1660.20,174.44 1659.06,170.15 1648.00,171.32
             1641.98,172.68 1634.86,175.76 1629.00,178.06 Z
           M 405.00,199.00
           C 405.01,210.85 406.66,207.87 407.87,215.00
             408.53,218.87 407.54,222.17 408.88,226.00
             408.88,226.00 420.22,247.00 420.22,247.00
             420.22,247.00 427.26,263.00 427.26,263.00
             427.26,263.00 440.74,289.00 440.74,289.00
             440.74,289.00 456.31,322.00 456.31,322.00
             456.31,322.00 465.77,337.00 465.77,337.00
             465.77,337.00 471.47,348.00 471.47,348.00
             474.20,352.43 485.95,367.17 490.00,369.90
             496.33,374.15 500.29,374.10 507.00,376.36
             513.47,378.53 513.69,379.90 521.00,380.00
             524.92,380.05 535.81,380.36 539.00,379.30
             548.72,376.06 562.45,362.08 570.01,355.16
             570.01,355.16 590.79,335.83 590.79,335.83
             590.79,335.83 598.04,327.17 598.04,327.17
             598.04,327.17 619.00,308.82 619.00,308.82
             619.00,308.82 629.00,299.75 629.00,299.75
             629.00,299.75 654.00,275.83 654.00,275.83
             656.08,273.91 661.96,268.78 659.29,265.63
             657.22,263.13 652.50,264.89 650.00,265.63
             643.85,267.55 631.03,271.19 625.00,270.96
             625.00,270.96 617.00,270.40 617.00,270.40
             617.00,270.40 610.00,270.40 610.00,270.40
             610.00,270.40 598.00,269.01 598.00,269.01
             598.00,269.01 585.00,269.74 585.00,269.74
             578.30,268.93 581.59,266.03 567.00,266.00
             567.00,266.00 539.00,262.07 539.00,262.07
             539.00,262.07 520.00,254.27 520.00,254.27
             520.00,254.27 510.09,251.45 510.09,251.45
             510.09,251.45 504.83,247.95 504.83,247.95
             504.83,247.95 494.00,242.04 494.00,242.04
             494.00,242.04 482.00,237.02 482.00,237.02
             482.00,237.02 476.00,232.83 476.00,232.83
             476.00,232.83 453.00,217.41 453.00,217.41
             453.00,217.41 444.00,210.04 444.00,210.04
             444.00,210.04 433.00,202.62 433.00,202.62
             425.49,196.58 424.96,191.88 421.79,189.61
             419.67,188.10 410.12,188.06 407.43,188.59
             404.19,191.35 405.00,195.01 405.00,199.00 Z
           M 445.43,201.15
           C 452.57,208.54 453.21,206.92 460.00,211.79
             460.00,211.79 468.00,218.37 468.00,218.37
             468.00,218.37 484.96,229.45 484.96,229.45
             484.96,229.45 491.17,233.81 491.17,233.81
             491.17,233.81 499.00,237.38 499.00,237.38
             499.00,237.38 506.00,241.62 506.00,241.62
             506.00,241.62 515.00,245.31 515.00,245.31
             515.00,245.31 524.00,249.45 524.00,249.45
             524.00,249.45 532.00,251.59 532.00,251.59
             532.00,251.59 540.00,254.49 540.00,254.49
             540.00,254.49 555.00,256.92 555.00,256.92
             555.00,256.92 565.00,259.08 565.00,259.08
             565.00,259.08 573.00,259.08 573.00,259.08
             573.00,259.08 583.00,261.15 583.00,261.15
             585.52,261.41 591.83,261.88 589.83,257.19
             588.75,254.64 583.55,252.12 581.00,251.33
             581.00,251.33 563.00,248.22 563.00,248.22
             563.00,248.22 555.00,245.06 555.00,245.06
             555.00,245.06 532.00,238.13 532.00,238.13
             532.00,238.13 516.00,229.52 516.00,229.52
             516.00,229.52 507.00,225.51 507.00,225.51
             507.00,225.51 496.00,218.87 496.00,218.87
             496.00,218.87 477.00,208.58 477.00,208.58
             477.00,208.58 455.00,197.22 455.00,197.22
             450.64,194.92 447.45,191.96 442.33,192.64
             438.92,195.80 442.96,198.60 445.43,201.15 Z
           M 487.00,205.64
           C 487.00,205.64 496.00,210.92 496.00,210.92
             505.12,215.69 514.61,219.55 523.00,225.63
             525.80,227.65 535.92,233.25 539.00,234.31
             539.00,234.31 548.00,236.04 548.00,236.04
             548.00,236.04 556.00,238.49 556.00,238.49
             556.00,238.49 565.00,240.43 565.00,240.43
             579.76,244.58 603.91,252.82 619.00,253.00
             619.00,253.00 645.00,252.32 645.00,252.32
             648.95,252.03 655.51,254.40 657.47,249.78
             658.49,248.16 658.15,246.64 657.47,245.18
             653.36,239.15 644.28,238.61 638.00,237.72
             638.00,237.72 615.00,231.76 615.00,231.76
             615.00,231.76 607.00,230.39 607.00,230.39
             607.00,230.39 573.00,220.87 573.00,220.87
             573.00,220.87 565.00,216.90 565.00,216.90
             565.00,216.90 547.00,210.09 547.00,210.09
             541.65,208.40 539.71,209.45 535.00,208.79
             535.00,208.79 518.00,205.34 518.00,205.34
             518.00,205.34 508.00,202.50 508.00,202.50
             508.00,202.50 494.00,199.61 494.00,199.61
             489.69,198.39 487.60,196.49 483.11,195.91
             474.43,198.53 483.44,203.88 487.00,205.64 Z
           M 1446.00,254.78
           C 1446.00,254.78 1458.00,252.29 1458.00,252.29
             1458.00,252.29 1475.00,250.56 1475.00,250.56
             1475.00,250.56 1492.00,246.45 1492.00,246.45
             1492.00,246.45 1528.00,240.01 1528.00,240.01
             1528.00,240.01 1539.00,233.99 1539.00,233.99
             1547.83,228.80 1558.11,223.97 1564.67,216.00
             1566.40,213.90 1570.43,208.53 1567.39,206.13
             1565.33,204.33 1561.23,205.48 1559.00,206.13
             1559.00,206.13 1538.00,215.13 1538.00,215.13
             1538.00,215.13 1525.00,220.53 1525.00,220.53
             1525.00,220.53 1512.00,224.34 1512.00,224.34
             1512.00,224.34 1497.00,230.46 1497.00,230.46
             1497.00,230.46 1483.00,234.52 1483.00,234.52
             1483.00,234.52 1471.00,238.52 1471.00,238.52
             1466.83,240.31 1466.00,241.45 1461.00,242.84
             1456.08,244.21 1439.64,246.35 1436.60,248.98
             1435.20,250.19 1435.29,251.38 1435.00,253.00
             1438.42,253.69 1442.59,255.03 1446.00,254.78 Z
           M 1536.00,243.76
           C 1526.47,247.39 1516.85,249.17 1507.00,251.36
             1507.00,251.36 1495.00,254.70 1495.00,254.70
             1495.00,254.70 1483.00,255.30 1483.00,255.30
             1483.00,255.30 1468.00,258.57 1468.00,258.57
             1468.00,258.57 1437.00,263.21 1437.00,263.21
             1435.12,263.61 1426.61,265.16 1425.62,266.02
             1421.05,269.95 1431.45,278.79 1434.00,281.05
             1441.80,287.97 1452.66,292.94 1463.00,294.68
             1463.00,294.68 1470.00,295.29 1470.00,295.29
             1470.00,295.29 1481.00,296.96 1481.00,296.96
             1487.41,297.21 1498.19,294.33 1505.00,293.00
             1505.00,293.00 1521.00,291.10 1521.00,291.10
             1534.80,287.75 1542.60,279.83 1550.88,269.00
             1554.45,264.32 1560.74,247.21 1562.65,241.00
             1563.82,237.22 1565.59,232.39 1560.87,230.84
             1553.40,232.34 1541.66,241.59 1536.00,243.76 Z
           M 404.88,256.00
           C 406.30,262.18 407.20,265.99 409.54,272.00
             409.54,272.00 412.67,279.00 412.67,279.00
             413.93,282.40 413.76,284.61 415.64,288.00
             415.64,288.00 423.58,299.00 423.58,299.00
             425.78,302.04 432.38,312.53 436.67,311.26
             441.49,309.83 434.36,297.46 433.11,295.00
             433.11,295.00 419.54,267.00 419.54,267.00
             416.77,260.94 416.67,258.22 412.82,252.00
             410.59,248.41 408.71,240.96 404.26,240.74
             400.42,243.84 403.91,251.79 404.88,256.00 Z
           M 999.00,293.00
           C 999.00,293.00 999.00,297.00 999.00,297.00
             999.00,297.00 1002.00,297.00 1002.00,297.00
             1002.00,297.00 1002.00,293.00 1002.00,293.00
             1002.00,293.00 999.00,293.00 999.00,293.00 Z
           M 987.02,307.31
           C 985.98,308.87 984.71,321.14 984.25,324.00
             982.51,334.65 982.02,352.91 982.00,364.00
             982.00,364.00 980.00,384.00 980.00,384.00
             979.87,395.65 977.69,410.37 975.75,422.00
             975.00,426.53 972.92,436.78 974.60,440.90
             976.13,444.65 981.58,446.43 985.00,448.11
             990.29,450.70 996.73,454.96 1000.82,459.17
             1005.96,464.45 1007.48,469.43 1009.91,476.00
             1009.91,476.00 1015.68,494.00 1015.68,494.00
             1015.68,494.00 1016.44,503.00 1016.44,503.00
             1017.26,508.26 1017.93,509.19 1018.00,515.00
             1018.06,520.41 1018.55,533.32 1021.17,537.82
             1022.46,540.03 1027.77,543.96 1030.00,545.87
             1030.00,545.87 1040.00,554.62 1040.00,554.62
             1040.00,554.62 1053.00,564.41 1053.00,564.41
             1053.00,564.41 1067.00,575.44 1067.00,575.44
             1068.91,576.75 1071.39,578.19 1073.78,577.35
             1076.89,576.25 1080.40,566.19 1082.17,563.00
             1089.19,550.35 1090.62,550.53 1100.99,541.68
             1100.99,541.68 1107.28,535.63 1107.28,535.63
             1110.90,532.65 1117.64,529.95 1116.51,524.01
             1115.95,521.04 1112.61,518.09 1110.57,515.93
             1104.11,509.07 1096.02,504.56 1088.00,499.81
             1073.04,490.95 1074.97,491.53 1062.00,480.42
             1058.33,477.28 1050.18,469.80 1047.72,466.00
             1047.72,466.00 1042.07,454.00 1042.07,454.00
             1039.67,448.01 1042.21,443.77 1043.00,438.00
             1043.00,438.00 1043.00,429.00 1043.00,429.00
             1043.77,422.95 1045.93,413.94 1047.58,408.00
             1047.58,408.00 1052.54,388.00 1052.54,388.00
             1052.54,388.00 1055.44,367.00 1055.44,367.00
             1055.44,367.00 1057.70,356.00 1057.70,356.00
             1057.70,356.00 1058.32,348.00 1058.32,348.00
             1059.64,339.90 1062.90,332.31 1063.00,324.00
             1063.04,320.64 1063.45,315.98 1061.40,313.19
             1057.37,307.69 1040.53,306.47 1035.22,310.70
             1029.71,315.09 1031.97,326.14 1023.00,322.77
             1019.44,321.43 1013.91,318.18 1011.85,314.96
             1010.10,312.21 1010.29,309.46 1008.42,308.02
             1005.92,306.10 992.44,304.86 989.15,305.60
             988.60,305.98 987.95,305.93 987.02,307.31 Z
           M 612.78,324.00
           C 611.64,325.44 608.44,329.35 611.37,330.75
             613.61,331.83 616.47,329.23 618.00,327.91
             622.69,323.86 628.56,319.66 628.00,313.00
             621.67,314.34 616.70,319.02 612.78,324.00 Z
           M 966.00,475.00
           C 965.99,479.14 965.59,490.71 966.70,494.00
             968.94,500.62 982.06,512.52 988.00,516.66
             991.65,519.19 1002.49,527.65 1006.85,526.30
             1009.64,525.43 1009.92,522.47 1009.97,520.00
             1009.97,520.00 1009.08,512.00 1009.08,512.00
             1009.08,512.00 1009.08,502.00 1009.08,502.00
             1008.94,497.54 1006.87,486.12 1005.34,482.00
             1002.66,474.75 993.68,461.72 987.00,457.90
             982.72,455.46 978.10,452.78 973.13,453.61
             967.77,457.10 966.01,468.88 966.00,475.00 Z
           M 1097.96,554.00
           C 1094.76,557.35 1091.91,559.84 1089.65,564.00
             1087.18,568.53 1087.14,571.34 1085.96,576.00
             1085.11,579.38 1082.38,584.06 1082.78,587.00
             1083.37,591.36 1087.73,593.67 1091.00,595.88
             1093.30,597.44 1095.48,599.24 1098.00,600.44
             1104.03,603.32 1118.51,607.42 1125.00,605.49
             1128.40,604.48 1132.11,601.06 1135.00,598.89
             1140.29,594.92 1148.76,588.68 1150.72,582.00
             1151.12,579.99 1151.03,575.25 1150.72,573.00
             1150.97,571.34 1150.98,569.63 1150.72,568.00
             1149.90,565.17 1147.70,561.84 1146.44,559.00
             1143.58,552.56 1137.90,540.27 1130.96,537.49
             1128.39,536.61 1124.68,537.03 1122.00,537.49
             1111.13,540.62 1105.53,546.08 1097.96,554.00 Z
           M 149.00,1040.00
           C 149.00,1040.00 150.26,1065.00 150.26,1065.00
             149.96,1073.05 150.39,1080.99 151.17,1089.00
             151.43,1091.73 152.21,1105.74 156.74,1103.60
             159.78,1102.16 158.16,1098.08 162.19,1092.00
             167.93,1083.35 165.02,1083.15 165.00,1073.00
             165.00,1073.00 165.75,1051.00 165.75,1051.00
             165.52,1048.70 164.19,1045.29 163.42,1043.00
             161.63,1037.65 158.02,1031.95 152.15,1030.91
             148.23,1033.02 149.01,1035.96 149.00,1040.00 Z
           M 183.34,1035.72
           C 180.96,1037.62 180.04,1040.30 178.95,1043.00
             175.16,1052.37 175.02,1060.17 177.26,1070.00
             178.04,1073.45 177.81,1079.11 179.85,1081.69
             182.36,1084.85 186.55,1083.49 190.00,1084.09
             196.07,1085.16 208.73,1092.97 214.00,1092.43
             216.94,1092.12 219.63,1090.04 222.00,1088.42
             232.09,1081.57 234.29,1077.36 233.99,1065.00
             233.70,1053.24 225.96,1040.60 215.00,1035.95
             211.52,1034.48 208.58,1034.27 205.00,1033.55
             200.47,1032.65 199.86,1032.05 195.00,1032.30
             191.67,1032.83 185.96,1033.64 183.34,1035.72 Z
           M 167.00,1124.00
           C 167.02,1135.72 168.94,1132.21 174.05,1139.10
             175.68,1141.29 176.05,1142.53 178.21,1144.70
             186.27,1152.79 199.04,1157.77 210.00,1160.21
             214.00,1161.10 224.22,1163.84 227.78,1162.26
             230.31,1161.13 231.27,1158.24 232.59,1156.00
             234.03,1153.56 236.16,1150.90 236.40,1148.00
             236.81,1143.14 229.16,1127.54 224.83,1125.18
             220.31,1122.71 217.03,1125.96 213.00,1127.33
             208.61,1128.82 205.67,1127.58 202.00,1128.66
             197.62,1129.95 195.50,1133.13 190.00,1133.81
             182.73,1134.70 178.77,1130.31 180.17,1127.43
             182.17,1123.30 194.19,1125.16 198.00,1124.88
             203.92,1124.46 206.52,1121.72 210.98,1118.47
             213.63,1116.54 217.34,1115.08 216.16,1111.02
             215.39,1108.42 211.98,1105.73 210.00,1103.93
             202.34,1096.99 192.38,1093.18 182.00,1094.33
             165.92,1098.19 166.97,1110.85 167.00,1124.00 Z
           M 168.31,1159.04
           C 168.31,1159.04 167.33,1167.00 167.33,1167.00
             166.71,1173.49 163.46,1185.38 167.33,1190.79
             169.07,1193.75 171.66,1194.12 174.63,1197.21
             174.63,1197.21 179.21,1202.68 179.21,1202.68
             184.12,1207.44 202.74,1220.97 209.00,1224.18
             209.00,1224.18 218.00,1227.87 218.00,1227.87
             225.30,1231.00 232.60,1235.19 240.98,1233.85
             250.71,1232.30 243.78,1220.16 239.82,1216.18
             239.82,1216.18 223.00,1203.56 223.00,1203.56
             219.17,1201.46 216.52,1201.72 212.00,1198.87
             203.87,1193.73 196.26,1184.84 190.77,1177.00
             189.18,1174.73 185.94,1169.49 184.99,1167.00
             183.25,1162.44 184.67,1154.96 173.02,1154.61
             170.30,1155.57 169.14,1155.96 168.31,1159.04 Z
           M 167.02,1218.00
           C 166.40,1221.00 164.55,1222.76 164.55,1226.00
             164.54,1233.30 173.65,1243.68 176.30,1251.00
             176.30,1251.00 178.85,1259.00 178.85,1259.00
             178.85,1259.00 188.53,1274.96 188.53,1274.96
             194.23,1282.10 217.37,1298.15 226.00,1302.74
             226.00,1302.74 237.00,1306.41 237.00,1306.41
             237.00,1306.41 246.00,1311.13 246.00,1311.13
             246.00,1311.13 266.00,1317.61 266.00,1317.61
             267.67,1317.97 269.31,1317.97 271.00,1318.16
             271.00,1318.16 280.00,1318.16 280.00,1318.16
             290.76,1320.12 292.69,1323.58 306.00,1321.41
             307.84,1321.11 310.27,1320.76 311.89,1319.83
             319.80,1315.30 316.97,1298.97 312.72,1295.60
             310.73,1294.01 308.41,1294.05 306.00,1294.00
             306.00,1294.00 299.00,1294.00 299.00,1294.00
             289.51,1293.82 290.98,1288.67 295.11,1286.14
             298.65,1283.96 304.18,1284.21 305.77,1283.71
             307.29,1283.23 308.13,1282.51 308.36,1280.87
             308.71,1278.33 306.62,1274.98 305.21,1273.00
             305.21,1273.00 294.21,1261.00 294.21,1261.00
             291.48,1257.83 290.55,1255.44 286.96,1252.96
             284.57,1251.32 279.19,1248.52 276.27,1249.64
             271.64,1251.42 273.31,1259.98 264.00,1255.71
             257.25,1252.62 254.22,1248.44 248.00,1245.93
             248.00,1245.93 232.00,1242.34 232.00,1242.34
             232.00,1242.34 225.00,1238.90 225.00,1238.90
             225.00,1238.90 201.00,1227.58 201.00,1227.58
             201.00,1227.58 183.00,1216.71 183.00,1216.71
             178.90,1213.81 175.33,1210.05 170.15,1209.82
             165.83,1212.36 167.87,1213.89 167.02,1218.00 Z
           M 321.37,1281.00
           C 326.08,1291.88 328.36,1293.06 340.00,1293.00
             351.78,1292.93 346.50,1287.70 341.29,1282.09
             336.25,1276.65 329.59,1269.40 321.37,1270.61
             317.87,1273.63 319.66,1277.24 321.37,1281.00 Z" />
</svg>
