<?xml version="1.0" encoding="UTF-8" standalone="no"?>
<!DOCTYPE svg PUBLIC "-//W3C//DTD SVG 20010904//EN"
              "http://www.w3.org/TR/2001/REC-SVG-20010904/DTD/svg10.dtd">

<svg xmlns="http://www.w3.org/2000/svg"
     width="28.4583in" height="11.6528in"
     viewBox="0 0 2049 839">
  <path id="Selection"
        fill="black" stroke="none" stroke-width="0"
        d="M 860.00,32.15
           C 860.00,32.15 880.00,32.15 880.00,32.15
             892.68,32.02 919.43,39.48 932.00,43.67
             942.06,47.02 960.72,54.49 969.00,60.49
             969.00,60.49 998.00,84.82 998.00,84.82
             998.00,84.82 1004.91,90.32 1004.91,90.32
             1008.97,93.92 1018.17,104.18 1022.01,106.35
             1026.52,108.89 1040.36,108.57 1046.00,109.17
             1046.00,109.17 1074.00,116.22 1074.00,116.22
             1074.00,116.22 1086.00,121.14 1086.00,121.14
             1086.00,121.14 1104.00,129.31 1104.00,129.31
             1121.15,138.73 1147.83,161.23 1160.58,176.00
             1171.15,188.24 1180.38,201.08 1184.23,217.00
             1185.42,221.91 1186.82,227.10 1193.00,226.20
             1197.13,225.59 1200.59,224.08 1205.00,224.08
             1213.45,224.07 1223.98,227.72 1232.00,230.33
             1232.00,230.33 1249.00,235.55 1249.00,235.55
             1249.00,235.55 1274.00,247.08 1274.00,247.08
             1274.00,247.08 1305.83,266.91 1305.83,266.91
             1305.83,266.91 1323.91,284.01 1323.91,284.01
             1327.58,287.87 1332.10,293.19 1334.33,298.00
             1335.33,300.15 1336.71,304.81 1339.17,305.55
             1342.22,306.46 1343.61,302.10 1344.28,300.00
             1344.28,300.00 1348.41,278.00 1348.41,278.00
             1348.41,278.00 1353.71,249.00 1353.71,249.00
             1353.71,249.00 1354.28,240.00 1354.28,240.00
             1354.28,240.00 1357.02,224.00 1357.02,224.00
             1357.02,224.00 1357.02,217.00 1357.02,217.00
             1357.02,217.00 1361.47,205.00 1361.47,205.00
             1362.25,201.63 1361.99,194.75 1362.00,191.00
             1362.01,186.45 1362.33,174.41 1369.99,176.66
             1375.12,178.16 1377.23,186.52 1382.00,186.52
             1388.06,186.52 1391.13,170.20 1399.61,178.31
             1400.40,179.07 1401.08,180.08 1401.64,181.02
             1408.77,193.04 1394.29,201.23 1393.10,214.00
             1393.10,214.00 1395.00,237.00 1395.00,237.00
             1395.02,246.71 1397.11,252.75 1399.00,262.00
             1401.13,272.46 1400.59,274.75 1404.19,286.00
             1406.08,291.88 1410.99,304.96 1416.04,308.26
             1419.76,310.69 1422.97,309.63 1427.00,309.15
             1434.88,308.22 1435.85,307.91 1444.00,308.00
             1444.00,308.00 1454.00,308.91 1454.00,308.91
             1454.00,308.91 1476.00,310.44 1476.00,310.44
             1476.00,310.44 1498.00,316.57 1498.00,316.57
             1498.00,316.57 1514.00,320.13 1514.00,320.13
             1514.00,320.13 1531.00,325.61 1531.00,325.61
             1534.12,326.83 1537.40,329.47 1540.90,328.22
             1547.15,325.99 1547.44,311.97 1548.87,306.00
             1551.24,296.10 1552.02,276.53 1552.00,266.00
             1552.00,266.00 1551.00,248.00 1551.00,248.00
             1551.14,237.29 1554.16,242.10 1554.00,228.00
             1553.93,221.71 1552.06,212.24 1553.23,206.02
             1553.92,202.29 1556.85,199.34 1560.83,200.78
             1566.30,202.76 1567.66,212.87 1572.97,211.55
             1578.14,210.26 1578.44,198.58 1586.96,201.61
             1597.46,205.35 1593.01,221.04 1593.00,229.00
             1592.99,235.62 1593.32,240.40 1591.88,247.00
             1590.95,251.24 1589.20,253.44 1589.06,258.00
             1589.06,258.00 1592.98,292.00 1592.98,292.00
             1593.26,296.23 1596.13,314.38 1597.36,318.00
             1598.31,320.79 1599.84,324.45 1603.04,325.19
             1606.27,325.93 1614.97,320.45 1618.00,318.66
             1625.49,314.22 1633.11,309.23 1639.99,303.87
             1648.03,297.61 1644.70,298.31 1656.00,291.75
             1656.00,291.75 1677.00,281.69 1677.00,281.69
             1677.00,281.69 1687.00,276.87 1687.00,276.87
             1706.48,268.53 1727.13,262.19 1748.00,258.46
             1748.00,258.46 1755.00,257.68 1755.00,257.68
             1765.24,255.92 1775.31,251.42 1786.00,252.18
             1803.88,253.46 1829.62,259.47 1846.00,266.63
             1846.00,266.63 1855.00,271.79 1855.00,271.79
             1855.00,271.79 1868.00,276.89 1868.00,276.89
             1868.00,276.89 1895.00,292.10 1895.00,292.10
             1902.01,296.70 1907.63,302.37 1914.00,307.68
             1920.06,312.72 1928.07,317.20 1933.33,323.17
             1936.93,327.25 1949.75,348.46 1952.68,354.00
             1952.68,354.00 1957.26,363.00 1957.26,363.00
             1957.26,363.00 1970.45,382.00 1970.45,382.00
             1975.10,391.09 1975.95,401.25 1978.24,411.00
             1979.81,417.71 1982.24,421.66 1981.87,429.00
             1981.87,429.00 1981.87,444.00 1981.87,444.00
             1981.87,444.00 1980.17,454.00 1980.17,454.00
             1980.17,454.00 1977.83,480.00 1977.83,480.00
             1977.83,480.00 1976.29,488.00 1976.29,488.00
             1974.85,497.39 1975.11,500.88 1975.00,510.00
             1974.91,517.25 1973.47,518.47 1972.44,525.00
             1972.44,525.00 1971.71,533.00 1971.71,533.00
             1971.71,533.00 1969.10,550.00 1969.10,550.00
             1969.10,550.00 1969.10,560.00 1969.10,560.00
             1969.10,560.00 1966.39,578.00 1966.39,578.00
             1966.39,578.00 1959.43,609.00 1959.43,609.00
             1959.43,609.00 1953.88,626.00 1953.88,626.00
             1953.88,626.00 1944.86,657.00 1944.86,657.00
             1944.86,657.00 1942.01,668.00 1942.01,668.00
             1939.46,673.91 1935.12,674.92 1932.45,680.01
             1932.45,680.01 1928.56,692.00 1928.56,692.00
             1928.56,692.00 1923.35,700.00 1923.35,700.00
             1923.35,700.00 1911.05,722.00 1911.05,722.00
             1911.05,722.00 1906.27,730.00 1906.27,730.00
             1906.27,730.00 1896.65,750.91 1896.65,750.91
             1893.46,755.86 1888.97,757.16 1885.89,762.01
             1882.57,767.26 1885.05,771.46 1884.54,777.00
             1884.26,779.92 1882.54,787.86 1883.03,789.99
             1883.73,793.02 1886.22,794.52 1887.26,797.17
             1888.73,800.89 1886.90,808.78 1883.72,811.26
             1880.59,813.71 1874.75,813.41 1871.00,812.99
             1871.00,812.99 1856.00,811.82 1856.00,811.82
             1856.00,811.82 1847.00,810.11 1847.00,810.11
             1847.00,810.11 1809.00,816.00 1809.00,816.00
             1793.25,816.02 1777.25,814.25 1762.00,810.07
             1762.00,810.07 1741.02,803.01 1741.02,803.01
             1736.22,802.51 1735.78,806.64 1731.90,809.07
             1728.96,810.90 1722.46,812.06 1719.00,811.82
             1719.00,811.82 1713.00,811.09 1713.00,811.09
             1713.00,811.09 1700.00,812.00 1700.00,812.00
             1700.00,812.00 1683.00,811.00 1683.00,811.00
             1683.00,811.00 1660.00,811.00 1660.00,811.00
             1647.81,810.98 1648.75,808.17 1644.00,807.93
             1640.59,807.76 1639.00,809.90 1631.00,810.00
             1624.72,810.07 1618.23,809.53 1612.00,808.71
             1604.83,807.77 1605.35,807.01 1597.00,807.00
             1586.76,806.98 1582.39,807.14 1572.00,805.85
             1572.00,805.85 1549.00,801.92 1549.00,801.92
             1549.00,801.92 1541.00,801.92 1541.00,801.92
             1533.99,801.08 1535.93,800.02 1526.00,800.00
             1521.58,799.99 1516.22,799.69 1512.00,800.76
             1512.00,800.76 1477.00,815.91 1477.00,815.91
             1469.13,818.39 1461.07,818.36 1453.00,819.17
             1453.00,819.17 1443.00,820.91 1443.00,820.91
             1443.00,820.91 1425.00,820.91 1425.00,820.91
             1418.26,820.92 1415.25,819.63 1409.00,818.46
             1400.82,816.93 1385.21,813.56 1378.00,810.01
             1364.92,803.56 1355.72,793.63 1340.00,794.01
             1329.93,794.26 1325.81,799.71 1316.00,802.10
             1316.00,802.10 1299.00,804.29 1299.00,804.29
             1299.00,804.29 1288.00,806.68 1288.00,806.68
             1288.00,806.68 1268.00,809.30 1268.00,809.30
             1258.81,810.77 1260.62,813.98 1247.00,813.90
             1247.00,813.90 1234.00,813.90 1234.00,813.90
             1231.69,813.48 1229.26,812.42 1227.00,812.59
             1223.26,812.88 1219.70,816.17 1215.00,816.56
             1215.00,816.56 1205.00,816.56 1205.00,816.56
             1205.00,816.56 1197.00,817.83 1197.00,817.83
             1189.82,818.60 1173.21,817.88 1166.00,816.68
             1161.53,815.93 1149.28,813.68 1146.04,811.35
             1141.04,807.76 1135.39,797.47 1129.00,797.33
             1125.35,797.25 1121.12,800.28 1118.00,801.95
             1114.29,803.94 1109.96,805.22 1106.00,806.68
             1098.82,809.32 1097.40,806.34 1091.00,807.33
             1085.49,808.18 1080.53,811.27 1074.00,811.39
             1065.18,811.55 1066.07,804.39 1059.98,804.18
             1059.98,804.18 1044.00,806.83 1044.00,806.83
             1044.00,806.83 1024.00,806.00 1024.00,806.00
             1024.00,806.00 1011.00,805.00 1011.00,805.00
             1011.00,805.00 991.00,802.99 991.00,802.99
             991.00,802.99 983.00,802.99 983.00,802.99
             983.00,802.99 973.00,800.45 973.00,800.45
             973.00,800.45 966.00,800.45 966.00,800.45
             966.00,800.45 955.00,799.91 955.00,799.91
             955.00,799.91 926.00,798.00 926.00,798.00
             926.00,798.00 912.00,799.43 912.00,799.43
             912.00,799.43 902.00,798.09 902.00,798.09
             895.90,797.74 889.05,799.92 883.00,800.86
             883.00,800.86 874.00,800.86 874.00,800.86
             874.00,800.86 847.00,803.83 847.00,803.83
             847.00,803.83 835.00,804.37 835.00,804.37
             835.00,804.37 828.00,806.32 828.00,806.32
             820.22,808.10 807.91,809.99 800.00,810.00
             800.00,810.00 783.00,810.00 783.00,810.00
             783.00,810.00 758.00,808.10 758.00,808.10
             758.00,808.10 748.00,808.10 748.00,808.10
             748.00,808.10 732.00,808.10 732.00,808.10
             732.00,808.10 717.00,807.00 717.00,807.00
             698.91,806.79 703.84,809.11 695.00,810.40
             691.60,810.89 688.99,809.63 686.13,811.19
             682.92,812.94 682.68,816.26 680.49,818.78
             677.55,822.17 671.34,823.61 667.00,823.91
             661.44,824.29 647.20,820.89 642.00,818.72
             642.00,818.72 626.00,812.10 626.00,812.10
             620.95,811.20 620.18,815.71 615.91,816.65
             615.91,816.65 603.00,816.08 603.00,816.08
             603.00,816.08 592.00,816.08 592.00,816.08
             592.00,816.08 576.00,818.00 576.00,818.00
             576.00,818.00 557.00,818.00 557.00,818.00
             557.00,818.00 536.00,816.20 536.00,816.20
             536.00,816.20 528.00,816.20 528.00,816.20
             528.00,816.20 518.00,816.20 518.00,816.20
             518.00,816.20 509.00,816.20 509.00,816.20
             509.00,816.20 483.00,816.20 483.00,816.20
             483.00,816.20 469.00,816.97 469.00,816.97
             469.00,816.97 458.00,816.20 458.00,816.20
             458.00,816.20 436.00,816.20 436.00,816.20
             432.36,816.23 431.74,815.09 425.00,815.00
             425.00,815.00 410.00,815.00 410.00,815.00
             410.00,815.00 399.00,814.08 399.00,814.08
             399.00,814.08 391.00,814.96 391.00,814.96
             391.00,814.96 380.00,814.96 380.00,814.96
             380.00,814.96 362.00,813.03 362.00,813.03
             362.00,813.03 347.00,813.76 347.00,813.76
             347.00,813.76 338.00,813.76 338.00,813.76
             338.00,813.76 331.00,813.76 331.00,813.76
             331.00,813.76 320.00,813.00 320.00,813.00
             320.00,813.00 273.00,811.83 273.00,811.83
             263.24,810.87 261.18,808.59 254.00,807.44
             254.00,807.44 243.00,806.83 243.00,806.83
             243.00,806.83 227.00,803.47 227.00,803.47
             220.29,801.76 218.29,797.32 212.00,795.00
             212.00,795.00 196.00,791.02 196.00,791.02
             196.00,791.02 161.00,772.46 161.00,772.46
             161.00,772.46 145.00,761.56 145.00,761.56
             145.00,761.56 130.00,753.23 130.00,753.23
             130.00,753.23 122.00,749.45 122.00,749.45
             122.00,749.45 103.00,736.61 103.00,736.61
             103.00,736.61 90.00,725.37 90.00,725.37
             90.00,725.37 82.00,720.23 82.00,720.23
             82.00,720.23 68.17,708.87 68.17,708.87
             60.47,701.45 54.44,692.89 48.66,684.00
             42.84,675.07 36.01,663.81 31.87,654.00
             31.87,654.00 28.58,644.00 28.58,644.00
             19.73,618.48 16.69,595.89 17.00,569.00
             17.13,558.03 19.70,552.83 21.79,543.00
             21.79,543.00 23.92,532.00 23.92,532.00
             23.92,532.00 28.54,520.00 28.54,520.00
             28.54,520.00 31.34,512.00 31.34,512.00
             37.75,497.01 50.89,478.46 61.51,466.09
             61.51,466.09 68.72,458.96 68.72,458.96
             89.24,436.66 101.48,425.90 128.00,411.36
             128.00,411.36 136.00,406.39 136.00,406.39
             148.06,399.78 169.23,391.16 183.00,390.92
             183.00,390.92 195.00,390.92 195.00,390.92
             195.00,390.92 216.00,388.76 216.00,388.76
             216.00,388.76 232.00,388.76 232.00,388.76
             232.00,388.76 260.00,390.96 260.00,390.96
             263.52,391.10 273.97,390.70 275.98,387.69
             277.37,385.59 276.95,380.58 277.01,378.00
             277.01,378.00 278.43,359.00 278.43,359.00
             279.48,351.67 283.37,335.34 286.67,329.00
             286.67,329.00 296.96,313.00 296.96,313.00
             299.50,309.13 302.78,306.41 305.83,303.00
             305.83,303.00 312.30,295.09 312.30,295.09
             312.30,295.09 318.83,289.49 318.83,289.49
             318.83,289.49 325.04,283.46 325.04,283.46
             325.04,283.46 343.00,270.58 343.00,270.58
             348.37,266.97 353.02,262.16 359.00,259.53
             366.99,256.01 387.86,251.01 397.00,248.98
             397.00,248.98 407.00,246.04 407.00,246.04
             411.18,245.04 423.50,244.01 428.00,244.00
             428.00,244.00 456.00,246.02 456.00,246.02
             456.00,246.02 463.00,246.02 463.00,246.02
             463.00,246.02 474.00,248.28 474.00,248.28
             477.96,248.80 488.86,251.21 491.90,249.31
             495.96,246.78 497.31,240.32 498.66,236.00
             502.67,223.18 504.37,220.76 510.25,209.00
             514.95,199.60 521.39,186.17 527.48,178.00
             533.21,170.30 541.10,162.25 549.00,156.77
             549.00,156.77 556.00,152.38 556.00,152.38
             556.00,152.38 565.00,145.61 565.00,145.61
             579.90,136.57 604.56,130.21 622.00,129.92
             622.00,129.92 630.00,129.92 630.00,129.92
             634.40,129.39 638.53,127.81 643.00,128.19
             643.00,128.19 661.00,131.96 661.00,131.96
             673.72,132.53 673.18,129.52 679.00,129.35
             682.75,129.24 687.43,131.19 693.00,128.78
             696.69,127.18 705.87,120.69 708.70,117.82
             708.70,117.82 714.30,111.75 714.30,111.75
             714.30,111.75 722.99,104.83 722.99,104.83
             722.99,104.83 731.09,96.09 731.09,96.09
             731.09,96.09 747.00,81.83 747.00,81.83
             747.00,81.83 755.00,74.32 755.00,74.32
             760.51,69.71 777.15,57.02 783.00,53.79
             790.12,49.87 798.33,47.67 806.00,45.00
             806.00,45.00 834.00,35.68 834.00,35.68
             834.00,35.68 852.00,32.15 852.00,32.15
             852.00,32.15 860.00,32.15 860.00,32.15 Z
           M 824.00,60.49
           C 824.00,60.49 812.00,65.25 812.00,65.25
             802.31,68.48 792.77,72.27 784.00,77.61
             775.72,82.65 770.04,89.35 762.99,95.58
             762.99,95.58 745.00,109.91 745.00,109.91
             745.00,109.91 723.17,132.96 723.17,132.96
             720.74,135.54 716.29,139.29 716.29,143.00
             716.30,147.61 721.92,151.22 725.00,154.09
             731.90,160.52 739.37,169.45 745.10,177.00
             748.13,181.00 756.36,192.75 758.01,197.00
             759.75,201.48 758.98,206.79 762.29,208.22
             764.75,209.29 768.59,207.78 771.00,207.00
             774.54,205.85 778.72,204.80 782.00,203.17
             785.01,201.67 787.81,199.25 791.00,198.43
             791.00,198.43 813.00,196.91 813.00,196.91
             813.00,196.91 827.00,194.29 827.00,194.29
             827.00,194.29 853.00,192.47 853.00,192.47
             857.32,192.14 867.28,195.78 872.00,197.13
             872.00,197.13 882.00,199.61 882.00,199.61
             888.78,202.28 901.55,212.04 906.53,217.30
             906.53,217.30 914.33,228.00 914.33,228.00
             926.13,242.37 923.17,237.48 931.37,254.00
             933.29,257.86 934.64,259.62 936.11,264.00
             936.11,264.00 941.25,283.00 941.25,283.00
             942.70,291.65 942.20,297.22 946.93,305.00
             952.19,313.67 954.29,313.27 962.00,317.92
             962.00,317.92 976.00,326.17 976.00,326.17
             983.16,330.21 990.53,336.84 997.00,342.09
             997.00,342.09 1013.00,356.54 1013.00,356.54
             1013.00,356.54 1023.00,364.09 1023.00,364.09
             1029.18,369.11 1040.64,380.09 1045.82,386.00
             1053.69,394.99 1055.19,405.48 1057.72,408.79
             1060.38,412.25 1067.77,414.30 1072.00,416.95
             1077.72,420.53 1092.19,433.04 1097.00,434.73
             1100.33,435.91 1102.86,435.09 1104.49,431.89
             1104.49,431.89 1106.22,427.00 1106.22,427.00
             1106.22,427.00 1110.48,419.00 1110.48,419.00
             1110.48,419.00 1114.84,408.01 1114.84,408.01
             1116.31,405.71 1122.93,399.67 1125.42,397.18
             1125.42,397.18 1139.00,386.26 1139.00,386.26
             1155.21,373.98 1160.86,370.28 1180.00,363.31
             1180.00,363.31 1189.00,359.93 1189.00,359.93
             1194.20,358.52 1199.67,358.37 1205.00,357.83
             1210.04,357.32 1214.89,355.80 1220.00,356.09
             1238.57,357.14 1243.38,358.44 1261.00,361.54
             1261.00,361.54 1271.00,362.47 1271.00,362.47
             1276.75,363.55 1279.90,366.18 1283.00,366.51
             1287.64,366.99 1290.83,362.92 1294.00,360.18
             1294.00,360.18 1311.00,347.12 1311.00,347.12
             1314.52,344.35 1326.16,338.29 1327.36,334.90
             1328.35,332.10 1326.57,327.73 1325.67,325.00
             1321.35,311.97 1322.82,313.10 1313.41,302.00
             1308.04,295.66 1294.14,283.24 1287.00,278.92
             1287.00,278.92 1275.00,272.55 1275.00,272.55
             1275.00,272.55 1264.00,265.34 1264.00,265.34
             1264.00,265.34 1231.00,251.20 1231.00,251.20
             1219.37,247.63 1218.28,246.84 1206.00,247.00
             1201.41,247.06 1195.80,248.00 1193.17,252.33
             1191.42,255.21 1192.04,263.38 1192.00,267.00
             1192.00,267.00 1191.09,277.00 1191.09,277.00
             1190.58,284.45 1191.23,294.85 1185.59,300.76
             1179.90,306.71 1171.92,299.30 1172.76,292.00
             1172.76,292.00 1174.56,283.00 1174.56,283.00
             1175.36,277.93 1175.99,271.12 1176.00,266.00
             1176.00,266.00 1176.00,254.00 1176.00,254.00
             1175.99,245.84 1173.07,230.51 1169.90,223.00
             1169.90,223.00 1166.23,216.00 1166.23,216.00
             1166.23,216.00 1162.04,207.00 1162.04,207.00
             1162.04,207.00 1149.70,191.00 1149.70,191.00
             1143.64,183.93 1138.67,180.56 1132.00,174.71
             1111.69,156.92 1100.76,148.21 1075.00,138.99
             1062.23,134.41 1069.59,136.00 1055.00,132.88
             1049.28,131.66 1045.32,130.84 1045.02,138.00
             1044.65,146.83 1047.59,149.84 1049.63,158.00
             1049.63,158.00 1051.63,171.00 1051.63,171.00
             1052.51,174.09 1054.43,176.68 1054.75,180.00
             1055.11,183.85 1051.68,190.34 1050.58,195.00
             1049.23,200.70 1046.48,211.57 1040.00,213.30
             1033.89,214.92 1025.75,205.05 1023.98,200.00
             1023.98,200.00 1017.24,167.00 1017.24,167.00
             1014.60,157.13 1007.82,144.86 1002.67,136.00
             994.64,122.19 976.27,101.37 963.00,92.52
             953.94,86.48 949.39,87.34 945.04,84.30
             940.07,80.84 938.15,74.19 929.00,68.10
             915.37,59.03 904.57,57.61 889.00,55.72
             877.94,54.37 870.40,53.22 859.00,54.29
             859.00,54.29 824.00,60.49 824.00,60.49 Z
           M 665.00,159.75
           C 659.12,161.12 650.06,165.34 645.00,165.19
             645.00,165.19 638.00,164.10 638.00,164.10
             638.00,164.10 610.00,161.91 610.00,161.91
             604.54,161.51 599.62,160.42 594.00,161.21
             583.39,162.70 575.01,169.61 572.00,170.70
             569.19,171.71 567.20,170.81 564.00,171.89
             561.16,172.85 554.58,177.70 552.17,179.75
             549.52,182.01 548.72,183.46 546.54,185.84
             546.54,185.84 540.52,192.04 540.52,192.04
             534.32,199.61 529.98,209.30 525.63,218.00
             519.56,230.14 513.44,240.96 514.02,255.00
             514.46,265.61 526.96,267.09 534.00,272.38
             542.54,278.79 558.90,292.29 565.56,300.01
             565.56,300.01 579.18,319.00 579.18,319.00
             584.84,325.47 594.32,333.11 590.73,343.00
             590.00,345.03 588.87,346.92 586.89,347.96
             583.08,349.98 577.22,346.93 574.89,343.79
             572.68,340.82 572.97,337.62 570.91,334.00
             570.91,334.00 562.90,324.00 562.90,324.00
             556.98,316.09 559.53,315.70 550.00,307.17
             539.65,297.91 514.66,279.99 502.00,274.93
             502.00,274.93 474.00,267.06 474.00,267.06
             474.00,267.06 464.00,267.06 464.00,267.06
             464.00,267.06 452.00,264.09 452.00,264.09
             452.00,264.09 427.00,264.09 427.00,264.09
             415.82,264.13 408.46,266.49 398.00,268.39
             389.16,269.99 373.92,273.06 366.00,276.82
             354.01,282.52 349.99,286.19 340.00,294.19
             340.00,294.19 329.00,302.32 329.00,302.32
             322.43,307.80 310.63,321.96 304.92,329.00
             294.92,341.33 291.15,357.42 290.09,373.00
             289.88,376.01 290.37,387.28 292.02,389.42
             293.37,391.17 296.93,391.58 299.00,392.00
             299.00,392.00 317.00,395.17 317.00,395.17
             331.12,396.84 349.12,401.45 361.00,409.26
             364.66,411.66 369.86,413.92 371.81,418.02
             373.89,422.39 370.52,427.90 365.99,427.36
             365.99,427.36 353.00,421.80 353.00,421.80
             345.68,418.86 331.57,414.16 324.00,412.52
             324.00,412.52 302.00,409.34 302.00,409.34
             298.45,409.00 296.96,409.98 294.00,409.98
             294.00,409.98 283.00,409.00 283.00,409.00
             283.00,409.00 256.00,409.00 256.00,409.00
             256.00,409.00 226.00,407.01 226.00,407.01
             226.00,407.01 201.00,409.00 201.00,409.00
             194.84,409.01 179.78,410.09 174.00,411.43
             163.20,413.93 142.83,422.37 133.00,427.79
             133.00,427.79 125.00,433.05 125.00,433.05
             104.90,445.67 94.66,455.79 78.42,472.83
             78.42,472.83 70.51,480.29 70.51,480.29
             64.91,486.43 50.55,507.26 46.89,515.00
             43.29,522.62 41.27,530.05 38.78,538.00
             38.78,538.00 35.75,546.00 35.75,546.00
             34.50,549.84 32.37,561.91 32.09,566.00
             32.09,566.00 33.91,592.00 33.91,592.00
             33.91,592.00 35.46,616.00 35.46,616.00
             35.46,616.00 39.08,628.00 39.08,628.00
             39.08,628.00 40.90,636.00 40.90,636.00
             47.43,657.04 63.37,679.65 79.09,694.83
             87.78,703.23 118.96,725.54 130.00,731.99
             130.00,731.99 141.00,737.53 141.00,737.53
             141.00,737.53 150.00,743.74 150.00,743.74
             150.00,743.74 164.00,750.98 164.00,750.98
             176.07,758.18 186.56,765.42 200.00,770.31
             221.02,777.94 242.97,783.79 265.00,787.30
             276.08,789.06 269.99,790.80 287.00,791.00
             287.00,791.00 302.00,792.04 302.00,792.04
             302.00,792.04 316.00,792.04 316.00,792.04
             316.00,792.04 327.00,793.00 327.00,793.00
             327.00,793.00 344.00,793.00 344.00,793.00
             344.00,793.00 375.00,795.00 375.00,795.00
             375.00,795.00 407.00,795.00 407.00,795.00
             407.00,795.00 419.00,795.96 419.00,795.96
             419.00,795.96 434.00,795.96 434.00,795.96
             434.00,795.96 450.00,797.00 450.00,797.00
             450.00,797.00 482.00,797.00 482.00,797.00
             482.00,797.00 494.00,796.04 494.00,796.04
             494.00,796.04 507.00,796.04 507.00,796.04
             507.00,796.04 520.00,795.09 520.00,795.09
             520.00,795.09 538.00,797.00 538.00,797.00
             538.00,797.00 574.00,797.00 574.00,797.00
             576.51,796.99 583.44,797.58 582.26,793.11
             581.57,790.52 577.09,787.85 575.00,786.25
             571.66,783.70 563.80,776.22 561.30,773.00
             557.56,768.18 559.28,765.70 552.48,757.00
             552.48,757.00 546.61,750.00 546.61,750.00
             546.61,750.00 531.57,729.01 531.57,729.01
             528.76,725.20 524.42,721.80 522.65,718.00
             519.22,710.65 518.06,696.29 517.74,688.00
             517.46,680.55 517.62,666.97 519.63,660.00
             522.44,650.27 536.05,633.07 542.71,625.00
             550.13,616.03 549.94,612.61 561.09,603.52
             561.09,603.52 574.00,595.68 574.00,595.68
             582.35,590.44 590.83,585.17 600.00,581.45
             607.52,578.41 636.86,572.10 645.00,571.87
             645.00,571.87 654.00,571.87 654.00,571.87
             654.00,571.87 660.00,571.87 660.00,571.87
             670.39,572.02 667.11,573.11 675.00,574.69
             675.00,574.69 698.00,580.55 698.00,580.55
             698.00,580.55 709.00,585.40 709.00,585.40
             709.00,585.40 719.00,589.41 719.00,589.41
             719.00,589.41 749.00,611.69 749.00,611.69
             755.76,617.15 769.83,625.28 773.39,633.00
             776.06,639.76 777.77,646.35 773.39,652.95
             769.75,659.16 759.01,659.19 763.62,665.68
             766.66,669.97 781.78,677.42 787.00,681.04
             797.13,688.07 810.75,697.88 818.82,707.00
             818.82,707.00 825.67,716.00 825.67,716.00
             828.62,719.77 830.83,721.71 833.32,726.00
             838.79,735.43 839.11,739.11 841.59,749.00
             842.74,753.59 844.78,758.14 844.15,763.00
             843.47,768.23 835.26,779.94 841.31,783.98
             844.98,786.42 857.26,783.41 862.00,782.96
             862.00,782.96 872.00,782.96 872.00,782.96
             879.10,782.12 879.04,781.01 888.00,781.00
             888.00,781.00 914.00,781.00 914.00,781.00
             914.00,781.00 931.00,779.00 931.00,779.00
             931.00,779.00 960.00,780.17 960.00,780.17
             960.00,780.17 985.00,784.00 985.00,784.00
             996.90,784.02 993.01,784.76 1002.00,785.83
             1002.00,785.83 1021.00,787.09 1021.00,787.09
             1021.00,787.09 1033.00,788.00 1033.00,788.00
             1038.75,788.01 1049.35,789.09 1053.77,785.35
             1058.81,781.10 1054.54,774.75 1060.06,774.23
             1062.08,774.04 1067.81,777.06 1070.00,778.00
             1076.53,780.79 1083.78,783.37 1091.00,781.58
             1096.16,780.31 1106.91,770.93 1113.00,767.43
             1120.25,763.25 1131.93,758.46 1137.79,752.68
             1142.13,748.39 1141.07,745.28 1146.94,738.00
             1146.94,738.00 1158.35,725.00 1158.35,725.00
             1161.55,720.34 1160.27,718.13 1162.72,714.00
             1162.72,714.00 1167.45,707.00 1167.45,707.00
             1169.81,702.27 1170.88,696.98 1172.52,692.00
             1178.80,672.93 1178.66,678.03 1181.05,657.00
             1181.57,652.42 1183.14,647.50 1182.82,643.00
             1182.82,643.00 1181.01,623.00 1181.01,623.00
             1181.01,623.00 1181.01,606.00 1181.01,606.00
             1180.91,599.38 1173.17,573.58 1170.75,566.00
             1170.75,566.00 1163.54,541.00 1163.54,541.00
             1160.35,532.96 1144.88,507.19 1139.49,500.00
             1139.49,500.00 1130.27,489.00 1130.27,489.00
             1130.27,489.00 1117.99,474.04 1117.99,474.04
             1110.46,466.68 1095.76,457.27 1087.00,450.85
             1087.00,450.85 1056.00,427.01 1056.00,427.01
             1045.98,422.38 1045.99,433.54 1032.00,431.57
             1022.76,430.27 1024.27,429.08 1017.00,426.09
             1017.00,426.09 1005.00,421.39 1005.00,421.39
             1005.00,421.39 993.00,414.37 993.00,414.37
             993.00,414.37 983.00,409.83 983.00,409.83
             983.00,409.83 961.00,397.46 961.00,397.46
             961.00,397.46 951.00,390.46 951.00,390.46
             947.41,388.09 943.29,386.67 940.04,383.79
             936.61,380.75 934.11,376.63 931.35,373.00
             927.06,367.37 925.35,365.89 922.86,359.00
             922.86,359.00 921.15,354.11 921.15,354.11
             920.04,351.85 918.64,350.52 915.98,350.61
             909.95,350.83 903.31,357.29 898.00,359.27
             898.00,359.27 891.00,360.61 891.00,360.61
             891.00,360.61 873.00,366.86 873.00,366.86
             873.00,366.86 856.00,375.74 856.00,375.74
             856.00,375.74 847.00,377.51 847.00,377.51
             847.00,377.51 829.00,383.14 829.00,383.14
             823.96,384.94 822.91,388.06 818.00,390.15
             818.00,390.15 800.00,395.61 800.00,395.61
             800.00,395.61 791.00,396.81 791.00,396.81
             791.00,396.81 767.00,401.79 767.00,401.79
             760.41,402.71 755.15,401.15 749.00,401.15
             749.00,401.15 739.00,401.15 739.00,401.15
             739.00,401.15 725.00,401.15 725.00,401.15
             717.32,400.90 717.61,399.85 711.00,397.54
             706.86,396.10 703.84,396.01 700.00,393.35
             689.30,385.94 685.86,373.33 686.00,361.00
             686.00,361.00 688.93,337.00 688.93,337.00
             688.93,337.00 691.70,329.00 691.70,329.00
             691.70,329.00 693.55,322.00 693.55,322.00
             694.98,318.00 702.02,307.46 701.19,304.15
             699.74,298.40 687.25,302.46 683.00,301.31
             679.96,300.49 677.23,298.11 675.02,295.96
             668.15,289.29 666.36,285.31 667.73,276.00
             668.09,273.57 668.26,271.31 669.45,269.09
             671.10,266.03 678.09,260.05 680.91,257.42
             680.91,257.42 687.09,251.49 687.09,251.49
             687.09,251.49 697.00,245.48 697.00,245.48
             697.00,245.48 710.00,235.89 710.00,235.89
             710.00,235.89 722.00,228.84 722.00,228.84
             726.20,226.29 731.40,224.36 736.00,222.53
             738.42,221.56 741.30,220.80 742.05,217.89
             742.92,214.53 736.47,202.58 734.78,199.00
             732.77,194.76 724.41,180.16 721.78,177.00
             715.90,169.95 702.06,160.61 693.00,158.41
             689.72,157.77 686.32,157.98 683.00,158.41
             683.00,158.41 665.00,159.75 665.00,159.75 Z
           M 810.00,219.63
           C 810.00,219.63 779.00,225.91 779.00,225.91
             779.00,225.91 767.00,229.98 767.00,229.98
             767.00,229.98 754.00,233.91 754.00,233.91
             754.00,233.91 741.00,239.55 741.00,239.55
             741.00,239.55 729.00,244.32 729.00,244.32
             729.00,244.32 715.00,252.31 715.00,252.31
             708.28,256.01 697.32,263.60 692.02,269.00
             690.13,270.93 685.41,275.38 687.28,278.43
             688.35,280.17 691.28,279.95 693.00,279.67
             695.58,279.26 704.47,275.61 707.00,274.34
             707.00,274.34 742.00,251.86 742.00,251.86
             742.00,251.86 754.00,243.90 754.00,243.90
             762.40,241.02 766.36,251.49 765.81,258.00
             764.89,268.99 755.43,275.10 748.00,281.91
             748.00,281.91 740.32,288.32 740.32,288.32
             740.32,288.32 723.49,308.96 723.49,308.96
             723.49,308.96 714.93,318.01 714.93,318.01
             709.66,325.09 705.34,335.68 702.44,344.00
             699.55,352.30 699.33,358.66 701.80,367.00
             702.62,369.79 703.14,373.29 705.43,375.28
             709.26,378.62 723.77,380.99 729.00,381.00
             729.00,381.00 750.00,381.00 750.00,381.00
             757.10,380.91 775.56,377.81 783.00,376.28
             783.00,376.28 797.00,374.24 797.00,374.24
             797.00,374.24 807.00,370.12 807.00,370.12
             807.00,370.12 815.00,367.90 815.00,367.90
             815.00,367.90 823.00,364.70 823.00,364.70
             830.56,362.01 838.77,360.95 846.00,357.25
             846.00,357.25 863.00,348.23 863.00,348.23
             863.00,348.23 884.00,341.45 884.00,341.45
             884.00,341.45 892.00,336.44 892.00,336.44
             892.00,336.44 902.00,333.14 902.00,333.14
             905.54,331.72 909.03,329.80 913.00,330.26
             916.08,330.62 926.24,334.82 928.12,337.22
             932.35,342.62 931.51,352.55 940.17,361.98
             944.99,367.24 946.63,367.12 952.00,370.54
             952.00,370.54 964.00,378.55 964.00,378.55
             964.00,378.55 981.00,387.26 981.00,387.26
             981.00,387.26 1011.00,404.00 1011.00,404.00
             1017.99,407.05 1030.07,412.05 1037.77,409.71
             1045.48,407.36 1032.25,396.21 1030.00,394.17
             1030.00,394.17 1008.58,373.53 1008.58,373.53
             1008.58,373.53 1000.00,366.90 1000.00,366.90
             1000.00,366.90 987.91,355.45 987.91,355.45
             987.91,355.45 967.00,341.55 967.00,341.55
             967.00,341.55 960.00,338.29 960.00,338.29
             960.00,338.29 952.00,332.35 952.00,332.35
             948.46,329.92 942.28,326.99 939.99,323.81
             939.99,323.81 930.94,307.00 930.94,307.00
             928.34,298.18 929.45,282.99 922.53,266.00
             917.95,254.77 903.88,233.36 894.00,226.70
             891.58,225.07 888.64,224.12 886.00,222.88
             869.25,215.02 865.95,216.93 848.00,217.06
             848.00,217.06 839.72,217.06 839.72,217.06
             832.69,216.63 832.31,215.51 824.00,216.29
             824.00,216.29 810.00,219.63 810.00,219.63 Z
           M 1367.42,245.00
           C 1367.42,245.00 1361.76,275.00 1361.76,275.00
             1359.37,285.20 1356.15,291.98 1358.86,303.00
             1360.78,310.83 1357.28,317.28 1360.60,320.48
             1362.64,322.27 1366.56,321.09 1369.00,320.48
             1369.00,320.48 1384.00,316.16 1384.00,316.16
             1384.00,316.16 1394.98,313.74 1394.98,313.74
             1402.81,310.72 1399.50,302.93 1397.72,297.00
             1397.72,297.00 1389.37,268.00 1389.37,268.00
             1389.37,268.00 1387.62,257.00 1387.62,257.00
             1387.62,257.00 1384.00,245.00 1384.00,245.00
             1382.89,241.14 1381.46,228.46 1379.42,226.62
             1377.79,225.16 1376.34,225.76 1376.02,225.74
             1367.74,229.96 1368.53,237.24 1367.42,245.00 Z
           M 1564.68,273.00
           C 1564.68,273.00 1564.00,283.00 1564.00,283.00
             1564.00,283.00 1559.00,331.00 1559.00,331.00
             1559.00,333.76 1558.78,337.37 1560.17,339.82
             1562.89,344.56 1572.66,348.89 1578.00,347.11
             1581.96,345.79 1590.10,339.45 1590.26,335.00
             1590.40,331.29 1585.77,328.65 1584.32,320.00
             1584.32,320.00 1581.09,296.00 1581.09,296.00
             1581.09,296.00 1579.58,273.00 1579.58,273.00
             1579.58,273.00 1576.92,258.00 1576.92,258.00
             1576.53,255.80 1576.10,252.18 1574.42,250.60
             1572.78,249.08 1571.89,249.53 1570.01,249.66
             1560.55,254.76 1565.29,264.85 1564.68,273.00 Z
           M 794.70,261.15
           C 796.17,263.51 795.81,266.10 799.53,271.00
             802.27,274.62 807.54,278.89 808.95,283.00
             810.67,288.00 806.77,291.66 802.00,290.67
             798.09,289.85 795.40,285.99 793.13,283.00
             788.00,276.24 781.53,266.11 790.19,259.17
             792.63,258.92 793.18,258.72 794.70,261.15 Z
           M 1759.00,277.00
           C 1747.41,277.02 1745.24,279.11 1735.00,281.33
             1735.00,281.33 1725.00,283.04 1725.00,283.04
             1725.00,283.04 1695.00,292.47 1695.00,292.47
             1686.52,295.93 1680.36,301.98 1673.00,306.91
             1673.00,306.91 1639.00,326.58 1639.00,326.58
             1632.07,330.59 1609.43,345.91 1604.00,350.98
             1600.62,354.13 1595.98,357.14 1595.24,362.00
             1594.03,370.03 1600.83,370.36 1607.03,384.00
             1608.93,387.66 1611.17,392.33 1607.03,395.22
             1602.73,397.98 1597.95,393.74 1595.17,390.91
             1595.17,390.91 1587.57,382.00 1587.57,382.00
             1581.34,374.72 1575.61,370.28 1568.00,364.63
             1562.09,360.24 1548.81,352.79 1542.00,350.01
             1542.00,350.01 1531.00,346.14 1531.00,346.14
             1531.00,346.14 1519.00,340.71 1519.00,340.71
             1519.00,340.71 1495.00,334.53 1495.00,334.53
             1495.00,334.53 1480.00,330.51 1480.00,330.51
             1480.00,330.51 1444.00,327.01 1444.00,327.01
             1433.98,327.01 1423.86,329.25 1414.00,330.70
             1414.00,330.70 1404.00,332.00 1404.00,332.00
             1404.00,332.00 1391.00,335.19 1391.00,335.19
             1391.00,335.19 1381.00,336.78 1381.00,336.78
             1381.00,336.78 1362.00,343.56 1362.00,343.56
             1351.98,347.20 1347.26,346.69 1337.00,353.42
             1337.00,353.42 1316.02,366.04 1316.02,366.04
             1313.28,368.06 1309.70,371.03 1310.84,374.91
             1311.82,378.20 1316.26,380.23 1319.00,381.86
             1319.00,381.86 1337.00,394.36 1337.00,394.36
             1337.00,394.36 1350.00,404.26 1350.00,404.26
             1355.35,407.87 1358.91,409.63 1364.00,414.17
             1375.94,424.83 1383.49,435.27 1392.71,448.00
             1392.71,448.00 1408.43,468.00 1408.43,468.00
             1410.75,472.58 1408.89,477.71 1403.99,479.50
             1397.79,481.76 1394.94,472.12 1392.57,468.00
             1387.54,459.26 1380.96,451.76 1374.61,444.00
             1371.35,440.01 1367.60,434.53 1363.96,431.18
             1359.03,426.64 1354.61,425.14 1350.00,421.63
             1336.67,411.47 1324.00,401.07 1309.00,393.32
             1303.51,390.48 1278.15,381.07 1272.00,379.60
             1272.00,379.60 1262.00,378.33 1262.00,378.33
             1262.00,378.33 1251.00,375.42 1251.00,375.42
             1246.25,374.36 1231.95,373.06 1227.00,373.00
             1216.18,372.88 1217.54,373.54 1208.00,374.71
             1208.00,374.71 1195.00,375.52 1195.00,375.52
             1195.00,375.52 1170.00,384.38 1170.00,384.38
             1165.49,386.62 1144.74,400.30 1141.09,403.59
             1137.50,406.83 1134.85,410.37 1131.72,414.00
             1122.77,424.36 1123.79,424.14 1118.46,436.00
             1117.08,439.07 1114.67,443.56 1115.36,446.99
             1116.26,451.51 1128.70,459.48 1132.91,464.00
             1132.91,464.00 1143.24,478.00 1143.24,478.00
             1150.27,487.20 1157.63,495.99 1163.55,506.00
             1163.55,506.00 1178.02,533.00 1178.02,533.00
             1178.02,533.00 1180.09,540.00 1180.09,540.00
             1180.09,540.00 1186.41,559.00 1186.41,559.00
             1186.41,559.00 1188.49,569.00 1188.49,569.00
             1188.49,569.00 1193.75,586.00 1193.75,586.00
             1196.22,593.71 1204.48,612.76 1203.54,620.00
             1202.41,628.63 1197.02,629.17 1197.00,644.00
             1197.00,644.00 1197.00,659.00 1197.00,659.00
             1196.89,667.55 1195.55,666.30 1193.63,673.00
             1193.63,673.00 1191.71,683.00 1191.71,683.00
             1191.71,683.00 1187.02,697.00 1187.02,697.00
             1185.80,700.96 1181.38,713.34 1184.60,716.38
             1188.58,720.15 1195.42,712.55 1198.00,710.00
             1198.00,710.00 1229.00,679.00 1229.00,679.00
             1232.05,675.95 1237.23,668.71 1241.85,672.37
             1243.21,673.44 1244.34,675.25 1244.46,677.00
             1244.69,680.39 1241.15,683.77 1238.98,686.00
             1238.98,686.00 1221.04,703.00 1221.04,703.00
             1221.04,703.00 1210.68,715.90 1210.68,715.90
             1210.68,715.90 1202.09,723.10 1202.09,723.10
             1202.09,723.10 1193.99,731.79 1193.99,731.79
             1193.99,731.79 1181.00,740.21 1181.00,740.21
             1181.00,740.21 1157.00,756.95 1157.00,756.95
             1157.00,756.95 1135.00,769.78 1135.00,769.78
             1132.04,771.44 1126.56,774.72 1125.40,778.02
             1123.91,782.29 1127.92,782.79 1131.00,781.58
             1131.00,781.58 1154.00,770.98 1154.00,770.98
             1154.00,770.98 1170.00,762.69 1170.00,762.69
             1170.00,762.69 1179.00,757.37 1179.00,757.37
             1179.00,757.37 1186.00,754.34 1186.00,754.34
             1186.00,754.34 1204.00,744.01 1204.00,744.01
             1204.00,744.01 1214.00,738.54 1214.00,738.54
             1214.00,738.54 1223.00,732.46 1223.00,732.46
             1223.00,732.46 1243.00,720.69 1243.00,720.69
             1243.00,720.69 1266.00,707.81 1266.00,707.81
             1268.92,706.13 1272.59,703.60 1275.68,706.41
             1279.71,710.06 1276.09,714.47 1272.91,716.96
             1272.91,716.96 1247.00,733.12 1247.00,733.12
             1247.00,733.12 1210.00,754.17 1210.00,754.17
             1210.00,754.17 1192.00,765.22 1192.00,765.22
             1192.00,765.22 1171.00,775.56 1171.00,775.56
             1171.00,775.56 1154.00,784.46 1154.00,784.46
             1151.23,785.60 1147.52,786.66 1146.74,790.04
             1145.68,794.63 1152.44,797.82 1156.00,798.61
             1156.00,798.61 1162.00,799.29 1162.00,799.29
             1162.00,799.29 1171.00,800.91 1171.00,800.91
             1171.00,800.91 1190.00,800.91 1190.00,800.91
             1195.62,800.86 1214.46,799.05 1218.82,796.55
             1222.58,794.39 1224.03,789.96 1228.09,786.21
             1228.09,786.21 1245.00,775.32 1245.00,775.32
             1245.00,775.32 1272.00,765.51 1272.00,765.51
             1272.00,765.51 1283.00,763.23 1283.00,763.23
             1283.00,763.23 1296.00,758.59 1296.00,758.59
             1296.00,758.59 1322.00,750.81 1322.00,750.81
             1325.13,749.66 1328.85,749.02 1330.57,745.86
             1332.76,741.84 1335.45,722.74 1336.41,717.00
             1338.43,705.01 1342.57,693.43 1346.70,682.00
             1346.70,682.00 1357.69,661.00 1357.69,661.00
             1357.69,661.00 1371.44,635.00 1371.44,635.00
             1371.44,635.00 1384.74,611.00 1384.74,611.00
             1384.74,611.00 1388.77,602.00 1388.77,602.00
             1388.77,602.00 1394.96,592.00 1394.96,592.00
             1398.41,585.50 1398.43,584.48 1403.15,578.00
             1406.04,574.04 1409.77,568.52 1414.00,566.09
             1416.91,564.42 1426.41,563.05 1430.00,562.78
             1441.28,561.93 1452.23,572.53 1458.37,581.00
             1458.37,581.00 1466.72,594.00 1466.72,594.00
             1471.98,601.48 1472.87,601.14 1477.24,610.00
             1477.24,610.00 1489.98,635.00 1489.98,635.00
             1489.98,635.00 1494.48,643.00 1494.48,643.00
             1494.48,643.00 1510.32,689.00 1510.32,689.00
             1510.32,689.00 1522.27,739.00 1522.27,739.00
             1523.40,743.46 1526.25,756.62 1528.72,759.77
             1531.10,762.80 1534.51,762.95 1538.00,763.61
             1544.15,764.78 1552.89,766.72 1559.00,767.06
             1559.00,767.06 1576.00,767.06 1576.00,767.06
             1576.00,767.06 1592.00,769.83 1592.00,769.83
             1598.66,770.57 1607.78,770.74 1614.00,772.96
             1619.25,774.83 1630.85,779.51 1635.00,782.68
             1638.79,785.58 1643.86,791.99 1647.04,793.26
             1647.04,793.26 1665.00,795.00 1665.00,795.00
             1665.00,795.00 1695.00,795.00 1695.00,795.00
             1698.07,794.98 1707.88,794.97 1704.92,789.19
             1703.68,786.79 1700.30,785.62 1698.00,784.52
             1698.00,784.52 1684.00,777.96 1684.00,777.96
             1684.00,777.96 1670.00,769.40 1670.00,769.40
             1657.24,762.26 1643.24,756.03 1632.00,746.56
             1627.16,742.48 1618.62,733.59 1615.84,728.00
             1614.60,725.53 1613.17,720.97 1615.02,718.47
             1617.85,714.67 1623.60,719.91 1626.00,721.80
             1634.00,728.11 1647.66,739.22 1656.00,744.00
             1656.00,744.00 1683.00,758.12 1683.00,758.12
             1711.41,773.16 1724.55,780.65 1756.00,789.91
             1768.41,793.57 1780.86,797.84 1794.00,798.00
             1794.00,798.00 1805.00,798.00 1805.00,798.00
             1807.66,798.00 1815.74,798.40 1812.29,793.21
             1810.24,790.12 1803.52,789.07 1800.00,787.77
             1800.00,787.77 1767.00,776.66 1767.00,776.66
             1767.00,776.66 1755.00,769.99 1755.00,769.99
             1755.00,769.99 1746.00,766.11 1746.00,766.11
             1746.00,766.11 1735.00,759.17 1735.00,759.17
             1735.00,759.17 1714.00,747.04 1714.00,747.04
             1714.00,747.04 1699.00,740.48 1699.00,740.48
             1699.00,740.48 1689.00,734.32 1689.00,734.32
             1689.00,734.32 1665.00,721.75 1665.00,721.75
             1655.11,715.78 1640.46,705.79 1633.25,697.00
             1630.25,693.38 1627.98,684.99 1633.25,682.07
             1637.42,679.78 1642.38,685.45 1645.00,688.00
             1654.38,697.14 1666.40,704.58 1678.00,710.68
             1678.00,710.68 1687.00,714.90 1687.00,714.90
             1687.00,714.90 1695.00,719.63 1695.00,719.63
             1695.00,719.63 1703.00,723.04 1703.00,723.04
             1703.00,723.04 1723.00,733.89 1723.00,733.89
             1723.00,733.89 1743.00,746.10 1743.00,746.10
             1743.00,746.10 1751.00,749.81 1751.00,749.81
             1751.00,749.81 1764.00,756.69 1764.00,756.69
             1773.87,761.11 1784.64,764.34 1795.00,767.44
             1804.35,770.24 1816.45,775.77 1826.00,775.99
             1836.22,776.21 1840.80,770.79 1849.00,765.36
             1852.81,762.83 1857.54,760.68 1860.83,757.67
             1863.91,754.87 1865.09,752.48 1869.00,749.63
             1871.54,747.79 1874.22,746.90 1876.47,744.61
             1879.94,741.09 1885.84,729.75 1888.27,725.00
             1888.27,725.00 1894.53,715.00 1894.53,715.00
             1894.53,715.00 1898.40,707.00 1898.40,707.00
             1898.40,707.00 1913.63,679.00 1913.63,679.00
             1913.63,679.00 1919.87,663.00 1919.87,663.00
             1919.87,663.00 1927.39,647.00 1927.39,647.00
             1927.39,647.00 1933.03,627.00 1933.03,627.00
             1933.03,627.00 1939.49,610.00 1939.49,610.00
             1939.49,610.00 1941.80,597.00 1941.80,597.00
             1944.26,584.26 1947.88,582.89 1948.00,574.00
             1948.10,565.93 1948.44,557.94 1950.12,550.00
             1951.86,541.80 1954.41,536.04 1953.96,527.00
             1953.96,527.00 1952.48,518.00 1952.48,518.00
             1952.65,515.27 1954.66,512.63 1955.66,510.00
             1955.66,510.00 1958.39,498.00 1958.39,498.00
             1958.39,498.00 1961.17,469.00 1961.17,469.00
             1961.17,469.00 1963.00,453.00 1963.00,453.00
             1963.00,453.00 1964.00,430.00 1964.00,430.00
             1963.96,421.86 1962.36,417.56 1961.28,410.00
             1960.47,404.25 1959.69,398.52 1957.76,393.00
             1954.73,384.36 1947.19,371.98 1942.40,364.00
             1942.40,364.00 1930.47,343.00 1930.47,343.00
             1919.96,329.32 1906.17,318.83 1892.00,309.26
             1892.00,309.26 1879.00,301.04 1879.00,301.04
             1879.00,301.04 1872.00,296.07 1872.00,296.07
             1863.52,291.11 1836.50,280.70 1827.00,278.67
             1817.44,276.62 1791.91,275.36 1782.00,276.28
             1774.39,277.38 1766.67,276.99 1759.00,277.00 Z
           M 826.97,296.17
           C 829.69,297.20 831.31,300.67 832.70,303.00
             832.70,303.00 841.53,317.91 841.53,317.91
             844.69,321.72 848.25,322.84 849.36,326.09
             850.33,328.94 848.49,334.35 845.73,335.72
             841.30,337.93 835.02,331.74 832.00,329.17
             828.86,326.49 825.11,324.31 822.65,320.96
             817.47,313.90 816.91,301.89 824.21,296.17
             824.62,296.13 825.28,295.52 826.97,296.17 Z
           M 744.18,327.78
           C 746.26,329.72 745.72,334.28 751.52,342.00
             753.07,344.06 755.62,346.57 756.36,349.00
             757.23,351.85 756.01,355.97 752.79,356.66
             748.63,357.57 744.88,353.77 742.43,350.98
             740.60,348.91 737.70,345.55 736.74,343.00
             734.78,337.81 736.27,329.82 741.16,326.96
             741.42,326.97 742.73,326.42 744.18,327.78 Z
           M 1599.00,785.68
           C 1592.56,784.62 1592.05,783.10 1584.00,783.00
             1584.00,783.00 1571.00,783.66 1571.00,783.66
             1571.00,783.66 1558.00,781.18 1558.00,781.18
             1558.00,781.18 1547.00,780.56 1547.00,780.56
             1537.72,779.07 1523.13,771.85 1516.85,764.96
             1515.08,763.02 1513.53,761.35 1512.27,759.00
             1509.96,754.67 1504.63,735.34 1503.75,730.00
             1503.75,730.00 1501.80,717.00 1501.80,717.00
             1501.80,717.00 1497.04,700.00 1497.04,700.00
             1497.04,700.00 1492.13,678.00 1492.13,678.00
             1492.13,678.00 1486.54,663.00 1486.54,663.00
             1486.54,663.00 1482.55,651.00 1482.55,651.00
             1482.55,651.00 1476.18,639.00 1476.18,639.00
             1476.18,639.00 1472.21,630.00 1472.21,630.00
             1469.30,623.95 1465.38,619.36 1461.49,614.00
             1450.41,598.74 1455.64,601.73 1440.00,586.97
             1434.64,581.90 1431.95,578.42 1424.00,579.06
             1418.32,579.51 1415.98,583.59 1413.08,588.00
             1413.08,588.00 1397.94,615.00 1397.94,615.00
             1397.94,615.00 1374.74,659.00 1374.74,659.00
             1374.74,659.00 1358.21,692.00 1358.21,692.00
             1358.21,692.00 1349.71,725.00 1349.71,725.00
             1349.71,725.00 1347.38,733.00 1347.38,733.00
             1346.54,737.20 1347.62,742.03 1346.11,746.00
             1345.03,748.84 1343.17,750.66 1341.35,753.00
             1339.02,756.01 1337.19,759.21 1333.98,761.44
             1329.59,764.50 1312.90,767.79 1307.00,769.24
             1307.00,769.24 1294.00,774.09 1294.00,774.09
             1294.00,774.09 1276.00,778.62 1276.00,778.62
             1276.00,778.62 1269.00,781.38 1269.00,781.38
             1269.00,781.38 1261.00,783.46 1261.00,783.46
             1256.80,785.03 1242.96,790.79 1240.16,793.41
             1235.99,797.31 1237.84,801.41 1245.00,800.83
             1245.00,800.83 1254.00,799.29 1254.00,799.29
             1254.00,799.29 1264.00,798.56 1264.00,798.56
             1264.00,798.56 1296.00,792.49 1296.00,792.49
             1296.00,792.49 1316.00,787.20 1316.00,787.20
             1326.69,784.63 1331.62,780.23 1344.00,780.27
             1349.07,780.29 1353.65,784.30 1358.00,786.69
             1358.00,786.69 1374.00,793.87 1374.00,793.87
             1374.00,793.87 1385.00,799.13 1385.00,799.13
             1402.09,806.32 1420.86,806.21 1439.00,806.00
             1439.00,806.00 1449.00,804.96 1449.00,804.96
             1449.00,804.96 1459.00,804.96 1459.00,804.96
             1459.00,804.96 1480.00,799.96 1480.00,799.96
             1490.90,796.63 1502.52,788.96 1506.00,787.94
             1510.44,786.63 1521.64,786.94 1527.00,786.74
             1527.00,786.74 1566.00,790.00 1566.00,790.00
             1566.00,790.00 1612.00,795.00 1612.00,795.00
             1612.00,795.00 1621.00,795.00 1621.00,795.00
             1619.35,785.40 1606.34,786.88 1599.00,785.68 Z
           M 616.00,593.33
           C 616.00,593.33 604.00,595.35 604.00,595.35
             591.94,598.44 575.44,607.24 566.09,615.37
             566.09,615.37 560.83,620.83 560.83,620.83
             549.87,631.75 555.57,627.46 548.82,636.00
             544.22,641.82 537.73,646.12 534.93,653.00
             529.82,665.58 530.98,676.81 531.00,690.00
             531.03,706.18 537.95,716.70 547.66,729.00
             547.66,729.00 554.04,737.00 554.04,737.00
             563.00,750.76 571.40,767.36 585.00,777.22
             594.99,784.45 604.63,787.32 616.00,791.46
             620.20,792.99 621.63,793.03 626.00,795.32
             636.19,800.65 641.12,802.34 652.00,805.81
             654.90,806.73 659.88,808.52 662.77,807.25
             666.23,805.73 665.61,802.56 663.67,800.04
             661.25,796.90 651.95,792.14 648.00,789.87
             648.00,789.87 635.00,781.98 635.00,781.98
             635.00,781.98 625.00,777.63 625.00,777.63
             625.00,777.63 612.00,770.48 612.00,770.48
             600.37,764.41 605.65,768.44 592.00,759.59
             587.04,756.38 579.04,752.06 582.58,745.00
             583.28,743.61 584.81,741.51 586.18,740.74
             589.84,738.69 592.46,742.74 598.00,744.37
             598.00,744.37 606.00,745.80 606.00,745.80
             606.00,745.80 618.00,750.91 618.00,750.91
             621.37,752.00 622.81,751.85 626.00,752.46
             626.00,752.46 636.00,755.12 636.00,755.12
             636.00,755.12 661.00,762.71 661.00,762.71
             661.00,762.71 676.00,765.90 676.00,765.90
             676.00,765.90 686.00,768.54 686.00,768.54
             686.00,768.54 701.00,769.44 701.00,769.44
             709.31,770.74 717.59,773.90 726.00,774.00
             738.20,774.14 739.92,775.25 751.00,776.71
             751.00,776.71 766.00,778.17 766.00,778.17
             772.75,778.97 771.07,779.86 780.00,780.00
             780.00,780.00 798.00,781.92 798.00,781.92
             798.00,781.92 811.00,781.92 811.00,781.92
             813.79,782.00 817.35,782.22 819.83,780.83
             823.00,779.04 825.47,774.43 826.39,771.00
             827.12,768.27 827.03,764.84 827.00,762.00
             826.91,754.26 825.63,753.78 823.06,747.00
             823.06,747.00 819.46,737.00 819.46,737.00
             816.21,730.21 807.47,721.66 802.28,716.04
             794.75,707.88 785.15,702.04 776.00,695.91
             776.00,695.91 767.00,689.22 767.00,689.22
             767.00,689.22 759.00,684.46 759.00,684.46
             759.00,684.46 747.00,676.60 747.00,676.60
             747.00,676.60 736.09,671.01 736.09,671.01
             736.09,671.01 722.00,659.38 722.00,659.38
             722.00,659.38 711.00,652.40 711.00,652.40
             711.00,652.40 691.00,637.71 691.00,637.71
             683.98,632.68 676.68,628.11 669.00,624.13
             665.01,622.06 659.19,620.08 656.84,615.91
             654.76,612.22 657.86,603.20 665.00,604.26
             665.00,604.26 672.00,605.82 672.00,605.82
             678.07,606.55 684.03,606.60 690.00,608.30
             690.00,608.30 701.00,613.13 701.00,613.13
             701.00,613.13 712.00,617.00 712.00,617.00
             713.92,617.64 727.95,623.67 724.83,616.16
             723.53,613.02 711.40,605.82 708.00,603.68
             693.90,594.80 698.31,598.77 685.00,594.79
             685.00,594.79 676.00,591.76 676.00,591.76
             663.77,588.48 648.63,588.11 636.00,589.29
             636.00,589.29 616.00,593.33 616.00,593.33 Z
           M 1448.89,637.04
           C 1450.57,638.82 1454.35,643.65 1450.55,645.41
             1447.66,646.75 1444.22,643.96 1442.00,642.47
             1438.43,640.08 1433.53,637.72 1429.14,639.60
             1423.90,641.84 1426.41,650.36 1422.08,650.39
             1418.32,650.42 1418.94,643.26 1419.65,641.00
             1421.52,635.00 1426.12,631.81 1432.00,630.56
             1438.68,630.32 1444.21,632.07 1448.89,637.04 Z
           M 716.00,675.00
           C 716.01,681.14 716.76,698.15 708.87,700.26
             705.21,701.23 704.25,696.64 704.62,694.00
             704.62,694.00 706.79,686.00 706.79,686.00
             707.67,679.86 705.27,669.31 712.05,666.17
             716.88,667.07 715.99,670.90 716.00,675.00 Z
           M 1381.02,704.02
           C 1384.88,696.52 1399.47,692.00 1407.00,695.84
             1415.84,700.34 1413.99,706.68 1402.00,708.05
             1402.00,708.05 1393.00,709.00 1393.00,709.00
             1393.00,709.00 1380.00,710.00 1380.00,710.00
             1380.07,707.85 1379.99,706.01 1381.02,704.02 Z
           M 1471.00,720.82
           C 1471.00,720.82 1455.60,715.28 1455.60,715.28
             1452.22,711.80 1455.30,707.86 1459.02,706.48
             1466.47,703.72 1477.79,705.24 1481.69,713.02
             1483.08,715.80 1482.97,718.98 1483.00,722.00
             1478.56,722.44 1475.25,722.46 1471.00,720.82 Z
           M 702.71,729.00
           C 701.85,737.26 700.89,743.84 696.04,750.98
             694.48,753.27 691.46,756.53 688.31,755.34
             685.03,754.11 686.29,748.53 686.90,746.00
             688.25,740.43 693.42,724.62 697.26,721.08
             702.85,719.84 703.17,724.65 702.71,729.00 Z
           M 806.51,742.00
           C 808.60,749.29 809.67,766.84 800.96,770.26
             796.19,772.13 785.13,769.11 787.78,762.22
             789.09,758.81 794.37,758.25 795.01,753.98
             795.36,751.67 793.54,749.14 792.81,747.00
             790.96,741.56 792.01,736.72 797.09,733.79
             802.75,733.24 805.07,736.96 806.51,742.00 Z
           M 682.85,791.05
           C 685.74,790.28 686.32,786.80 683.68,784.81
             681.70,783.69 679.45,784.11 677.33,784.81
             673.23,788.47 679.92,791.84 682.85,791.05 Z" />
</svg>
