<?xml version="1.0" encoding="UTF-8" standalone="no"?>
<!DOCTYPE svg PUBLIC "-//W3C//DTD SVG 20010904//EN"
              "http://www.w3.org/TR/2001/REC-SVG-20010904/DTD/svg10.dtd">

<svg xmlns="http://www.w3.org/2000/svg"
     width="24.1667in" height="17.7361in"
     viewBox="0 0 1740 1277">
  <path id="Selection"
        fill="black" stroke="none" stroke-width="0"
        d="M 214.00,52.00
           C 231.74,52.20 225.60,52.67 241.00,57.09
             241.00,57.09 257.00,61.53 257.00,61.53
             257.00,61.53 269.00,69.00 269.00,69.00
             279.70,75.16 284.11,76.12 294.83,84.92
             294.83,84.92 306.28,96.72 306.28,96.72
             317.13,107.56 328.19,118.41 337.09,131.00
             337.09,131.00 348.45,150.00 348.45,150.00
             348.45,150.00 354.10,159.00 354.10,159.00
             354.10,159.00 366.25,190.00 366.25,190.00
             366.25,190.00 376.87,216.00 376.87,216.00
             376.87,216.00 385.09,234.00 385.09,234.00
             385.09,234.00 387.92,243.00 387.92,243.00
             387.92,243.00 402.95,280.00 402.95,280.00
             402.95,280.00 407.74,296.00 407.74,296.00
             407.74,296.00 410.84,305.00 410.84,305.00
             410.84,305.00 415.75,332.00 415.75,332.00
             415.75,332.00 420.84,350.00 420.84,350.00
             420.84,350.00 422.90,359.00 422.90,359.00
             422.90,359.00 428.05,372.00 428.05,372.00
             428.05,372.00 432.79,387.00 432.79,387.00
             432.79,387.00 441.36,418.00 441.36,418.00
             441.36,418.00 453.69,442.00 453.69,442.00
             453.69,442.00 465.06,463.00 465.06,463.00
             470.91,472.47 483.81,489.82 491.17,498.00
             491.17,498.00 504.96,512.00 504.96,512.00
             504.96,512.00 521.17,528.73 521.17,528.73
             521.17,528.73 530.00,536.17 530.00,536.17
             530.00,536.17 544.00,549.91 544.00,549.91
             544.00,549.91 565.00,566.43 565.00,566.43
             565.00,566.43 586.00,580.02 586.00,580.02
             586.00,580.02 602.00,587.26 602.00,587.26
             602.00,587.26 617.00,595.89 617.00,595.89
             617.00,595.89 634.00,603.30 634.00,603.30
             634.00,603.30 668.00,618.09 668.00,618.09
             668.00,618.09 690.00,626.06 690.00,626.06
             690.00,626.06 711.00,635.66 711.00,635.66
             711.00,635.66 749.00,646.22 749.00,646.22
             749.00,646.22 759.00,650.62 759.00,650.62
             759.00,650.62 778.00,655.77 778.00,655.77
             778.00,655.77 826.00,664.09 826.00,664.09
             826.00,664.09 836.00,666.55 836.00,666.55
             848.54,669.11 889.71,675.98 901.00,676.00
             901.00,676.00 919.00,675.04 919.00,675.04
             919.00,675.04 933.00,675.99 933.00,675.99
             933.00,675.99 952.00,675.99 952.00,675.99
             952.00,675.99 971.00,675.99 971.00,675.99
             971.00,675.99 983.00,675.05 983.00,675.05
             998.79,675.37 1023.62,668.38 1040.00,665.42
             1040.00,665.42 1058.00,662.74 1058.00,662.74
             1058.00,662.74 1103.00,653.51 1103.00,653.51
             1103.00,653.51 1116.00,651.71 1116.00,651.71
             1116.00,651.71 1124.00,649.52 1124.00,649.52
             1124.00,649.52 1145.00,646.58 1145.00,646.58
             1145.00,646.58 1163.00,642.02 1163.00,642.02
             1163.00,642.02 1175.00,640.70 1175.00,640.70
             1175.00,640.70 1201.00,634.51 1201.00,634.51
             1201.00,634.51 1241.00,627.54 1241.00,627.54
             1241.00,627.54 1258.00,623.80 1258.00,623.80
             1258.00,623.80 1277.00,620.32 1277.00,620.32
             1277.00,620.32 1289.00,616.81 1289.00,616.81
             1289.00,616.81 1320.00,612.64 1320.00,612.64
             1320.00,612.64 1329.00,609.52 1329.00,609.52
             1329.00,609.52 1340.00,606.65 1340.00,606.65
             1340.00,606.65 1362.00,602.99 1362.00,602.99
             1362.00,602.99 1385.00,597.24 1385.00,597.24
             1385.00,597.24 1396.00,595.54 1396.00,595.54
             1396.00,595.54 1413.00,591.80 1413.00,591.80
             1413.00,591.80 1433.00,588.50 1433.00,588.50
             1433.00,588.50 1453.00,583.46 1453.00,583.46
             1453.00,583.46 1462.00,582.83 1462.00,582.83
             1462.00,582.83 1475.00,580.49 1475.00,580.49
             1480.74,579.17 1483.44,576.70 1487.00,575.64
             1487.00,575.64 1502.00,574.47 1502.00,574.47
             1502.00,574.47 1518.00,570.39 1518.00,570.39
             1521.72,568.95 1523.65,567.08 1528.00,566.41
             1528.00,566.41 1539.00,566.41 1539.00,566.41
             1539.00,566.41 1561.00,564.83 1561.00,564.83
             1561.00,564.83 1576.00,563.02 1576.00,563.02
             1582.17,562.89 1583.40,563.68 1589.00,564.56
             1589.00,564.56 1598.00,565.67 1598.00,565.67
             1609.87,568.19 1626.00,576.12 1633.21,586.01
             1637.40,591.76 1636.93,595.72 1639.08,602.00
             1645.59,621.02 1646.77,623.61 1647.00,644.00
             1647.00,644.00 1648.91,660.00 1648.91,660.00
             1648.91,660.00 1648.37,673.00 1648.37,673.00
             1648.37,673.00 1649.83,684.00 1649.83,684.00
             1649.83,684.00 1653.04,724.00 1653.04,724.00
             1653.04,724.00 1653.04,739.00 1653.04,739.00
             1653.04,739.00 1653.90,748.00 1653.90,748.00
             1653.90,748.00 1652.09,765.00 1652.09,765.00
             1652.09,765.00 1652.97,774.00 1652.97,774.00
             1652.97,774.00 1652.01,785.00 1652.01,785.00
             1652.01,785.00 1653.91,804.00 1653.91,804.00
             1653.91,804.00 1653.01,820.00 1653.01,820.00
             1653.01,820.00 1653.96,829.00 1653.96,829.00
             1653.96,829.00 1653.96,839.00 1653.96,839.00
             1653.96,839.00 1656.00,858.00 1656.00,858.00
             1656.00,858.00 1656.00,868.00 1656.00,868.00
             1656.00,868.00 1658.00,894.00 1658.00,894.00
             1658.00,894.00 1659.00,911.00 1659.00,911.00
             1659.00,911.00 1658.18,923.00 1658.18,923.00
             1658.18,923.00 1659.00,953.00 1659.00,953.00
             1659.00,953.00 1657.32,983.00 1657.32,983.00
             1657.32,983.00 1657.94,993.00 1657.94,993.00
             1657.94,993.00 1657.94,1014.00 1657.94,1014.00
             1657.94,1014.00 1658.91,1028.00 1658.91,1028.00
             1658.91,1028.00 1658.02,1036.00 1658.02,1036.00
             1658.02,1036.00 1658.02,1056.00 1658.02,1056.00
             1658.02,1056.00 1655.17,1083.00 1655.17,1083.00
             1655.17,1083.00 1652.83,1112.00 1652.83,1112.00
             1652.28,1117.72 1650.80,1121.95 1651.04,1128.00
             1651.04,1128.00 1651.82,1138.00 1651.82,1138.00
             1651.82,1138.00 1649.00,1165.00 1649.00,1165.00
             1649.00,1165.00 1650.87,1179.00 1650.87,1179.00
             1650.87,1179.00 1648.22,1196.00 1648.22,1196.00
             1648.22,1196.00 1648.22,1218.00 1648.22,1218.00
             1648.14,1229.26 1652.10,1230.10 1648.22,1245.00
             1646.35,1253.75 1633.50,1265.70 1624.00,1264.80
             1624.00,1264.80 1607.00,1261.17 1607.00,1261.17
             1607.00,1261.17 1576.00,1258.91 1576.00,1258.91
             1576.00,1258.91 1561.00,1257.75 1561.00,1257.75
             1561.00,1257.75 1552.00,1257.75 1552.00,1257.75
             1552.00,1257.75 1543.00,1257.09 1543.00,1257.09
             1543.00,1257.09 1518.00,1255.03 1518.00,1255.03
             1518.00,1255.03 1501.99,1255.03 1501.99,1255.03
             1501.99,1255.03 1487.00,1254.00 1487.00,1254.00
             1487.00,1254.00 1467.00,1254.00 1467.00,1254.00
             1467.00,1254.00 1443.00,1251.92 1443.00,1251.92
             1443.00,1251.92 1432.00,1251.92 1432.00,1251.92
             1432.00,1251.92 1413.00,1250.00 1413.00,1250.00
             1413.00,1250.00 1383.00,1247.17 1383.00,1247.17
             1383.00,1247.17 1365.00,1245.83 1365.00,1245.83
             1365.00,1245.83 1326.00,1242.00 1326.00,1242.00
             1326.00,1242.00 1313.00,1242.00 1313.00,1242.00
             1313.00,1242.00 1294.00,1240.04 1294.00,1240.04
             1294.00,1240.04 1280.00,1240.91 1280.00,1240.91
             1280.00,1240.91 1265.00,1239.50 1265.00,1239.50
             1265.00,1239.50 1258.00,1239.50 1258.00,1239.50
             1258.00,1239.50 1246.00,1238.09 1246.00,1238.09
             1246.00,1238.09 1234.00,1238.09 1234.00,1238.09
             1225.72,1238.11 1224.30,1240.69 1220.00,1240.61
             1217.34,1240.56 1214.65,1239.12 1212.00,1238.53
             1212.00,1238.53 1205.00,1237.68 1205.00,1237.68
             1205.00,1237.68 1196.00,1235.61 1196.00,1235.61
             1196.00,1235.61 1155.00,1230.10 1155.00,1230.10
             1155.00,1230.10 1144.00,1230.10 1144.00,1230.10
             1144.00,1230.10 1124.00,1227.90 1124.00,1227.90
             1124.00,1227.90 1113.00,1227.90 1113.00,1227.90
             1113.00,1227.90 1096.00,1223.44 1096.00,1223.44
             1096.00,1223.44 1048.00,1216.58 1048.00,1216.58
             1048.00,1216.58 1031.00,1213.72 1031.00,1213.72
             1031.00,1213.72 1021.00,1211.44 1021.00,1211.44
             1021.00,1211.44 1005.00,1209.87 1005.00,1209.87
             1005.00,1209.87 995.00,1209.87 995.00,1209.87
             988.02,1208.67 987.31,1206.13 975.00,1204.42
             975.00,1204.42 944.00,1200.71 944.00,1200.71
             944.00,1200.71 923.00,1197.28 923.00,1197.28
             923.00,1197.28 888.00,1192.72 888.00,1192.72
             888.00,1192.72 861.00,1187.48 861.00,1187.48
             861.00,1187.48 852.00,1185.01 852.00,1185.01
             852.00,1185.01 837.00,1182.55 837.00,1182.55
             837.00,1182.55 815.00,1178.08 815.00,1178.08
             815.00,1178.08 788.00,1174.71 788.00,1174.71
             788.00,1174.71 757.00,1170.83 757.00,1170.83
             746.00,1169.72 735.13,1164.97 724.00,1165.61
             717.06,1166.01 702.97,1178.03 696.00,1181.48
             689.15,1184.88 684.41,1184.27 679.00,1186.10
             679.00,1186.10 660.00,1193.57 660.00,1193.57
             660.00,1193.57 647.00,1197.87 647.00,1197.87
             647.00,1197.87 636.00,1203.48 636.00,1203.48
             636.00,1203.48 595.00,1216.69 595.00,1216.69
             595.00,1216.69 582.00,1222.31 582.00,1222.31
             582.00,1222.31 561.00,1229.20 561.00,1229.20
             561.00,1229.20 543.00,1236.91 543.00,1236.91
             543.00,1236.91 524.00,1241.48 524.00,1241.48
             524.00,1241.48 513.00,1244.85 513.00,1244.85
             513.00,1244.85 495.00,1248.65 495.00,1248.65
             495.00,1248.65 480.00,1252.77 480.00,1252.77
             480.00,1252.77 465.00,1254.81 465.00,1254.81
             465.00,1254.81 421.00,1262.96 421.00,1262.96
             421.00,1262.96 412.00,1262.96 412.00,1262.96
             412.00,1262.96 398.00,1264.92 398.00,1264.92
             398.00,1264.92 377.00,1263.00 377.00,1263.00
             363.15,1262.98 365.16,1261.25 355.00,1260.21
             355.00,1260.21 347.00,1260.21 347.00,1260.21
             347.00,1260.21 337.00,1257.94 337.00,1257.94
             337.00,1257.94 326.00,1257.94 326.00,1257.94
             326.00,1257.94 298.00,1252.70 298.00,1252.70
             284.26,1248.78 287.70,1247.50 271.00,1245.83
             267.47,1245.48 265.83,1244.88 262.00,1245.09
             262.00,1245.09 255.00,1245.90 255.00,1245.90
             249.99,1246.11 245.08,1243.95 240.00,1243.29
             240.00,1243.29 229.00,1242.61 229.00,1242.61
             223.34,1241.41 211.42,1235.95 206.00,1233.25
             200.40,1230.44 190.49,1225.10 186.18,1220.82
             181.19,1215.85 172.20,1199.73 169.45,1193.00
             164.57,1181.05 163.85,1169.48 161.58,1157.00
             161.58,1157.00 154.56,1131.00 154.56,1131.00
             154.56,1131.00 149.70,1119.00 149.70,1119.00
             149.70,1119.00 144.88,1102.00 144.88,1102.00
             144.88,1102.00 141.85,1084.00 141.85,1084.00
             140.38,1078.30 135.83,1062.88 136.05,1058.00
             136.50,1047.60 145.70,1044.46 150.15,1037.00
             153.04,1032.14 153.44,1015.76 153.15,1009.72
             153.15,1009.72 152.00,996.00 152.00,996.00
             151.98,982.44 151.40,971.23 144.59,959.00
             142.08,954.49 137.05,950.20 133.62,946.00
             129.96,941.54 124.21,931.34 121.95,926.00
             121.95,926.00 118.13,915.00 118.13,915.00
             118.13,915.00 104.45,886.00 104.45,886.00
             104.45,886.00 94.30,857.00 94.30,857.00
             94.30,857.00 85.05,834.00 85.05,834.00
             85.05,834.00 74.31,802.00 74.31,802.00
             74.31,802.00 69.06,789.00 69.06,789.00
             69.06,789.00 63.31,770.00 63.31,770.00
             63.31,770.00 54.75,746.00 54.75,746.00
             54.75,746.00 47.52,715.00 47.52,715.00
             47.52,715.00 40.29,693.00 40.29,693.00
             40.29,693.00 36.54,665.00 36.54,665.00
             36.54,665.00 32.46,650.00 32.46,650.00
             32.46,650.00 28.00,619.00 28.00,619.00
             28.00,619.00 28.00,606.00 28.00,606.00
             28.00,606.00 26.26,580.00 26.26,580.00
             26.26,580.00 26.26,569.00 26.26,569.00
             26.26,569.00 25.18,552.00 25.18,552.00
             25.18,552.00 26.06,544.00 26.06,544.00
             26.06,544.00 26.06,528.00 26.06,528.00
             26.58,523.73 27.76,519.30 27.24,515.00
             27.24,515.00 27.24,501.00 27.24,501.00
             26.86,489.58 23.06,491.61 23.00,479.00
             23.00,479.00 23.00,460.00 23.00,460.00
             23.00,460.00 22.21,441.00 22.21,441.00
             22.21,441.00 22.21,431.00 22.21,431.00
             22.21,431.00 22.21,424.00 22.21,424.00
             22.21,424.00 24.82,404.00 24.82,404.00
             24.82,404.00 24.00,392.00 24.00,392.00
             24.00,392.00 24.00,373.00 24.00,373.00
             24.00,373.00 27.29,342.00 27.29,342.00
             27.29,342.00 30.71,323.00 30.71,323.00
             30.71,323.00 31.53,312.00 31.53,312.00
             33.43,303.58 35.94,303.57 36.00,291.00
             36.05,279.67 36.14,272.13 39.57,261.00
             41.24,255.59 44.58,251.04 47.02,246.00
             47.02,246.00 51.86,234.00 51.86,234.00
             51.86,234.00 57.63,223.00 57.63,223.00
             57.63,223.00 65.52,204.00 65.52,204.00
             65.52,204.00 71.74,193.00 71.74,193.00
             71.74,193.00 90.65,154.00 90.65,154.00
             90.65,154.00 93.83,144.00 93.83,144.00
             93.83,144.00 107.56,122.00 107.56,122.00
             107.56,122.00 113.88,109.00 113.88,109.00
             115.78,105.72 129.32,88.81 132.09,86.32
             132.09,86.32 149.00,73.57 149.00,73.57
             149.00,73.57 169.00,65.60 169.00,65.60
             169.00,65.60 180.00,58.42 180.00,58.42
             180.00,58.42 200.00,51.47 200.00,51.47
             206.01,50.68 208.11,51.93 214.00,52.00 Z
           M 165.00,89.72
           C 143.57,101.91 138.32,110.21 126.58,131.00
             126.58,131.00 115.72,151.00 115.72,151.00
             115.72,151.00 112.55,160.00 112.55,160.00
             112.55,160.00 107.46,171.00 107.46,171.00
             107.46,171.00 104.60,179.00 104.60,179.00
             104.60,179.00 98.63,189.00 98.63,189.00
             98.63,189.00 90.69,206.00 90.69,206.00
             90.69,206.00 79.89,228.00 79.89,228.00
             74.41,238.67 66.15,253.86 66.00,266.00
             65.82,281.03 63.83,278.12 62.29,290.00
             62.29,290.00 61.71,299.00 61.71,299.00
             61.71,299.00 59.06,312.00 59.06,312.00
             59.06,312.00 59.06,321.00 59.06,321.00
             59.06,321.00 55.96,348.00 55.96,348.00
             55.68,354.41 51.72,371.01 55.01,375.79
             59.37,382.12 72.92,382.99 80.00,383.26
             87.58,383.54 91.97,381.83 99.00,380.68
             109.46,378.97 118.16,395.94 110.85,401.40
             107.95,403.57 103.49,402.83 100.00,403.17
             100.00,403.17 91.42,404.16 91.42,404.16
             91.42,404.16 69.00,402.83 69.00,402.83
             63.15,402.20 52.64,396.62 51.05,406.02
             51.05,406.02 51.05,411.00 51.05,411.00
             51.05,411.00 51.05,425.00 51.05,425.00
             51.11,433.11 53.23,433.71 53.57,438.00
             53.91,442.23 51.47,444.38 51.47,449.00
             51.47,449.00 53.91,462.00 53.91,462.00
             53.91,462.00 53.91,479.00 53.91,479.00
             53.91,479.00 52.00,509.00 52.00,509.00
             52.00,509.00 51.00,529.00 51.00,529.00
             51.00,529.00 51.53,541.00 51.53,541.00
             51.33,545.20 48.71,551.24 49.09,558.00
             49.09,558.00 50.00,576.00 50.00,576.00
             50.00,576.00 50.91,588.00 50.91,588.00
             50.91,588.00 52.17,610.00 52.17,610.00
             52.83,615.94 53.91,616.91 54.00,624.00
             54.00,624.00 54.00,630.00 54.00,630.00
             54.05,641.33 60.79,664.37 63.49,677.00
             63.49,677.00 66.90,698.00 66.90,698.00
             66.90,698.00 71.08,711.00 71.08,711.00
             71.08,711.00 77.04,734.00 77.04,734.00
             77.04,734.00 87.51,767.00 87.51,767.00
             87.51,767.00 92.64,781.00 92.64,781.00
             92.64,781.00 95.10,791.00 95.10,791.00
             95.10,791.00 101.58,806.00 101.58,806.00
             101.58,806.00 110.98,833.00 110.98,833.00
             110.98,833.00 114.52,846.00 114.52,846.00
             121.20,866.48 129.40,886.36 138.14,906.00
             144.44,920.16 142.47,914.09 149.41,925.00
             152.72,930.21 157.75,938.01 164.00,939.88
             168.09,941.11 174.06,939.30 178.00,938.00
             187.54,934.86 202.60,926.44 210.00,925.71
             218.18,924.90 228.09,932.41 219.66,940.47
             215.56,944.39 196.04,953.15 190.00,955.31
             185.13,957.05 176.58,959.53 173.78,964.05
             172.02,966.89 172.96,976.22 173.00,980.00
             173.00,980.00 173.96,994.00 173.96,994.00
             173.79,998.63 172.43,1004.75 175.59,1008.77
             178.93,1013.01 188.95,1012.81 194.00,1013.04
             194.00,1013.04 216.00,1015.92 216.00,1015.92
             221.29,1016.34 230.69,1016.69 234.96,1019.70
             243.95,1026.04 239.20,1035.42 227.00,1035.96
             227.00,1035.96 185.00,1032.01 185.00,1032.01
             182.38,1031.95 178.36,1031.78 176.05,1033.02
             171.52,1035.47 169.16,1046.74 166.37,1052.00
             163.51,1057.40 159.65,1060.47 160.30,1067.00
             160.30,1067.00 162.39,1078.00 162.39,1078.00
             162.39,1078.00 164.89,1092.00 164.89,1092.00
             164.89,1092.00 169.56,1107.00 169.56,1107.00
             169.56,1107.00 174.74,1125.00 174.74,1125.00
             174.74,1125.00 180.25,1142.00 180.25,1142.00
             181.34,1146.55 180.71,1148.05 181.18,1152.00
             181.18,1152.00 187.13,1181.00 187.13,1181.00
             188.60,1184.97 197.17,1196.69 200.18,1199.96
             207.87,1208.31 210.05,1207.52 219.00,1211.34
             238.18,1219.52 259.38,1220.76 280.00,1222.54
             280.00,1222.54 290.00,1222.54 290.00,1222.54
             290.00,1222.54 303.00,1227.56 303.00,1227.56
             313.84,1230.85 320.76,1231.87 332.00,1232.00
             342.07,1232.12 344.58,1234.31 353.00,1235.91
             353.00,1235.91 365.00,1237.43 365.00,1237.43
             377.06,1239.18 385.54,1241.14 398.00,1241.00
             398.00,1241.00 408.00,1239.96 408.00,1239.96
             408.00,1239.96 418.00,1239.96 418.00,1239.96
             418.00,1239.96 437.00,1237.29 437.00,1237.29
             437.00,1237.29 463.00,1233.54 463.00,1233.54
             463.00,1233.54 475.00,1230.04 475.00,1230.04
             475.00,1230.04 495.00,1226.01 495.00,1226.01
             495.00,1226.01 531.00,1216.89 531.00,1216.89
             535.48,1215.77 546.44,1212.76 549.48,1209.50
             552.33,1206.44 551.03,1200.77 550.41,1197.00
             548.10,1183.02 537.23,1174.58 530.20,1163.00
             528.12,1159.56 521.63,1148.08 527.31,1145.13
             531.26,1143.08 538.23,1151.12 540.99,1153.58
             550.79,1162.30 560.28,1178.10 563.31,1191.00
             564.26,1195.53 562.91,1197.44 563.31,1199.98
             564.09,1203.57 566.60,1204.80 570.00,1204.04
             570.00,1204.04 594.00,1194.95 594.00,1194.95
             594.00,1194.95 626.00,1183.94 626.00,1183.94
             626.00,1183.94 638.00,1178.70 638.00,1178.70
             638.00,1178.70 650.00,1175.43 650.00,1175.43
             650.00,1175.43 670.00,1167.24 670.00,1167.24
             676.35,1164.15 691.01,1160.50 693.40,1153.98
             696.02,1146.82 686.60,1136.72 683.12,1131.00
             681.00,1127.52 680.65,1125.54 679.13,1122.00
             672.63,1106.87 674.88,1112.04 671.11,1097.00
             671.11,1097.00 667.38,1085.00 667.38,1085.00
             667.38,1085.00 666.83,1074.00 666.83,1074.00
             666.83,1074.00 665.11,1058.00 665.11,1058.00
             665.11,1058.00 665.11,1047.00 665.11,1047.00
             665.11,1047.00 665.67,1038.00 665.67,1038.00
             665.67,1038.00 665.67,1032.00 665.67,1032.00
             666.32,1019.32 671.59,1005.68 674.34,993.00
             674.34,993.00 676.47,982.00 676.47,982.00
             676.47,982.00 679.63,971.00 679.63,971.00
             680.63,965.77 679.07,964.36 681.43,956.00
             683.98,946.93 687.49,942.77 690.54,935.00
             690.54,935.00 693.34,927.00 693.34,927.00
             693.34,927.00 710.58,890.00 710.58,890.00
             710.58,890.00 719.29,877.01 719.29,877.01
             724.93,869.57 732.41,864.40 738.91,857.91
             738.91,857.91 748.00,848.09 748.00,848.09
             748.00,848.09 760.00,837.96 760.00,837.96
             760.00,837.96 777.00,821.46 777.00,821.46
             777.00,821.46 807.00,800.76 807.00,800.76
             811.36,797.89 812.33,796.37 816.00,793.32
             820.46,789.61 837.11,777.85 842.00,775.75
             848.03,773.15 856.63,769.89 863.00,768.51
             863.00,768.51 874.00,766.52 874.00,766.52
             884.03,763.94 882.08,762.02 894.00,762.00
             907.57,761.98 905.46,760.95 917.00,759.30
             917.00,759.30 928.00,758.70 928.00,758.70
             928.00,758.70 935.00,757.07 935.00,757.07
             935.00,757.07 943.00,757.07 943.00,757.07
             943.00,757.07 960.00,754.29 960.00,754.29
             960.00,754.29 976.00,752.85 976.00,752.85
             976.00,752.85 996.00,750.01 996.00,750.01
             996.00,750.01 1017.00,751.58 1017.00,751.58
             1024.87,751.09 1023.94,750.98 1032.00,751.58
             1032.00,751.58 1049.00,750.48 1049.00,750.48
             1049.00,750.48 1057.00,748.32 1057.00,748.32
             1057.00,748.32 1066.00,747.82 1066.00,747.82
             1066.00,747.82 1079.00,745.10 1079.00,745.10
             1079.00,745.10 1092.00,745.10 1092.00,745.10
             1092.00,745.10 1104.00,743.08 1104.00,743.08
             1104.00,743.08 1120.00,743.08 1120.00,743.08
             1120.00,743.08 1152.00,740.00 1152.00,740.00
             1152.00,740.00 1160.00,740.00 1160.00,740.00
             1169.37,739.98 1168.41,738.77 1177.00,737.42
             1177.00,737.42 1193.00,734.43 1193.00,734.43
             1193.00,734.43 1208.00,732.19 1208.00,732.19
             1208.00,732.19 1219.00,729.46 1219.00,729.46
             1219.00,729.46 1229.00,728.48 1229.00,728.48
             1229.00,728.48 1244.99,724.43 1244.99,724.43
             1244.99,724.43 1258.00,722.66 1258.00,722.66
             1266.11,720.71 1276.17,716.55 1284.00,713.45
             1284.00,713.45 1295.00,709.44 1295.00,709.44
             1295.00,709.44 1305.00,702.13 1305.00,702.13
             1305.00,702.13 1312.00,698.47 1312.00,698.47
             1317.56,695.26 1323.46,689.54 1328.00,685.00
             1328.00,685.00 1339.56,673.72 1339.56,673.72
             1339.56,673.72 1347.09,665.00 1347.09,665.00
             1350.21,661.64 1354.66,657.78 1357.01,654.00
             1358.84,651.05 1359.89,647.32 1360.86,644.00
             1362.07,639.85 1366.38,632.05 1362.56,628.74
             1358.87,625.55 1352.03,629.13 1347.00,629.84
             1347.00,629.84 1339.00,629.84 1339.00,629.84
             1339.00,629.84 1312.00,636.73 1312.00,636.73
             1312.00,636.73 1301.00,638.05 1301.00,638.05
             1291.27,639.08 1282.41,641.81 1273.00,644.10
             1273.00,644.10 1252.00,647.81 1252.00,647.81
             1252.00,647.81 1238.00,651.54 1238.00,651.54
             1238.00,651.54 1220.00,653.47 1220.00,653.47
             1220.00,653.47 1200.00,659.00 1200.00,659.00
             1200.00,659.00 1178.00,662.49 1178.00,662.49
             1178.00,662.49 1167.00,666.47 1167.00,666.47
             1167.00,666.47 1155.00,667.80 1155.00,667.80
             1155.00,667.80 1132.00,672.56 1132.00,672.56
             1132.00,672.56 1120.00,673.46 1120.00,673.46
             1120.00,673.46 1112.00,675.49 1112.00,675.49
             1112.00,675.49 1099.00,677.57 1099.00,677.57
             1099.00,677.57 1082.00,680.16 1082.00,680.16
             1082.00,680.16 1065.00,685.54 1065.00,685.54
             1065.00,685.54 1056.00,686.09 1056.00,686.09
             1056.00,686.09 1047.00,687.82 1047.00,687.82
             1040.16,688.64 1039.60,687.51 1031.00,689.66
             1021.75,691.98 1019.83,695.51 1014.00,696.66
             1007.35,697.97 1000.72,698.01 994.00,697.75
             983.81,697.34 973.95,701.12 964.00,702.54
             959.10,703.27 958.01,702.17 954.00,702.54
             954.00,702.54 944.00,703.86 944.00,703.86
             944.00,703.86 932.00,703.86 932.00,703.86
             925.82,704.60 920.96,707.09 914.00,706.09
             914.00,706.09 906.00,703.91 906.00,703.91
             906.00,703.91 895.00,700.92 895.00,700.92
             887.20,698.25 879.12,694.66 871.00,692.89
             871.00,692.89 859.00,692.89 859.00,692.89
             859.00,692.89 835.00,687.43 835.00,687.43
             835.00,687.43 819.00,685.71 819.00,685.71
             819.00,685.71 806.00,683.16 806.00,683.16
             806.00,683.16 791.00,681.68 791.00,681.68
             791.00,681.68 773.00,676.50 773.00,676.50
             773.00,676.50 755.00,672.46 755.00,672.46
             755.00,672.46 747.00,671.37 747.00,671.37
             747.00,671.37 725.00,662.53 725.00,662.53
             725.00,662.53 707.00,657.30 707.00,657.30
             707.00,657.30 692.00,650.94 692.00,650.94
             692.00,650.94 679.00,646.77 679.00,646.77
             679.00,646.77 663.00,639.20 663.00,639.20
             663.00,639.20 650.00,635.23 650.00,635.23
             650.00,635.23 635.00,629.40 635.00,629.40
             635.00,629.40 627.00,625.32 627.00,625.32
             622.38,623.16 606.72,617.57 602.00,617.20
             592.49,616.47 589.52,630.05 585.69,637.00
             579.26,648.65 557.22,672.27 547.00,681.28
             541.48,686.15 536.31,694.46 528.00,690.95
             521.56,688.23 514.44,681.35 519.60,674.10
             519.60,674.10 538.99,659.54 538.99,659.54
             543.18,655.99 547.54,650.25 551.28,646.00
             555.13,641.63 559.31,638.02 562.44,633.00
             562.44,633.00 567.88,621.00 567.88,621.00
             570.23,616.85 576.00,610.84 575.24,606.01
             574.64,602.17 565.24,595.08 562.00,592.04
             559.19,589.40 552.76,584.22 549.00,583.47
             543.90,582.46 541.61,586.18 539.46,590.00
             539.46,590.00 527.14,614.00 527.14,614.00
             527.14,614.00 511.23,635.00 511.23,635.00
             498.15,652.11 494.36,657.40 478.00,672.17
             471.44,678.09 467.59,681.93 460.00,686.92
             453.00,691.52 436.12,703.55 428.18,697.35
             423.20,693.46 421.36,687.07 426.23,682.27
             428.75,679.78 436.47,676.63 440.00,674.89
             445.21,672.33 447.43,670.48 452.00,667.15
             452.00,667.15 462.00,659.70 462.00,659.70
             474.49,649.02 500.06,621.01 508.54,607.00
             508.54,607.00 514.32,595.00 514.32,595.00
             517.58,588.80 527.94,574.62 526.39,568.00
             524.71,560.79 510.88,549.16 505.29,544.00
             505.29,544.00 486.18,525.00 486.18,525.00
             486.18,525.00 480.68,518.09 480.68,518.09
             480.68,518.09 473.09,510.96 473.09,510.96
             473.09,510.96 463.09,499.00 463.09,499.00
             463.09,499.00 445.90,474.00 445.90,474.00
             445.90,474.00 437.16,457.00 437.16,457.00
             437.16,457.00 423.93,432.00 423.93,432.00
             423.93,432.00 418.58,414.00 418.58,414.00
             418.58,414.00 414.77,403.00 414.77,403.00
             414.77,403.00 412.23,392.00 412.23,392.00
             412.23,392.00 408.70,383.00 408.70,383.00
             408.70,383.00 402.45,361.00 402.45,361.00
             402.45,361.00 397.04,348.00 397.04,348.00
             397.04,348.00 395.39,333.00 395.39,333.00
             394.61,328.60 393.10,315.59 389.52,313.18
             384.60,309.87 376.72,318.85 373.00,321.79
             373.00,321.79 355.00,335.01 355.00,335.01
             355.00,335.01 346.00,341.90 346.00,341.90
             346.00,341.90 337.00,347.22 337.00,347.22
             331.32,351.06 327.09,356.14 320.04,351.66
             318.11,350.43 316.57,348.91 315.44,346.91
             314.66,345.54 314.01,343.56 313.77,342.00
             311.79,329.36 324.36,329.10 332.00,324.52
             332.00,324.52 342.00,317.16 342.00,317.16
             342.00,317.16 352.00,310.51 352.00,310.51
             352.00,310.51 367.99,297.15 367.99,297.15
             374.82,290.99 379.93,284.82 377.39,275.00
             375.98,269.53 372.43,263.42 366.04,267.60
             363.79,269.07 360.12,273.76 357.96,276.00
             354.04,280.05 344.83,288.16 340.00,290.82
             334.22,293.99 325.98,295.70 322.89,287.96
             319.40,279.22 329.73,274.03 335.00,268.96
             344.91,259.44 348.39,254.35 353.72,242.00
             355.13,238.72 357.80,233.46 357.71,230.00
             357.52,221.76 346.86,200.43 343.45,192.00
             343.45,192.00 339.65,181.00 339.65,181.00
             339.65,181.00 316.47,141.00 316.47,141.00
             316.47,141.00 306.04,130.00 306.04,130.00
             293.45,116.85 282.47,107.59 267.00,97.94
             267.00,97.94 257.00,91.40 257.00,91.40
             257.00,91.40 248.00,87.59 248.00,87.59
             248.00,87.59 240.00,82.73 240.00,82.73
             238.00,82.00 223.73,80.95 221.00,81.01
             221.00,81.01 213.00,81.66 213.00,81.66
             213.00,81.66 206.00,80.80 206.00,80.80
             206.00,80.80 190.00,80.80 190.00,80.80
             179.55,81.19 173.83,84.70 165.00,89.72 Z
           M 1536.00,589.92
           C 1536.00,589.92 1508.00,594.47 1508.00,594.47
             1508.00,594.47 1491.00,599.48 1491.00,599.48
             1491.00,599.48 1471.00,602.09 1471.00,602.09
             1471.00,602.09 1455.00,606.76 1455.00,606.76
             1455.00,606.76 1443.00,608.32 1443.00,608.32
             1443.00,608.32 1432.00,611.29 1432.00,611.29
             1432.00,611.29 1423.00,613.68 1423.00,613.68
             1414.58,615.07 1408.55,614.88 1400.00,617.67
             1397.44,618.51 1392.32,619.97 1390.43,621.70
             1386.86,624.97 1388.29,632.44 1387.83,637.00
             1387.10,644.31 1384.84,648.34 1382.67,655.00
             1381.54,658.48 1380.79,663.00 1378.99,666.00
             1375.12,672.46 1359.97,686.31 1354.04,692.09
             1354.04,692.09 1345.96,701.00 1345.96,701.00
             1341.02,706.16 1335.63,711.08 1330.00,715.49
             1320.67,722.80 1315.16,724.86 1305.00,729.82
             1305.00,729.82 1297.00,734.10 1297.00,734.10
             1292.12,736.33 1278.22,741.08 1273.00,742.18
             1273.00,742.18 1263.00,743.67 1263.00,743.67
             1263.00,743.67 1252.00,746.84 1252.00,746.84
             1252.00,746.84 1226.00,752.54 1226.00,752.54
             1226.00,752.54 1203.00,755.14 1203.00,755.14
             1183.87,758.26 1165.53,762.97 1146.00,763.00
             1146.00,763.00 1123.00,765.00 1123.00,765.00
             1106.09,765.03 1092.52,767.35 1076.00,769.70
             1076.00,769.70 1066.00,770.30 1066.00,770.30
             1066.00,770.30 1036.00,774.85 1036.00,774.85
             1036.00,774.85 1027.00,774.85 1027.00,774.85
             1027.00,774.85 1012.00,774.85 1012.00,774.85
             1012.00,774.85 1002.00,774.00 1002.00,774.00
             1002.00,774.00 990.00,774.00 990.00,774.00
             982.04,774.01 974.87,775.74 967.09,776.89
             967.09,776.89 958.99,777.45 958.99,777.45
             958.99,777.45 940.00,780.15 940.00,780.15
             933.16,781.01 930.17,782.91 923.00,783.00
             907.19,783.19 882.79,785.76 868.00,791.09
             868.00,791.09 857.00,796.22 857.00,796.22
             857.00,796.22 848.00,799.99 848.00,799.99
             841.08,803.46 835.31,808.75 829.00,813.10
             829.00,813.10 800.00,833.38 800.00,833.38
             800.00,833.38 791.00,841.68 791.00,841.68
             780.88,850.11 768.98,856.91 760.30,867.00
             760.30,867.00 752.26,878.00 752.26,878.00
             738.11,897.58 736.05,904.31 725.14,924.00
             716.02,940.45 700.66,967.24 696.66,985.00
             696.66,985.00 694.27,997.00 694.27,997.00
             694.27,997.00 689.42,1014.00 689.42,1014.00
             689.42,1014.00 686.56,1031.00 686.56,1031.00
             685.33,1038.66 683.42,1046.17 683.75,1054.00
             683.75,1054.00 686.04,1073.00 686.04,1073.00
             686.04,1073.00 686.04,1083.00 686.04,1083.00
             686.87,1090.23 690.62,1102.37 693.62,1109.00
             693.62,1109.00 702.55,1128.00 702.55,1128.00
             703.99,1131.50 705.06,1136.00 708.21,1138.41
             711.60,1140.99 719.78,1141.04 724.00,1141.00
             724.00,1141.00 739.00,1140.01 739.00,1140.01
             739.00,1140.01 757.00,1141.67 757.00,1141.67
             757.00,1141.67 768.00,1144.55 768.00,1144.55
             768.00,1144.55 786.00,1147.41 786.00,1147.41
             786.00,1147.41 802.00,1149.18 802.00,1149.18
             802.00,1149.18 814.00,1151.57 814.00,1151.57
             814.00,1151.57 839.00,1155.25 839.00,1155.25
             839.00,1155.25 885.00,1163.73 885.00,1163.73
             885.00,1163.73 918.00,1168.71 918.00,1168.71
             918.00,1168.71 952.00,1172.29 952.00,1172.29
             952.00,1172.29 972.00,1176.56 972.00,1176.56
             972.00,1176.56 981.00,1177.44 981.00,1177.44
             981.00,1177.44 1018.00,1183.72 1018.00,1183.72
             1018.00,1183.72 1046.00,1187.32 1046.00,1187.32
             1046.00,1187.32 1055.00,1189.39 1055.00,1189.39
             1055.00,1189.39 1101.00,1198.42 1101.00,1198.42
             1110.82,1200.20 1115.42,1201.98 1126.00,1202.00
             1126.00,1202.00 1137.00,1202.00 1137.00,1202.00
             1137.00,1202.00 1154.00,1203.83 1154.00,1203.83
             1154.00,1203.83 1195.00,1208.29 1195.00,1208.29
             1195.00,1208.29 1220.00,1211.83 1220.00,1211.83
             1220.00,1211.83 1248.00,1214.00 1248.00,1214.00
             1248.00,1214.00 1270.00,1216.20 1270.00,1216.20
             1270.00,1216.20 1279.00,1216.20 1279.00,1216.20
             1279.00,1216.20 1296.00,1216.79 1296.00,1216.79
             1296.00,1216.79 1305.00,1216.08 1305.00,1216.08
             1305.00,1216.08 1322.00,1217.00 1322.00,1217.00
             1322.00,1217.00 1338.00,1217.91 1338.00,1217.91
             1338.00,1217.91 1356.00,1217.00 1356.00,1217.00
             1356.00,1217.00 1385.00,1218.98 1385.00,1218.98
             1385.00,1218.98 1401.00,1218.01 1401.00,1218.01
             1401.00,1218.01 1410.00,1218.96 1410.00,1218.96
             1410.00,1218.96 1421.00,1218.96 1421.00,1218.96
             1421.00,1218.96 1445.00,1221.00 1445.00,1221.00
             1445.00,1221.00 1459.00,1221.00 1459.00,1221.00
             1459.00,1221.00 1476.00,1222.00 1476.00,1222.00
             1476.00,1222.00 1500.00,1224.00 1500.00,1224.00
             1500.00,1224.00 1509.00,1224.00 1509.00,1224.00
             1518.77,1224.80 1523.35,1228.78 1530.00,1230.32
             1530.00,1230.32 1570.00,1235.17 1570.00,1235.17
             1570.00,1235.17 1589.98,1235.17 1589.98,1235.17
             1591.63,1234.97 1593.06,1234.19 1593.98,1232.72
             1595.55,1230.21 1594.68,1226.66 1593.98,1224.00
             1593.98,1224.00 1587.86,1206.00 1587.86,1206.00
             1587.86,1206.00 1581.91,1188.00 1581.91,1188.00
             1581.91,1188.00 1577.79,1178.00 1577.79,1178.00
             1577.79,1178.00 1575.58,1167.00 1575.58,1167.00
             1575.58,1167.00 1570.21,1150.00 1570.21,1150.00
             1570.21,1150.00 1565.52,1132.00 1565.52,1132.00
             1565.52,1132.00 1561.29,1119.00 1561.29,1119.00
             1561.29,1119.00 1555.89,1097.00 1555.89,1097.00
             1555.89,1097.00 1554.22,1089.00 1554.22,1089.00
             1554.22,1089.00 1549.48,1076.00 1549.48,1076.00
             1549.48,1076.00 1545.10,1053.00 1545.10,1053.00
             1545.10,1053.00 1539.32,1032.00 1539.32,1032.00
             1538.62,1027.73 1539.47,1025.32 1537.71,1017.00
             1537.71,1017.00 1532.08,997.00 1532.08,997.00
             1532.08,997.00 1530.57,981.00 1530.57,981.00
             1528.05,963.44 1524.92,945.79 1525.00,928.00
             1525.00,928.00 1526.00,906.00 1526.00,906.00
             1526.00,906.00 1528.17,876.00 1528.17,876.00
             1528.17,876.00 1530.00,857.00 1530.00,857.00
             1530.00,857.00 1530.00,842.00 1530.00,842.00
             1530.00,842.00 1528.85,828.00 1528.85,828.00
             1528.85,828.00 1529.96,818.00 1529.96,818.00
             1529.96,818.00 1529.96,809.00 1529.96,809.00
             1529.96,809.00 1530.90,802.00 1530.90,802.00
             1530.90,802.00 1530.21,792.00 1530.21,792.00
             1530.21,792.00 1534.00,756.00 1534.00,756.00
             1534.13,744.89 1535.44,740.38 1536.71,730.00
             1536.71,730.00 1537.52,719.00 1537.52,719.00
             1537.52,719.00 1542.76,700.00 1542.76,700.00
             1542.76,700.00 1547.54,679.00 1547.54,679.00
             1547.54,679.00 1549.43,669.00 1549.43,669.00
             1549.43,669.00 1561.09,636.00 1561.09,636.00
             1561.09,636.00 1564.81,625.00 1564.81,625.00
             1567.83,617.02 1570.68,608.92 1575.93,602.04
             1579.08,597.90 1585.37,593.95 1585.37,590.06
             1585.37,585.79 1579.92,586.02 1577.00,585.90
             1577.00,585.90 1573.00,585.90 1573.00,585.90
             1573.00,585.90 1566.00,585.90 1566.00,585.90
             1555.43,585.94 1546.30,588.18 1536.00,589.92 Z
           M 1593.35,619.00
           C 1588.58,627.41 1586.09,634.15 1582.55,643.00
             1582.55,643.00 1569.04,683.00 1569.04,683.00
             1569.04,683.00 1565.79,703.00 1565.79,703.00
             1565.79,703.00 1560.81,720.00 1560.81,720.00
             1558.75,730.05 1559.11,731.22 1559.00,741.00
             1559.00,741.00 1558.00,757.00 1558.00,757.00
             1558.00,757.00 1555.00,785.00 1555.00,785.00
             1555.00,785.00 1554.00,851.00 1554.00,851.00
             1554.00,851.00 1551.00,882.00 1551.00,882.00
             1551.00,882.00 1551.00,891.00 1551.00,891.00
             1551.00,891.00 1549.00,909.00 1549.00,909.00
             1549.00,909.00 1549.00,927.00 1549.00,927.00
             1549.00,927.00 1549.00,943.00 1549.00,943.00
             1548.92,954.31 1550.32,956.61 1551.72,967.00
             1551.72,967.00 1557.45,1006.00 1557.45,1006.00
             1557.45,1006.00 1561.19,1021.00 1561.19,1021.00
             1566.04,1044.86 1570.40,1068.72 1577.66,1092.00
             1577.66,1092.00 1580.75,1105.00 1580.75,1105.00
             1580.75,1105.00 1595.96,1158.00 1595.96,1158.00
             1595.96,1158.00 1605.09,1189.00 1605.09,1189.00
             1605.09,1189.00 1609.14,1199.00 1609.14,1199.00
             1609.14,1199.00 1613.05,1211.00 1613.05,1211.00
             1613.94,1213.38 1615.29,1217.52 1618.08,1218.18
             1622.75,1219.28 1622.73,1209.89 1623.05,1207.00
             1623.05,1207.00 1625.09,1178.00 1625.09,1178.00
             1625.09,1178.00 1626.00,1166.00 1626.00,1166.00
             1626.00,1166.00 1626.00,1162.00 1626.00,1162.00
             1626.00,1162.00 1627.92,1146.00 1627.92,1146.00
             1627.92,1146.00 1627.92,1128.00 1627.92,1128.00
             1627.92,1128.00 1629.29,1109.00 1629.29,1109.00
             1629.29,1109.00 1631.83,1093.00 1631.83,1093.00
             1631.83,1093.00 1634.00,1058.00 1634.00,1058.00
             1634.01,1049.04 1635.12,1049.10 1635.91,1042.00
             1635.91,1042.00 1635.91,1020.00 1635.91,1020.00
             1635.91,1020.00 1634.18,993.00 1634.18,993.00
             1634.18,993.00 1634.90,985.00 1634.90,985.00
             1634.73,981.26 1633.84,979.52 1634.09,975.00
             1634.09,975.00 1635.96,956.00 1635.96,956.00
             1635.96,956.00 1635.00,939.00 1635.00,939.00
             1635.00,939.00 1635.86,914.00 1635.86,914.00
             1635.86,914.00 1635.00,899.00 1635.00,899.00
             1635.00,899.00 1635.00,880.00 1635.00,880.00
             1635.00,880.00 1633.96,868.00 1633.96,868.00
             1633.96,868.00 1633.96,858.00 1633.96,858.00
             1633.96,858.00 1631.94,846.00 1631.94,846.00
             1631.94,846.00 1631.94,838.00 1631.94,838.00
             1631.02,832.38 1630.08,830.21 1630.00,824.00
             1630.00,824.00 1630.00,811.00 1630.00,811.00
             1630.00,811.00 1630.90,799.00 1630.90,799.00
             1630.90,799.00 1629.18,785.00 1629.18,785.00
             1629.18,785.00 1629.18,772.00 1629.18,772.00
             1629.18,772.00 1630.00,758.00 1630.00,758.00
             1630.00,758.00 1630.00,721.00 1630.00,721.00
             1630.00,721.00 1629.09,711.00 1629.09,711.00
             1629.09,711.00 1627.83,691.00 1627.83,691.00
             1627.83,691.00 1626.17,680.00 1626.17,680.00
             1626.17,680.00 1624.83,658.00 1624.83,658.00
             1624.83,658.00 1621.98,636.00 1621.98,636.00
             1621.98,636.00 1621.98,628.00 1621.98,628.00
             1620.42,618.99 1611.70,608.49 1602.01,609.45
             1596.64,611.62 1596.05,614.23 1593.35,619.00 Z" />
             <path id="Selection"
                   fill="#000" stroke="none" stroke-width="0"
                   d="M 1616.67,619.09
                      C 1618.17,621.28 1620.06,625.40 1620.61,628.00
                        1620.61,628.00 1622.91,653.00 1622.91,653.00
                        1622.91,653.00 1625.00,674.00 1625.00,674.00
                        1625.00,674.00 1625.00,683.00 1625.00,683.00
                        1625.88,690.10 1626.99,690.04 1627.00,699.00
                        1627.02,711.39 1627.87,709.06 1628.92,719.00
                        1628.92,719.00 1628.92,734.00 1628.92,734.00
                        1628.92,734.00 1628.09,749.00 1628.09,749.00
                        1628.09,749.00 1628.96,760.00 1628.96,760.00
                        1628.96,760.00 1628.05,768.00 1628.05,768.00
                        1628.05,768.00 1628.05,783.00 1628.05,783.00
                        1628.05,783.00 1629.00,798.00 1629.00,798.00
                        1629.00,798.00 1629.00,824.00 1629.00,824.00
                        1629.00,824.00 1634.00,883.00 1634.00,883.00
                        1634.00,883.00 1634.00,943.00 1634.00,943.00
                        1634.00,943.00 1634.82,955.00 1634.82,955.00
                        1634.82,955.00 1633.00,977.00 1633.00,977.00
                        1633.00,977.00 1633.00,993.00 1633.00,993.00
                        1633.00,993.00 1634.00,1007.00 1634.00,1007.00
                        1634.00,1007.00 1635.00,1026.00 1635.00,1026.00
                        1635.18,1041.77 1634.11,1038.60 1632.98,1051.00
                        1632.98,1051.00 1632.98,1062.00 1632.98,1062.00
                        1632.98,1062.00 1632.09,1071.00 1632.09,1071.00
                        1632.09,1071.00 1630.71,1092.00 1630.71,1092.00
                        1630.71,1092.00 1628.17,1108.00 1628.17,1108.00
                        1628.17,1108.00 1627.00,1139.00 1627.00,1139.00
                        1627.00,1139.00 1625.00,1161.00 1625.00,1161.00
                        1625.00,1161.00 1623.00,1187.00 1623.00,1187.00
                        1623.00,1187.00 1623.00,1198.00 1623.00,1198.00
                        1623.00,1198.00 1620.89,1212.94 1620.89,1212.94
                        1620.53,1214.61 1619.68,1217.04 1617.44,1215.83
                        1615.43,1214.75 1613.72,1209.17 1613.03,1207.00
                        1613.03,1207.00 1604.98,1184.00 1604.98,1184.00
                        1604.98,1184.00 1588.09,1125.00 1588.09,1125.00
                        1588.09,1125.00 1581.92,1104.00 1581.92,1104.00
                        1581.92,1104.00 1578.86,1091.00 1578.86,1091.00
                        1578.86,1091.00 1572.88,1070.00 1572.88,1070.00
                        1572.88,1070.00 1561.99,1018.00 1561.99,1018.00
                        1561.99,1018.00 1558.45,1004.00 1558.45,1004.00
                        1558.45,1004.00 1552.72,965.00 1552.72,965.00
                        1552.72,965.00 1550.21,948.00 1550.21,948.00
                        1550.21,948.00 1550.97,938.00 1550.97,938.00
                        1550.97,938.00 1550.04,929.00 1550.04,929.00
                        1550.04,929.00 1550.04,915.00 1550.04,915.00
                        1550.04,915.00 1552.90,888.00 1552.90,888.00
                        1552.90,888.00 1552.90,877.00 1552.90,877.00
                        1552.90,877.00 1555.05,855.00 1555.05,855.00
                        1555.05,855.00 1555.05,835.00 1555.05,835.00
                        1555.05,835.00 1556.00,821.00 1556.00,821.00
                        1556.00,821.00 1556.00,788.00 1556.00,788.00
                        1556.00,788.00 1560.00,748.00 1560.00,748.00
                        1560.12,737.42 1559.91,730.66 1562.21,720.00
                        1562.21,720.00 1567.19,703.00 1567.19,703.00
                        1567.19,703.00 1570.24,684.00 1570.24,684.00
                        1570.24,684.00 1584.28,642.00 1584.28,642.00
                        1588.03,633.27 1593.72,615.34 1602.04,610.78
                        1608.09,609.89 1613.38,614.26 1616.67,619.09 Z" />
                        <path id="Selection"
                              fill="#808080" stroke="none" stroke-width="0"
                              d="M 201.00,82.00
                                 C 201.00,82.00 213.00,82.97 213.00,82.97
                                   213.00,82.97 222.00,82.10 222.00,82.10
                                   222.00,82.10 239.00,83.85 239.00,83.85
                                   242.57,85.05 244.82,87.26 248.00,88.96
                                   248.00,88.96 257.00,92.90 257.00,92.90
                                   257.00,92.90 266.00,98.91 266.00,98.91
                                   283.49,110.16 291.79,116.66 306.09,132.00
                                   306.09,132.00 315.47,142.00 315.47,142.00
                                   320.21,148.15 328.36,163.66 332.32,171.00
                                   332.32,171.00 338.21,181.00 338.21,181.00
                                   338.21,181.00 341.46,191.00 341.46,191.00
                                   345.00,200.03 355.17,219.06 355.89,228.00
                                   356.33,233.39 354.35,237.21 352.28,242.00
                                   346.11,256.30 344.28,257.98 333.00,268.99
                                   329.96,271.95 323.74,276.76 321.87,280.00
                                   317.50,287.58 324.94,295.76 333.00,294.77
                                   341.24,293.76 354.13,281.79 359.83,275.91
                                   361.91,273.77 365.65,268.48 368.28,267.63
                                   373.34,266.00 375.75,273.37 376.48,277.00
                                   378.15,285.29 372.78,291.36 367.00,296.42
                                   367.00,296.42 351.00,309.70 351.00,309.70
                                   351.00,309.70 343.00,314.78 343.00,314.78
                                   337.98,318.33 334.91,321.69 329.00,324.62
                                   329.00,324.62 319.00,328.72 319.00,328.72
                                   311.58,333.59 309.95,341.93 315.42,348.98
                                   324.31,360.46 331.23,352.44 339.00,347.44
                                   339.00,347.44 371.00,324.87 371.00,324.87
                                   371.00,324.87 384.98,314.16 384.98,314.16
                                   390.46,312.28 392.06,321.37 392.74,325.00
                                   392.74,325.00 395.68,348.00 395.68,348.00
                                   396.81,352.93 398.81,355.58 400.54,360.00
                                   400.54,360.00 404.29,373.00 404.29,373.00
                                   404.29,373.00 407.23,383.00 407.23,383.00
                                   407.23,383.00 411.22,393.00 411.22,393.00
                                   411.22,393.00 413.30,403.00 413.30,403.00
                                   413.30,403.00 422.47,432.00 422.47,432.00
                                   422.47,432.00 435.16,456.00 435.16,456.00
                                   435.16,456.00 445.04,475.00 445.04,475.00
                                   449.03,482.01 464.15,502.51 469.61,508.99
                                   469.61,508.99 478.82,518.04 478.82,518.04
                                   478.82,518.04 487.04,528.00 487.04,528.00
                                   487.04,528.00 498.00,538.09 498.00,538.09
                                   498.00,538.09 511.00,551.00 511.00,551.00
                                   515.78,555.78 524.78,562.92 524.90,570.00
                                   525.01,576.32 516.14,589.04 512.86,595.00
                                   512.86,595.00 506.45,608.00 506.45,608.00
                                   497.14,622.56 471.48,650.71 458.00,661.33
                                   447.37,669.71 444.83,671.05 433.00,676.75
                                   428.18,679.07 423.15,680.96 422.24,687.00
                                   421.29,693.28 427.64,700.77 434.00,700.71
                                   440.51,700.64 455.42,691.58 461.00,687.78
                                   480.46,674.54 496.06,656.40 510.42,638.00
                                   510.42,638.00 529.19,613.00 529.19,613.00
                                   529.19,613.00 540.80,590.02 540.80,590.02
                                   542.62,586.84 544.88,583.88 549.00,584.81
                                   552.97,585.69 559.08,591.20 562.00,594.01
                                   565.01,596.90 572.98,602.41 573.63,606.02
                                   574.48,610.67 568.18,617.78 565.90,622.00
                                   565.90,622.00 561.01,633.00 561.01,633.00
                                   557.57,638.54 540.33,656.95 535.00,661.12
                                   535.00,661.12 528.00,666.40 528.00,666.40
                                   522.75,669.94 514.93,672.97 516.52,681.00
                                   517.72,687.09 528.75,695.18 535.00,692.95
                                   539.14,691.48 542.67,686.57 546.04,683.59
                                   559.37,671.83 579.18,651.49 587.69,636.00
                                   591.57,628.94 593.63,616.34 604.00,618.76
                                   619.13,622.29 632.65,629.95 647.00,635.54
                                   647.00,635.54 661.00,639.81 661.00,639.81
                                   661.00,639.81 681.00,649.07 681.00,649.07
                                   681.00,649.07 691.00,652.08 691.00,652.08
                                   691.00,652.08 706.00,658.30 706.00,658.30
                                   706.00,658.30 724.00,663.69 724.00,663.69
                                   724.00,663.69 745.00,672.04 745.00,672.04
                                   745.00,672.04 770.00,677.29 770.00,677.29
                                   770.00,677.29 790.00,682.91 790.00,682.91
                                   790.00,682.91 804.00,684.17 804.00,684.17
                                   804.00,684.17 817.00,686.71 817.00,686.71
                                   817.00,686.71 837.00,689.08 837.00,689.08
                                   837.00,689.08 858.00,693.76 858.00,693.76
                                   870.82,695.66 860.16,691.33 883.00,697.91
                                   890.81,700.16 907.30,707.18 915.00,707.78
                                   915.00,707.78 938.00,705.02 938.00,705.02
                                   938.00,705.02 966.00,703.56 966.00,703.56
                                   975.30,702.10 984.44,698.67 994.00,699.04
                                   994.00,699.04 1001.00,699.66 1001.00,699.66
                                   1001.00,699.66 1016.00,697.37 1016.00,697.37
                                   1020.93,695.89 1022.99,693.06 1032.00,690.90
                                   1032.00,690.90 1045.00,689.56 1045.00,689.56
                                   1045.00,689.56 1057.00,687.17 1057.00,687.17
                                   1057.00,687.17 1067.00,686.53 1067.00,686.53
                                   1067.00,686.53 1086.00,680.67 1086.00,680.67
                                   1086.00,680.67 1101.00,678.59 1101.00,678.59
                                   1101.00,678.59 1125.00,674.28 1125.00,674.28
                                   1135.15,674.08 1144.16,671.04 1154.00,669.32
                                   1154.00,669.32 1167.00,667.68 1167.00,667.68
                                   1167.00,667.68 1179.00,663.67 1179.00,663.67
                                   1179.00,663.67 1203.00,659.79 1203.00,659.79
                                   1203.00,659.79 1222.00,654.46 1222.00,654.46
                                   1222.00,654.46 1241.00,652.49 1241.00,652.49
                                   1241.00,652.49 1252.00,649.24 1252.00,649.24
                                   1252.00,649.24 1273.00,645.55 1273.00,645.55
                                   1273.00,645.55 1291.00,641.00 1291.00,641.00
                                   1307.91,637.67 1303.77,640.68 1323.00,635.29
                                   1323.00,635.29 1340.00,630.94 1340.00,630.94
                                   1340.00,630.94 1349.00,630.94 1349.00,630.94
                                   1352.08,630.26 1357.87,628.26 1360.69,629.60
                                   1365.20,631.76 1359.55,643.39 1358.33,647.00
                                   1354.54,658.23 1353.38,656.18 1346.17,664.01
                                   1346.17,664.01 1336.91,674.96 1336.91,674.96
                                   1336.91,674.96 1321.00,689.96 1321.00,689.96
                                   1312.40,698.17 1312.53,695.90 1305.00,700.66
                                   1301.20,703.06 1298.08,706.48 1294.00,708.44
                                   1294.00,708.44 1257.00,721.48 1257.00,721.48
                                   1257.00,721.48 1242.00,723.60 1242.00,723.60
                                   1242.00,723.60 1227.09,727.47 1227.09,727.47
                                   1227.09,727.47 1218.00,728.31 1218.00,728.31
                                   1218.00,728.31 1209.00,730.71 1209.00,730.71
                                   1209.00,730.71 1192.00,733.27 1192.00,733.27
                                   1192.00,733.27 1175.00,736.43 1175.00,736.43
                                   1175.00,736.43 1164.00,738.66 1164.00,738.66
                                   1164.00,738.66 1154.00,738.66 1154.00,738.66
                                   1154.00,738.66 1128.00,741.00 1128.00,741.00
                                   1128.00,741.00 1120.00,741.00 1120.00,741.00
                                   1120.00,741.00 1107.00,742.00 1107.00,742.00
                                   1107.00,742.00 1095.00,743.04 1095.00,743.04
                                   1095.00,743.04 1085.00,743.04 1085.00,743.04
                                   1085.00,743.04 1065.00,746.68 1065.00,746.68
                                   1065.00,746.68 1055.00,747.46 1055.00,747.46
                                   1046.77,748.95 1049.29,749.98 1039.00,750.00
                                   1039.00,750.00 1025.00,749.34 1025.00,749.34
                                   1025.00,749.34 1016.00,750.00 1016.00,750.00
                                   1016.00,750.00 1000.00,749.00 1000.00,749.00
                                   986.65,748.85 985.12,750.76 974.00,752.00
                                   974.00,752.00 964.00,752.00 964.00,752.00
                                   964.00,752.00 942.00,755.71 942.00,755.71
                                   942.00,755.71 934.00,756.29 934.00,756.29
                                   934.00,756.29 925.00,758.00 925.00,758.00
                                   925.00,758.00 916.00,758.00 916.00,758.00
                                   916.00,758.00 900.00,760.83 900.00,760.83
                                   900.00,760.83 888.00,760.83 888.00,760.83
                                   888.00,760.83 873.00,765.49 873.00,765.49
                                   873.00,765.49 862.00,767.29 862.00,767.29
                                   856.96,768.34 843.50,773.45 839.00,775.90
                                   833.63,778.82 819.86,788.46 815.00,792.37
                                   810.89,795.67 810.03,797.29 805.00,800.56
                                   805.00,800.56 779.00,818.51 779.00,818.51
                                   779.00,818.51 757.00,838.91 757.00,838.91
                                   757.00,838.91 746.04,848.09 746.04,848.09
                                   746.04,848.09 738.91,855.96 738.91,855.96
                                   738.91,855.96 731.00,863.09 731.00,863.09
                                   723.17,870.39 717.30,876.95 711.54,886.00
                                   707.30,892.66 703.12,903.54 699.69,911.00
                                   699.69,911.00 692.33,926.00 692.33,926.00
                                   692.33,926.00 687.69,938.00 687.69,938.00
                                   684.53,944.91 682.76,947.19 680.35,955.00
                                   678.08,962.33 679.62,963.35 678.68,969.00
                                   678.68,969.00 676.15,978.00 676.15,978.00
                                   676.15,978.00 673.55,990.00 673.55,990.00
                                   671.09,1002.21 664.05,1022.09 664.00,1033.00
                                   664.00,1033.00 664.00,1057.00 664.00,1057.00
                                   664.00,1057.00 665.83,1076.00 665.83,1076.00
                                   665.83,1076.00 666.38,1086.00 666.38,1086.00
                                   666.38,1086.00 669.76,1097.00 669.76,1097.00
                                   671.27,1103.37 671.45,1107.66 674.02,1114.00
                                   674.02,1114.00 682.95,1133.00 682.95,1133.00
                                   682.95,1133.00 688.53,1141.00 688.53,1141.00
                                   690.39,1144.01 693.51,1149.39 692.36,1152.98
                                   690.39,1159.13 675.87,1162.95 670.00,1165.75
                                   670.00,1165.75 650.00,1173.97 650.00,1173.97
                                   650.00,1173.97 638.00,1177.10 638.00,1177.10
                                   638.00,1177.10 625.00,1182.94 625.00,1182.94
                                   625.00,1182.94 596.00,1192.81 596.00,1192.81
                                   596.00,1192.81 575.00,1200.72 575.00,1200.72
                                   572.67,1201.69 568.76,1203.47 566.35,1201.94
                                   564.01,1200.44 564.85,1197.30 564.90,1195.00
                                   565.00,1190.81 564.29,1188.84 562.80,1185.00
                                   556.92,1169.85 552.62,1163.62 541.00,1152.00
                                   537.72,1148.72 530.48,1139.79 525.43,1144.47
                                   520.47,1149.07 526.10,1158.49 528.73,1163.00
                                   535.81,1175.15 547.07,1183.10 549.27,1198.00
                                   549.57,1200.06 550.12,1202.94 549.84,1204.98
                                   549.10,1210.41 539.71,1213.22 535.00,1214.51
                                   535.00,1214.51 485.00,1227.08 485.00,1227.08
                                   485.00,1227.08 475.00,1228.67 475.00,1228.67
                                   475.00,1228.67 463.00,1232.10 463.00,1232.10
                                   463.00,1232.10 450.00,1234.54 450.00,1234.54
                                   450.00,1234.54 441.00,1235.29 441.00,1235.29
                                   441.00,1235.29 426.00,1237.72 426.00,1237.72
                                   413.65,1239.29 401.43,1239.02 389.00,1239.00
                                   389.00,1239.00 353.00,1234.49 353.00,1234.49
                                   353.00,1234.49 341.00,1231.46 341.00,1231.46
                                   341.00,1231.46 316.00,1229.33 316.00,1229.33
                                   316.00,1229.33 301.00,1225.44 301.00,1225.44
                                   301.00,1225.44 292.00,1221.55 292.00,1221.55
                                   288.74,1220.72 281.70,1221.04 278.00,1221.00
                                   278.00,1221.00 253.00,1218.28 253.00,1218.28
                                   253.00,1218.28 244.00,1217.54 244.00,1217.54
                                   244.00,1217.54 233.00,1214.51 233.00,1214.51
                                   233.00,1214.51 226.00,1213.15 226.00,1213.15
                                   226.00,1213.15 218.00,1209.47 218.00,1209.47
                                   213.94,1207.83 212.00,1207.96 208.00,1205.20
                                   202.46,1201.36 198.75,1196.34 194.85,1191.00
                                   192.76,1188.14 190.39,1185.26 188.96,1182.00
                                   188.96,1182.00 182.30,1151.00 182.30,1151.00
                                   180.85,1140.94 182.87,1142.81 178.39,1131.00
                                   173.38,1117.81 166.39,1093.86 164.08,1080.00
                                   163.07,1073.95 160.65,1065.82 163.08,1060.00
                                   163.08,1060.00 168.73,1050.00 168.73,1050.00
                                   172.71,1042.05 172.41,1034.98 179.00,1033.31
                                   182.08,1032.54 193.29,1034.08 197.00,1034.58
                                   197.00,1034.58 224.00,1037.13 224.00,1037.13
                                   230.08,1037.51 239.11,1036.09 240.92,1028.99
                                   243.12,1020.38 232.30,1016.58 226.00,1015.59
                                   226.00,1015.59 217.00,1014.72 217.00,1014.72
                                   217.00,1014.72 198.00,1012.17 198.00,1012.17
                                   198.00,1012.17 188.00,1011.58 188.00,1011.58
                                   179.98,1010.48 175.18,1010.60 175.00,1001.00
                                   175.00,1001.00 175.00,991.00 175.00,991.00
                                   175.00,991.00 174.00,971.00 174.00,971.00
                                   174.15,959.98 182.09,959.77 191.00,956.47
                                   198.56,953.67 205.83,949.92 213.00,946.24
                                   217.70,943.83 226.43,938.51 224.10,932.04
                                   221.73,925.45 213.06,923.54 207.00,924.82
                                   197.54,926.82 180.34,938.37 168.00,938.89
                                   159.29,939.26 154.60,930.18 150.32,924.00
                                   150.32,924.00 145.55,918.00 145.55,918.00
                                   140.75,911.41 135.92,896.90 132.57,889.00
                                   132.57,889.00 126.92,877.00 126.92,877.00
                                   126.92,877.00 116.67,848.00 116.67,848.00
                                   116.67,848.00 107.31,818.00 107.31,818.00
                                   107.31,818.00 100.99,801.00 100.99,801.00
                                   100.99,801.00 96.55,791.00 96.55,791.00
                                   96.55,791.00 93.46,779.00 93.46,779.00
                                   93.46,779.00 78.04,733.00 78.04,733.00
                                   78.04,733.00 72.51,711.00 72.51,711.00
                                   72.51,711.00 68.65,699.00 68.65,699.00
                                   68.65,699.00 64.55,676.00 64.55,676.00
                                   62.08,663.74 54.61,637.58 55.09,627.00
                                   55.09,627.00 53.00,601.00 53.00,601.00
                                   53.00,601.00 51.20,577.00 51.20,577.00
                                   51.20,577.00 51.20,568.00 51.20,568.00
                                   51.20,568.00 51.20,555.00 51.20,555.00
                                   51.20,555.00 53.00,536.00 53.00,536.00
                                   53.00,536.00 53.00,513.00 53.00,513.00
                                   53.00,513.00 54.00,498.00 54.00,498.00
                                   54.00,498.00 55.15,474.00 55.15,474.00
                                   55.15,474.00 55.15,462.00 55.15,462.00
                                   54.73,457.30 53.03,455.57 53.03,450.00
                                   53.03,443.60 55.40,442.03 55.07,438.00
                                   55.07,438.00 52.14,428.00 52.14,428.00
                                   52.14,428.00 52.14,411.00 52.14,411.00
                                   51.97,408.32 51.75,404.69 54.31,403.07
                                   56.72,401.46 60.43,402.56 63.00,403.07
                                   70.09,404.66 72.79,404.96 80.00,405.00
                                   80.00,405.00 92.00,405.68 92.00,405.68
                                   92.00,405.68 102.00,404.47 102.00,404.47
                                   102.00,404.47 107.00,404.47 107.00,404.47
                                   112.11,404.14 115.16,399.97 114.88,395.00
                                   114.57,389.55 108.24,379.80 102.58,378.98
                                   102.58,378.98 88.00,381.57 88.00,381.57
                                   81.49,382.51 76.40,381.91 70.00,381.00
                                   65.58,380.37 58.57,379.06 56.17,374.87
                                   53.49,370.17 56.83,355.15 56.99,349.00
                                   56.99,349.00 62.71,301.00 62.71,301.00
                                   62.71,301.00 63.43,292.00 63.43,292.00
                                   65.21,279.61 66.83,282.14 67.00,268.00
                                   67.14,256.65 73.73,243.04 78.75,233.00
                                   78.75,233.00 92.11,206.00 92.11,206.00
                                   92.11,206.00 100.12,189.00 100.12,189.00
                                   100.12,189.00 106.04,179.00 106.04,179.00
                                   106.04,179.00 108.87,171.00 108.87,171.00
                                   108.87,171.00 114.54,159.00 114.54,159.00
                                   114.54,159.00 117.20,151.00 117.20,151.00
                                   117.20,151.00 127.57,132.00 127.57,132.00
                                   134.94,119.13 137.43,112.83 149.00,102.09
                                   154.56,96.93 159.60,94.39 166.00,90.60
                                   172.02,87.04 177.20,84.34 184.00,82.52
                                   189.08,81.71 195.75,81.94 201.00,82.00 Z
                                 M 1567.00,587.22
                                 C 1570.46,587.03 1583.31,585.73 1583.75,590.13
                                   1584.09,593.53 1576.67,599.11 1574.39,602.00
                                   1569.95,607.64 1565.02,620.02 1562.54,627.00
                                   1562.54,627.00 1548.43,668.00 1548.43,668.00
                                   1548.43,668.00 1541.53,699.00 1541.53,699.00
                                   1541.53,699.00 1536.51,718.00 1536.51,718.00
                                   1536.51,718.00 1533.00,750.00 1533.00,750.00
                                   1533.00,750.00 1529.26,792.00 1529.26,792.00
                                   1529.26,792.00 1529.26,803.00 1529.26,803.00
                                   1529.26,803.00 1527.32,829.00 1527.32,829.00
                                   1527.32,829.00 1529.00,844.00 1529.00,844.00
                                   1529.00,844.00 1528.09,859.00 1528.09,859.00
                                   1528.09,859.00 1526.83,878.00 1526.83,878.00
                                   1526.83,878.00 1525.00,898.00 1525.00,898.00
                                   1525.00,898.00 1524.00,915.00 1524.00,915.00
                                   1523.66,944.67 1524.95,949.42 1528.71,978.00
                                   1528.71,978.00 1531.45,1001.00 1531.45,1001.00
                                   1531.45,1001.00 1536.49,1018.00 1536.49,1018.00
                                   1537.60,1023.44 1536.18,1025.14 1538.23,1034.00
                                   1538.23,1034.00 1544.33,1056.00 1544.33,1056.00
                                   1544.33,1056.00 1548.39,1077.00 1548.39,1077.00
                                   1548.39,1077.00 1553.55,1092.00 1553.55,1092.00
                                   1553.55,1092.00 1571.57,1158.00 1571.57,1158.00
                                   1571.57,1158.00 1574.76,1169.00 1574.76,1169.00
                                   1574.76,1169.00 1576.78,1179.00 1576.78,1179.00
                                   1576.78,1179.00 1580.46,1188.00 1580.46,1188.00
                                   1580.46,1188.00 1584.33,1200.00 1584.33,1200.00
                                   1584.33,1200.00 1592.37,1223.00 1592.37,1223.00
                                   1593.20,1225.79 1594.81,1229.94 1592.37,1232.40
                                   1590.52,1234.32 1586.51,1234.00 1584.00,1234.00
                                   1584.00,1234.00 1572.00,1234.00 1572.00,1234.00
                                   1572.00,1234.00 1530.00,1228.96 1530.00,1228.96
                                   1524.11,1227.50 1521.78,1224.90 1514.00,1223.46
                                   1514.00,1223.46 1481.00,1221.00 1481.00,1221.00
                                   1481.00,1221.00 1438.00,1219.00 1438.00,1219.00
                                   1438.00,1219.00 1405.00,1217.00 1405.00,1217.00
                                   1405.00,1217.00 1377.00,1217.00 1377.00,1217.00
                                   1377.00,1217.00 1360.00,1216.00 1360.00,1216.00
                                   1360.00,1216.00 1330.00,1216.00 1330.00,1216.00
                                   1330.00,1216.00 1315.00,1214.89 1315.00,1214.89
                                   1315.00,1214.89 1279.00,1214.89 1279.00,1214.89
                                   1279.00,1214.89 1270.00,1214.89 1270.00,1214.89
                                   1270.00,1214.89 1258.00,1212.96 1258.00,1212.96
                                   1258.00,1212.96 1242.00,1212.96 1242.00,1212.96
                                   1242.00,1212.96 1133.00,1200.18 1133.00,1200.18
                                   1133.00,1200.18 1122.00,1200.70 1122.00,1200.70
                                   1122.00,1200.70 1084.00,1193.42 1084.00,1193.42
                                   1084.00,1193.42 1070.00,1191.00 1070.00,1191.00
                                   1070.00,1191.00 1044.00,1185.75 1044.00,1185.75
                                   1044.00,1185.75 1012.00,1181.58 1012.00,1181.58
                                   1012.00,1181.58 978.00,1175.59 978.00,1175.59
                                   978.00,1175.59 969.00,1174.68 969.00,1174.68
                                   969.00,1174.68 955.00,1171.30 955.00,1171.30
                                   955.00,1171.30 938.00,1169.83 938.00,1169.83
                                   938.00,1169.83 928.00,1167.94 928.00,1167.94
                                   928.00,1167.94 920.00,1167.94 920.00,1167.94
                                   920.00,1167.94 895.00,1163.44 895.00,1163.44
                                   895.00,1163.44 887.00,1162.71 887.00,1162.71
                                   887.00,1162.71 841.00,1154.25 841.00,1154.25
                                   841.00,1154.25 816.00,1150.57 816.00,1150.57
                                   816.00,1150.57 798.00,1147.29 798.00,1147.29
                                   798.00,1147.29 777.00,1144.73 777.00,1144.73
                                   765.94,1143.10 755.24,1139.14 744.00,1139.00
                                   744.00,1139.00 718.00,1139.00 718.00,1139.00
                                   715.05,1138.99 711.71,1139.29 709.22,1137.40
                                   706.39,1135.25 705.00,1130.23 703.56,1127.00
                                   703.56,1127.00 693.43,1105.00 693.43,1105.00
                                   690.61,1096.47 687.72,1089.14 686.96,1080.00
                                   686.96,1080.00 686.96,1070.00 686.96,1070.00
                                   686.08,1062.08 684.39,1055.11 685.17,1047.00
                                   685.17,1047.00 691.48,1011.00 691.48,1011.00
                                   691.48,1011.00 697.42,988.00 697.42,988.00
                                   700.94,968.69 717.39,940.62 727.14,923.00
                                   727.14,923.00 738.46,901.00 738.46,901.00
                                   738.46,901.00 759.33,870.00 759.33,870.00
                                   763.10,865.43 778.00,852.49 783.00,848.76
                                   783.00,848.76 793.00,841.68 793.00,841.68
                                   793.00,841.68 802.00,833.52 802.00,833.52
                                   802.00,833.52 831.00,813.22 831.00,813.22
                                   837.19,808.81 840.88,805.22 848.00,801.49
                                   848.00,801.49 857.00,797.69 857.00,797.69
                                   857.00,797.69 867.00,792.92 867.00,792.92
                                   878.48,788.38 890.87,787.01 903.00,785.83
                                   909.90,785.16 912.13,783.89 920.00,784.02
                                   932.61,784.25 930.57,782.66 941.00,781.29
                                   941.00,781.29 957.00,778.94 957.00,778.94
                                   957.00,778.94 965.00,778.94 965.00,778.94
                                   965.00,778.94 986.00,775.17 986.00,775.17
                                   986.00,775.17 1014.00,776.00 1014.00,776.00
                                   1014.00,776.00 1033.00,776.00 1033.00,776.00
                                   1041.99,775.99 1053.92,773.60 1063.00,772.30
                                   1063.00,772.30 1071.00,771.72 1071.00,771.72
                                   1071.00,771.72 1101.00,767.10 1101.00,767.10
                                   1119.10,764.97 1115.88,767.37 1124.00,767.10
                                   1124.00,767.10 1136.00,765.17 1136.00,765.17
                                   1136.00,765.17 1154.00,764.00 1154.00,764.00
                                   1170.76,763.97 1188.41,758.55 1205.00,756.17
                                   1205.00,756.17 1220.00,754.17 1220.00,754.17
                                   1220.00,754.17 1228.00,753.54 1228.00,753.54
                                   1228.00,753.54 1263.00,745.24 1263.00,745.24
                                   1263.00,745.24 1274.00,743.48 1274.00,743.48
                                   1274.00,743.48 1296.00,736.10 1296.00,736.10
                                   1296.00,736.10 1305.00,731.32 1305.00,731.32
                                   1315.02,726.56 1319.79,724.81 1329.00,717.76
                                   1333.40,714.40 1342.19,706.89 1345.96,703.00
                                   1345.96,703.00 1356.00,692.04 1356.00,692.04
                                   1362.13,686.11 1374.75,674.66 1379.35,668.00
                                   1382.05,664.09 1382.62,659.44 1384.03,655.00
                                   1386.63,646.80 1388.89,644.26 1389.00,635.00
                                   1389.03,631.95 1388.61,626.82 1390.17,624.22
                                   1391.99,621.21 1396.80,620.02 1400.00,619.02
                                   1400.00,619.02 1429.00,613.58 1429.00,613.58
                                   1429.00,613.58 1444.00,609.62 1444.00,609.62
                                   1444.00,609.62 1455.00,608.10 1455.00,608.10
                                   1455.00,608.10 1473.00,603.09 1473.00,603.09
                                   1473.00,603.09 1493.00,600.48 1493.00,600.48
                                   1493.00,600.48 1510.00,595.42 1510.00,595.42
                                   1510.00,595.42 1535.00,591.56 1535.00,591.56
                                   1535.00,591.56 1558.00,587.22 1558.00,587.22
                                   1558.00,587.22 1567.00,587.22 1567.00,587.22 Z" />
</svg>
